# Blender 5.2.0 LTS
# www.blender.org
o ArenaBoard
v 9.093266 0.052500 0.000000
v 4.546633 0.052500 -7.875000
v -4.546633 0.052500 -7.875000
v -9.093266 0.052500 -0.000000
v -4.546633 0.052500 7.875000
v 4.546633 0.052500 7.875000
v 9.093266 -0.052500 0.000000
v 4.546633 -0.052500 -7.875000
v -4.546633 -0.052500 -7.875000
v -9.093266 -0.052500 -0.000000
v -4.546633 -0.052500 7.875000
v 4.546633 -0.052500 7.875000
v 4.546633 0.052500 7.875000
v 4.546633 0.052500 7.875000
v 9.093266 0.052500 0.000000
v 9.093266 0.052500 0.000000
v 4.546633 0.052500 -7.875000
v 4.546633 0.052500 -7.875000
v -4.546633 0.052500 -7.875000
v -4.546633 0.052500 -7.875000
v -9.093266 0.052500 -0.000000
v -9.093266 0.052500 -0.000000
v -4.546633 0.052500 7.875000
v -4.546633 0.052500 7.875000
v 9.093266 -0.052500 0.000000
v 9.093266 -0.052500 0.000000
v 4.546633 -0.052500 7.875000
v 4.546633 -0.052500 7.875000
v -4.546633 -0.052500 7.875000
v -4.546633 -0.052500 7.875000
v -9.093266 -0.052500 -0.000000
v -9.093266 -0.052500 -0.000000
v -4.546633 -0.052500 -7.875000
v -4.546633 -0.052500 -7.875000
v 4.546633 -0.052500 -7.875000
v 4.546633 -0.052500 -7.875000
vn -0.0000 1.0000 -0.0000
vn -0.0000 -1.0000 -0.0000
vn 0.8660 -0.0000 -0.5000
vn -0.0000 -0.0000 -1.0000
vn -0.8660 -0.0000 -0.5000
vn -0.8660 -0.0000 0.5000
vn -0.0000 -0.0000 1.0000
vn 0.8660 -0.0000 0.5000
vt 0.750000 1.000000
vt 0.000000 0.500000
vt 0.750000 0.000000
vt 0.250000 0.000000
vt 0.250000 1.000000
vt 1.000000 0.500000
s 0
f 17/1/1 21/2/1 13/3/1
f 29/4/2 33/5/2 25/6/2
f 26/6/3 18/1/3 16/6/3
f 8/1/4 20/5/4 2/1/4
f 9/5/5 22/2/5 3/5/5
f 10/2/6 24/4/6 4/2/6
f 11/4/7 14/3/7 5/4/7
f 12/3/8 1/6/8 6/3/8
f 13/3/1 15/6/1 17/1/1
f 17/1/1 19/5/1 21/2/1
f 21/2/1 23/4/1 13/3/1
f 25/6/2 27/3/2 29/4/2
f 29/4/2 31/2/2 33/5/2
f 33/5/2 35/1/2 25/6/2
f 26/6/3 36/1/3 18/1/3
f 8/1/4 34/5/4 20/5/4
f 9/5/5 32/2/5 22/2/5
f 10/2/6 30/4/6 24/4/6
f 11/4/7 28/3/7 14/3/7
f 12/3/8 7/6/8 1/6/8
