# Blender 5.2.0 LTS
# www.blender.org
o ArenaBoard
v 259.807617 1.500000 0.000000
v 129.903809 1.500000 -225.000000
v -129.903809 1.500000 -225.000000
v -259.807617 1.500000 -0.000000
v -129.903809 1.500000 225.000000
v 129.903809 1.500000 225.000000
v 259.807617 -1.500000 0.000000
v 129.903809 -1.500000 -225.000000
v -129.903809 -1.500000 -225.000000
v -259.807617 -1.500000 -0.000000
v -129.903809 -1.500000 225.000000
v 129.903809 -1.500000 225.000000
vn -0.0000 1.0000 -0.0000
vn -0.0000 -1.0000 -0.0000
vn 0.8660 -0.0000 -0.5000
vn -0.0000 -0.0000 -1.0000
vn -0.8660 -0.0000 -0.5000
vn -0.8660 -0.0000 0.5000
vn -0.0000 -0.0000 1.0000
vn 0.8660 -0.0000 0.5000
vt 0.250000 0.000000
vt 1.000000 0.500000
vt 0.250000 1.000000
vt 0.750000 1.000000
vt 0.750000 0.000000
vt 0.000000 0.500000
s 0
f 2/1/1 4/2/1 6/3/1
f 11/4/2 9/5/2 7/6/2
f 7/6/3 2/1/3 1/6/3
f 8/1/4 3/5/4 2/1/4
f 9/5/5 4/2/5 3/5/5
f 10/2/6 5/4/6 4/2/6
f 11/4/7 6/3/7 5/4/7
f 12/3/8 1/6/8 6/3/8
f 6/3/1 1/6/1 2/1/1
f 2/1/1 3/5/1 4/2/1
f 4/2/1 5/4/1 6/3/1
f 7/6/2 12/3/2 11/4/2
f 11/4/2 10/2/2 9/5/2
f 9/5/2 8/1/2 7/6/2
f 7/6/3 8/1/3 2/1/3
f 8/1/4 9/5/4 3/5/4
f 9/5/5 10/2/5 4/2/5
f 10/2/6 11/4/6 5/4/6
f 11/4/7 12/3/7 6/3/7
f 12/3/8 7/6/8 1/6/8
