# Blender 5.2.0 LTS
# www.blender.org
o ArenaBoard
v 259.807617 1.500000 0.000000
v 129.903809 1.500000 -225.000000
v -129.903809 1.500000 -225.000000
v -259.807617 1.500000 -0.000000
v -129.903809 1.500000 225.000000
v 129.903809 1.500000 225.000000
v 259.807617 -1.500000 0.000000
v 129.903809 -1.500000 -225.000000
v -129.903809 -1.500000 -225.000000
v -259.807617 -1.500000 -0.000000
v -129.903809 -1.500000 225.000000
v 129.903809 -1.500000 225.000000
vn -0.0000 1.0000 -0.0000
vn -0.0000 -1.0000 -0.0000
vn 0.8660 -0.0000 -0.5000
vn -0.0000 -0.0000 -1.0000
vn -0.8660 -0.0000 -0.5000
vn -0.8660 -0.0000 0.5000
vn -0.0000 -0.0000 1.0000
vn 0.8660 -0.0000 0.5000
vt 1.000000 0.500000
vt 0.750000 0.000000
vt 0.250000 0.000000
vt 0.000000 0.500000
vt 0.250000 1.000000
vt 0.750000 1.000000
s 0
f 1/1/1 2/2/1 3/3/1 4/4/1 5/5/1 6/6/1
f 12/6/2 11/5/2 10/4/2 9/3/2 8/2/2 7/1/2
f 1/1/3 7/1/3 8/2/3 2/2/3
f 2/2/4 8/2/4 9/3/4 3/3/4
f 3/3/5 9/3/5 10/4/5 4/4/5
f 4/4/6 10/4/6 11/5/6 5/5/6
f 5/5/7 11/5/7 12/6/7 6/6/7
f 6/6/8 12/6/8 7/1/8 1/1/8
