# Blender 5.2.0 LTS
# www.blender.org
o Border_Hex
v -37.239098 -2.999997 37.500000
v -37.239098 -1.999997 37.500000
v -51.095451 -1.999995 61.500000
v -51.095451 -2.999995 61.500000
v -35.507050 -1.999997 38.500000
v -35.507050 -2.999997 38.500000
v -49.363400 -2.999995 62.500000
v -49.363400 -1.999995 62.500000
v -78.808250 -1.999995 61.500000
v -78.808250 -2.999995 61.500000
v -51.095451 -1.999999 13.500000
v -78.808250 -1.999999 13.500000
v -92.664696 -1.999997 37.500000
v -50.518101 -1.999995 62.500000
v -79.385597 -1.999995 62.500000
v -93.819397 -1.999997 37.500000
v -79.385597 -1.999999 12.500000
v -93.819397 -2.000001 -12.500000
v -79.385597 -2.000003 -37.500000
v -50.518101 -2.000003 -37.500000
v -36.084400 -2.000005 -62.500000
v -7.216900 -2.000005 -62.500000
v 7.216900 -2.000007 -87.500000
v 36.084400 -2.000007 -87.500000
v 50.518200 -2.000005 -62.500000
v 36.084400 -2.000003 -37.500000
v 50.518200 -2.000001 -12.500000
v 79.385696 -2.000001 -12.500000
v 93.819397 -1.999999 12.500000
v 79.385696 -1.999997 37.500000
v 50.518200 -1.999997 37.500000
v 36.084400 -1.999995 62.500000
v 7.216900 -1.999995 62.500000
v -7.216900 -1.999993 87.500000
v -36.084400 -1.999993 87.500000
v -35.507050 -1.999993 86.500000
v -7.794249 -1.999993 86.500000
v 6.062199 -1.999995 62.500000
v -7.794249 -1.999997 38.500000
v 37.239101 -1.999999 12.500000
v 51.095551 -1.999997 36.500000
v 78.808350 -1.999997 36.500000
v 92.664703 -1.999999 12.500000
v 78.808350 -2.000001 -11.500000
v 51.095551 -2.000001 -11.500000
v 7.794249 -2.000003 -38.500000
v 35.507050 -2.000003 -38.500000
v 49.363499 -2.000005 -62.500000
v 35.507050 -2.000006 -86.500000
v 7.794249 -2.000006 -86.500000
v -6.062199 -2.000005 -62.500000
v 6.062199 -2.000003 -37.500000
v -7.794249 -2.000005 -61.500000
v -35.507050 -2.000005 -61.500000
v -49.363400 -2.000003 -37.500000
v -35.507050 -2.000001 -13.500000
v -7.794249 -2.000001 -13.500000
v -51.095451 -2.000003 -36.500000
v -78.808250 -2.000003 -36.500000
v -92.664696 -2.000001 -12.500000
v -78.808250 -1.999999 11.500000
v -51.095451 -1.999999 11.500000
v -37.239098 -2.000001 -12.500000
v -35.507050 -2.000001 -11.500000
v -49.363400 -1.999999 12.500000
v -35.507050 -1.999997 36.500000
v -7.794249 -1.999997 36.500000
v 6.062199 -1.999999 12.500000
v -7.794249 -2.000001 -11.500000
v 35.507050 -1.999999 11.500000
v 49.363499 -2.000001 -12.500000
v 35.507050 -2.000003 -36.500000
v 7.794249 -2.000003 -36.500000
v -6.062199 -2.000001 -12.500000
v 7.794249 -1.999999 11.500000
v -6.062199 -1.999997 37.500000
v 7.794249 -1.999995 61.500000
v 35.507050 -1.999995 61.500000
v 49.363499 -1.999997 37.500000
v 35.507050 -1.999999 13.500000
v 7.794249 -1.999999 13.500000
v -35.507050 -2.999994 86.500000
v -7.794249 -2.999997 38.500000
v 6.062199 -2.999995 62.500000
v -7.794249 -2.999994 86.500000
v -92.664696 -2.999997 37.500000
v -78.808250 -2.999999 13.500000
v -51.095451 -2.999999 13.500000
v -6.062199 -2.999997 37.500000
v 7.794249 -2.999995 61.500000
v 35.507050 -2.999995 61.500000
v 7.794249 -2.999999 13.500000
v 35.507050 -2.999999 13.500000
v 49.363499 -2.999997 37.500000
v 35.507050 -2.999999 11.500000
v 7.794249 -2.999999 11.500000
v 49.363499 -3.000001 -12.500000
v -6.062199 -3.000001 -12.500000
v 7.794249 -3.000003 -36.500000
v 35.507050 -3.000003 -36.500000
v 37.239101 -2.999999 12.500000
v 51.095551 -2.999997 36.500000
v 51.095551 -3.000001 -11.500000
v 78.808350 -3.000001 -11.500000
v 92.664703 -2.999999 12.500000
v 78.808350 -2.999997 36.500000
v 7.794249 -3.000003 -38.500000
v -6.062199 -3.000005 -62.500000
v 6.062199 -3.000003 -37.500000
v -7.794249 -3.000005 -61.500000
v 35.507050 -3.000003 -38.500000
v 7.794249 -3.000006 -86.500000
v 35.507050 -3.000006 -86.500000
v 49.363499 -3.000005 -62.500000
v -35.507050 -3.000001 -11.500000
v -7.794249 -3.000001 -11.500000
v -35.507050 -3.000001 -13.500000
v -7.794249 -3.000001 -13.500000
v -49.363400 -2.999999 12.500000
v 6.062199 -2.999999 12.500000
v -7.794249 -2.999997 36.500000
v -35.507050 -2.999997 36.500000
v -51.095451 -3.000003 -36.500000
v -37.239098 -3.000001 -12.500000
v -51.095451 -2.999999 11.500000
v -49.363400 -3.000003 -37.500000
v -78.808250 -3.000003 -36.500000
v -78.808250 -2.999999 11.500000
v -92.664696 -3.000001 -12.500000
v -35.507050 -3.000005 -61.500000
v -93.819397 0.000003 37.500000
v -79.385597 0.000001 12.500000
v -79.385597 0.000005 62.500000
v -50.518101 0.000005 62.500000
v -36.084400 0.000007 87.500000
v -7.216900 0.000007 87.500000
v 7.216900 0.000005 62.500000
v 36.084400 0.000005 62.500000
v 50.518200 0.000003 37.500000
v 79.385696 0.000003 37.500000
v 93.819397 0.000001 12.500000
v 79.385696 -0.000001 -12.500000
v 50.518200 -0.000001 -12.500000
v -93.819397 -0.000001 -12.500000
v -79.385597 -0.000003 -37.500000
v -50.518101 -0.000003 -37.500000
v -36.084400 -0.000005 -62.500000
v -7.216900 -0.000005 -62.500000
v 7.216900 -0.000007 -87.500000
v 36.084400 -0.000007 -87.500000
v 50.518200 -0.000005 -62.500000
v 36.084400 -0.000003 -37.500000
vn 0.866000 0.000000 0.500000
vn -0.866000 0.000000 -0.500000
vn 0.000000 0.000000 1.000000
vn 0.000000 -1.000000 0.000000
vn -0.866000 0.000000 0.500000
vn 0.866000 0.000000 -0.500000
vn 0.000000 0.000000 -1.000000
vn 0.000000 1.000000 0.000000
vt 0.975469 0.818022
vt 0.976721 0.818022
vt 0.975469 0.951189
vt 0.273341 0.997998
vt 0.406509 0.996746
vt 0.273341 0.996746
vt 0.996746 0.409512
vt 0.997998 0.409512
vt 0.996746 0.542679
vt 0.137171 0.997998
vt 0.270338 0.996746
vt 0.137171 0.996746
vt 0.988235 0.273341
vt 0.989487 0.273341
vt 0.988235 0.406509
vt 0.997747 0.271339
vt 0.998999 0.138172
vt 0.998999 0.271339
vt 0.954193 0.270338
vt 0.959700 0.137171
vt 0.954193 0.137171
vt 0.962703 0.962703
vt 0.962703 0.968211
vt 0.968211 0.962703
vt 0.271339 0.960701
vt 0.271339 0.955194
vt 0.138172 0.960701
vt 0.959700 0.273341
vt 0.954193 0.406509
vt 0.954193 0.273341
vt 0.976721 0.958448
vt 0.975469 0.959700
vt 0.975469 0.958448
vt 0.993743 0.818022
vt 0.992490 0.818022
vt 0.992490 0.951189
vt 0.992490 0.815019
vt 0.992490 0.681852
vt 0.993743 0.681852
vt 0.993743 0.545682
vt 0.992490 0.545682
vt 0.992490 0.678849
vt 0.992490 0.406509
vt 0.992490 0.273341
vt 0.993743 0.273341
vt 0.993743 0.001001
vt 0.992490 0.001001
vt 0.992490 0.134168
vt 0.545682 0.989487
vt 0.678849 0.988235
vt 0.545682 0.988235
vt 0.971214 0.954193
vt 0.971214 0.955445
vt 0.972466 0.954193
vt 0.971214 0.001001
vt 0.976721 0.001001
vt 0.971214 0.134168
vt 0.972215 0.135169
vt 0.977722 0.002002
vt 0.977722 0.135169
vt 0.954193 0.962703
vt 0.959700 0.962703
vt 0.954193 0.968211
vt 0.409512 0.976721
vt 0.409512 0.971214
vt 0.542679 0.971214
vt 0.962703 0.951189
vt 0.968211 0.818022
vt 0.962703 0.818022
vt 0.951189 0.962703
vt 0.818022 0.968211
vt 0.818022 0.962703
vt 0.955194 0.960701
vt 0.960701 0.960701
vt 0.960701 0.955194
vt 0.407510 0.955194
vt 0.407510 0.960701
vt 0.274342 0.960701
vt 0.973467 0.816020
vt 0.972215 0.816020
vt 0.973467 0.682853
vt 0.990488 0.816020
vt 0.990488 0.682853
vt 0.989236 0.816020
vt 0.972215 0.956446
vt 0.973467 0.956446
vt 0.973467 0.955194
vt 0.816020 0.973467
vt 0.816020 0.972215
vt 0.682853 0.973467
vt 0.990488 0.952190
vt 0.990488 0.819023
vt 0.989236 0.952190
vt 0.273341 0.979724
vt 0.273341 0.980977
vt 0.406509 0.979724
vt 0.816020 0.990488
vt 0.682853 0.990488
vt 0.816020 0.989236
vt 0.994744 0.271339
vt 0.993491 0.271339
vt 0.994744 0.138172
vt 0.989487 0.818022
vt 0.988235 0.818022
vt 0.988235 0.951189
vt 0.681852 0.972466
vt 0.815019 0.971214
vt 0.681852 0.971214
vt 0.407510 0.993491
vt 0.407510 0.994744
vt 0.274342 0.994744
vt 0.135169 0.993491
vt 0.002002 0.994744
vt 0.135169 0.994744
vt 0.993491 0.816020
vt 0.994744 0.816020
vt 0.994744 0.682853
vt 0.993491 0.952190
vt 0.994744 0.819023
vt 0.994744 0.952190
vt 0.977722 0.960701
vt 0.977722 0.959449
vt 0.976470 0.960701
vt 0.955194 0.407510
vt 0.960701 0.407510
vt 0.960701 0.274342
vt 0.960701 0.138172
vt 0.955194 0.271339
vt 0.960701 0.271339
vt 0.969212 0.969212
vt 0.969212 0.963704
vt 0.963704 0.969212
vt 0.137171 0.954193
vt 0.137171 0.959700
vt 0.270338 0.954193
vt 0.273341 0.959700
vt 0.406509 0.954193
vt 0.273341 0.954193
vt 0.271339 0.993491
vt 0.138172 0.994744
vt 0.271339 0.994744
vt 0.410513 0.994744
vt 0.543680 0.993491
vt 0.543680 0.994744
vt 0.976470 0.956446
vt 0.977722 0.956446
vt 0.977722 0.955194
vt 0.135169 0.977722
vt 0.135169 0.972215
vt 0.002002 0.977722
vt 0.976721 0.137171
vt 0.971214 0.270338
vt 0.971214 0.137171
vt 0.962703 0.954193
vt 0.968211 0.954193
vt 0.962703 0.959700
vt 0.679850 0.972215
vt 0.679850 0.977722
vt 0.546683 0.977722
vt 0.971214 0.678849
vt 0.976721 0.545682
vt 0.971214 0.545682
vt 0.975469 0.955445
vt 0.976721 0.954193
vt 0.975469 0.954193
vt 0.988235 0.545682
vt 0.989487 0.545682
vt 0.988235 0.678849
vt 0.681852 0.988235
vt 0.815019 0.988235
vt 0.681852 0.989487
vt 0.973467 0.959449
vt 0.973467 0.960701
vt 0.972215 0.960701
vt 0.001001 0.992490
vt 0.001001 0.993743
vt 0.134168 0.992490
vt 0.406509 0.992490
vt 0.273341 0.993743
vt 0.273341 0.992490
vt 0.679850 0.994744
vt 0.679850 0.993491
vt 0.546683 0.994744
vt 0.682853 0.994744
vt 0.816020 0.993491
vt 0.816020 0.994744
vt 0.681852 0.992490
vt 0.681852 0.993743
vt 0.815019 0.992490
vt 0.545682 0.992490
vt 0.678849 0.992490
vt 0.545682 0.993743
vt 0.992490 0.137171
vt 0.993743 0.137171
vt 0.992490 0.270338
vt 0.679850 0.990488
vt 0.679850 0.989236
vt 0.546683 0.990488
vt 0.994744 0.135169
vt 0.994744 0.002002
vt 0.993491 0.135169
vt 0.994744 0.407510
vt 0.993491 0.407510
vt 0.994744 0.274342
vt 0.989487 0.681852
vt 0.988235 0.681852
vt 0.988235 0.815019
vt 0.989236 0.679850
vt 0.990488 0.546683
vt 0.990488 0.679850
vt 0.993491 0.679850
vt 0.994744 0.679850
vt 0.994744 0.546683
vt 0.971214 0.681852
vt 0.972466 0.681852
vt 0.971214 0.815019
vt 0.818022 0.988235
vt 0.951189 0.988235
vt 0.818022 0.989487
vt 0.952190 0.989236
vt 0.952190 0.990488
vt 0.819023 0.990488
vt 0.407510 0.980725
vt 0.274342 0.981978
vt 0.407510 0.981978
vt 0.971214 0.958448
vt 0.971214 0.959700
vt 0.972466 0.958448
vt 0.137171 0.971214
vt 0.137171 0.976721
vt 0.270338 0.971214
vt 0.271339 0.972215
vt 0.138172 0.977722
vt 0.271339 0.977722
vt 0.954193 0.959700
vt 0.959700 0.954193
vt 0.954193 0.954193
vt 0.963704 0.952190
vt 0.969212 0.952190
vt 0.969212 0.819023
vt 0.678849 0.971214
vt 0.545682 0.976721
vt 0.545682 0.971214
vt 0.969212 0.955194
vt 0.963704 0.960701
vt 0.969212 0.960701
vt 0.001001 0.971214
vt 0.001001 0.976721
vt 0.134168 0.971214
vt 0.972215 0.271339
vt 0.977722 0.138172
vt 0.977722 0.271339
vt 0.960701 0.969212
vt 0.955194 0.969212
vt 0.960701 0.963704
vt 0.972215 0.679850
vt 0.977722 0.679850
vt 0.977722 0.546683
vt 0.410513 0.977722
vt 0.543680 0.972215
vt 0.543680 0.977722
vt 0.137171 0.993743
vt 0.270338 0.992490
vt 0.137171 0.992490
vt 0.542679 0.992490
vt 0.409512 0.993743
vt 0.409512 0.992490
vt 0.992490 0.409512
vt 0.992490 0.542679
vt 0.993743 0.409512
vt 0.977722 0.543680
vt 0.972215 0.543680
vt 0.977722 0.410513
vt 0.976721 0.409512
vt 0.971214 0.542679
vt 0.971214 0.409512
vt 0.971214 0.273341
vt 0.976721 0.273341
vt 0.971214 0.406509
vt 0.273341 0.976721
vt 0.406509 0.971214
vt 0.273341 0.971214
vt 0.994744 0.543680
vt 0.994744 0.410513
vt 0.993491 0.543680
vt 0.952190 0.969212
vt 0.819023 0.969212
vt 0.952190 0.963704
vt 0.407510 0.977722
vt 0.407510 0.972215
vt 0.274342 0.977722
vt 0.972215 0.407510
vt 0.977722 0.274342
vt 0.977722 0.407510
vt 0.409512 0.988235
vt 0.409512 0.989487
vt 0.542679 0.988235
vt 0.543680 0.989236
vt 0.410513 0.990488
vt 0.543680 0.990488
vt 0.818022 0.681852
vt 0.818022 0.815019
vt 0.951189 0.681852
vt 0.681852 0.542679
vt 0.681852 0.273341
vt 0.815019 0.273341
vt 0.542679 0.273341
vt 0.273341 0.406509
vt 0.273341 0.273341
vt 0.952190 0.682853
vt 0.952190 0.816020
vt 0.819023 0.816020
vt 0.273341 0.818022
vt 0.273341 0.951189
vt 0.406509 0.818022
vt 0.681852 0.815019
vt 0.681852 0.545682
vt 0.815019 0.545682
vt 0.274342 0.679850
vt 0.543680 0.546683
vt 0.543680 0.679850
vt 0.407510 0.819023
vt 0.407510 0.952190
vt 0.274342 0.952190
vt 0.979724 0.409512
vt 0.980977 0.409512
vt 0.979724 0.542679
vt 0.543680 0.984981
vt 0.410513 0.986233
vt 0.543680 0.986233
vt 0.979724 0.681852
vt 0.980977 0.681852
vt 0.979724 0.815019
vt 0.980725 0.816020
vt 0.981978 0.682853
vt 0.981978 0.816020
vt 0.979724 0.545682
vt 0.980977 0.545682
vt 0.979724 0.678849
vt 0.980725 0.679850
vt 0.981978 0.546683
vt 0.981978 0.679850
vt 0.979724 0.273341
vt 0.980977 0.273341
vt 0.979724 0.406509
vt 0.681852 0.997998
vt 0.815019 0.996746
vt 0.681852 0.996746
vt 0.818022 0.409512
vt 0.951189 0.409512
vt 0.818022 0.542679
vt 0.545682 0.815019
vt 0.545682 0.545682
vt 0.678849 0.545682
vt 0.271339 0.682853
vt 0.002002 0.816020
vt 0.271339 0.816020
vt 0.819023 0.543680
vt 0.952190 0.410513
vt 0.952190 0.543680
vt 0.818022 0.992490
vt 0.818022 0.993743
vt 0.951189 0.992490
vt 0.972466 0.818022
vt 0.971214 0.951189
vt 0.971214 0.818022
vt 0.952190 0.994744
vt 0.952190 0.993491
vt 0.819023 0.994744
vt 0.997747 0.135169
vt 0.998999 0.002002
vt 0.998999 0.135169
vt 0.986233 0.816020
vt 0.984981 0.816020
vt 0.986233 0.682853
vt 0.135169 0.989236
vt 0.002002 0.990488
vt 0.135169 0.990488
vt 0.818022 0.001001
vt 0.951189 0.001001
vt 0.818022 0.134168
vt 0.270338 0.681852
vt 0.001001 0.681852
vt 0.001001 0.815019
vt 0.815019 0.001001
vt 0.681852 0.270338
vt 0.681852 0.001001
vt 0.134168 0.818022
vt 0.001001 0.951189
vt 0.001001 0.818022
vt 0.679850 0.981978
vt 0.679850 0.980725
vt 0.546683 0.981978
vt 0.543680 0.980725
vt 0.410513 0.981978
vt 0.543680 0.981978
vt 0.988235 0.001001
vt 0.989487 0.001001
vt 0.988235 0.134168
vt 0.984981 0.952190
vt 0.986233 0.819023
vt 0.986233 0.952190
vt 0.990488 0.135169
vt 0.989236 0.135169
vt 0.990488 0.002002
vt 0.679850 0.984981
vt 0.546683 0.986233
vt 0.679850 0.986233
vt 0.545682 0.818022
vt 0.545682 0.951189
vt 0.678849 0.818022
vt 0.274342 0.816020
vt 0.543680 0.816020
vt 0.543680 0.682853
vt 0.542679 0.681852
vt 0.273341 0.815019
vt 0.273341 0.681852
vt 0.409512 0.951189
vt 0.409512 0.818022
vt 0.542679 0.818022
vt 0.001001 0.988235
vt 0.001001 0.989487
vt 0.134168 0.988235
vt 0.681852 0.985232
vt 0.815019 0.983980
vt 0.681852 0.983980
vt 0.983980 0.818022
vt 0.985232 0.818022
vt 0.983980 0.951189
vt 0.984981 0.679850
vt 0.986233 0.546683
vt 0.986233 0.679850
vt 0.545682 0.983980
vt 0.545682 0.985232
vt 0.678849 0.983980
vt 0.985232 0.681852
vt 0.983980 0.815019
vt 0.983980 0.681852
vt 0.981978 0.543680
vt 0.980725 0.543680
vt 0.981978 0.410513
vt 0.545682 0.980977
vt 0.678849 0.979724
vt 0.545682 0.979724
vt 0.983980 0.137171
vt 0.985232 0.137171
vt 0.983980 0.270338
vt 0.984981 0.135169
vt 0.986233 0.002002
vt 0.986233 0.135169
vt 0.979724 0.137171
vt 0.980977 0.137171
vt 0.979724 0.270338
vt 0.135169 0.980725
vt 0.002002 0.981978
vt 0.135169 0.981978
vt 0.952190 0.135169
vt 0.819023 0.135169
vt 0.952190 0.002002
vt 0.816020 0.002002
vt 0.816020 0.271339
vt 0.682853 0.271339
vt 0.546683 0.816020
vt 0.679850 0.546683
vt 0.679850 0.816020
vt 0.002002 0.952190
vt 0.135169 0.819023
vt 0.135169 0.952190
vt 0.983980 0.409512
vt 0.985232 0.409512
vt 0.983980 0.542679
vt 0.409512 0.980977
vt 0.542679 0.979724
vt 0.409512 0.979724
vt 0.816020 0.977722
vt 0.816020 0.976470
vt 0.682853 0.977722
vt 0.980725 0.407510
vt 0.981978 0.274342
vt 0.981978 0.407510
vt 0.981978 0.135169
vt 0.980725 0.135169
vt 0.981978 0.002002
vt 0.972215 0.952190
vt 0.973467 0.819023
vt 0.973467 0.952190
vt 0.271339 0.998999
vt 0.271339 0.997747
vt 0.138172 0.998999
vt 0.997747 0.407510
vt 0.998999 0.274342
vt 0.998999 0.407510
vt 0.952190 0.679850
vt 0.952190 0.546683
vt 0.819023 0.679850
vt 0.274342 0.407510
vt 0.543680 0.407510
vt 0.543680 0.274342
vt 0.679850 0.274342
vt 0.546683 0.543680
vt 0.679850 0.543680
vt 0.818022 0.678849
vt 0.818022 0.545682
vt 0.951189 0.545682
vt 0.983980 0.001001
vt 0.985232 0.001001
vt 0.983980 0.134168
vt 0.407510 0.984981
vt 0.274342 0.986233
vt 0.407510 0.986233
vt 0.679850 0.998999
vt 0.679850 0.997747
vt 0.546683 0.998999
vt 0.543680 0.997747
vt 0.410513 0.998999
vt 0.543680 0.998999
vt 0.998999 0.816020
vt 0.997747 0.816020
vt 0.998999 0.682853
vt 0.997998 0.681852
vt 0.996746 0.815019
vt 0.996746 0.681852
vt 0.135169 0.998999
vt 0.135169 0.997747
vt 0.002002 0.998999
vt 0.997747 0.543680
vt 0.998999 0.410513
vt 0.998999 0.543680
vt 0.137171 0.988235
vt 0.137171 0.989487
vt 0.270338 0.988235
vt 0.989236 0.407510
vt 0.990488 0.274342
vt 0.990488 0.407510
vt 0.543680 0.952190
vt 0.410513 0.952190
vt 0.543680 0.819023
vt 0.273341 0.545682
vt 0.542679 0.545682
vt 0.273341 0.678849
vt 0.682853 0.816020
vt 0.816020 0.546683
vt 0.816020 0.816020
vt 0.679850 0.819023
vt 0.546683 0.952190
vt 0.679850 0.952190
vt 0.996746 0.137171
vt 0.997998 0.137171
vt 0.996746 0.270338
vt 0.271339 0.989236
vt 0.138172 0.990488
vt 0.271339 0.990488
vt 0.137171 0.979724
vt 0.137171 0.980977
vt 0.270338 0.979724
vt 0.989487 0.137171
vt 0.988235 0.270338
vt 0.988235 0.137171
vt 0.409512 0.996746
vt 0.409512 0.997998
vt 0.542679 0.996746
vt 0.407510 0.997747
vt 0.274342 0.998999
vt 0.407510 0.998999
vt 0.975469 0.681852
vt 0.976721 0.681852
vt 0.975469 0.815019
vt 0.681852 0.976721
vt 0.815019 0.975469
vt 0.681852 0.975469
vt 0.273341 0.983980
vt 0.273341 0.985232
vt 0.406509 0.983980
vt 0.681852 0.980977
vt 0.815019 0.979724
vt 0.681852 0.979724
vt 0.986233 0.271339
vt 0.984981 0.271339
vt 0.986233 0.138172
vt 0.984981 0.407510
vt 0.986233 0.274342
vt 0.986233 0.407510
vt 0.001001 0.979724
vt 0.001001 0.980977
vt 0.134168 0.979724
vt 0.818022 0.976721
vt 0.951189 0.975469
vt 0.818022 0.975469
vt 0.988235 0.409512
vt 0.989487 0.409512
vt 0.988235 0.542679
vt 0.989236 0.543680
vt 0.990488 0.410513
vt 0.990488 0.543680
vt 0.996746 0.001001
vt 0.997998 0.001001
vt 0.996746 0.134168
vt 0.952190 0.972215
vt 0.819023 0.973467
vt 0.952190 0.973467
vt 0.409512 0.983980
vt 0.409512 0.985232
vt 0.542679 0.983980
vt 0.984981 0.543680
vt 0.986233 0.410513
vt 0.986233 0.543680
vt 0.983980 0.273341
vt 0.985232 0.273341
vt 0.983980 0.406509
vt 0.271339 0.984981
vt 0.138172 0.986233
vt 0.271339 0.986233
vt 0.981978 0.952190
vt 0.980725 0.952190
vt 0.981978 0.819023
vt 0.816020 0.980725
vt 0.682853 0.981978
vt 0.816020 0.981978
vt 0.271339 0.981978
vt 0.271339 0.980725
vt 0.138172 0.981978
vt 0.989236 0.271339
vt 0.990488 0.138172
vt 0.990488 0.271339
vt 0.998999 0.679850
vt 0.997747 0.679850
vt 0.998999 0.546683
vt 0.545682 0.997998
vt 0.678849 0.996746
vt 0.545682 0.996746
vt 0.996746 0.545682
vt 0.997998 0.545682
vt 0.996746 0.678849
vt 0.976470 0.952190
vt 0.977722 0.819023
vt 0.977722 0.952190
vt 0.407510 0.990488
vt 0.407510 0.989236
vt 0.274342 0.990488
vt 0.273341 0.989487
vt 0.406509 0.988235
vt 0.273341 0.988235
vt 0.816020 0.998999
vt 0.816020 0.997747
vt 0.682853 0.998999
vt 0.980725 0.271339
vt 0.981978 0.138172
vt 0.981978 0.271339
vt 0.979724 0.818022
vt 0.980977 0.818022
vt 0.979724 0.951189
vt 0.818022 0.980977
vt 0.951189 0.979724
vt 0.818022 0.979724
vt 0.952190 0.986233
vt 0.952190 0.984981
vt 0.819023 0.986233
vt 0.818022 0.985232
vt 0.951189 0.983980
vt 0.818022 0.983980
vt 0.983980 0.545682
vt 0.985232 0.545682
vt 0.983980 0.678849
vt 0.816020 0.984981
vt 0.682853 0.986233
vt 0.816020 0.986233
vt 0.977722 0.816020
vt 0.976470 0.816020
vt 0.977722 0.682853
vt 0.818022 0.972466
vt 0.951189 0.971214
vt 0.818022 0.971214
vt 0.979724 0.001001
vt 0.980977 0.001001
vt 0.979724 0.134168
vt 0.952190 0.976470
vt 0.819023 0.977722
vt 0.952190 0.977722
vt 0.001001 0.996746
vt 0.001001 0.997998
vt 0.134168 0.996746
vt 0.997998 0.273341
vt 0.996746 0.406509
vt 0.996746 0.273341
vt 0.952190 0.981978
vt 0.952190 0.980725
vt 0.819023 0.981978
vt 0.137171 0.985232
vt 0.270338 0.983980
vt 0.137171 0.983980
vt 0.001001 0.983980
vt 0.001001 0.985232
vt 0.134168 0.983980
vt 0.135169 0.984981
vt 0.002002 0.986233
vt 0.135169 0.986233
vt 0.681852 0.962703
vt 0.815019 0.962703
vt 0.681852 0.968211
vt 0.969212 0.546683
vt 0.963704 0.679850
vt 0.969212 0.679850
vt 0.545682 0.962703
vt 0.678849 0.962703
vt 0.545682 0.968211
vt 0.542679 0.962703
vt 0.409512 0.968211
vt 0.409512 0.962703
vt 0.001001 0.962703
vt 0.134168 0.962703
vt 0.001001 0.968211
vt 0.954193 0.815019
vt 0.959700 0.681852
vt 0.954193 0.681852
vt 0.409512 0.954193
vt 0.542679 0.954193
vt 0.409512 0.959700
vt 0.954193 0.134168
vt 0.959700 0.001001
vt 0.954193 0.001001
vt 0.954193 0.409512
vt 0.954193 0.542679
vt 0.959700 0.409512
vt 0.546683 0.960701
vt 0.679850 0.955194
vt 0.679850 0.960701
vt 0.969212 0.543680
vt 0.969212 0.410513
vt 0.963704 0.543680
vt 0.962703 0.542679
vt 0.968211 0.409512
vt 0.962703 0.409512
vt 0.960701 0.543680
vt 0.960701 0.410513
vt 0.955194 0.543680
vt 0.678849 0.954193
vt 0.545682 0.959700
vt 0.545682 0.954193
vt 0.962703 0.137171
vt 0.962703 0.270338
vt 0.968211 0.137171
vt 0.406509 0.962703
vt 0.273341 0.968211
vt 0.273341 0.962703
vt 0.960701 0.952190
vt 0.960701 0.819023
vt 0.955194 0.952190
vt 0.954193 0.951189
vt 0.959700 0.818022
vt 0.954193 0.818022
vt 0.001001 0.954193
vt 0.134168 0.954193
vt 0.001001 0.959700
vt 0.960701 0.002002
vt 0.955194 0.135169
vt 0.960701 0.135169
vt 0.962703 0.681852
vt 0.962703 0.815019
vt 0.968211 0.681852
vt 0.969212 0.682853
vt 0.963704 0.816020
vt 0.969212 0.816020
vt 0.135169 0.969212
vt 0.002002 0.969212
vt 0.135169 0.963704
vt 0.819023 0.960701
vt 0.952190 0.955194
vt 0.952190 0.960701
vt 0.962703 0.273341
vt 0.962703 0.406509
vt 0.968211 0.273341
vt 0.274342 0.969212
vt 0.407510 0.963704
vt 0.407510 0.969212
vt 0.816020 0.969212
vt 0.682853 0.969212
vt 0.816020 0.963704
vt 0.270338 0.962703
vt 0.137171 0.968211
vt 0.137171 0.962703
vt 0.960701 0.816020
vt 0.960701 0.682853
vt 0.955194 0.816020
vt 0.951189 0.954193
vt 0.818022 0.959700
vt 0.818022 0.954193
vt 0.543680 0.960701
vt 0.410513 0.960701
vt 0.543680 0.955194
vt 0.002002 0.960701
vt 0.135169 0.955194
vt 0.135169 0.960701
vt 0.954193 0.545682
vt 0.954193 0.678849
vt 0.959700 0.545682
vt 0.815019 0.954193
vt 0.681852 0.959700
vt 0.681852 0.954193
vt 0.962703 0.545682
vt 0.962703 0.678849
vt 0.968211 0.545682
vt 0.546683 0.969212
vt 0.679850 0.963704
vt 0.679850 0.969212
vt 0.816020 0.960701
vt 0.682853 0.960701
vt 0.816020 0.955194
vt 0.960701 0.546683
vt 0.955194 0.679850
vt 0.960701 0.679850
vt 0.962703 0.001001
vt 0.962703 0.134168
vt 0.968211 0.001001
vt 0.969212 0.274342
vt 0.963704 0.407510
vt 0.969212 0.407510
vt 0.543680 0.969212
vt 0.410513 0.969212
vt 0.543680 0.963704
vt 0.138172 0.969212
vt 0.271339 0.963704
vt 0.271339 0.969212
vt 0.969212 0.271339
vt 0.969212 0.138172
vt 0.963704 0.271339
vt 0.969212 0.002002
vt 0.963704 0.135169
vt 0.969212 0.135169
vt 0.001001 0.001001
vt 0.001001 0.270338
vt 0.270338 0.001001
vt 0.273341 0.001001
vt 0.273341 0.270338
vt 0.542679 0.001001
vt 0.270338 0.545682
vt 0.001001 0.545682
vt 0.001001 0.678849
vt 0.270338 0.273341
vt 0.001001 0.542679
vt 0.001001 0.273341
vt 0.545682 0.270338
vt 0.545682 0.001001
vt 0.678849 0.001001
vt 0.546683 0.271339
vt 0.679850 0.002002
vt 0.679850 0.271339
vt 0.270338 0.818022
vt 0.137171 0.951189
vt 0.137171 0.818022
vt 0.818022 0.406509
vt 0.818022 0.273341
vt 0.951189 0.273341
vt 0.818022 0.137171
vt 0.818022 0.270338
vt 0.951189 0.137171
vt 0.542679 0.409512
vt 0.273341 0.409512
vt 0.273341 0.542679
vt 0.002002 0.271339
vt 0.271339 0.271339
vt 0.271339 0.002002
vt 0.002002 0.543680
vt 0.271339 0.274342
vt 0.271339 0.543680
vt 0.543680 0.410513
vt 0.274342 0.543680
vt 0.543680 0.543680
vt 0.952190 0.274342
vt 0.819023 0.407510
vt 0.952190 0.407510
vt 0.271339 0.546683
vt 0.271339 0.679850
vt 0.002002 0.679850
vt 0.819023 0.271339
vt 0.952190 0.138172
vt 0.952190 0.271339
vt 0.271339 0.952190
vt 0.271339 0.819023
vt 0.138172 0.952190
vt 0.543680 0.271339
vt 0.274342 0.271339
vt 0.543680 0.002002
vt 0.951189 0.818022
vt 0.818022 0.818022
vt 0.818022 0.951189
vt 0.952190 0.819023
vt 0.819023 0.952190
vt 0.952190 0.952190
vt 0.681852 0.818022
vt 0.681852 0.951189
vt 0.815019 0.818022
vt 0.545682 0.542679
vt 0.545682 0.273341
vt 0.678849 0.273341
vt 0.816020 0.274342
vt 0.682853 0.543680
vt 0.816020 0.543680
vt 0.816020 0.819023
vt 0.816020 0.952190
vt 0.682853 0.952190
s 0
f 1/1/1 2/2/1 4/3/1
f 4/4/1 2/5/1 3/6/1
f 5/7/2 6/8/2 8/9/2
f 8/10/2 6/11/2 7/12/2
f 4/13/3 3/14/3 10/15/3
f 10/16/3 3/17/3 9/18/3
f 11/19/4 66/20/4 2/21/4
f 2/22/4 66/23/4 5/24/4
f 2/25/4 5/26/4 3/27/4
f 3/28/4 5/29/4 8/30/4
f 3/31/4 8/32/4 14/33/4
f 14/34/4 8/35/4 36/36/4
f 14/37/4 36/38/4 35/39/4
f 35/40/4 36/41/4 37/42/4
f 35/43/4 37/44/4 34/45/4
f 34/46/4 37/47/4 33/48/4
f 33/49/4 37/50/4 38/51/4
f 33/52/4 38/53/4 77/54/4
f 77/55/4 38/56/4 76/57/4
f 76/58/4 38/59/4 39/60/4
f 76/61/4 39/62/4 67/63/4
f 67/64/4 39/65/4 5/66/4
f 67/67/4 5/68/4 66/69/4
f 12/70/4 62/71/4 11/72/4
f 11/73/4 62/74/4 65/75/4
f 11/76/4 65/77/4 66/78/4
f 13/79/4 16/80/4 12/81/4
f 12/82/4 16/83/4 17/84/4
f 12/85/4 17/86/4 61/87/4
f 61/88/4 17/89/4 60/90/4
f 60/91/4 17/92/4 18/93/4
f 60/94/4 18/95/4 59/96/4
f 59/97/4 18/98/4 19/99/4
f 59/100/4 19/101/4 20/102/4
f 16/103/4 13/104/4 15/105/4
f 15/106/4 13/107/4 9/108/4
f 15/109/4 9/110/4 3/111/4
f 14/112/4 15/113/4 3/114/4
f 21/115/4 54/116/4 20/117/4
f 20/118/4 54/119/4 55/120/4
f 20/121/4 55/122/4 58/123/4
f 58/124/4 55/125/4 56/126/4
f 58/127/4 56/128/4 63/129/4
f 63/130/4 56/131/4 64/132/4
f 63/133/4 64/134/4 62/135/4
f 62/136/4 64/137/4 65/138/4
f 21/139/4 22/140/4 54/141/4
f 54/142/4 22/143/4 53/144/4
f 53/145/4 22/146/4 51/147/4
f 53/148/4 51/149/4 52/150/4
f 52/151/4 51/152/4 46/153/4
f 52/154/4 46/155/4 73/156/4
f 73/157/4 46/158/4 47/159/4
f 73/160/4 47/161/4 72/162/4
f 72/163/4 47/164/4 26/165/4
f 72/166/4 26/167/4 71/168/4
f 71/169/4 26/170/4 27/171/4
f 71/172/4 27/173/4 45/174/4
f 45/175/4 27/176/4 28/177/4
f 45/178/4 28/179/4 44/180/4
f 44/181/4 28/182/4 29/183/4
f 44/184/4 29/185/4 43/186/4
f 43/187/4 29/188/4 42/189/4
f 42/190/4 29/191/4 30/192/4
f 42/193/4 30/194/4 31/195/4
f 51/196/4 22/197/4 50/198/4
f 50/199/4 22/200/4 23/201/4
f 50/202/4 23/203/4 24/204/4
f 25/205/4 48/206/4 24/207/4
f 24/208/4 48/209/4 49/210/4
f 24/211/4 49/212/4 50/213/4
f 48/214/4 25/215/4 47/216/4
f 47/217/4 25/218/4 26/219/4
f 32/220/4 78/221/4 31/222/4
f 31/223/4 78/224/4 79/225/4
f 31/226/4 79/227/4 41/228/4
f 41/229/4 79/230/4 40/231/4
f 40/232/4 79/233/4 80/234/4
f 40/235/4 80/236/4 70/237/4
f 70/238/4 80/239/4 81/240/4
f 70/241/4 81/242/4 75/243/4
f 75/244/4 81/245/4 68/246/4
f 75/247/4 68/248/4 74/249/4
f 74/250/4 68/251/4 69/252/4
f 74/253/4 69/254/4 57/255/4
f 57/256/4 69/257/4 64/258/4
f 57/259/4 64/260/4 56/261/4
f 32/262/4 33/263/4 78/264/4
f 78/265/4 33/266/4 77/267/4
f 41/268/4 42/269/4 31/270/4
f 71/271/4 45/272/4 70/273/4
f 70/274/4 45/275/4 40/276/4
f 74/277/4 57/278/4 73/279/4
f 73/280/4 57/281/4 52/282/4
f 58/283/4 59/284/4 20/285/4
f 61/286/4 62/287/4 12/288/4
f 76/289/4 67/290/4 81/291/4
f 81/292/4 67/293/4 68/294/4
f 8/295/5 7/296/5 36/297/5
f 36/298/5 7/299/5 82/300/5
f 6/301/4 83/302/4 7/303/4
f 7/304/4 83/305/4 84/306/4
f 7/307/4 84/308/4 85/309/4
f 85/310/4 82/311/4 7/312/4
f 4/313/4 10/314/4 1/315/4
f 1/316/4 10/317/4 86/318/4
f 1/319/4 86/320/4 87/321/4
f 87/322/4 88/323/4 1/324/4
f 83/325/6 39/326/6 84/327/6
f 84/328/6 39/329/6 38/330/6
f 76/331/5 89/332/5 77/333/5
f 77/334/5 89/335/5 90/336/5
f 84/337/1 38/338/1 85/339/1
f 85/340/1 38/341/1 37/342/1
f 77/343/3 90/344/3 78/345/3
f 78/346/3 90/347/3 91/348/3
f 91/349/4 90/350/4 94/351/4
f 94/352/4 90/353/4 89/354/4
f 94/355/4 89/356/4 93/357/4
f 93/358/4 89/359/4 92/360/4
f 95/361/3 70/362/3 96/363/3
f 96/364/3 70/365/3 75/366/3
f 80/367/7 93/368/7 81/369/7
f 81/370/7 93/371/7 92/372/7
f 70/373/1 95/374/1 71/375/1
f 71/376/1 95/377/1 97/378/1
f 95/379/4 96/380/4 97/381/4
f 97/382/4 96/383/4 98/384/4
f 97/385/4 98/386/4 100/387/4
f 100/388/4 98/389/4 99/390/4
f 96/391/5 75/392/5 98/393/5
f 98/394/5 75/395/5 74/396/5
f 93/397/6 80/398/6 94/399/6
f 94/400/6 80/401/6 79/402/6
f 40/403/5 101/404/5 41/405/5
f 41/406/5 101/407/5 102/408/5
f 106/409/4 102/410/4 105/411/4
f 105/412/4 102/413/4 101/414/4
f 105/415/4 101/416/4 103/417/4
f 103/418/4 104/419/4 105/420/4
f 94/421/1 79/422/1 91/423/1
f 91/424/1 79/425/1 78/426/1
f 101/427/2 40/428/2 103/429/2
f 103/430/2 40/431/2 45/432/2
f 71/433/6 97/434/6 72/435/6
f 72/436/6 97/437/6 100/438/6
f 107/439/5 46/440/5 108/441/5
f 108/442/5 46/443/5 51/444/5
f 52/445/6 109/446/6 53/447/6
f 53/448/6 109/449/6 110/450/6
f 46/451/3 107/452/3 47/453/3
f 47/454/3 107/455/3 111/456/3
f 111/457/4 107/458/4 114/459/4
f 114/460/4 107/461/4 108/462/4
f 114/463/4 108/464/4 113/465/4
f 113/466/4 108/467/4 112/468/4
f 108/469/2 51/470/2 112/471/2
f 112/472/2 51/473/2 50/474/2
f 115/475/7 64/476/7 116/477/7
f 116/478/7 64/479/7 69/480/7
f 56/481/3 117/482/3 57/483/3
f 57/484/3 117/485/3 118/486/3
f 64/487/2 115/488/2 65/489/2
f 65/490/2 115/491/2 119/492/2
f 115/493/4 116/494/4 119/495/4
f 119/496/4 116/497/4 120/498/4
f 119/499/4 120/500/4 121/501/4
f 121/502/4 122/503/4 119/504/4
f 116/505/6 69/506/6 120/507/6
f 120/508/6 69/509/6 68/510/6
f 123/511/6 58/512/6 124/513/6
f 124/514/6 58/515/6 63/516/6
f 124/517/1 63/518/1 125/519/1
f 125/520/1 63/521/1 62/522/1
f 117/523/5 56/524/5 126/525/5
f 126/526/5 56/527/5 55/528/5
f 58/529/7 123/530/7 59/531/7
f 59/532/7 123/533/7 127/534/7
f 123/535/4 124/536/4 127/537/4
f 127/538/4 124/539/4 129/540/4
f 129/541/4 124/542/4 128/543/4
f 128/544/4 124/545/4 125/546/4
f 125/547/3 62/548/3 128/549/3
f 128/550/3 62/551/3 61/552/3
f 87/553/7 12/554/7 88/555/7
f 88/556/7 12/557/7 11/558/7
f 2/559/6 1/560/6 11/561/6
f 11/562/6 1/563/6 88/564/6
f 6/565/7 5/566/7 83/567/7
f 83/568/7 5/569/7 39/570/7
f 89/571/2 76/572/2 92/573/2
f 92/574/2 76/575/2 81/576/2
f 98/577/2 74/578/2 99/579/2
f 99/580/2 74/581/2 73/582/2
f 99/583/7 73/584/7 100/585/7
f 100/586/7 73/587/7 72/588/7
f 65/589/5 119/590/5 66/591/5
f 66/592/5 119/593/5 122/594/5
f 121/595/3 67/596/3 122/597/3
f 122/598/3 67/599/3 66/600/3
f 120/601/1 68/602/1 121/603/1
f 121/604/1 68/605/1 67/606/1
f 109/607/1 52/608/1 118/609/1
f 118/610/1 52/611/1 57/612/1
f 12/613/2 87/614/2 13/615/2
f 13/616/2 87/617/2 86/618/2
f 103/619/7 45/620/7 104/621/7
f 104/622/7 45/623/7 44/624/7
f 104/625/6 44/626/6 105/627/6
f 105/628/6 44/629/6 43/630/6
f 105/631/1 43/632/1 106/633/1
f 106/634/1 43/635/1 42/636/1
f 41/637/3 102/638/3 42/639/3
f 42/640/3 102/641/3 106/642/3
f 85/643/3 37/644/3 82/645/3
f 82/646/3 37/647/3 36/648/3
f 10/649/5 9/650/5 86/651/5
f 86/652/5 9/653/5 13/654/5
f 47/655/1 111/656/1 48/657/1
f 48/658/1 111/659/1 114/660/1
f 113/661/6 49/662/6 114/663/6
f 114/664/6 49/665/6 48/666/6
f 112/667/7 50/668/7 113/669/7
f 113/670/7 50/671/7 49/672/7
f 53/673/7 110/674/7 54/675/7
f 54/676/7 110/677/7 130/678/7
f 126/679/2 55/680/2 130/681/2
f 130/682/2 55/683/2 54/684/2
f 129/685/2 60/686/2 127/687/2
f 127/688/2 60/689/2 59/690/2
f 128/691/5 61/692/5 129/693/5
f 129/694/5 61/695/5 60/696/5
f 17/697/2 16/698/2 132/699/2
f 132/700/2 16/701/2 131/702/2
f 16/703/5 15/704/5 131/705/5
f 131/706/5 15/707/5 133/708/5
f 15/709/3 14/710/3 133/711/3
f 133/712/3 14/713/3 134/714/3
f 14/715/5 35/716/5 134/717/5
f 134/718/5 35/719/5 135/720/5
f 35/721/3 34/722/3 135/723/3
f 135/724/3 34/725/3 136/726/3
f 34/727/1 33/728/1 136/729/1
f 136/730/1 33/731/1 137/732/1
f 33/733/3 32/734/3 137/735/3
f 137/736/3 32/737/3 138/738/3
f 32/739/1 31/740/1 138/741/1
f 138/742/1 31/743/1 139/744/1
f 31/745/3 30/746/3 139/747/3
f 139/748/3 30/749/3 140/750/3
f 30/751/1 29/752/1 140/753/1
f 140/754/1 29/755/1 141/756/1
f 29/757/6 28/758/6 141/759/6
f 141/760/6 28/761/6 142/762/6
f 28/763/7 27/764/7 142/765/7
f 142/766/7 27/767/7 143/768/7
f 18/769/5 17/770/5 144/771/5
f 144/772/5 17/773/5 132/774/5
f 19/775/2 18/776/2 145/777/2
f 145/778/2 18/779/2 144/780/2
f 20/781/7 19/782/7 146/783/7
f 146/784/7 19/785/7 145/786/7
f 21/787/2 20/788/2 147/789/2
f 147/790/2 20/791/2 146/792/2
f 22/793/7 21/794/7 148/795/7
f 148/796/7 21/797/7 147/798/7
f 23/799/2 22/800/2 149/801/2
f 149/802/2 22/803/2 148/804/2
f 24/805/7 23/806/7 150/807/7
f 150/808/7 23/809/7 149/810/7
f 25/811/6 24/812/6 151/813/6
f 151/814/6 24/815/6 150/816/6
f 26/817/1 25/818/1 152/819/1
f 152/820/1 25/821/1 151/822/1
f 27/823/6 26/824/6 143/825/6
f 143/826/6 26/827/6 152/828/6
f 152/829/8 146/830/8 143/831/8
f 143/832/8 146/833/8 139/834/8
f 143/835/8 139/836/8 140/837/8
f 146/838/8 152/839/8 148/840/8
f 148/841/8 152/842/8 151/843/8
f 148/844/8 151/845/8 149/846/8
f 149/847/8 151/848/8 150/849/8
f 148/850/8 147/851/8 146/852/8
f 145/853/8 144/854/8 146/855/8
f 146/856/8 144/857/8 132/858/8
f 146/859/8 132/860/8 137/861/8
f 137/862/8 132/863/8 134/864/8
f 137/865/8 134/866/8 136/867/8
f 136/868/8 134/869/8 135/870/8
f 132/871/8 131/872/8 134/873/8
f 134/874/8 131/875/8 133/876/8
f 138/877/8 139/878/8 137/879/8
f 137/880/8 139/881/8 146/882/8
f 140/883/8 141/884/8 143/885/8
f 143/886/8 141/887/8 142/888/8
f 130/889/4 110/890/4 126/891/4
f 126/892/4 110/893/4 109/894/4
f 126/895/4 109/896/4 118/897/4
f 118/898/4 117/899/4 126/900/4
