# WaveFront *.obj file (generated by Autodesk ATF)

mtllib Border Hex.mtl

g Body1

v -37.239099 -3.000000 37.500000
v -37.239099 -2.000000 37.500000
v -51.095451 -2.000000 61.500000
v -51.095451 -3.000000 61.500000
v -35.507049 -2.000000 38.500000
v -35.507049 -3.000000 38.500000
v -49.363401 -3.000000 62.500000
v -49.363401 -2.000000 62.500000
v -78.808251 -2.000000 61.500000
v -78.808251 -3.000000 61.500000
v -51.095451 -2.000000 13.500000
v -78.808251 -2.000000 13.500000
v -92.664699 -2.000000 37.500000
v -50.518100 -2.000000 62.500000
v -79.385600 -2.000000 62.500000
v -93.819400 -2.000000 37.500000
v -79.385600 -2.000000 12.500000
v -93.819400 -2.000000 -12.500000
v -79.385600 -2.000000 -37.500000
v -50.518100 -2.000000 -37.500000
v -36.084400 -2.000000 -62.500000
v -7.216900 -2.000000 -62.500000
v 7.216900 -2.000000 -87.500000
v 36.084400 -2.000000 -87.500000
v 50.518200 -2.000000 -62.500000
v 36.084400 -2.000000 -37.500000
v 50.518200 -2.000000 -12.500000
v 79.385700 -2.000000 -12.500000
v 93.819400 -2.000000 12.500000
v 79.385700 -2.000000 37.500000
v 50.518200 -2.000000 37.500000
v 36.084400 -2.000000 62.500000
v 7.216900 -2.000000 62.500000
v -7.216900 -2.000000 87.500000
v -36.084400 -2.000000 87.500000
v -35.507049 -2.000000 86.500000
v -7.794249 -2.000000 86.500000
v 6.062199 -2.000000 62.500000
v -7.794249 -2.000000 38.500000
v 37.239101 -2.000000 12.500000
v 51.095549 -2.000000 36.500000
v 78.808349 -2.000000 36.500000
v 92.664701 -2.000000 12.500000
v 78.808349 -2.000000 -11.500000
v 51.095549 -2.000000 -11.500000
v 7.794249 -2.000000 -38.500000
v 35.507051 -2.000000 -38.500000
v 49.363499 -2.000000 -62.500000
v 35.507051 -2.000000 -86.500000
v 7.794249 -2.000000 -86.500000
v -6.062199 -2.000000 -62.500000
v 6.062199 -2.000000 -37.500000
v -7.794249 -2.000000 -61.500000
v -35.507049 -2.000000 -61.500000
v -49.363401 -2.000000 -37.500000
v -35.507049 -2.000000 -13.500000
v -7.794249 -2.000000 -13.500000
v -51.095451 -2.000000 -36.500000
v -78.808251 -2.000000 -36.500000
v -92.664699 -2.000000 -12.500000
v -78.808251 -2.000000 11.500000
v -51.095451 -2.000000 11.500000
v -37.239099 -2.000000 -12.500000
v -35.507049 -2.000000 -11.500000
v -49.363401 -2.000000 12.500000
v -35.507049 -2.000000 36.500000
v -7.794249 -2.000000 36.500000
v 6.062199 -2.000000 12.500000
v -7.794249 -2.000000 -11.500000
v 35.507051 -2.000000 11.500000
v 49.363499 -2.000000 -12.500000
v 35.507051 -2.000000 -36.500000
v 7.794249 -2.000000 -36.500000
v -6.062199 -2.000000 -12.500000
v 7.794249 -2.000000 11.500000
v -6.062199 -2.000000 37.500000
v 7.794249 -2.000000 61.500000
v 35.507051 -2.000000 61.500000
v 49.363499 -2.000000 37.500000
v 35.507051 -2.000000 13.500000
v 7.794249 -2.000000 13.500000
v -35.507049 -3.000000 86.500000
v -7.794249 -3.000000 38.500000
v 6.062199 -3.000000 62.500000
v -7.794249 -3.000000 86.500000
v -92.664699 -3.000000 37.500000
v -78.808251 -3.000000 13.500000
v -51.095451 -3.000000 13.500000
v -6.062199 -3.000000 37.500000
v 7.794249 -3.000000 61.500000
v 35.507051 -3.000000 61.500000
v 7.794249 -3.000000 13.500000
v 35.507051 -3.000000 13.500000
v 49.363499 -3.000000 37.500000
v 35.507051 -3.000000 11.500000
v 7.794249 -3.000000 11.500000
v 49.363499 -3.000000 -12.500000
v -6.062199 -3.000000 -12.500000
v 7.794249 -3.000000 -36.500000
v 35.507051 -3.000000 -36.500000
v 37.239101 -3.000000 12.500000
v 51.095549 -3.000000 36.500000
v 51.095549 -3.000000 -11.500000
v 78.808349 -3.000000 -11.500000
v 92.664701 -3.000000 12.500000
v 78.808349 -3.000000 36.500000
v 7.794249 -3.000000 -38.500000
v -6.062199 -3.000000 -62.500000
v 6.062199 -3.000000 -37.500000
v -7.794249 -3.000000 -61.500000
v 35.507051 -3.000000 -38.500000
v 7.794249 -3.000000 -86.500000
v 35.507051 -3.000000 -86.500000
v 49.363499 -3.000000 -62.500000
v -35.507049 -3.000000 -11.500000
v -7.794249 -3.000000 -11.500000
v -35.507049 -3.000000 -13.500000
v -7.794249 -3.000000 -13.500000
v -49.363401 -3.000000 12.500000
v 6.062199 -3.000000 12.500000
v -7.794249 -3.000000 36.500000
v -35.507049 -3.000000 36.500000
v -51.095451 -3.000000 -36.500000
v -37.239099 -3.000000 -12.500000
v -51.095451 -3.000000 11.500000
v -49.363401 -3.000000 -37.500000
v -78.808251 -3.000000 -36.500000
v -78.808251 -3.000000 11.500000
v -92.664699 -3.000000 -12.500000
v -35.507049 -3.000000 -61.500000
v -93.819400 0.000000 37.500000
v -79.385600 0.000000 12.500000
v -79.385600 0.000000 62.500000
v -50.518100 0.000000 62.500000
v -36.084400 0.000000 87.500000
v -7.216900 0.000000 87.500000
v 7.216900 0.000000 62.500000
v 36.084400 0.000000 62.500000
v 50.518200 0.000000 37.500000
v 79.385700 0.000000 37.500000
v 93.819400 0.000000 12.500000
v 79.385700 0.000000 -12.500000
v 50.518200 0.000000 -12.500000
v -93.819400 0.000000 -12.500000
v -79.385600 0.000000 -37.500000
v -50.518100 0.000000 -37.500000
v -36.084400 0.000000 -62.500000
v -7.216900 0.000000 -62.500000
v 7.216900 0.000000 -87.500000
v 36.084400 0.000000 -87.500000
v 50.518200 0.000000 -62.500000
v 36.084400 0.000000 -37.500000
vt -0.100000 0.057735 0.000000
vt 0.000000 0.057735 0.000000
vt -0.100000 2.829013 0.000000
vt -0.000000 2.829013 0.000000
vt -0.200000 0.057735 0.000000
vt -0.100000 0.057735 0.000000
vt -0.200000 2.829014 0.000000
vt -0.100000 2.829014 0.000000
vt -0.100000 0.057735 0.000000
vt -0.000000 0.057735 0.000000
vt -0.100000 2.829015 0.000000
vt -0.000000 2.829015 0.000000
vt -2.499997 -2.944490 0.000000
vt -2.699988 -5.715769 0.000000
vt -2.499988 -5.715768 0.000000
vt -2.599988 -5.888974 0.000000
vt -0.099991 -7.101409 0.000000
vt -0.199991 -7.274614 0.000000
vt -0.099991 -7.216879 0.000000
vt -0.199983 -10.045892 0.000000
vt -0.099983 -10.103627 0.000000
vt -2.599980 -11.431536 0.000000
vt -2.599980 -11.547006 0.000000
vt -5.099985 -10.103635 0.000000
vt -4.999985 -10.045900 0.000000
vt -5.199985 -10.045900 0.000000
vt -5.199985 -7.274617 0.000000
vt -4.999985 -7.274617 0.000000
vt -5.099985 -7.101412 0.000000
vt -0.100000 -1.558847 0.000000
vt -2.599997 -2.771285 0.000000
vt -2.699997 -2.944490 0.000000
vt 2.300006 -2.944482 0.000000
vt 2.400006 -2.886747 0.000000
vt -0.100000 -1.443377 0.000000
vt -0.200000 -1.385642 0.000000
vt -0.200000 1.385642 0.000000
vt -0.100000 1.443377 0.000000
vt -2.600005 2.771277 0.000000
vt -2.600006 2.886747 0.000000
vt -5.100003 1.443369 0.000000
vt 2.400006 -5.773501 0.000000
vt 2.300006 -5.715766 0.000000
vt -7.600000 2.886744 0.000000
vt -7.599999 2.771274 0.000000
vt -5.200002 1.385634 0.000000
vt -5.000002 1.385634 0.000000
vt -5.199994 -1.385645 0.000000
vt -4.999994 -1.385645 0.000000
vt -5.099994 -1.558850 0.000000
vt -10.099997 1.443366 0.000000
vt -9.999997 1.385631 0.000000
vt -10.199997 1.385631 0.000000
vt -9.999997 -1.385653 0.000000
vt -10.199997 -1.385653 0.000000
vt -10.099996 -1.558858 0.000000
vt -12.599994 -2.771296 0.000000
vt -12.499993 -2.944501 0.000000
vt -12.599993 -2.886766 0.000000
vt -12.499993 -5.715784 0.000000
vt -12.599993 -5.773519 0.000000
vt -12.599993 -5.888989 0.000000
vt -15.099990 -7.216898 0.000000
vt -14.999990 -7.274633 0.000000
vt -15.099982 -10.103646 0.000000
vt -14.999982 -10.045911 0.000000
vt -12.599985 -11.431551 0.000000
vt -12.599985 -11.547021 0.000000
vt -10.099988 -10.103643 0.000000
vt -12.600002 2.771266 0.000000
vt -12.600002 2.886736 0.000000
vt -15.099999 1.443358 0.000000
vt -15.099999 -1.443396 0.000000
vt -14.999999 -1.385660 0.000000
vt -14.999999 1.385623 0.000000
vt -7.599982 -11.547014 0.000000
vt -7.599982 -11.431543 0.000000
vt -9.999988 -10.045908 0.000000
vt -10.199988 -10.045908 0.000000
vt -10.199988 -7.274625 0.000000
vt -9.999988 -7.274625 0.000000
vt -10.099988 -7.101420 0.000000
vt -7.599991 -5.888982 0.000000
vt -7.699991 -5.715777 0.000000
vt -7.499991 -5.715776 0.000000
vt -7.699991 -2.944493 0.000000
vt -7.499991 -2.944493 0.000000
vt -7.599991 -2.771288 0.000000
vt -0.000000 2.829014 0.000000
vt -0.100000 2.829014 0.000000
vt -0.000000 0.057735 0.000000
vt -0.100000 0.057735 0.000000
vt 3.550705 -3.850000 0.000000
vt 0.779425 -3.850000 0.000000
vt 4.936340 -6.250000 0.000000
vt -0.606220 -6.250000 0.000000
vt 0.779425 -8.650000 0.000000
vt 3.550705 -8.650000 0.000000
vt 5.109545 -6.150000 0.000000
vt 7.880825 -6.150000 0.000000
vt 3.723910 -3.750000 0.000000
vt 9.266470 -3.750000 0.000000
vt 7.880825 -1.350000 0.000000
vt 5.109545 -1.350000 0.000000
vt -0.100000 0.057735 0.000000
vt 0.000000 0.057735 0.000000
vt -0.100000 2.829018 0.000000
vt -0.000000 2.829018 0.000000
vt -0.200000 0.057735 0.000000
vt -0.100000 0.057735 0.000000
vt -0.200000 2.829019 0.000000
vt -0.100000 2.829019 0.000000
vt -0.100000 0.057735 0.000000
vt 0.000000 0.057735 0.000000
vt -0.100000 2.829019 0.000000
vt 0.000000 2.829019 0.000000
vt 0.000000 2.829015 0.000000
vt -0.100000 2.829015 0.000000
vt -0.000000 0.057735 0.000000
vt -0.100000 0.057735 0.000000
vt -3.550705 -6.150000 0.000000
vt -0.779425 -6.150000 0.000000
vt -4.936350 -3.750000 0.000000
vt 0.606220 -3.750000 0.000000
vt -3.550705 -1.350000 0.000000
vt -0.779425 -1.350000 0.000000
vt -0.100000 0.057735 0.000000
vt -0.000000 0.057735 0.000000
vt -0.100000 2.829015 0.000000
vt -0.000000 2.829015 0.000000
vt -0.200000 0.057735 0.000000
vt -0.100000 0.057735 0.000000
vt -0.200000 2.829015 0.000000
vt -0.100000 2.829015 0.000000
vt -0.000000 2.829019 0.000000
vt -0.100000 2.829019 0.000000
vt -0.000000 0.057735 0.000000
vt -0.100000 0.057735 0.000000
vt -3.550705 -1.150000 0.000000
vt -0.779425 -1.150000 0.000000
vt -4.936350 1.250000 0.000000
vt 0.606220 1.250000 0.000000
vt -3.550705 3.650000 0.000000
vt -0.779425 3.650000 0.000000
vt -0.100000 2.771283 0.000000
vt -0.200000 2.771283 0.000000
vt -0.100000 0.000000 0.000000
vt -0.200000 -0.000000 0.000000
vt -0.100000 0.057735 0.000000
vt -0.000000 0.057735 0.000000
vt -0.100000 2.829018 0.000000
vt -0.000000 2.829018 0.000000
vt -0.200000 0.057735 0.000000
vt -0.100000 0.057735 0.000000
vt -0.200000 2.829019 0.000000
vt -0.100000 2.829019 0.000000
vt -7.880835 -3.650000 0.000000
vt -5.109555 -3.650000 0.000000
vt -9.266470 -1.250000 0.000000
vt -3.723910 -1.250000 0.000000
vt -5.109555 1.150000 0.000000
vt -7.880835 1.150000 0.000000
vt -0.100000 0.057735 0.000000
vt 0.000000 0.057735 0.000000
vt -0.100000 2.829019 0.000000
vt 0.000000 2.829019 0.000000
vt -0.100000 2.829018 0.000000
vt -0.200000 2.829018 0.000000
vt -0.100000 0.057735 0.000000
vt -0.200000 0.057735 0.000000
vt -0.000000 2.829018 0.000000
vt -0.100000 2.829018 0.000000
vt -0.000000 0.057735 0.000000
vt -0.100000 0.057735 0.000000
vt -0.100000 2.829019 0.000000
vt -0.200000 2.829019 0.000000
vt -0.100000 0.057735 0.000000
vt -0.200000 0.057735 0.000000
vt -0.000000 2.829018 0.000000
vt -0.100000 2.829018 0.000000
vt -0.000000 0.057735 0.000000
vt -0.100000 0.057735 0.000000
vt -0.000000 2.829015 0.000000
vt -0.100000 2.829015 0.000000
vt -0.000000 0.057735 0.000000
vt -0.100000 0.057735 0.000000
vt -3.550705 3.850000 0.000000
vt -0.779425 3.850000 0.000000
vt -4.936350 6.250000 0.000000
vt 0.606220 6.250000 0.000000
vt -3.550705 8.650000 0.000000
vt -0.779425 8.650000 0.000000
vt -0.100000 0.057735 0.000000
vt -0.000000 0.057735 0.000000
vt -0.100000 2.829019 0.000000
vt -0.000000 2.829019 0.000000
vt -0.100000 2.829015 0.000000
vt -0.200000 2.829015 0.000000
vt -0.100000 0.057735 0.000000
vt -0.200000 0.057735 0.000000
vt -0.000000 2.829015 0.000000
vt -0.100000 2.829015 0.000000
vt -0.000000 0.057735 0.000000
vt -0.100000 0.057735 0.000000
vt 0.000000 2.829013 0.000000
vt -0.100000 2.829013 0.000000
vt 0.000000 0.057735 0.000000
vt -0.100000 0.057735 0.000000
vt 3.550705 1.150000 0.000000
vt 0.779425 1.150000 0.000000
vt 4.936340 -1.250000 0.000000
vt -0.606220 -1.250000 0.000000
vt 0.779425 -3.650000 0.000000
vt 3.550705 -3.650000 0.000000
vt -0.100000 0.115470 0.000000
vt -0.000000 0.115470 0.000000
vt -0.100000 2.886754 0.000000
vt 0.000000 2.886754 0.000000
vt -0.100000 2.771279 0.000000
vt -0.200000 2.771279 0.000000
vt -0.100000 0.000000 0.000000
vt -0.200000 0.000000 0.000000
vt -0.100000 2.829014 0.000000
vt -0.200000 2.829014 0.000000
vt -0.100000 0.057735 0.000000
vt -0.200000 0.057735 0.000000
vt -0.100000 0.115470 0.000000
vt -0.000000 0.115470 0.000000
vt -0.100000 2.886749 0.000000
vt -0.000000 2.886749 0.000000
vt -0.000000 2.829015 0.000000
vt -0.100000 2.829015 0.000000
vt -0.000000 0.057735 0.000000
vt -0.100000 0.057735 0.000000
vt 5.109545 3.650000 0.000000
vt 3.723910 1.250000 0.000000
vt 7.880825 3.650000 0.000000
vt 9.266470 1.250000 0.000000
vt 7.880825 -1.150000 0.000000
vt 5.109545 -1.150000 0.000000
vt -0.100000 0.115470 0.000000
vt -0.000000 0.115470 0.000000
vt -0.100000 2.886750 0.000000
vt -0.000000 2.886750 0.000000
vt -0.100000 2.771280 0.000000
vt -0.200000 2.771280 0.000000
vt -0.100000 0.000000 0.000000
vt -0.200000 -0.000000 0.000000
vt -0.200000 0.115470 0.000000
vt -0.100000 0.115470 0.000000
vt -0.200000 2.886749 0.000000
vt -0.100000 2.886749 0.000000
vt -0.100000 2.886750 0.000000
vt -0.200000 2.886750 0.000000
vt -0.100000 0.115470 0.000000
vt -0.200000 0.115470 0.000000
vt -0.100000 2.886754 0.000000
vt -0.200000 2.886754 0.000000
vt -0.100000 0.115470 0.000000
vt -0.200000 0.115470 0.000000
vt -0.100000 2.771283 0.000000
vt -0.200000 2.771283 0.000000
vt -0.100000 0.000000 0.000000
vt -0.200000 -0.000000 0.000000
vt -0.100000 2.829015 0.000000
vt -0.200000 2.829015 0.000000
vt -0.100000 0.057735 0.000000
vt -0.200000 0.057735 0.000000
vt -0.000000 2.771279 0.000000
vt -0.100000 2.771279 0.000000
vt -0.000000 -0.000000 0.000000
vt -0.100000 0.000000 0.000000
vt -0.100000 0.000000 0.000000
vt -0.000000 -0.000000 0.000000
vt -0.100000 2.771280 0.000000
vt -0.000000 2.771280 0.000000
vt -0.100000 -0.000000 0.000000
vt 0.000000 -0.000000 0.000000
vt -0.100000 2.771283 0.000000
vt 0.000000 2.771283 0.000000
vt -0.100000 0.115470 0.000000
vt -0.000000 0.115470 0.000000
vt -0.100000 2.886754 0.000000
vt -0.000000 2.886754 0.000000
vt 0.000000 2.829019 0.000000
vt -0.100000 2.829019 0.000000
vt -0.000000 0.057735 0.000000
vt -0.100000 0.057735 0.000000
vt -0.100000 0.057735 0.000000
vt -0.000000 0.057735 0.000000
vt -0.100000 2.829015 0.000000
vt -0.000000 2.829015 0.000000
vt -0.100000 0.057735 0.000000
vt -0.000000 0.057735 0.000000
vt -0.100000 2.829014 0.000000
vt -0.000000 2.829014 0.000000
vt -0.100000 0.057735 0.000000
vt 0.000000 0.057735 0.000000
vt -0.100000 2.829013 0.000000
vt 0.000000 2.829013 0.000000
vt 0.000000 2.829015 0.000000
vt -0.100000 2.829015 0.000000
vt -0.000000 0.057735 0.000000
vt -0.100000 0.057735 0.000000
vt -0.100000 0.057735 0.000000
vt -0.000000 0.057735 0.000000
vt -0.100000 2.829015 0.000000
vt -0.000000 2.829015 0.000000
vt -0.100000 0.057735 0.000000
vt -0.000000 0.057735 0.000000
vt -0.100000 2.829018 0.000000
vt -0.000000 2.829018 0.000000
vt 0.000000 2.829019 0.000000
vt -0.100000 2.829019 0.000000
vt 0.000000 0.057735 0.000000
vt -0.100000 0.057735 0.000000
vt -0.100000 0.057735 0.000000
vt -0.000000 0.057735 0.000000
vt -0.100000 2.829018 0.000000
vt -0.000000 2.829018 0.000000
vt -0.100000 0.057735 0.000000
vt -0.000000 0.057735 0.000000
vt -0.100000 2.829015 0.000000
vt -0.000000 2.829015 0.000000
vt -0.000000 2.829015 0.000000
vt -0.100000 2.829015 0.000000
vt -0.000000 0.057735 0.000000
vt -0.100000 0.057735 0.000000
vt -0.100000 0.057735 0.000000
vt -0.000000 0.057735 0.000000
vt -0.100000 2.829013 0.000000
vt -0.000000 2.829013 0.000000
vt -0.100000 0.057735 0.000000
vt -0.000000 0.057735 0.000000
vt -0.100000 2.829019 0.000000
vt -0.000000 2.829019 0.000000
vt -0.100000 -1.385642 0.000000
vt -0.000000 -1.385642 0.000000
vt -0.100000 1.385642 0.000000
vt -0.000000 1.385642 0.000000
vt -0.000000 0.100000 0.000000
vt 2.886754 0.100000 0.000000
vt -0.000000 0.300000 0.000000
vt 2.886754 0.300000 0.000000
vt 0.000000 0.100000 0.000000
vt 2.886754 0.100000 0.000000
vt 0.000000 0.300000 0.000000
vt 2.886754 0.300000 0.000000
vt 0.000000 0.100000 0.000000
vt 2.886750 0.100000 0.000000
vt -0.000000 0.300000 0.000000
vt 2.886750 0.300000 0.000000
vt 0.000000 0.100000 0.000000
vt 2.886749 0.100000 0.000000
vt -0.000000 0.300000 0.000000
vt 2.886749 0.300000 0.000000
vt 0.000000 0.100000 0.000000
vt 2.886750 0.100000 0.000000
vt 0.000000 0.300000 0.000000
vt 2.886750 0.300000 0.000000
vt 0.000000 0.100000 0.000000
vt 2.886754 0.100000 0.000000
vt 0.000000 0.300000 0.000000
vt 2.886754 0.300000 0.000000
vt 0.000000 0.100000 0.000000
vt 2.886750 0.100000 0.000000
vt 0.000000 0.300000 0.000000
vt 2.886750 0.300000 0.000000
vt 0.000000 0.100000 0.000000
vt 2.886754 0.100000 0.000000
vt 0.000000 0.300000 0.000000
vt 2.886754 0.300000 0.000000
vt 0.000000 0.100000 0.000000
vt 2.886750 0.100000 0.000000
vt 0.000000 0.300000 0.000000
vt 2.886750 0.300000 0.000000
vt 0.000000 0.100000 0.000000
vt 2.886749 0.100000 0.000000
vt 0.000000 0.300000 0.000000
vt 2.886749 0.300000 0.000000
vt 0.000000 0.100000 0.000000
vt 2.886749 0.100000 0.000000
vt 0.000000 0.300000 0.000000
vt 2.886749 0.300000 0.000000
vt -0.000000 0.100000 0.000000
vt 2.886750 0.100000 0.000000
vt -0.000000 0.300000 0.000000
vt 2.886750 0.300000 0.000000
vt 0.000000 0.100000 0.000000
vt 2.886754 0.100000 0.000000
vt 0.000000 0.300000 0.000000
vt 2.886754 0.300000 0.000000
vt -0.000000 0.100000 0.000000
vt 2.886754 0.100000 0.000000
vt -0.000000 0.300000 0.000000
vt 2.886754 0.300000 0.000000
vt -0.000000 0.100000 0.000000
vt 2.886750 0.100000 0.000000
vt 0.000000 0.300000 0.000000
vt 2.886750 0.300000 0.000000
vt -0.000000 0.100000 0.000000
vt 2.886749 0.100000 0.000000
vt -0.000000 0.300000 0.000000
vt 2.886749 0.300000 0.000000
vt -0.000000 0.100000 0.000000
vt 2.886750 0.100000 0.000000
vt -0.000000 0.300000 0.000000
vt 2.886750 0.300000 0.000000
vt -0.000000 0.100000 0.000000
vt 2.886754 0.100000 0.000000
vt -0.000000 0.300000 0.000000
vt 2.886754 0.300000 0.000000
vt -0.000000 0.100000 0.000000
vt 2.886750 0.100000 0.000000
vt -0.000000 0.300000 0.000000
vt 2.886750 0.300000 0.000000
vt 0.000000 0.100000 0.000000
vt 2.886754 0.100000 0.000000
vt 0.000000 0.300000 0.000000
vt 2.886754 0.300000 0.000000
vt 0.000000 0.100000 0.000000
vt 2.886754 0.100000 0.000000
vt 0.000000 0.300000 0.000000
vt 2.886754 0.300000 0.000000
vt 0.000000 0.100000 0.000000
vt 2.886754 0.100000 0.000000
vt 0.000000 0.300000 0.000000
vt 2.886754 0.300000 0.000000
vt 3.608440 3.750000 0.000000
vt -5.051810 3.750000 0.000000
vt 5.051820 1.250000 0.000000
vt 5.051820 -3.750000 0.000000
vt 7.938570 -3.750000 0.000000
vt -0.721690 6.250000 0.000000
vt 5.051820 6.250000 0.000000
vt 0.721690 8.750000 0.000000
vt 3.608440 8.750000 0.000000
vt -3.608440 6.250000 0.000000
vt -7.938560 3.750000 0.000000
vt -9.381940 1.250000 0.000000
vt -7.938560 -1.250000 0.000000
vt 0.721690 -6.250000 0.000000
vt -5.051810 -6.250000 0.000000
vt -0.721690 -8.750000 0.000000
vt -3.608440 -8.750000 0.000000
vt -9.381940 -3.750000 0.000000
vt -7.938560 -6.250000 0.000000
vt 3.608440 -6.250000 0.000000
vt 9.381940 -1.250000 0.000000
vt 7.938570 1.250000 0.000000
vt 3.550705 6.150000 0.000000
vt 0.779425 6.150000 0.000000
vt 4.936340 3.750000 0.000000
vt -0.606220 3.750000 0.000000
vt 0.779425 1.350000 0.000000
vt 3.550705 1.350000 0.000000
vn 0.086603 0.000000 0.050000
vn 0.086603 0.000000 0.050000
vn 0.086603 0.000000 0.050000
vn 0.086603 0.000000 0.050000
vn -0.086603 0.000000 -0.050000
vn -0.086603 0.000000 -0.050000
vn -0.086603 0.000000 -0.050000
vn -0.086603 0.000000 -0.050000
vn 0.000000 0.000000 0.100000
vn 0.000000 0.000000 0.100000
vn 0.000000 0.000000 0.100000
vn 0.000000 0.000000 0.100000
vn 0.000000 -0.100000 0.000000
vn 0.000000 -0.100000 0.000000
vn 0.000000 -0.100000 0.000000
vn 0.000000 -0.100000 0.000000
vn 0.000000 -0.100000 0.000000
vn 0.000000 -0.100000 0.000000
vn 0.000000 -0.100000 0.000000
vn 0.000000 -0.100000 0.000000
vn 0.000000 -0.100000 0.000000
vn 0.000000 -0.100000 0.000000
vn 0.000000 -0.100000 0.000000
vn 0.000000 -0.100000 0.000000
vn 0.000000 -0.100000 0.000000
vn 0.000000 -0.100000 0.000000
vn 0.000000 -0.100000 0.000000
vn 0.000000 -0.100000 0.000000
vn 0.000000 -0.100000 0.000000
vn 0.000000 -0.100000 0.000000
vn 0.000000 -0.100000 0.000000
vn 0.000000 -0.100000 0.000000
vn 0.000000 -0.100000 0.000000
vn 0.000000 -0.100000 0.000000
vn 0.000000 -0.100000 0.000000
vn 0.000000 -0.100000 0.000000
vn 0.000000 -0.100000 0.000000
vn 0.000000 -0.100000 0.000000
vn 0.000000 -0.100000 0.000000
vn 0.000000 -0.100000 0.000000
vn 0.000000 -0.100000 0.000000
vn 0.000000 -0.100000 0.000000
vn 0.000000 -0.100000 0.000000
vn 0.000000 -0.100000 0.000000
vn 0.000000 -0.100000 0.000000
vn 0.000000 -0.100000 0.000000
vn 0.000000 -0.100000 0.000000
vn 0.000000 -0.100000 0.000000
vn 0.000000 -0.100000 0.000000
vn 0.000000 -0.100000 0.000000
vn 0.000000 -0.100000 0.000000
vn 0.000000 -0.100000 0.000000
vn 0.000000 -0.100000 0.000000
vn 0.000000 -0.100000 0.000000
vn 0.000000 -0.100000 0.000000
vn 0.000000 -0.100000 0.000000
vn 0.000000 -0.100000 0.000000
vn 0.000000 -0.100000 0.000000
vn 0.000000 -0.100000 0.000000
vn 0.000000 -0.100000 0.000000
vn 0.000000 -0.100000 0.000000
vn 0.000000 -0.100000 0.000000
vn 0.000000 -0.100000 0.000000
vn 0.000000 -0.100000 0.000000
vn 0.000000 -0.100000 0.000000
vn 0.000000 -0.100000 0.000000
vn 0.000000 -0.100000 0.000000
vn 0.000000 -0.100000 0.000000
vn 0.000000 -0.100000 0.000000
vn 0.000000 -0.100000 0.000000
vn 0.000000 -0.100000 0.000000
vn 0.000000 -0.100000 0.000000
vn 0.000000 -0.100000 0.000000
vn 0.000000 -0.100000 0.000000
vn 0.000000 -0.100000 0.000000
vn 0.000000 -0.100000 0.000000
vn 0.000000 -0.100000 0.000000
vn 0.000000 -0.100000 0.000000
vn 0.000000 -0.100000 0.000000
vn 0.000000 -0.100000 0.000000
vn 0.000000 -0.100000 0.000000
vn 0.000000 -0.100000 0.000000
vn 0.000000 -0.100000 0.000000
vn 0.000000 -0.100000 0.000000
vn 0.000000 -0.100000 0.000000
vn 0.000000 -0.100000 0.000000
vn 0.000000 -0.100000 0.000000
vn 0.000000 -0.100000 0.000000
vn -0.086603 0.000000 0.050000
vn -0.086603 0.000000 0.050000
vn -0.086603 0.000000 0.050000
vn -0.086603 0.000000 0.050000
vn 0.000000 -0.100000 0.000000
vn 0.000000 -0.100000 0.000000
vn 0.000000 -0.100000 0.000000
vn 0.000000 -0.100000 0.000000
vn 0.000000 -0.100000 0.000000
vn 0.000000 -0.100000 0.000000
vn 0.000000 -0.100000 0.000000
vn 0.000000 -0.100000 0.000000
vn 0.000000 -0.100000 0.000000
vn 0.000000 -0.100000 0.000000
vn 0.000000 -0.100000 0.000000
vn 0.000000 -0.100000 0.000000
vn 0.086602 0.000000 -0.050000
vn 0.086602 0.000000 -0.050000
vn 0.086602 0.000000 -0.050000
vn 0.086602 0.000000 -0.050000
vn -0.086602 0.000000 0.050000
vn -0.086602 0.000000 0.050000
vn -0.086602 0.000000 0.050000
vn -0.086602 0.000000 0.050000
vn 0.086602 0.000000 0.050000
vn 0.086602 0.000000 0.050000
vn 0.086602 0.000000 0.050000
vn 0.086602 0.000000 0.050000
vn 0.000000 0.000000 0.100000
vn 0.000000 0.000000 0.100000
vn 0.000000 0.000000 0.100000
vn 0.000000 0.000000 0.100000
vn 0.000000 -0.100000 0.000000
vn 0.000000 -0.100000 0.000000
vn 0.000000 -0.100000 0.000000
vn 0.000000 -0.100000 0.000000
vn 0.000000 -0.100000 0.000000
vn 0.000000 -0.100000 0.000000
vn 0.000000 0.000000 0.100000
vn 0.000000 0.000000 0.100000
vn 0.000000 0.000000 0.100000
vn 0.000000 0.000000 0.100000
vn 0.000000 0.000000 -0.100000
vn 0.000000 0.000000 -0.100000
vn 0.000000 0.000000 -0.100000
vn 0.000000 0.000000 -0.100000
vn 0.086602 0.000000 0.050000
vn 0.086602 0.000000 0.050000
vn 0.086602 0.000000 0.050000
vn 0.086602 0.000000 0.050000
vn 0.000000 -0.100000 0.000000
vn 0.000000 -0.100000 0.000000
vn 0.000000 -0.100000 0.000000
vn 0.000000 -0.100000 0.000000
vn 0.000000 -0.100000 0.000000
vn 0.000000 -0.100000 0.000000
vn -0.086602 0.000000 0.050000
vn -0.086602 0.000000 0.050000
vn -0.086602 0.000000 0.050000
vn -0.086602 0.000000 0.050000
vn 0.086602 0.000000 -0.050000
vn 0.086602 0.000000 -0.050000
vn 0.086602 0.000000 -0.050000
vn 0.086602 0.000000 -0.050000
vn -0.086602 0.000000 0.050000
vn -0.086602 0.000000 0.050000
vn -0.086602 0.000000 0.050000
vn -0.086602 0.000000 0.050000
vn 0.000000 -0.100000 0.000000
vn 0.000000 -0.100000 0.000000
vn 0.000000 -0.100000 0.000000
vn 0.000000 -0.100000 0.000000
vn 0.000000 -0.100000 0.000000
vn 0.000000 -0.100000 0.000000
vn 0.086602 0.000000 0.050000
vn 0.086602 0.000000 0.050000
vn 0.086602 0.000000 0.050000
vn 0.086602 0.000000 0.050000
vn -0.086602 0.000000 -0.050000
vn -0.086602 0.000000 -0.050000
vn -0.086602 0.000000 -0.050000
vn -0.086602 0.000000 -0.050000
vn 0.086602 0.000000 -0.050000
vn 0.086602 0.000000 -0.050000
vn 0.086602 0.000000 -0.050000
vn 0.086602 0.000000 -0.050000
vn -0.086602 0.000000 0.050000
vn -0.086602 0.000000 0.050000
vn -0.086602 0.000000 0.050000
vn -0.086602 0.000000 0.050000
vn 0.086602 0.000000 -0.050000
vn 0.086602 0.000000 -0.050000
vn 0.086602 0.000000 -0.050000
vn 0.086602 0.000000 -0.050000
vn 0.000000 0.000000 0.100000
vn 0.000000 0.000000 0.100000
vn 0.000000 0.000000 0.100000
vn 0.000000 0.000000 0.100000
vn 0.000000 -0.100000 0.000000
vn 0.000000 -0.100000 0.000000
vn 0.000000 -0.100000 0.000000
vn 0.000000 -0.100000 0.000000
vn 0.000000 -0.100000 0.000000
vn 0.000000 -0.100000 0.000000
vn -0.086602 0.000000 -0.050000
vn -0.086602 0.000000 -0.050000
vn -0.086602 0.000000 -0.050000
vn -0.086602 0.000000 -0.050000
vn 0.000000 0.000000 -0.100000
vn 0.000000 0.000000 -0.100000
vn 0.000000 0.000000 -0.100000
vn 0.000000 0.000000 -0.100000
vn 0.000000 0.000000 0.100000
vn 0.000000 0.000000 0.100000
vn 0.000000 0.000000 0.100000
vn 0.000000 0.000000 0.100000
vn -0.086603 0.000000 -0.050000
vn -0.086603 0.000000 -0.050000
vn -0.086603 0.000000 -0.050000
vn -0.086603 0.000000 -0.050000
vn 0.000000 -0.100000 0.000000
vn 0.000000 -0.100000 0.000000
vn 0.000000 -0.100000 0.000000
vn 0.000000 -0.100000 0.000000
vn 0.000000 -0.100000 0.000000
vn 0.000000 -0.100000 0.000000
vn 0.086602 0.000000 -0.050000
vn 0.086602 0.000000 -0.050000
vn 0.086602 0.000000 -0.050000
vn 0.086602 0.000000 -0.050000
vn 0.086603 0.000000 -0.050000
vn 0.086603 0.000000 -0.050000
vn 0.086603 0.000000 -0.050000
vn 0.086603 0.000000 -0.050000
vn 0.086603 0.000000 0.050000
vn 0.086603 0.000000 0.050000
vn 0.086603 0.000000 0.050000
vn 0.086603 0.000000 0.050000
vn -0.086603 0.000000 0.050000
vn -0.086603 0.000000 0.050000
vn -0.086603 0.000000 0.050000
vn -0.086603 0.000000 0.050000
vn 0.000000 0.000000 -0.100000
vn 0.000000 0.000000 -0.100000
vn 0.000000 0.000000 -0.100000
vn 0.000000 0.000000 -0.100000
vn 0.000000 -0.100000 0.000000
vn 0.000000 -0.100000 0.000000
vn 0.000000 -0.100000 0.000000
vn 0.000000 -0.100000 0.000000
vn 0.000000 -0.100000 0.000000
vn 0.000000 -0.100000 0.000000
vn 0.000000 0.000000 0.100000
vn 0.000000 0.000000 0.100000
vn 0.000000 0.000000 0.100000
vn 0.000000 0.000000 0.100000
vn 0.000000 0.000000 -0.100000
vn 0.000000 0.000000 -0.100000
vn 0.000000 0.000000 -0.100000
vn 0.000000 0.000000 -0.100000
vn 0.086603 0.000000 -0.050000
vn 0.086603 0.000000 -0.050000
vn 0.086603 0.000000 -0.050000
vn 0.086603 0.000000 -0.050000
vn 0.000000 0.000000 -0.100000
vn 0.000000 0.000000 -0.100000
vn 0.000000 0.000000 -0.100000
vn 0.000000 0.000000 -0.100000
vn -0.086602 0.000000 -0.050000
vn -0.086602 0.000000 -0.050000
vn -0.086602 0.000000 -0.050000
vn -0.086602 0.000000 -0.050000
vn -0.086602 0.000000 -0.050000
vn -0.086602 0.000000 -0.050000
vn -0.086602 0.000000 -0.050000
vn -0.086602 0.000000 -0.050000
vn 0.000000 0.000000 -0.100000
vn 0.000000 0.000000 -0.100000
vn 0.000000 0.000000 -0.100000
vn 0.000000 0.000000 -0.100000
vn -0.086603 0.000000 0.050000
vn -0.086603 0.000000 0.050000
vn -0.086603 0.000000 0.050000
vn -0.086603 0.000000 0.050000
vn 0.000000 0.000000 0.100000
vn 0.000000 0.000000 0.100000
vn 0.000000 0.000000 0.100000
vn 0.000000 0.000000 0.100000
vn 0.086602 0.000000 0.050000
vn 0.086602 0.000000 0.050000
vn 0.086602 0.000000 0.050000
vn 0.086602 0.000000 0.050000
vn 0.086602 0.000000 0.050000
vn 0.086602 0.000000 0.050000
vn 0.086602 0.000000 0.050000
vn 0.086602 0.000000 0.050000
vn -0.086602 0.000000 -0.050000
vn -0.086602 0.000000 -0.050000
vn -0.086602 0.000000 -0.050000
vn -0.086602 0.000000 -0.050000
vn 0.000000 0.000000 -0.100000
vn 0.000000 0.000000 -0.100000
vn 0.000000 0.000000 -0.100000
vn 0.000000 0.000000 -0.100000
vn 0.086603 0.000000 -0.050000
vn 0.086603 0.000000 -0.050000
vn 0.086603 0.000000 -0.050000
vn 0.086603 0.000000 -0.050000
vn 0.086603 0.000000 0.050000
vn 0.086603 0.000000 0.050000
vn 0.086603 0.000000 0.050000
vn 0.086603 0.000000 0.050000
vn 0.000000 0.000000 0.100000
vn 0.000000 0.000000 0.100000
vn 0.000000 0.000000 0.100000
vn 0.000000 0.000000 0.100000
vn 0.000000 0.000000 0.100000
vn 0.000000 0.000000 0.100000
vn 0.000000 0.000000 0.100000
vn 0.000000 0.000000 0.100000
vn -0.086602 0.000000 0.050000
vn -0.086602 0.000000 0.050000
vn -0.086602 0.000000 0.050000
vn -0.086602 0.000000 0.050000
vn 0.086602 0.000000 0.050000
vn 0.086602 0.000000 0.050000
vn 0.086602 0.000000 0.050000
vn 0.086602 0.000000 0.050000
vn 0.086602 0.000000 -0.050000
vn 0.086602 0.000000 -0.050000
vn 0.086602 0.000000 -0.050000
vn 0.086602 0.000000 -0.050000
vn 0.000000 0.000000 -0.100000
vn 0.000000 0.000000 -0.100000
vn 0.000000 0.000000 -0.100000
vn 0.000000 0.000000 -0.100000
vn 0.000000 0.000000 -0.100000
vn 0.000000 0.000000 -0.100000
vn 0.000000 0.000000 -0.100000
vn 0.000000 0.000000 -0.100000
vn -0.086603 0.000000 -0.050000
vn -0.086603 0.000000 -0.050000
vn -0.086603 0.000000 -0.050000
vn -0.086603 0.000000 -0.050000
vn -0.086602 0.000000 -0.050000
vn -0.086602 0.000000 -0.050000
vn -0.086602 0.000000 -0.050000
vn -0.086602 0.000000 -0.050000
vn -0.086602 0.000000 0.050000
vn -0.086602 0.000000 0.050000
vn -0.086602 0.000000 0.050000
vn -0.086602 0.000000 0.050000
vn -0.086602 0.000000 -0.050000
vn -0.086602 0.000000 -0.050000
vn -0.086602 0.000000 -0.050000
vn -0.086602 0.000000 -0.050000
vn -0.086602 0.000000 0.050000
vn -0.086602 0.000000 0.050000
vn -0.086602 0.000000 0.050000
vn -0.086602 0.000000 0.050000
vn 0.000000 0.000000 0.100000
vn 0.000000 0.000000 0.100000
vn 0.000000 0.000000 0.100000
vn 0.000000 0.000000 0.100000
vn -0.086603 0.000000 0.050000
vn -0.086603 0.000000 0.050000
vn -0.086603 0.000000 0.050000
vn -0.086603 0.000000 0.050000
vn 0.000000 0.000000 0.100000
vn 0.000000 0.000000 0.100000
vn 0.000000 0.000000 0.100000
vn 0.000000 0.000000 0.100000
vn 0.086602 0.000000 0.050000
vn 0.086602 0.000000 0.050000
vn 0.086602 0.000000 0.050000
vn 0.086602 0.000000 0.050000
vn 0.000000 0.000000 0.100000
vn 0.000000 0.000000 0.100000
vn 0.000000 0.000000 0.100000
vn 0.000000 0.000000 0.100000
vn 0.086602 0.000000 0.050000
vn 0.086602 0.000000 0.050000
vn 0.086602 0.000000 0.050000
vn 0.086602 0.000000 0.050000
vn 0.000000 0.000000 0.100000
vn 0.000000 0.000000 0.100000
vn 0.000000 0.000000 0.100000
vn 0.000000 0.000000 0.100000
vn 0.086603 0.000000 0.050000
vn 0.086603 0.000000 0.050000
vn 0.086603 0.000000 0.050000
vn 0.086603 0.000000 0.050000
vn 0.086603 0.000000 -0.050000
vn 0.086603 0.000000 -0.050000
vn 0.086603 0.000000 -0.050000
vn 0.086603 0.000000 -0.050000
vn 0.000000 0.000000 -0.100000
vn 0.000000 0.000000 -0.100000
vn 0.000000 0.000000 -0.100000
vn 0.000000 0.000000 -0.100000
vn -0.086602 0.000000 0.050000
vn -0.086602 0.000000 0.050000
vn -0.086602 0.000000 0.050000
vn -0.086602 0.000000 0.050000
vn -0.086602 0.000000 -0.050000
vn -0.086602 0.000000 -0.050000
vn -0.086602 0.000000 -0.050000
vn -0.086602 0.000000 -0.050000
vn 0.000000 0.000000 -0.100000
vn 0.000000 0.000000 -0.100000
vn 0.000000 0.000000 -0.100000
vn 0.000000 0.000000 -0.100000
vn -0.086603 0.000000 -0.050000
vn -0.086603 0.000000 -0.050000
vn -0.086603 0.000000 -0.050000
vn -0.086603 0.000000 -0.050000
vn 0.000000 0.000000 -0.100000
vn 0.000000 0.000000 -0.100000
vn 0.000000 0.000000 -0.100000
vn 0.000000 0.000000 -0.100000
vn -0.086602 0.000000 -0.050000
vn -0.086602 0.000000 -0.050000
vn -0.086602 0.000000 -0.050000
vn -0.086602 0.000000 -0.050000
vn 0.000000 0.000000 -0.100000
vn 0.000000 0.000000 -0.100000
vn 0.000000 0.000000 -0.100000
vn 0.000000 0.000000 -0.100000
vn 0.086602 0.000000 -0.050000
vn 0.086602 0.000000 -0.050000
vn 0.086602 0.000000 -0.050000
vn 0.086602 0.000000 -0.050000
vn 0.086602 0.000000 0.050000
vn 0.086602 0.000000 0.050000
vn 0.086602 0.000000 0.050000
vn 0.086602 0.000000 0.050000
vn 0.086602 0.000000 -0.050000
vn 0.086602 0.000000 -0.050000
vn 0.086602 0.000000 -0.050000
vn 0.086602 0.000000 -0.050000
vn 0.000000 0.100000 0.000000
vn 0.000000 0.100000 0.000000
vn 0.000000 0.100000 0.000000
vn 0.000000 0.100000 0.000000
vn 0.000000 0.100000 0.000000
vn 0.000000 0.100000 0.000000
vn 0.000000 0.100000 0.000000
vn 0.000000 0.100000 0.000000
vn 0.000000 0.100000 0.000000
vn 0.000000 0.100000 0.000000
vn 0.000000 0.100000 0.000000
vn 0.000000 0.100000 0.000000
vn 0.000000 0.100000 0.000000
vn 0.000000 0.100000 0.000000
vn 0.000000 0.100000 0.000000
vn 0.000000 0.100000 0.000000
vn 0.000000 0.100000 0.000000
vn 0.000000 0.100000 0.000000
vn 0.000000 0.100000 0.000000
vn 0.000000 0.100000 0.000000
vn 0.000000 0.100000 0.000000
vn 0.000000 0.100000 0.000000
vn 0.000000 -0.100000 0.000000
vn 0.000000 -0.100000 0.000000
vn 0.000000 -0.100000 0.000000
vn 0.000000 -0.100000 0.000000
vn 0.000000 -0.100000 0.000000
vn 0.000000 -0.100000 0.000000
usemtl ABS_(Yellow)
f 1/1/1 2/2/2 4/3/3
f 4/3/3 2/2/2 3/4/4
f 5/5/5 6/6/6 8/7/7
f 8/7/7 6/6/6 7/8/8
f 4/9/9 3/10/10 10/11/11
f 10/11/11 3/10/10 9/12/12
usemtl ABS_(Black)
f 11/13/13 66/14/14 2/15/15
f 2/15/15 66/14/14 5/16/16
f 2/15/15 5/16/16 3/17/17
f 3/17/17 5/16/16 8/18/18
f 3/17/17 8/18/18 14/19/19
f 14/19/19 8/18/18 36/20/20
f 14/19/19 36/20/20 35/21/21
f 35/21/21 36/20/20 37/22/22
f 35/21/21 37/22/22 34/23/23
f 34/23/23 37/22/22 33/24/24
f 33/24/24 37/22/22 38/25/25
f 33/24/24 38/25/25 77/26/26
f 77/26/26 38/25/25 76/27/27
f 76/27/27 38/25/25 39/28/28
f 76/27/27 39/28/28 67/29/29
f 67/29/29 39/28/28 5/16/16
f 67/29/29 5/16/16 66/14/14
f 12/30/30 62/31/31 11/13/13
f 11/13/13 62/31/31 65/32/32
f 11/13/13 65/32/32 66/14/14
f 13/33/33 16/34/34 12/30/30
f 12/30/30 16/34/34 17/35/35
f 12/30/30 17/35/35 61/36/36
f 61/36/36 17/35/35 60/37/37
f 60/37/37 17/35/35 18/38/38
f 60/37/37 18/38/38 59/39/39
f 59/39/39 18/38/38 19/40/40
f 59/39/39 19/40/40 20/41/41
f 16/34/34 13/33/33 15/42/42
f 15/42/42 13/33/33 9/43/43
f 15/42/42 9/43/43 3/17/17
f 14/19/19 15/42/42 3/17/17
f 21/44/44 54/45/45 20/41/41
f 20/41/41 54/45/45 55/46/46
f 20/41/41 55/46/46 58/47/47
f 58/47/47 55/46/46 56/48/48
f 58/47/47 56/48/48 63/49/49
f 63/49/49 56/48/48 64/50/50
f 63/49/49 64/50/50 62/31/31
f 62/31/31 64/50/50 65/32/32
f 21/44/44 22/51/51 54/45/45
f 54/45/45 22/51/51 53/52/52
f 53/52/52 22/51/51 51/53/53
f 53/52/52 51/53/53 52/54/54
f 52/54/54 51/53/53 46/55/55
f 52/54/54 46/55/55 73/56/56
f 73/56/56 46/55/55 47/57/57
f 73/56/56 47/57/57 72/58/58
f 72/58/58 47/57/57 26/59/59
f 72/58/58 26/59/59 71/60/60
f 71/60/60 26/59/59 27/61/61
f 71/60/60 27/61/61 45/62/62
f 45/62/62 27/61/61 28/63/63
f 45/62/62 28/63/63 44/64/64
f 44/64/64 28/63/63 29/65/65
f 44/64/64 29/65/65 43/66/66
f 43/66/66 29/65/65 42/67/67
f 42/67/67 29/65/65 30/68/68
f 42/67/67 30/68/68 31/69/69
f 51/53/53 22/51/51 50/70/70
f 50/70/70 22/51/51 23/71/71
f 50/70/70 23/71/71 24/72/72
f 25/73/73 48/74/74 24/72/72
f 24/72/72 48/74/74 49/75/75
f 24/72/72 49/75/75 50/70/70
f 48/74/74 25/73/73 47/57/57
f 47/57/57 25/73/73 26/59/59
f 32/76/76 78/77/77 31/69/69
f 31/69/69 78/77/77 79/78/78
f 31/69/69 79/78/78 41/79/79
f 41/79/79 79/78/78 40/80/80
f 40/80/80 79/78/78 80/81/81
f 40/80/80 80/81/81 70/82/82
f 70/82/82 80/81/81 81/83/83
f 70/82/82 81/83/83 75/84/84
f 75/84/84 81/83/83 68/85/85
f 75/84/84 68/85/85 74/86/86
f 74/86/86 68/85/85 69/87/87
f 74/86/86 69/87/87 57/88/88
f 57/88/88 69/87/87 64/50/50
f 57/88/88 64/50/50 56/48/48
f 32/76/76 33/24/24 78/77/77
f 78/77/77 33/24/24 77/26/26
f 41/79/79 42/67/67 31/69/69
f 71/60/60 45/62/62 70/82/82
f 70/82/82 45/62/62 40/80/80
f 74/86/86 57/88/88 73/56/56
f 73/56/56 57/88/88 52/54/54
f 58/47/47 59/39/39 20/41/41
f 61/36/36 62/31/31 12/30/30
f 76/27/27 67/29/29 81/83/83
f 81/83/83 67/29/29 68/85/85
usemtl ABS_(Yellow)
f 8/89/89 7/90/90 36/91/91
f 36/91/91 7/90/90 82/92/92
f 6/93/93 83/94/94 7/95/95
f 7/95/95 83/94/94 84/96/96
f 7/95/95 84/96/96 85/97/97
f 85/97/97 82/98/98 7/95/95
f 4/99/99 10/100/100 1/101/101
f 1/101/101 10/100/100 86/102/102
f 1/101/101 86/102/102 87/103/103
f 87/103/103 88/104/104 1/101/101
f 83/105/105 39/106/106 84/107/107
f 84/107/107 39/106/106 38/108/108
f 76/109/109 89/110/110 77/111/111
f 77/111/111 89/110/110 90/112/112
f 84/113/113 38/114/114 85/115/115
f 85/115/115 38/114/114 37/116/116
f 77/117/117 90/118/118 78/119/119
f 78/119/119 90/118/118 91/120/120
f 91/121/121 90/122/122 94/123/123
f 94/123/123 90/122/122 89/124/124
f 94/123/123 89/124/124 93/125/125
f 93/125/125 89/124/124 92/126/126
f 95/127/127 70/128/128 96/129/129
f 96/129/129 70/128/128 75/130/130
f 80/131/131 93/132/132 81/133/133
f 81/133/133 93/132/132 92/134/134
f 70/135/135 95/136/136 71/137/137
f 71/137/137 95/136/136 97/138/138
f 95/139/139 96/140/140 97/141/141
f 97/141/141 96/140/140 98/142/142
f 97/141/141 98/142/142 100/143/143
f 100/143/143 98/142/142 99/144/144
f 96/145/145 75/146/146 98/147/147
f 98/147/147 75/146/146 74/148/148
f 93/149/149 80/150/150 94/151/151
f 94/151/151 80/150/150 79/152/152
f 40/153/153 101/154/154 41/155/155
f 41/155/155 101/154/154 102/156/156
f 106/157/157 102/158/158 105/159/159
f 105/159/159 102/158/158 101/160/160
f 105/159/159 101/160/160 103/161/161
f 103/161/161 104/162/162 105/159/159
f 94/163/163 79/164/164 91/165/165
f 91/165/165 79/164/164 78/166/166
f 101/167/167 40/168/168 103/169/169
f 103/169/169 40/168/168 45/170/170
f 71/171/171 97/172/172 72/173/173
f 72/173/173 97/172/172 100/174/174
f 107/175/175 46/176/176 108/177/177
f 108/177/177 46/176/176 51/178/178
f 52/179/179 109/180/180 53/181/181
f 53/181/181 109/180/180 110/182/182
f 46/183/183 107/184/184 47/185/185
f 47/185/185 107/184/184 111/186/186
f 111/187/187 107/188/188 114/189/189
f 114/189/189 107/188/188 108/190/190
f 114/189/189 108/190/190 113/191/191
f 113/191/191 108/190/190 112/192/192
f 108/193/193 51/194/194 112/195/195
f 112/195/195 51/194/194 50/196/196
f 115/197/197 64/198/198 116/199/199
f 116/199/199 64/198/198 69/200/200
f 56/201/201 117/202/202 57/203/203
f 57/203/203 117/202/202 118/204/204
f 64/205/205 115/206/206 65/207/207
f 65/207/207 115/206/206 119/208/208
f 115/209/209 116/210/210 119/211/211
f 119/211/211 116/210/210 120/212/212
f 119/211/211 120/212/212 121/213/213
f 121/213/213 122/214/214 119/211/211
f 116/215/215 69/216/216 120/217/217
f 120/217/217 69/216/216 68/218/218
f 123/219/219 58/220/220 124/221/221
f 124/221/221 58/220/220 63/222/222
f 124/223/223 63/224/224 125/225/225
f 125/225/225 63/224/224 62/226/226
f 117/227/227 56/228/228 126/229/229
f 126/229/229 56/228/228 55/230/230
f 58/231/231 123/232/232 59/233/233
f 59/233/233 123/232/232 127/234/234
f 123/235/235 124/236/236 127/237/237
f 127/237/237 124/236/236 129/238/238
f 129/238/238 124/236/236 128/239/239
f 128/239/239 124/236/236 125/240/240
f 125/241/241 62/242/242 128/243/243
f 128/243/243 62/242/242 61/244/244
f 87/245/245 12/246/246 88/247/247
f 88/247/247 12/246/246 11/248/248
f 2/249/249 1/250/250 11/251/251
f 11/251/251 1/250/250 88/252/252
f 6/253/253 5/254/254 83/255/255
f 83/255/255 5/254/254 39/256/256
f 89/257/257 76/258/258 92/259/259
f 92/259/259 76/258/258 81/260/260
f 98/261/261 74/262/262 99/263/263
f 99/263/263 74/262/262 73/264/264
f 99/265/265 73/266/266 100/267/267
f 100/267/267 73/266/266 72/268/268
f 65/269/269 119/270/270 66/271/271
f 66/271/271 119/270/270 122/272/272
f 121/273/273 67/274/274 122/275/275
f 122/275/275 67/274/274 66/276/276
f 120/277/277 68/278/278 121/279/279
f 121/279/279 68/278/278 67/280/280
f 109/281/281 52/282/282 118/283/283
f 118/283/283 52/282/282 57/284/284
f 12/285/285 87/286/286 13/287/287
f 13/287/287 87/286/286 86/288/288
f 103/289/289 45/290/290 104/291/291
f 104/291/291 45/290/290 44/292/292
f 104/293/293 44/294/294 105/295/295
f 105/295/295 44/294/294 43/296/296
f 105/297/297 43/298/298 106/299/299
f 106/299/299 43/298/298 42/300/300
f 41/301/301 102/302/302 42/303/303
f 42/303/303 102/302/302 106/304/304
f 85/305/305 37/306/306 82/307/307
f 82/307/307 37/306/306 36/308/308
f 10/309/309 9/310/310 86/311/311
f 86/311/311 9/310/310 13/312/312
f 47/313/313 111/314/314 48/315/315
f 48/315/315 111/314/314 114/316/316
f 113/317/317 49/318/318 114/319/319
f 114/319/319 49/318/318 48/320/320
f 112/321/321 50/322/322 113/323/323
f 113/323/323 50/322/322 49/324/324
f 53/325/325 110/326/326 54/327/327
f 54/327/327 110/326/326 130/328/328
f 126/329/329 55/330/330 130/331/331
f 130/331/331 55/330/330 54/332/332
f 129/333/333 60/334/334 127/335/335
f 127/335/335 60/334/334 59/336/336
f 128/337/337 61/338/338 129/339/339
f 129/339/339 61/338/338 60/340/340
usemtl ABS_(Black)
f 17/341/341 16/342/342 132/343/343
f 132/343/343 16/342/342 131/344/344
f 16/345/345 15/346/346 131/347/347
f 131/347/347 15/346/346 133/348/348
f 15/349/349 14/350/350 133/351/351
f 133/351/351 14/350/350 134/352/352
f 14/353/353 35/354/354 134/355/355
f 134/355/355 35/354/354 135/356/356
f 35/357/357 34/358/358 135/359/359
f 135/359/359 34/358/358 136/360/360
f 34/361/361 33/362/362 136/363/363
f 136/363/363 33/362/362 137/364/364
f 33/365/365 32/366/366 137/367/367
f 137/367/367 32/366/366 138/368/368
f 32/369/369 31/370/370 138/371/371
f 138/371/371 31/370/370 139/372/372
f 31/373/373 30/374/374 139/375/375
f 139/375/375 30/374/374 140/376/376
f 30/377/377 29/378/378 140/379/379
f 140/379/379 29/378/378 141/380/380
f 29/381/381 28/382/382 141/383/383
f 141/383/383 28/382/382 142/384/384
f 28/385/385 27/386/386 142/387/387
f 142/387/387 27/386/386 143/388/388
f 18/389/389 17/390/390 144/391/391
f 144/391/391 17/390/390 132/392/392
f 19/393/393 18/394/394 145/395/395
f 145/395/395 18/394/394 144/396/396
f 20/397/397 19/398/398 146/399/399
f 146/399/399 19/398/398 145/400/400
f 21/401/401 20/402/402 147/403/403
f 147/403/403 20/402/402 146/404/404
f 22/405/405 21/406/406 148/407/407
f 148/407/407 21/406/406 147/408/408
f 23/409/409 22/410/410 149/411/411
f 149/411/411 22/410/410 148/412/412
f 24/413/413 23/414/414 150/415/415
f 150/415/415 23/414/414 149/416/416
f 25/417/417 24/418/418 151/419/419
f 151/419/419 24/418/418 150/420/420
f 26/421/421 25/422/422 152/423/423
f 152/423/423 25/422/422 151/424/424
f 27/425/425 26/426/426 143/427/427
f 143/427/427 26/426/426 152/428/428
f 152/429/429 146/430/430 143/431/431
f 143/431/431 146/430/430 139/432/432
f 143/431/431 139/432/432 140/433/433
f 146/430/430 152/429/429 148/434/434
f 148/434/434 152/429/429 151/435/435
f 148/434/434 151/435/435 149/436/436
f 149/436/436 151/435/435 150/437/437
f 148/434/434 147/438/438 146/430/430
f 145/439/439 144/440/440 146/430/430
f 146/430/430 144/440/440 132/441/441
f 146/430/430 132/441/441 137/442/442
f 137/442/442 132/441/441 134/443/443
f 137/442/442 134/443/443 136/444/444
f 136/444/444 134/443/443 135/445/445
f 132/441/441 131/446/446 134/443/443
f 134/443/443 131/446/446 133/447/447
f 138/448/448 139/432/432 137/442/442
f 137/442/442 139/432/432 146/430/430
f 140/433/433 141/449/449 143/431/431
f 143/431/431 141/449/449 142/450/450
usemtl ABS_(Yellow)
f 130/451/451 110/452/452 126/453/453
f 126/453/453 110/452/452 109/454/454
f 126/453/453 109/454/454 118/455/455
f 118/455/455 117/456/456 126/453/453
# 152 vertices
# 456 texture params
# 456 normals
# 300 facets

# 1 groups
