# Blender 5.2.0 LTS
# www.blender.org
o Central_Hex
v 15.588451 3.000002 25.000000
v 15.588451 2.000002 25.000000
v 29.444899 2.000004 49.000000
v 29.444899 3.000004 49.000000
v 13.856401 2.000002 26.000000
v 13.856401 3.000002 26.000000
v 27.712849 3.000004 50.000000
v 27.712849 2.000004 50.000000
v 29.444899 3.000000 1.000000
v 29.444899 2.000000 1.000000
v -13.856401 3.000002 26.000000
v -27.712849 3.000004 50.000000
v -13.856401 3.000005 74.000000
v 13.856401 3.000005 74.000000
v 57.157700 3.000004 49.000000
v 71.014053 3.000002 25.000000
v 57.157700 3.000000 1.000000
v 57.157700 2.000004 49.000000
v 57.157700 2.000000 1.000000
v 71.014053 2.000002 25.000000
v 13.856401 2.000005 74.000000
v -13.856401 2.000005 74.000000
v -27.712849 2.000004 50.000000
v -13.856401 2.000002 26.000000
v 28.867550 2.000004 50.000000
v 57.735050 2.000004 50.000000
v 72.168747 2.000002 25.000000
v 101.036247 2.000002 25.000000
v 115.470047 2.000000 0.000000
v 101.036247 1.999998 -25.000000
v 72.168747 1.999998 -25.000000
v 57.735050 1.999996 -50.000000
v 28.867550 1.999996 -50.000000
v 14.433750 1.999994 -75.000000
v -14.433750 1.999994 -75.000000
v -28.867550 1.999996 -50.000000
v -57.735050 1.999996 -50.000000
v -72.168747 1.999998 -25.000000
v -101.036346 1.999998 -25.000000
v -115.470047 2.000000 0.000000
v -101.036346 2.000002 25.000000
v -72.168747 2.000002 25.000000
v -57.735050 2.000004 50.000000
v -28.867550 2.000004 50.000000
v -14.433750 2.000006 75.000000
v 14.433750 2.000006 75.000000
v 72.746101 1.999998 -24.000000
v 100.458900 1.999998 -24.000000
v 114.315346 2.000000 0.000000
v 100.458900 2.000002 24.000000
v 72.746101 2.000002 24.000000
v 58.889748 2.000000 0.000000
v 27.712849 2.000000 0.000000
v 13.856401 2.000002 24.000000
v -13.856401 2.000002 24.000000
v -27.712849 2.000000 0.000000
v -13.856401 1.999998 -24.000000
v 13.856401 1.999998 -24.000000
v -58.889748 2.000000 0.000000
v -72.746101 2.000002 24.000000
v -100.459000 2.000002 24.000000
v -114.315353 2.000000 0.000000
v -100.459000 1.999998 -24.000000
v -72.746101 1.999998 -24.000000
v 15.588451 1.999998 -25.000000
v 29.444899 1.999996 -49.000000
v 57.157700 1.999996 -49.000000
v 71.014053 1.999998 -25.000000
v 57.157700 2.000000 -1.000000
v 29.444899 2.000000 -1.000000
v -29.444899 1.999996 -49.000000
v -15.588451 1.999998 -25.000000
v -29.444899 2.000000 -1.000000
v -57.157700 2.000000 -1.000000
v -71.014053 1.999998 -25.000000
v -57.157700 1.999996 -49.000000
v -27.712849 1.999996 -50.000000
v -13.856401 1.999994 -74.000000
v 13.856401 1.999994 -74.000000
v 27.712849 1.999996 -50.000000
v 13.856401 1.999998 -26.000000
v -13.856401 1.999998 -26.000000
v -15.588451 2.000002 25.000000
v -29.444899 2.000004 49.000000
v -57.157700 2.000004 49.000000
v -71.014053 2.000002 25.000000
v -57.157700 2.000000 1.000000
v -29.444899 2.000000 1.000000
v -15.588451 3.000002 25.000000
v -29.444899 3.000004 49.000000
v -29.444899 3.000000 1.000000
v -57.157700 3.000000 1.000000
v -71.014053 3.000002 25.000000
v -57.157700 3.000004 49.000000
v -27.712849 2.999996 -50.000000
v -13.856401 2.999998 -26.000000
v -29.444899 2.999996 -49.000000
v -15.588451 2.999998 -25.000000
v 13.856401 2.999998 -26.000000
v -29.444899 3.000000 -1.000000
v -57.157700 2.999996 -49.000000
v -71.014053 2.999998 -25.000000
v -57.157700 3.000000 -1.000000
v 27.712849 2.999996 -50.000000
v 13.856401 2.999995 -74.000000
v -13.856401 2.999995 -74.000000
v 15.588451 2.999998 -25.000000
v 29.444899 2.999996 -49.000000
v 72.746101 2.999998 -24.000000
v 58.889748 3.000000 0.000000
v 27.712849 3.000000 0.000000
v 13.856401 2.999998 -24.000000
v -13.856401 2.999998 -24.000000
v -27.712849 3.000000 0.000000
v -58.889748 3.000000 0.000000
v -72.746101 2.999998 -24.000000
v 71.014053 2.999998 -25.000000
v 57.157700 3.000000 -1.000000
v 29.444899 3.000000 -1.000000
v 72.746101 3.000002 24.000000
v -13.856401 3.000002 24.000000
v -72.746101 3.000002 24.000000
v -100.459000 2.999998 -24.000000
v -114.315353 3.000000 0.000000
v -100.459000 3.000002 24.000000
v 13.856401 3.000002 24.000000
v 57.157700 2.999996 -49.000000
v 100.458900 3.000002 24.000000
v 114.315346 3.000000 0.000000
v 100.458900 2.999998 -24.000000
v -57.735050 -0.000004 -50.000000
v -72.168747 -0.000002 -25.000000
v -28.867550 -0.000004 -50.000000
v -14.433750 -0.000006 -75.000000
v 14.433750 -0.000006 -75.000000
v 28.867550 -0.000004 -50.000000
v 57.735050 -0.000004 -50.000000
v 72.168747 -0.000002 -25.000000
v 101.036247 -0.000002 -25.000000
v 115.470047 0.000000 0.000000
v 101.036247 0.000002 25.000000
v 72.168747 0.000002 25.000000
v 57.735050 0.000004 50.000000
v -101.036346 -0.000002 -25.000000
v -115.470047 0.000000 0.000000
v -101.036346 0.000002 25.000000
v -72.168747 0.000002 25.000000
v -57.735050 0.000004 50.000000
v -28.867550 0.000004 50.000000
v -14.433750 0.000006 75.000000
v 14.433750 0.000006 75.000000
v 28.867550 0.000004 50.000000
vn -0.866000 0.000000 0.500000
vn 0.866000 0.000000 -0.500000
vn -0.866000 0.000000 -0.500000
vn 0.000000 1.000000 0.000000
vn 0.000000 0.000000 1.000000
vn 0.866000 0.000000 0.500000
vn 0.000000 0.000000 -1.000000
vn 0.000000 -1.000000 0.000000
vt 0.996746 0.626001
vt 0.997998 0.626001
vt 0.996746 0.747998
vt 0.993491 0.498999
vt 0.994744 0.377002
vt 0.994744 0.498999
vt 0.998999 0.748999
vt 0.997747 0.748999
vt 0.998999 0.627002
vt 0.407510 0.923877
vt 0.274342 0.924780
vt 0.407510 0.924780
vt 0.543680 0.920874
vt 0.543680 0.919971
vt 0.410513 0.920874
vt 0.407510 0.919971
vt 0.274342 0.920874
vt 0.407510 0.920874
vt 0.545682 0.751001
vt 0.678849 0.751001
vt 0.545682 0.872998
vt 0.545682 0.247998
vt 0.545682 0.001001
vt 0.678849 0.001001
vt 0.819023 0.248999
vt 0.952190 0.002002
vt 0.952190 0.248999
vt 0.819023 0.623999
vt 0.952190 0.502002
vt 0.952190 0.623999
vt 0.001001 0.626001
vt 0.001001 0.747998
vt 0.270338 0.626001
vt 0.679850 0.252002
vt 0.546683 0.498999
vt 0.679850 0.498999
vt 0.134168 0.751001
vt 0.001001 0.872998
vt 0.001001 0.751001
vt 0.678849 0.626001
vt 0.545682 0.626001
vt 0.545682 0.747998
vt 0.992490 0.126001
vt 0.993743 0.126001
vt 0.992490 0.247998
vt 0.989487 0.751001
vt 0.988235 0.872998
vt 0.988235 0.751001
vt 0.962703 0.751001
vt 0.968211 0.751001
vt 0.962703 0.872998
vt 0.409512 0.896435
vt 0.542679 0.891626
vt 0.409512 0.891626
vt 0.962703 0.883814
vt 0.968211 0.883814
vt 0.962703 0.888623
vt 0.976721 0.376001
vt 0.971214 0.376001
vt 0.971214 0.497998
vt 0.951189 0.891626
vt 0.818022 0.896435
vt 0.818022 0.891626
vt 0.969212 0.884815
vt 0.963704 0.889624
vt 0.969212 0.889624
vt 0.977722 0.123999
vt 0.972215 0.123999
vt 0.977722 0.002002
vt 0.543680 0.892627
vt 0.410513 0.897436
vt 0.543680 0.897436
vt 0.975469 0.880810
vt 0.976721 0.879907
vt 0.975469 0.879907
vt 0.972466 0.626001
vt 0.971214 0.626001
vt 0.971214 0.747998
vt 0.996746 0.622998
vt 0.996746 0.501001
vt 0.997998 0.501001
vt 0.976721 0.751001
vt 0.975469 0.751001
vt 0.975469 0.872998
vt 0.409512 0.904248
vt 0.542679 0.903345
vt 0.409512 0.903345
vt 0.977722 0.877905
vt 0.976470 0.877905
vt 0.977722 0.877002
vt 0.959700 0.001001
vt 0.954193 0.001001
vt 0.954193 0.122998
vt 0.951189 0.883814
vt 0.818022 0.888623
vt 0.818022 0.883814
vt 0.954193 0.876001
vt 0.954193 0.880810
vt 0.959700 0.876001
vt 0.962703 0.501001
vt 0.968211 0.501001
vt 0.962703 0.622998
vt 0.137171 0.896435
vt 0.270338 0.891626
vt 0.137171 0.891626
vt 0.973467 0.877002
vt 0.972215 0.877905
vt 0.973467 0.877905
vt 0.980977 0.126001
vt 0.979724 0.126001
vt 0.979724 0.247998
vt 0.406509 0.903345
vt 0.273341 0.903345
vt 0.273341 0.904248
vt 0.273341 0.900342
vt 0.273341 0.899439
vt 0.406509 0.899439
vt 0.682853 0.901343
vt 0.816020 0.901343
vt 0.816020 0.900440
vt 0.977722 0.881811
vt 0.976470 0.881811
vt 0.977722 0.880908
vt 0.980977 0.501001
vt 0.979724 0.501001
vt 0.979724 0.622998
vt 0.273341 0.908154
vt 0.406509 0.907251
vt 0.273341 0.907251
vt 0.972215 0.873999
vt 0.973467 0.873999
vt 0.973467 0.752002
vt 0.962703 0.876001
vt 0.968211 0.876001
vt 0.962703 0.880810
vt 0.976721 0.501001
vt 0.971214 0.501001
vt 0.971214 0.622998
vt 0.138172 0.905249
vt 0.271339 0.900440
vt 0.271339 0.905249
vt 0.960701 0.877002
vt 0.955194 0.881811
vt 0.960701 0.881811
vt 0.963704 0.623999
vt 0.969212 0.623999
vt 0.969212 0.502002
vt 0.271339 0.897436
vt 0.271339 0.892627
vt 0.138172 0.897436
vt 0.952190 0.884815
vt 0.819023 0.889624
vt 0.952190 0.889624
vt 0.975469 0.876904
vt 0.976721 0.876001
vt 0.975469 0.876001
vt 0.543680 0.904346
vt 0.543680 0.905249
vt 0.410513 0.905249
vt 0.274342 0.905249
vt 0.407510 0.905249
vt 0.407510 0.904346
vt 0.407510 0.900440
vt 0.407510 0.901343
vt 0.274342 0.901343
vt 0.815019 0.899439
vt 0.681852 0.899439
vt 0.681852 0.900342
vt 0.973467 0.881811
vt 0.972215 0.881811
vt 0.973467 0.880908
vt 0.137171 0.908154
vt 0.137171 0.907251
vt 0.270338 0.907251
vt 0.407510 0.908252
vt 0.274342 0.909155
vt 0.407510 0.909155
vt 0.972466 0.751001
vt 0.971214 0.751001
vt 0.971214 0.872998
vt 0.971214 0.126001
vt 0.976721 0.126001
vt 0.971214 0.247998
vt 0.679850 0.892627
vt 0.546683 0.897436
vt 0.679850 0.897436
vt 0.543680 0.909155
vt 0.543680 0.908252
vt 0.410513 0.909155
vt 0.981978 0.748999
vt 0.981978 0.627002
vt 0.980725 0.748999
vt 0.975469 0.626001
vt 0.976721 0.626001
vt 0.975469 0.747998
vt 0.952190 0.900440
vt 0.819023 0.901343
vt 0.952190 0.901343
vt 0.542679 0.899439
vt 0.409512 0.900342
vt 0.409512 0.899439
vt 0.979724 0.751001
vt 0.980977 0.751001
vt 0.979724 0.872998
vt 0.981978 0.623999
vt 0.981978 0.502002
vt 0.980725 0.623999
vt 0.981978 0.873999
vt 0.980725 0.873999
vt 0.981978 0.752002
vt 0.979724 0.626001
vt 0.979724 0.747998
vt 0.980977 0.626001
vt 0.818022 0.899439
vt 0.818022 0.900342
vt 0.951189 0.899439
vt 0.976470 0.873999
vt 0.977722 0.873999
vt 0.977722 0.752002
vt 0.679850 0.904346
vt 0.546683 0.905249
vt 0.679850 0.905249
vt 0.971214 0.876001
vt 0.972466 0.876001
vt 0.971214 0.876904
vt 0.955194 0.123999
vt 0.960701 0.123999
vt 0.960701 0.002002
vt 0.997747 0.623999
vt 0.998999 0.502002
vt 0.998999 0.623999
vt 0.973467 0.627002
vt 0.972215 0.748999
vt 0.973467 0.748999
vt 0.972466 0.879907
vt 0.971214 0.879907
vt 0.971214 0.880810
vt 0.969212 0.873999
vt 0.963704 0.873999
vt 0.969212 0.752002
vt 0.273341 0.896435
vt 0.406509 0.891626
vt 0.273341 0.891626
vt 0.960701 0.889624
vt 0.955194 0.889624
vt 0.960701 0.884815
vt 0.972215 0.498999
vt 0.977722 0.498999
vt 0.977722 0.377002
vt 0.819023 0.897436
vt 0.952190 0.892627
vt 0.952190 0.897436
vt 0.969212 0.877002
vt 0.963704 0.881811
vt 0.969212 0.881811
vt 0.407510 0.897436
vt 0.407510 0.892627
vt 0.274342 0.897436
vt 0.976721 0.001001
vt 0.971214 0.122998
vt 0.971214 0.001001
vt 0.954193 0.883814
vt 0.959700 0.883814
vt 0.954193 0.888623
vt 0.137171 0.904248
vt 0.137171 0.899439
vt 0.270338 0.899439
vt 0.977722 0.502002
vt 0.972215 0.623999
vt 0.977722 0.623999
vt 0.409512 0.907251
vt 0.409512 0.908154
vt 0.542679 0.907251
vt 0.271339 0.909155
vt 0.138172 0.909155
vt 0.271339 0.908252
vt 0.977722 0.748999
vt 0.976470 0.748999
vt 0.977722 0.627002
vt 0.985232 0.001001
vt 0.983980 0.122998
vt 0.983980 0.001001
vt 0.678849 0.907251
vt 0.545682 0.908154
vt 0.545682 0.907251
vt 0.981978 0.123999
vt 0.980725 0.123999
vt 0.981978 0.002002
vt 0.981978 0.127002
vt 0.980725 0.248999
vt 0.981978 0.248999
vt 0.545682 0.903345
vt 0.545682 0.904248
vt 0.678849 0.903345
vt 0.979724 0.001001
vt 0.979724 0.122998
vt 0.980977 0.001001
vt 0.986233 0.123999
vt 0.984981 0.123999
vt 0.986233 0.002002
vt 0.543680 0.901343
vt 0.410513 0.901343
vt 0.543680 0.900440
vt 0.977722 0.373999
vt 0.972215 0.373999
vt 0.977722 0.252002
vt 0.545682 0.896435
vt 0.678849 0.891626
vt 0.545682 0.891626
vt 0.681852 0.891626
vt 0.681852 0.896435
vt 0.815019 0.891626
vt 0.976721 0.251001
vt 0.971214 0.372998
vt 0.971214 0.251001
vt 0.679850 0.909155
vt 0.546683 0.909155
vt 0.679850 0.908252
vt 0.977722 0.248999
vt 0.972215 0.248999
vt 0.977722 0.127002
vt 0.816020 0.892627
vt 0.682853 0.897436
vt 0.816020 0.897436
vt 0.992490 0.501001
vt 0.993743 0.501001
vt 0.992490 0.622998
vt 0.993491 0.623999
vt 0.994744 0.502002
vt 0.994744 0.623999
vt 0.992490 0.376001
vt 0.993743 0.376001
vt 0.992490 0.497998
vt 0.679850 0.923877
vt 0.546683 0.924780
vt 0.679850 0.924780
vt 0.543680 0.916968
vt 0.543680 0.916065
vt 0.410513 0.916968
vt 0.989236 0.498999
vt 0.990488 0.377002
vt 0.990488 0.498999
vt 0.681852 0.626001
vt 0.681852 0.747998
vt 0.815019 0.626001
vt 0.816020 0.252002
vt 0.816020 0.498999
vt 0.682853 0.498999
vt 0.545682 0.497998
vt 0.678849 0.251001
vt 0.545682 0.251001
vt 0.816020 0.627002
vt 0.816020 0.748999
vt 0.682853 0.748999
vt 0.409512 0.918970
vt 0.409512 0.919873
vt 0.542679 0.918970
vt 0.997998 0.376001
vt 0.996746 0.497998
vt 0.996746 0.376001
vt 0.409512 0.922876
vt 0.409512 0.923779
vt 0.542679 0.922876
vt 0.997747 0.498999
vt 0.998999 0.377002
vt 0.998999 0.498999
vt 0.545682 0.922876
vt 0.545682 0.923779
vt 0.678849 0.922876
vt 0.273341 0.923779
vt 0.406509 0.922876
vt 0.273341 0.922876
vt 0.273341 0.915064
vt 0.273341 0.915967
vt 0.406509 0.915064
vt 0.980725 0.373999
vt 0.981978 0.252002
vt 0.981978 0.373999
vt 0.996746 0.251001
vt 0.997998 0.251001
vt 0.996746 0.372998
vt 0.543680 0.923877
vt 0.410513 0.924780
vt 0.543680 0.924780
vt 0.271339 0.748999
vt 0.271339 0.627002
vt 0.002002 0.748999
vt 0.274342 0.748999
vt 0.543680 0.627002
vt 0.543680 0.748999
vt 0.134168 0.876001
vt 0.001001 0.997998
vt 0.001001 0.876001
vt 0.002002 0.998999
vt 0.135169 0.998999
vt 0.135169 0.877002
vt 0.818022 0.626001
vt 0.951189 0.626001
vt 0.818022 0.747998
vt 0.818022 0.247998
vt 0.818022 0.001001
vt 0.951189 0.001001
vt 0.546683 0.248999
vt 0.679850 0.002002
vt 0.679850 0.248999
vt 0.819023 0.748999
vt 0.952190 0.627002
vt 0.952190 0.748999
vt 0.998999 0.373999
vt 0.997747 0.373999
vt 0.998999 0.252002
vt 0.993491 0.873999
vt 0.994744 0.752002
vt 0.994744 0.873999
vt 0.992490 0.751001
vt 0.993743 0.751001
vt 0.992490 0.872998
vt 0.818022 0.919873
vt 0.951189 0.918970
vt 0.818022 0.918970
vt 0.952190 0.920874
vt 0.952190 0.919971
vt 0.819023 0.920874
vt 0.816020 0.919971
vt 0.682853 0.920874
vt 0.816020 0.920874
vt 0.983980 0.126001
vt 0.985232 0.126001
vt 0.983980 0.247998
vt 0.989236 0.123999
vt 0.990488 0.002002
vt 0.990488 0.123999
vt 0.994744 0.748999
vt 0.993491 0.748999
vt 0.994744 0.627002
vt 0.993743 0.626001
vt 0.992490 0.747998
vt 0.992490 0.626001
vt 0.990488 0.623999
vt 0.989236 0.623999
vt 0.990488 0.502002
vt 0.818022 0.904248
vt 0.951189 0.903345
vt 0.818022 0.903345
vt 0.681852 0.918970
vt 0.681852 0.919873
vt 0.815019 0.918970
vt 0.679850 0.919971
vt 0.546683 0.920874
vt 0.679850 0.920874
vt 0.986233 0.873999
vt 0.984981 0.873999
vt 0.986233 0.752002
vt 0.985232 0.501001
vt 0.983980 0.622998
vt 0.983980 0.501001
vt 0.407510 0.913061
vt 0.407510 0.912158
vt 0.274342 0.913061
vt 0.818022 0.908154
vt 0.951189 0.907251
vt 0.818022 0.907251
vt 0.996746 0.126001
vt 0.997998 0.126001
vt 0.996746 0.247998
vt 0.818022 0.912060
vt 0.951189 0.911157
vt 0.818022 0.911157
vt 0.816020 0.913061
vt 0.816020 0.912158
vt 0.682853 0.913061
vt 0.989487 0.001001
vt 0.988235 0.122998
vt 0.988235 0.001001
vt 0.545682 0.911157
vt 0.545682 0.912060
vt 0.678849 0.911157
vt 0.985232 0.376001
vt 0.983980 0.497998
vt 0.983980 0.376001
vt 0.988235 0.626001
vt 0.989487 0.626001
vt 0.988235 0.747998
vt 0.818022 0.915967
vt 0.951189 0.915064
vt 0.818022 0.915064
vt 0.998999 0.123999
vt 0.997747 0.123999
vt 0.998999 0.002002
vt 0.952190 0.912158
vt 0.819023 0.913061
vt 0.952190 0.913061
vt 0.994744 0.248999
vt 0.993491 0.248999
vt 0.994744 0.127002
vt 0.545682 0.915967
vt 0.678849 0.915064
vt 0.545682 0.915064
vt 0.816020 0.909155
vt 0.816020 0.908252
vt 0.682853 0.909155
vt 0.137171 0.912060
vt 0.270338 0.911157
vt 0.137171 0.911157
vt 0.818022 0.251001
vt 0.818022 0.372998
vt 0.951189 0.251001
vt 0.681852 0.247998
vt 0.681852 0.001001
vt 0.815019 0.001001
vt 0.682853 0.248999
vt 0.816020 0.002002
vt 0.816020 0.248999
vt 0.952190 0.252002
vt 0.819023 0.373999
vt 0.952190 0.373999
vt 0.818022 0.501001
vt 0.951189 0.501001
vt 0.818022 0.622998
vt 0.270338 0.501001
vt 0.001001 0.501001
vt 0.001001 0.622998
vt 0.271339 0.502002
vt 0.002002 0.623999
vt 0.271339 0.623999
vt 0.546683 0.873999
vt 0.679850 0.752002
vt 0.679850 0.873999
vt 0.679850 0.748999
vt 0.679850 0.627002
vt 0.546683 0.748999
vt 0.681852 0.497998
vt 0.681852 0.251001
vt 0.815019 0.251001
vt 0.542679 0.626001
vt 0.273341 0.747998
vt 0.273341 0.626001
vt 0.135169 0.752002
vt 0.135169 0.873999
vt 0.002002 0.873999
vt 0.271339 0.873999
vt 0.138172 0.873999
vt 0.271339 0.752002
vt 0.545682 0.501001
vt 0.815019 0.501001
vt 0.545682 0.622998
vt 0.816020 0.502002
vt 0.546683 0.623999
vt 0.816020 0.623999
vt 0.137171 0.872998
vt 0.270338 0.751001
vt 0.137171 0.751001
vt 0.137171 0.915064
vt 0.137171 0.915967
vt 0.270338 0.915064
vt 0.989236 0.373999
vt 0.990488 0.252002
vt 0.990488 0.373999
vt 0.681852 0.911157
vt 0.681852 0.912060
vt 0.815019 0.911157
vt 0.984981 0.248999
vt 0.986233 0.127002
vt 0.986233 0.248999
vt 0.994744 0.123999
vt 0.993491 0.123999
vt 0.994744 0.002002
vt 0.989236 0.748999
vt 0.990488 0.627002
vt 0.990488 0.748999
vt 0.996746 0.001001
vt 0.997998 0.001001
vt 0.996746 0.122998
vt 0.137171 0.923779
vt 0.270338 0.922876
vt 0.137171 0.922876
vt 0.952190 0.916968
vt 0.952190 0.916065
vt 0.819023 0.916968
vt 0.816020 0.916065
vt 0.682853 0.916968
vt 0.816020 0.916968
vt 0.681852 0.907251
vt 0.681852 0.908154
vt 0.815019 0.907251
vt 0.985232 0.251001
vt 0.983980 0.372998
vt 0.983980 0.251001
vt 0.998999 0.248999
vt 0.997747 0.248999
vt 0.998999 0.127002
vt 0.989487 0.126001
vt 0.988235 0.247998
vt 0.988235 0.126001
vt 0.979724 0.376001
vt 0.980977 0.376001
vt 0.979724 0.497998
vt 0.980725 0.498999
vt 0.981978 0.377002
vt 0.981978 0.498999
vt 0.986233 0.623999
vt 0.984981 0.623999
vt 0.986233 0.502002
vt 0.543680 0.912158
vt 0.410513 0.913061
vt 0.543680 0.913061
vt 0.409512 0.911157
vt 0.409512 0.912060
vt 0.542679 0.911157
vt 0.985232 0.626001
vt 0.983980 0.747998
vt 0.983980 0.626001
vt 0.986233 0.748999
vt 0.984981 0.748999
vt 0.986233 0.627002
vt 0.273341 0.912060
vt 0.406509 0.911157
vt 0.273341 0.911157
vt 0.271339 0.916968
vt 0.271339 0.916065
vt 0.138172 0.916968
vt 0.989487 0.251001
vt 0.988235 0.372998
vt 0.988235 0.251001
vt 0.990488 0.873999
vt 0.989236 0.873999
vt 0.990488 0.752002
vt 0.681852 0.915967
vt 0.815019 0.915064
vt 0.681852 0.915064
vt 0.409512 0.915064
vt 0.409512 0.915967
vt 0.542679 0.915064
vt 0.989487 0.501001
vt 0.988235 0.622998
vt 0.988235 0.501001
vt 0.990488 0.248999
vt 0.989236 0.248999
vt 0.990488 0.127002
vt 0.273341 0.919873
vt 0.406509 0.918970
vt 0.273341 0.918970
vt 0.679850 0.913061
vt 0.679850 0.912158
vt 0.546683 0.913061
vt 0.985232 0.751001
vt 0.983980 0.872998
vt 0.983980 0.751001
vt 0.979724 0.251001
vt 0.980977 0.251001
vt 0.979724 0.372998
vt 0.952190 0.904346
vt 0.819023 0.905249
vt 0.952190 0.905249
vt 0.986233 0.373999
vt 0.984981 0.373999
vt 0.986233 0.252002
vt 0.952190 0.908252
vt 0.819023 0.909155
vt 0.952190 0.909155
vt 0.679850 0.916968
vt 0.679850 0.916065
vt 0.546683 0.916968
vt 0.993743 0.001001
vt 0.992490 0.122998
vt 0.992490 0.001001
vt 0.994744 0.373999
vt 0.993491 0.373999
vt 0.994744 0.252002
vt 0.679850 0.900440
vt 0.546683 0.901343
vt 0.679850 0.901343
vt 0.988235 0.376001
vt 0.989487 0.376001
vt 0.988235 0.497998
vt 0.681852 0.904248
vt 0.815019 0.903345
vt 0.681852 0.903345
vt 0.271339 0.920874
vt 0.271339 0.919971
vt 0.138172 0.920874
vt 0.137171 0.919873
vt 0.270338 0.918970
vt 0.137171 0.918970
vt 0.271339 0.913061
vt 0.271339 0.912158
vt 0.138172 0.913061
vt 0.984981 0.498999
vt 0.986233 0.377002
vt 0.986233 0.498999
vt 0.816020 0.905249
vt 0.816020 0.904346
vt 0.682853 0.905249
vt 0.407510 0.916065
vt 0.274342 0.916968
vt 0.407510 0.916968
vt 0.545682 0.899439
vt 0.545682 0.900342
vt 0.678849 0.899439
vt 0.993743 0.251001
vt 0.992490 0.372998
vt 0.992490 0.251001
vt 0.545682 0.918970
vt 0.545682 0.919873
vt 0.678849 0.918970
vt 0.271339 0.923877
vt 0.138172 0.924780
vt 0.271339 0.924780
vt 0.681852 0.883814
vt 0.815019 0.883814
vt 0.681852 0.888623
vt 0.682853 0.889624
vt 0.816020 0.884815
vt 0.816020 0.889624
vt 0.273341 0.883814
vt 0.406509 0.883814
vt 0.273341 0.888623
vt 0.969212 0.002002
vt 0.963704 0.123999
vt 0.969212 0.123999
vt 0.545682 0.876001
vt 0.678849 0.876001
vt 0.545682 0.880810
vt 0.960701 0.377002
vt 0.955194 0.498999
vt 0.960701 0.498999
vt 0.681852 0.876001
vt 0.815019 0.876001
vt 0.681852 0.880810
vt 0.954193 0.747998
vt 0.959700 0.626001
vt 0.954193 0.626001
vt 0.409512 0.876001
vt 0.542679 0.876001
vt 0.409512 0.880810
vt 0.954193 0.497998
vt 0.959700 0.376001
vt 0.954193 0.376001
vt 0.960701 0.623999
vt 0.960701 0.502002
vt 0.955194 0.623999
vt 0.954193 0.622998
vt 0.959700 0.501001
vt 0.954193 0.501001
vt 0.962703 0.251001
vt 0.962703 0.372998
vt 0.968211 0.251001
vt 0.546683 0.889624
vt 0.679850 0.884815
vt 0.679850 0.889624
vt 0.816020 0.881811
vt 0.682853 0.881811
vt 0.816020 0.877002
vt 0.819023 0.881811
vt 0.952190 0.877002
vt 0.952190 0.881811
vt 0.960701 0.248999
vt 0.960701 0.127002
vt 0.955194 0.248999
vt 0.274342 0.881811
vt 0.407510 0.877002
vt 0.407510 0.881811
vt 0.960701 0.373999
vt 0.960701 0.252002
vt 0.955194 0.373999
vt 0.954193 0.372998
vt 0.959700 0.251001
vt 0.954193 0.251001
vt 0.960701 0.873999
vt 0.960701 0.752002
vt 0.955194 0.873999
vt 0.960701 0.627002
vt 0.955194 0.748999
vt 0.960701 0.748999
vt 0.545682 0.883814
vt 0.678849 0.883814
vt 0.545682 0.888623
vt 0.969212 0.377002
vt 0.963704 0.498999
vt 0.969212 0.498999
vt 0.137171 0.876001
vt 0.270338 0.876001
vt 0.137171 0.880810
vt 0.138172 0.881811
vt 0.271339 0.877002
vt 0.271339 0.881811
vt 0.409512 0.883814
vt 0.542679 0.883814
vt 0.409512 0.888623
vt 0.410513 0.889624
vt 0.543680 0.884815
vt 0.543680 0.889624
vt 0.962703 0.126001
vt 0.962703 0.247998
vt 0.968211 0.126001
vt 0.969212 0.127002
vt 0.963704 0.248999
vt 0.969212 0.248999
vt 0.962703 0.626001
vt 0.962703 0.747998
vt 0.968211 0.626001
vt 0.969212 0.627002
vt 0.963704 0.748999
vt 0.969212 0.748999
vt 0.969212 0.373999
vt 0.969212 0.252002
vt 0.963704 0.373999
vt 0.962703 0.497998
vt 0.968211 0.376001
vt 0.962703 0.376001
vt 0.818022 0.876001
vt 0.951189 0.876001
vt 0.818022 0.880810
vt 0.954193 0.872998
vt 0.959700 0.751001
vt 0.954193 0.751001
vt 0.273341 0.876001
vt 0.406509 0.876001
vt 0.273341 0.880810
vt 0.954193 0.247998
vt 0.959700 0.126001
vt 0.954193 0.126001
vt 0.271339 0.889624
vt 0.138172 0.889624
vt 0.271339 0.884815
vt 0.270338 0.883814
vt 0.137171 0.888623
vt 0.137171 0.883814
vt 0.543680 0.881811
vt 0.410513 0.881811
vt 0.543680 0.877002
vt 0.546683 0.881811
vt 0.679850 0.877002
vt 0.679850 0.881811
vt 0.962703 0.001001
vt 0.962703 0.122998
vt 0.968211 0.001001
vt 0.274342 0.889624
vt 0.407510 0.884815
vt 0.407510 0.889624
vt 0.818022 0.376001
vt 0.818022 0.497998
vt 0.951189 0.376001
vt 0.001001 0.251001
vt 0.270338 0.251001
vt 0.001001 0.497998
vt 0.542679 0.001001
vt 0.273341 0.001001
vt 0.273341 0.247998
vt 0.681852 0.872998
vt 0.815019 0.751001
vt 0.681852 0.751001
vt 0.816020 0.873999
vt 0.682853 0.873999
vt 0.816020 0.752002
vt 0.542679 0.501001
vt 0.273341 0.501001
vt 0.273341 0.622998
vt 0.001001 0.001001
vt 0.270338 0.001001
vt 0.001001 0.247998
vt 0.273341 0.497998
vt 0.273341 0.251001
vt 0.542679 0.251001
vt 0.274342 0.498999
vt 0.543680 0.252002
vt 0.543680 0.498999
vt 0.002002 0.248999
vt 0.271339 0.002002
vt 0.271339 0.248999
vt 0.543680 0.502002
vt 0.274342 0.623999
vt 0.543680 0.623999
vt 0.951189 0.751001
vt 0.818022 0.872998
vt 0.818022 0.751001
vt 0.952190 0.377002
vt 0.952190 0.498999
vt 0.819023 0.498999
vt 0.273341 0.751001
vt 0.406509 0.751001
vt 0.273341 0.872998
vt 0.274342 0.248999
vt 0.543680 0.002002
vt 0.543680 0.248999
vt 0.271339 0.252002
vt 0.271339 0.498999
vt 0.002002 0.498999
vt 0.409512 0.872998
vt 0.542679 0.751001
vt 0.409512 0.751001
vt 0.274342 0.873999
vt 0.407510 0.873999
vt 0.407510 0.752002
vt 0.543680 0.752002
vt 0.543680 0.873999
vt 0.410513 0.873999
vt 0.952190 0.752002
vt 0.952190 0.873999
vt 0.819023 0.873999
s 0
f 1/1/1 2/2/1 4/3/1
f 4/4/1 2/5/1 3/6/1
f 5/7/2 6/8/2 8/9/2
f 8/10/2 6/11/2 7/12/2
f 2/13/3 1/14/3 10/15/3
f 10/16/3 1/17/3 9/18/3
f 6/19/4 11/20/4 7/21/4
f 7/22/4 11/23/4 12/24/4
f 7/25/4 12/26/4 14/27/4
f 14/28/4 12/29/4 13/30/4
f 9/31/4 1/32/4 16/33/4
f 16/34/4 1/35/4 4/36/4
f 16/37/4 4/38/4 15/39/4
f 16/40/4 17/41/4 9/42/4
f 4/43/5 3/44/5 15/45/5
f 15/46/5 3/47/5 18/48/5
f 10/49/4 53/50/4 2/51/4
f 2/52/4 53/53/4 54/54/4
f 2/55/4 54/56/4 5/57/4
f 5/58/4 54/59/4 55/60/4
f 5/61/4 55/62/4 24/63/4
f 24/64/4 55/65/4 83/66/4
f 24/67/4 83/68/4 23/69/4
f 23/70/4 83/71/4 84/72/4
f 23/73/4 84/74/4 44/75/4
f 44/76/4 84/77/4 85/78/4
f 44/79/4 85/80/4 43/81/4
f 43/82/4 85/83/4 42/84/4
f 42/85/4 85/86/4 86/87/4
f 42/88/4 86/89/4 60/90/4
f 60/91/4 86/92/4 87/93/4
f 60/94/4 87/95/4 59/96/4
f 59/97/4 87/98/4 74/99/4
f 59/100/4 74/101/4 64/102/4
f 64/103/4 74/104/4 75/105/4
f 64/106/4 75/107/4 38/108/4
f 38/109/4 75/110/4 76/111/4
f 38/112/4 76/113/4 37/114/4
f 37/115/4 76/116/4 71/117/4
f 37/118/4 71/119/4 36/120/4
f 36/121/4 71/122/4 77/123/4
f 36/124/4 77/125/4 35/126/4
f 35/127/4 77/128/4 78/129/4
f 35/130/4 78/131/4 79/132/4
f 53/133/4 10/134/4 70/135/4
f 70/136/4 10/137/4 19/138/4
f 70/139/4 19/140/4 69/141/4
f 69/142/4 19/143/4 52/144/4
f 69/145/4 52/146/4 47/147/4
f 52/148/4 19/149/4 51/150/4
f 51/151/4 19/152/4 20/153/4
f 51/154/4 20/155/4 27/156/4
f 27/157/4 20/158/4 18/159/4
f 27/160/4 18/161/4 26/162/4
f 26/163/4 18/164/4 3/165/4
f 26/166/4 3/167/4 25/168/4
f 25/169/4 3/170/4 8/171/4
f 25/172/4 8/173/4 46/174/4
f 46/175/4 8/176/4 21/177/4
f 46/178/4 21/179/4 22/180/4
f 8/181/4 3/182/4 5/183/4
f 5/184/4 3/185/4 2/186/4
f 23/187/4 44/188/4 22/189/4
f 22/190/4 44/191/4 45/192/4
f 22/193/4 45/194/4 46/195/4
f 27/196/4 28/197/4 51/198/4
f 51/199/4 28/200/4 50/201/4
f 50/202/4 28/203/4 49/204/4
f 49/205/4 28/206/4 29/207/4
f 49/208/4 29/209/4 48/210/4
f 48/211/4 29/212/4 30/213/4
f 48/214/4 30/215/4 31/216/4
f 32/217/4 67/218/4 31/219/4
f 31/220/4 67/221/4 68/222/4
f 31/223/4 68/224/4 47/225/4
f 47/226/4 68/227/4 69/228/4
f 32/229/4 33/230/4 67/231/4
f 67/232/4 33/233/4 66/234/4
f 66/235/4 33/236/4 80/237/4
f 66/238/4 80/239/4 65/240/4
f 65/241/4 80/242/4 81/243/4
f 65/244/4 81/245/4 58/246/4
f 58/247/4 81/248/4 82/249/4
f 58/250/4 82/251/4 57/252/4
f 57/253/4 82/254/4 72/255/4
f 57/256/4 72/257/4 56/258/4
f 56/259/4 72/260/4 73/261/4
f 56/262/4 73/263/4 88/264/4
f 88/265/4 73/266/4 74/267/4
f 88/268/4 74/269/4 87/270/4
f 80/271/4 33/272/4 79/273/4
f 79/274/4 33/275/4 34/276/4
f 79/277/4 34/278/4 35/279/4
f 38/280/4 39/281/4 64/282/4
f 64/283/4 39/284/4 63/285/4
f 63/286/4 39/287/4 40/288/4
f 63/289/4 40/290/4 62/291/4
f 62/292/4 40/293/4 61/294/4
f 61/295/4 40/296/4 41/297/4
f 61/298/4 41/299/4 42/300/4
f 47/301/4 48/302/4 31/303/4
f 83/304/4 55/305/4 88/306/4
f 88/307/4 55/308/4 56/309/4
f 65/310/4 58/311/4 70/312/4
f 70/313/4 58/314/4 53/315/4
f 60/316/4 61/317/4 42/318/4
f 77/319/4 71/320/4 82/321/4
f 82/322/4 71/323/4 72/324/4
f 11/325/3 24/326/3 12/327/3
f 12/328/3 24/329/3 23/330/3
f 83/331/6 89/332/6 84/333/6
f 84/334/6 89/335/6 90/336/6
f 6/337/7 5/338/7 11/339/7
f 11/340/7 5/341/7 24/342/7
f 94/343/4 90/344/4 93/345/4
f 93/346/4 90/347/4 89/348/4
f 93/349/4 89/350/4 91/351/4
f 91/352/4 92/353/4 93/354/4
f 12/355/1 23/356/1 13/357/1
f 13/358/1 23/359/1 22/360/1
f 95/361/1 77/362/1 96/363/1
f 96/364/1 77/365/1 82/366/1
f 71/367/2 97/368/2 72/369/2
f 72/370/2 97/371/2 98/372/2
f 96/373/5 82/374/5 99/375/5
f 99/376/5 82/377/5 81/378/5
f 72/379/6 98/380/6 73/381/6
f 73/382/6 98/383/6 100/384/6
f 100/385/4 98/386/4 102/387/4
f 102/388/4 98/389/4 97/390/4
f 102/391/4 97/392/4 101/393/4
f 102/394/4 103/395/4 100/396/4
f 96/397/4 99/398/4 95/399/4
f 95/400/4 99/401/4 104/402/4
f 95/403/4 104/404/4 106/405/4
f 106/406/4 104/407/4 105/408/4
f 99/409/6 81/410/6 104/411/6
f 104/412/6 81/413/6 80/414/6
f 65/415/3 107/416/3 66/417/3
f 66/418/3 107/419/3 108/420/3
f 104/421/2 80/422/2 105/423/2
f 105/424/2 80/425/2 79/426/2
f 109/427/3 47/428/3 110/429/3
f 110/430/3 47/431/3 52/432/3
f 111/433/2 53/434/2 112/435/2
f 112/436/2 53/437/2 58/438/2
f 112/439/7 58/440/7 113/441/7
f 113/442/7 58/443/7 57/444/7
f 113/445/3 57/446/3 114/447/3
f 114/448/3 57/449/3 56/450/3
f 115/451/2 59/452/2 116/453/2
f 116/454/2 59/455/2 64/456/2
f 68/457/6 117/458/6 69/459/6
f 69/460/6 117/461/6 118/462/6
f 107/463/1 65/464/1 119/465/1
f 119/466/1 65/467/1 70/468/1
f 102/469/1 75/470/1 103/471/1
f 103/472/1 75/473/1 74/474/1
f 110/475/1 52/476/1 120/477/1
f 120/478/1 52/479/1 51/480/1
f 69/481/5 118/482/5 70/483/5
f 70/484/5 118/485/5 119/486/5
f 114/487/1 56/488/1 121/489/1
f 121/490/1 56/491/1 55/492/1
f 73/493/5 100/494/5 74/495/5
f 74/496/5 100/497/5 103/498/5
f 59/499/6 115/500/6 60/501/6
f 60/502/6 115/503/6 122/504/6
f 116/505/4 123/506/4 115/507/4
f 115/508/4 123/509/4 124/510/4
f 115/511/4 124/512/4 122/513/4
f 122/514/4 124/515/4 125/516/4
f 112/517/4 113/518/4 111/519/4
f 111/520/4 113/521/4 114/522/4
f 111/523/4 114/524/4 126/525/4
f 126/526/4 114/527/4 121/528/4
f 127/529/4 108/530/4 117/531/4
f 117/532/4 108/533/4 107/534/4
f 117/535/4 107/536/4 119/537/4
f 119/538/4 118/539/4 117/540/4
f 109/541/4 110/542/4 130/543/4
f 130/544/4 110/545/4 129/546/4
f 129/547/4 110/548/4 128/549/4
f 128/550/4 110/551/4 120/552/4
f 116/553/7 64/554/7 123/555/7
f 123/556/7 64/557/7 63/558/7
f 16/559/2 20/560/2 17/561/2
f 17/562/2 20/563/2 19/564/2
f 17/565/7 19/566/7 9/567/7
f 9/568/7 19/569/7 10/570/7
f 89/571/2 83/572/2 91/573/2
f 91/574/2 83/575/2 88/576/2
f 91/577/7 88/578/7 92/579/7
f 92/580/7 88/581/7 87/582/7
f 92/583/3 87/584/3 93/585/3
f 93/586/3 87/587/3 86/588/3
f 53/589/6 111/590/6 54/591/6
f 54/592/6 111/593/6 126/594/6
f 121/595/5 55/596/5 126/597/5
f 126/598/5 55/599/5 54/600/5
f 93/601/1 86/602/1 94/603/1
f 94/604/1 86/605/1 85/606/1
f 123/607/3 63/608/3 124/609/3
f 124/610/3 63/611/3 62/612/3
f 124/613/1 62/614/1 125/615/1
f 125/616/1 62/617/1 61/618/1
f 60/619/5 122/620/5 61/621/5
f 61/622/5 122/623/5 125/624/5
f 84/625/5 90/626/5 85/627/5
f 85/628/5 90/629/5 94/630/5
f 13/631/5 22/632/5 14/633/5
f 14/634/5 22/635/5 21/636/5
f 8/637/6 7/638/6 21/639/6
f 21/640/6 7/641/6 14/642/6
f 20/643/6 16/644/6 18/645/6
f 18/646/6 16/647/6 15/648/6
f 120/649/5 51/650/5 128/651/5
f 128/652/5 51/653/5 50/654/5
f 75/655/3 102/656/3 76/657/3
f 76/658/3 102/659/3 101/660/3
f 97/661/7 71/662/7 101/663/7
f 101/664/7 71/665/7 76/666/7
f 77/667/3 95/668/3 78/669/3
f 78/670/3 95/671/3 106/672/3
f 105/673/7 79/674/7 106/675/7
f 106/676/7 79/677/7 78/678/7
f 66/679/7 108/680/7 67/681/7
f 67/682/7 108/683/7 127/684/7
f 117/685/2 68/686/2 127/687/2
f 127/688/2 68/689/2 67/690/2
f 47/691/7 109/692/7 48/693/7
f 48/694/7 109/695/7 130/696/7
f 129/697/2 49/698/2 130/699/2
f 130/700/2 49/701/2 48/702/2
f 128/703/6 50/704/6 129/705/6
f 129/706/6 50/707/6 49/708/6
f 38/709/3 37/710/3 132/711/3
f 132/712/3 37/713/3 131/714/3
f 37/715/7 36/716/7 131/717/7
f 131/718/7 36/719/7 133/720/7
f 36/721/3 35/722/3 133/723/3
f 133/724/3 35/725/3 134/726/3
f 35/727/7 34/728/7 134/729/7
f 134/730/7 34/731/7 135/732/7
f 34/733/2 33/734/2 135/735/2
f 135/736/2 33/737/2 136/738/2
f 33/739/7 32/740/7 136/741/7
f 136/742/7 32/743/7 137/744/7
f 32/745/2 31/746/2 137/747/2
f 137/748/2 31/749/2 138/750/2
f 31/751/7 30/752/7 138/753/7
f 138/754/7 30/755/7 139/756/7
f 30/757/2 29/758/2 139/759/2
f 139/760/2 29/761/2 140/762/2
f 29/763/6 28/764/6 140/765/6
f 140/766/6 28/767/6 141/768/6
f 28/769/5 27/770/5 141/771/5
f 141/772/5 27/773/5 142/774/5
f 27/775/6 26/776/6 142/777/6
f 142/778/6 26/779/6 143/780/6
f 39/781/7 38/782/7 144/783/7
f 144/784/7 38/785/7 132/786/7
f 40/787/3 39/788/3 145/789/3
f 145/790/3 39/791/3 144/792/3
f 41/793/1 40/794/1 146/795/1
f 146/796/1 40/797/1 145/798/1
f 42/799/5 41/800/5 147/801/5
f 147/802/5 41/803/5 146/804/5
f 43/805/1 42/806/1 148/807/1
f 148/808/1 42/809/1 147/810/1
f 44/811/5 43/812/5 149/813/5
f 149/814/5 43/815/5 148/816/5
f 45/817/1 44/818/1 150/819/1
f 150/820/1 44/821/1 149/822/1
f 46/823/5 45/824/5 151/825/5
f 151/826/5 45/827/5 150/828/5
f 25/829/6 46/830/6 152/831/6
f 152/832/6 46/833/6 151/834/6
f 26/835/5 25/836/5 143/837/5
f 143/838/5 25/839/5 152/840/5
f 143/841/8 152/842/8 142/843/8
f 142/844/8 152/845/8 138/846/8
f 142/847/8 138/848/8 140/849/8
f 140/850/8 138/851/8 139/852/8
f 151/853/8 150/854/8 152/855/8
f 152/856/8 150/857/8 149/858/8
f 152/859/8 149/860/8 138/861/8
f 138/862/8 149/863/8 147/864/8
f 138/865/8 147/866/8 136/867/8
f 136/868/8 147/869/8 133/870/8
f 136/871/8 133/872/8 135/873/8
f 135/874/8 133/875/8 134/876/8
f 149/877/8 148/878/8 147/879/8
f 146/880/8 145/881/8 147/882/8
f 147/883/8 145/884/8 132/885/8
f 147/886/8 132/887/8 133/888/8
f 133/889/8 132/890/8 131/891/8
f 145/892/8 144/893/8 132/894/8
f 136/895/8 137/896/8 138/897/8
f 140/898/8 141/899/8 142/900/8
