# WaveFront *.obj file (generated by Autodesk ATF)


g Body1

v 15.588451 3.000000 25.000000
v 15.588451 2.000000 25.000000
v 29.444899 2.000000 49.000000
v 29.444899 3.000000 49.000000
v 13.856401 2.000000 26.000000
v 13.856401 3.000000 26.000000
v 27.712849 3.000000 50.000000
v 27.712849 2.000000 50.000000
v 29.444899 3.000000 1.000000
v 29.444899 2.000000 1.000000
v -13.856401 3.000000 26.000000
v -27.712849 3.000000 50.000000
v -13.856401 3.000000 74.000000
v 13.856401 3.000000 74.000000
v 57.157699 3.000000 49.000000
v 71.014051 3.000000 25.000000
v 57.157699 3.000000 1.000000
v 57.157699 2.000000 49.000000
v 57.157699 2.000000 1.000000
v 71.014051 2.000000 25.000000
v 13.856401 2.000000 74.000000
v -13.856401 2.000000 74.000000
v -27.712849 2.000000 50.000000
v -13.856401 2.000000 26.000000
v 28.867550 2.000000 50.000000
v 57.735050 2.000000 50.000000
v 72.168750 2.000000 25.000000
v 101.036250 2.000000 25.000000
v 115.470050 2.000000 0.000000
v 101.036250 2.000000 -25.000000
v 72.168750 2.000000 -25.000000
v 57.735050 2.000000 -50.000000
v 28.867550 2.000000 -50.000000
v 14.433750 2.000000 -75.000000
v -14.433750 2.000000 -75.000000
v -28.867550 2.000000 -50.000000
v -57.735050 2.000000 -50.000000
v -72.168750 2.000000 -25.000000
v -101.036350 2.000000 -25.000000
v -115.470050 2.000000 0.000000
v -101.036350 2.000000 25.000000
v -72.168750 2.000000 25.000000
v -57.735050 2.000000 50.000000
v -28.867550 2.000000 50.000000
v -14.433750 2.000000 75.000000
v 14.433750 2.000000 75.000000
v 72.746101 2.000000 -24.000000
v 100.458901 2.000000 -24.000000
v 114.315349 2.000000 0.000000
v 100.458901 2.000000 24.000000
v 72.746101 2.000000 24.000000
v 58.889749 2.000000 0.000000
v 27.712849 2.000000 0.000000
v 13.856401 2.000000 24.000000
v -13.856401 2.000000 24.000000
v -27.712849 2.000000 0.000000
v -13.856401 2.000000 -24.000000
v 13.856401 2.000000 -24.000000
v -58.889749 2.000000 0.000000
v -72.746101 2.000000 24.000000
v -100.458999 2.000000 24.000000
v -114.315351 2.000000 0.000000
v -100.458999 2.000000 -24.000000
v -72.746101 2.000000 -24.000000
v 15.588451 2.000000 -25.000000
v 29.444899 2.000000 -49.000000
v 57.157699 2.000000 -49.000000
v 71.014051 2.000000 -25.000000
v 57.157699 2.000000 -1.000000
v 29.444899 2.000000 -1.000000
v -29.444899 2.000000 -49.000000
v -15.588451 2.000000 -25.000000
v -29.444899 2.000000 -1.000000
v -57.157699 2.000000 -1.000000
v -71.014051 2.000000 -25.000000
v -57.157699 2.000000 -49.000000
v -27.712849 2.000000 -50.000000
v -13.856401 2.000000 -74.000000
v 13.856401 2.000000 -74.000000
v 27.712849 2.000000 -50.000000
v 13.856401 2.000000 -26.000000
v -13.856401 2.000000 -26.000000
v -15.588451 2.000000 25.000000
v -29.444899 2.000000 49.000000
v -57.157699 2.000000 49.000000
v -71.014051 2.000000 25.000000
v -57.157699 2.000000 1.000000
v -29.444899 2.000000 1.000000
v -15.588451 3.000000 25.000000
v -29.444899 3.000000 49.000000
v -29.444899 3.000000 1.000000
v -57.157699 3.000000 1.000000
v -71.014051 3.000000 25.000000
v -57.157699 3.000000 49.000000
v -27.712849 3.000000 -50.000000
v -13.856401 3.000000 -26.000000
v -29.444899 3.000000 -49.000000
v -15.588451 3.000000 -25.000000
v 13.856401 3.000000 -26.000000
v -29.444899 3.000000 -1.000000
v -57.157699 3.000000 -49.000000
v -71.014051 3.000000 -25.000000
v -57.157699 3.000000 -1.000000
v 27.712849 3.000000 -50.000000
v 13.856401 3.000000 -74.000000
v -13.856401 3.000000 -74.000000
v 15.588451 3.000000 -25.000000
v 29.444899 3.000000 -49.000000
v 72.746101 3.000000 -24.000000
v 58.889749 3.000000 0.000000
v 27.712849 3.000000 0.000000
v 13.856401 3.000000 -24.000000
v -13.856401 3.000000 -24.000000
v -27.712849 3.000000 0.000000
v -58.889749 3.000000 0.000000
v -72.746101 3.000000 -24.000000
v 71.014051 3.000000 -25.000000
v 57.157699 3.000000 -1.000000
v 29.444899 3.000000 -1.000000
v 72.746101 3.000000 24.000000
v -13.856401 3.000000 24.000000
v -72.746101 3.000000 24.000000
v -100.458999 3.000000 -24.000000
v -114.315351 3.000000 0.000000
v -100.458999 3.000000 24.000000
v 13.856401 3.000000 24.000000
v 57.157699 3.000000 -49.000000
v 100.458901 3.000000 24.000000
v 114.315349 3.000000 0.000000
v 100.458901 3.000000 -24.000000
v -57.735050 0.000000 -50.000000
v -72.168750 0.000000 -25.000000
v -28.867550 0.000000 -50.000000
v -14.433750 0.000000 -75.000000
v 14.433750 0.000000 -75.000000
v 28.867550 0.000000 -50.000000
v 57.735050 0.000000 -50.000000
v 72.168750 0.000000 -25.000000
v 101.036250 0.000000 -25.000000
v 115.470050 0.000000 0.000000
v 101.036250 0.000000 25.000000
v 72.168750 0.000000 25.000000
v 57.735050 0.000000 50.000000
v -101.036350 0.000000 -25.000000
v -115.470050 0.000000 0.000000
v -101.036350 0.000000 25.000000
v -72.168750 0.000000 25.000000
v -57.735050 0.000000 50.000000
v -28.867550 0.000000 50.000000
v -14.433750 0.000000 75.000000
v 14.433750 0.000000 75.000000
v 28.867550 0.000000 50.000000
vt -0.100000 0.057735 0.000000
vt 0.000000 0.057735 0.000000
vt -0.100000 2.829019 0.000000
vt 0.000000 2.829019 0.000000
vt -0.200000 0.057735 0.000000
vt -0.100000 0.057735 0.000000
vt -0.200000 2.829018 0.000000
vt -0.100000 2.829018 0.000000
vt -0.200000 0.115470 0.000000
vt -0.100000 0.115470 0.000000
vt -0.200000 2.886754 0.000000
vt -0.100000 2.886754 0.000000
vt 1.385640 -2.600000 0.000000
vt -1.385640 -2.600000 0.000000
vt 2.771285 -5.000000 0.000000
vt -2.771285 -5.000000 0.000000
vt 1.385640 -7.400000 0.000000
vt -1.385640 -7.400000 0.000000
vt 2.944490 -0.100000 0.000000
vt 1.558845 -2.500000 0.000000
vt 7.101405 -2.500000 0.000000
vt 2.944490 -4.900000 0.000000
vt 5.715770 -4.900000 0.000000
vt 5.715770 -0.100000 0.000000
vt -0.100000 0.057735 0.000000
vt 0.000000 0.057735 0.000000
vt -0.100000 2.829015 0.000000
vt 0.000000 2.829015 0.000000
vt -7.499991 -2.944493 0.000000
vt -7.699991 -2.944493 0.000000
vt -7.499991 -5.715776 0.000000
vt -7.699991 -5.715777 0.000000
vt -7.599991 -5.888982 0.000000
vt -10.099988 -7.101420 0.000000
vt -9.999988 -7.274625 0.000000
vt -10.199988 -7.274625 0.000000
vt -9.999988 -10.045908 0.000000
vt -10.199988 -10.045908 0.000000
vt -10.099988 -10.103643 0.000000
vt -12.599985 -11.431551 0.000000
vt -12.599985 -11.547021 0.000000
vt -15.099982 -10.103646 0.000000
vt -14.999982 -10.045911 0.000000
vt -15.199982 -10.045911 0.000000
vt -14.999990 -7.274633 0.000000
vt -15.199990 -7.274633 0.000000
vt -15.099990 -7.101428 0.000000
vt -17.599987 -5.888993 0.000000
vt -17.499988 -5.715787 0.000000
vt -17.599987 -5.773522 0.000000
vt -17.499996 -2.944509 0.000000
vt -17.599996 -2.886774 0.000000
vt -15.099999 -1.558866 0.000000
vt -15.099999 -1.443396 0.000000
vt -14.999999 -1.385660 0.000000
vt -15.099999 1.443358 0.000000
vt -14.999999 1.385623 0.000000
vt -12.600002 2.771266 0.000000
vt -7.599991 -2.771288 0.000000
vt -5.099994 -1.558850 0.000000
vt -5.199994 -1.385645 0.000000
vt -4.999994 -1.385645 0.000000
vt -5.000002 1.385634 0.000000
vt -2.599997 -2.771285 0.000000
vt -2.699997 -2.944490 0.000000
vt -2.599997 -2.886755 0.000000
vt -2.699988 -5.715769 0.000000
vt -2.599988 -5.773504 0.000000
vt -5.099985 -7.101412 0.000000
vt -5.099985 -7.216882 0.000000
vt -5.199985 -7.274617 0.000000
vt -5.099985 -10.103635 0.000000
vt -5.199985 -10.045900 0.000000
vt -7.599982 -11.431543 0.000000
vt -7.599982 -11.547014 0.000000
vt -0.100000 -1.443377 0.000000
vt -0.200000 -1.385642 0.000000
vt -0.200000 1.385642 0.000000
vt -0.100000 1.443377 0.000000
vt -2.600005 2.771277 0.000000
vt -2.600006 2.886747 0.000000
vt -5.100003 1.443369 0.000000
vt -7.600000 2.886744 0.000000
vt -7.599999 2.771274 0.000000
vt -5.200002 1.385634 0.000000
vt -10.099997 1.443366 0.000000
vt -9.999997 1.385631 0.000000
vt -10.199997 1.385631 0.000000
vt -9.999997 -1.385653 0.000000
vt -10.199997 -1.385653 0.000000
vt -10.099996 -1.558858 0.000000
vt -12.599994 -2.771296 0.000000
vt -12.499993 -2.944501 0.000000
vt -12.699993 -2.944501 0.000000
vt -12.499993 -5.715784 0.000000
vt -12.699993 -5.715785 0.000000
vt -12.599993 -5.888989 0.000000
vt -12.600002 2.886736 0.000000
vt -20.099993 -7.216906 0.000000
vt -19.999993 -7.274641 0.000000
vt -20.099984 -10.103654 0.000000
vt -19.999985 -10.045919 0.000000
vt -17.599987 -11.431559 0.000000
vt -17.599987 -11.547029 0.000000
vt -0.100000 0.057735 0.000000
vt -0.000000 0.057735 0.000000
vt -0.100000 2.829018 0.000000
vt -0.000000 2.829018 0.000000
vt -0.200000 0.057735 0.000000
vt -0.100000 0.057735 0.000000
vt -0.200000 2.829019 0.000000
vt -0.100000 2.829019 0.000000
vt -0.100000 2.886750 0.000000
vt -0.200000 2.886750 0.000000
vt -0.100000 0.115470 0.000000
vt -0.200000 0.115470 0.000000
vt -5.715770 -4.900000 0.000000
vt -2.944490 -4.900000 0.000000
vt -7.101405 -2.500000 0.000000
vt -1.558845 -2.500000 0.000000
vt -2.944490 -0.100000 0.000000
vt -5.715770 -0.100000 0.000000
vt -0.100000 0.057735 0.000000
vt 0.000000 0.057735 0.000000
vt -0.100000 2.829019 0.000000
vt 0.000000 2.829019 0.000000
vt -0.100000 0.057735 0.000000
vt 0.000000 0.057735 0.000000
vt -0.100000 2.829019 0.000000
vt 0.000000 2.829019 0.000000
vt -0.200000 0.057735 0.000000
vt -0.100000 0.057735 0.000000
vt -0.200000 2.829018 0.000000
vt -0.100000 2.829018 0.000000
vt -0.100000 0.115470 0.000000
vt -0.000000 0.115470 0.000000
vt -0.100000 2.886750 0.000000
vt -0.000000 2.886750 0.000000
vt 0.000000 2.771283 0.000000
vt -0.100000 2.771283 0.000000
vt -0.000000 0.000000 0.000000
vt -0.100000 0.000000 0.000000
vt -2.944490 0.100000 0.000000
vt -1.558845 2.500000 0.000000
vt -7.101405 2.500000 0.000000
vt -2.944490 4.900000 0.000000
vt -5.715770 4.900000 0.000000
vt -5.715770 0.100000 0.000000
vt -1.385640 2.600000 0.000000
vt 1.385640 2.600000 0.000000
vt -2.771285 5.000000 0.000000
vt 2.771285 5.000000 0.000000
vt -1.385640 7.400000 0.000000
vt 1.385640 7.400000 0.000000
vt -0.100000 2.829019 0.000000
vt -0.200000 2.829019 0.000000
vt -0.100000 0.057735 0.000000
vt -0.200000 0.057735 0.000000
vt -0.000000 2.829018 0.000000
vt -0.100000 2.829018 0.000000
vt -0.000000 0.057735 0.000000
vt -0.100000 0.057735 0.000000
vt -0.100000 0.057735 0.000000
vt -0.000000 0.057735 0.000000
vt -0.100000 2.829019 0.000000
vt -0.000000 2.829019 0.000000
vt -0.100000 2.886749 0.000000
vt -0.200000 2.886749 0.000000
vt -0.100000 0.115470 0.000000
vt -0.200000 0.115470 0.000000
vt -0.100000 2.771283 0.000000
vt -0.200000 2.771283 0.000000
vt -0.100000 -0.000000 0.000000
vt -0.200000 0.000000 0.000000
vt -0.100000 2.771280 0.000000
vt -0.200000 2.771280 0.000000
vt -0.100000 -0.000000 0.000000
vt -0.200000 0.000000 0.000000
vt -0.100000 2.886754 0.000000
vt -0.200000 2.886754 0.000000
vt -0.100000 0.115470 0.000000
vt -0.200000 0.115470 0.000000
vt -0.100000 2.829014 0.000000
vt -0.200000 2.829014 0.000000
vt -0.100000 0.057735 0.000000
vt -0.200000 0.057735 0.000000
vt -0.000000 2.771279 0.000000
vt -0.100000 2.771279 0.000000
vt -0.000000 0.000000 0.000000
vt -0.100000 0.000000 0.000000
vt -0.100000 0.115470 0.000000
vt 0.000000 0.115470 0.000000
vt -0.100000 2.886754 0.000000
vt 0.000000 2.886754 0.000000
vt -0.100000 0.057735 0.000000
vt 0.000000 0.057735 0.000000
vt -0.100000 2.829013 0.000000
vt 0.000000 2.829013 0.000000
vt -0.100000 0.115470 0.000000
vt 0.000000 0.115470 0.000000
vt -0.100000 2.886749 0.000000
vt 0.000000 2.886749 0.000000
vt 0.000000 2.886750 0.000000
vt -0.100000 2.886750 0.000000
vt 0.000000 0.115470 0.000000
vt -0.100000 0.115470 0.000000
vt -0.100000 0.115470 0.000000
vt 0.000000 0.115470 0.000000
vt -0.100000 2.886754 0.000000
vt 0.000000 2.886754 0.000000
vt -0.000000 2.886750 0.000000
vt -0.100000 2.886750 0.000000
vt -0.000000 0.115470 0.000000
vt -0.100000 0.115470 0.000000
vt 0.000000 2.829014 0.000000
vt -0.100000 2.829014 0.000000
vt 0.000000 0.057735 0.000000
vt -0.100000 0.057735 0.000000
vt -7.274610 2.400000 0.000000
vt -10.045900 2.400000 0.000000
vt -5.888975 -0.000000 0.000000
vt -11.431535 -0.000000 0.000000
vt -7.274610 -2.400000 0.000000
vt -10.045900 -2.400000 0.000000
vt 1.385640 2.400000 0.000000
vt -1.385640 2.400000 0.000000
vt 2.771285 -0.000000 0.000000
vt -2.771285 0.000000 0.000000
vt 1.385640 -2.400000 0.000000
vt -1.385640 -2.400000 0.000000
vt 5.715770 4.900000 0.000000
vt 2.944490 4.900000 0.000000
vt 7.101405 2.500000 0.000000
vt 1.558845 2.500000 0.000000
vt 2.944490 0.100000 0.000000
vt 5.715770 0.100000 0.000000
vt 7.274610 2.400000 0.000000
vt 5.888975 -0.000000 0.000000
vt 10.045890 2.400000 0.000000
vt 11.431535 -0.000000 0.000000
vt 10.045890 -2.400000 0.000000
vt 7.274610 -2.400000 0.000000
vt -0.100000 0.057735 0.000000
vt -0.000000 0.057735 0.000000
vt -0.100000 2.829025 0.000000
vt -0.000000 2.829025 0.000000
vt -0.100000 2.771279 0.000000
vt -0.200000 2.771279 0.000000
vt -0.100000 -0.000000 0.000000
vt -0.200000 -0.000000 0.000000
vt -0.100000 2.771280 0.000000
vt -0.200000 2.771280 0.000000
vt -0.100000 -0.000000 0.000000
vt -0.200000 -0.000000 0.000000
vt -0.100000 2.771283 0.000000
vt -0.200000 2.771283 0.000000
vt -0.100000 -0.000000 0.000000
vt -0.200000 -0.000000 0.000000
vt -0.100000 2.771280 0.000000
vt -0.200000 2.771280 0.000000
vt -0.100000 -0.000000 0.000000
vt -0.200000 -0.000000 0.000000
vt -0.100000 2.829013 0.000000
vt -0.200000 2.829013 0.000000
vt -0.100000 0.057735 0.000000
vt -0.200000 0.057735 0.000000
vt 0.000000 2.771283 0.000000
vt -0.100000 2.771283 0.000000
vt -0.000000 0.000000 0.000000
vt -0.100000 0.000000 0.000000
vt -0.100000 0.000000 0.000000
vt -0.000000 -0.000000 0.000000
vt -0.100000 2.771280 0.000000
vt 0.000000 2.771280 0.000000
vt -0.100000 0.057735 0.000000
vt 0.000000 0.057735 0.000000
vt -0.100000 2.829013 0.000000
vt 0.000000 2.829013 0.000000
vt -0.100000 0.057735 0.000000
vt -0.000000 0.057735 0.000000
vt -0.100000 2.829014 0.000000
vt -0.000000 2.829014 0.000000
vt -0.100000 0.057735 0.000000
vt -0.000000 0.057735 0.000000
vt -0.100000 2.829013 0.000000
vt -0.000000 2.829013 0.000000
vt -0.000000 2.829025 0.000000
vt -0.100000 2.829025 0.000000
vt -0.000000 0.057735 0.000000
vt -0.100000 0.057735 0.000000
vt 0.000000 2.829015 0.000000
vt -0.100000 2.829015 0.000000
vt 0.000000 0.057735 0.000000
vt -0.100000 0.057735 0.000000
vt -0.100000 0.057735 0.000000
vt 0.000000 0.057735 0.000000
vt -0.100000 2.829015 0.000000
vt 0.000000 2.829015 0.000000
vt 0.000000 2.829018 0.000000
vt -0.100000 2.829018 0.000000
vt 0.000000 0.057735 0.000000
vt -0.100000 0.057735 0.000000
vt 0.000000 2.829014 0.000000
vt -0.100000 2.829014 0.000000
vt 0.000000 0.057735 0.000000
vt -0.100000 0.057735 0.000000
vt -0.100000 0.057735 0.000000
vt 0.000000 0.057735 0.000000
vt -0.100000 2.829015 0.000000
vt 0.000000 2.829015 0.000000
vt -0.000000 2.829014 0.000000
vt -0.100000 2.829014 0.000000
vt -0.000000 0.057735 0.000000
vt -0.100000 0.057735 0.000000
vt -0.100000 0.057735 0.000000
vt -0.000000 0.057735 0.000000
vt -0.100000 2.829015 0.000000
vt -0.000000 2.829015 0.000000
vt -0.000000 2.829018 0.000000
vt -0.100000 2.829018 0.000000
vt -0.000000 0.057735 0.000000
vt -0.100000 0.057735 0.000000
vt -0.100000 0.057735 0.000000
vt -0.000000 0.057735 0.000000
vt -0.100000 2.829015 0.000000
vt -0.000000 2.829015 0.000000
vt -0.000000 2.829015 0.000000
vt -0.100000 2.829015 0.000000
vt -0.000000 0.057735 0.000000
vt -0.100000 0.057735 0.000000
vt -0.100000 0.057735 0.000000
vt -0.000000 0.057735 0.000000
vt -0.100000 2.829013 0.000000
vt -0.000000 2.829013 0.000000
vt 0.000000 2.829015 0.000000
vt -0.100000 2.829015 0.000000
vt 0.000000 0.057735 0.000000
vt -0.100000 0.057735 0.000000
vt -0.100000 0.057735 0.000000
vt 0.000000 0.057735 0.000000
vt -0.100000 2.829019 0.000000
vt 0.000000 2.829019 0.000000
vt -0.100000 -1.385642 0.000000
vt -0.000000 -1.385642 0.000000
vt -0.100000 1.385642 0.000000
vt 0.000000 1.385642 0.000000
vt -0.000000 0.100000 0.000000
vt 2.886749 0.100000 0.000000
vt -0.000000 0.300000 0.000000
vt 2.886749 0.300000 0.000000
vt -0.000000 0.100000 0.000000
vt 2.886750 0.100000 0.000000
vt -0.000000 0.300000 0.000000
vt 2.886750 0.300000 0.000000
vt -0.000000 0.100000 0.000000
vt 2.886754 0.100000 0.000000
vt -0.000000 0.300000 0.000000
vt 2.886754 0.300000 0.000000
vt -0.000000 0.100000 0.000000
vt 2.886750 0.100000 0.000000
vt -0.000000 0.300000 0.000000
vt 2.886750 0.300000 0.000000
vt -0.000000 0.100000 0.000000
vt 2.886754 0.100000 0.000000
vt -0.000000 0.300000 0.000000
vt 2.886754 0.300000 0.000000
vt -0.000000 0.100000 0.000000
vt 2.886750 0.100000 0.000000
vt -0.000000 0.300000 0.000000
vt 2.886750 0.300000 0.000000
vt -0.000000 0.100000 0.000000
vt 2.886749 0.100000 0.000000
vt -0.000000 0.300000 0.000000
vt 2.886749 0.300000 0.000000
vt -0.000000 0.100000 0.000000
vt 2.886750 0.100000 0.000000
vt -0.000000 0.300000 0.000000
vt 2.886750 0.300000 0.000000
vt -0.000000 0.100000 0.000000
vt 2.886754 0.100000 0.000000
vt -0.000000 0.300000 0.000000
vt 2.886754 0.300000 0.000000
vt 0.000000 0.100000 0.000000
vt 2.886754 0.100000 0.000000
vt 0.000000 0.300000 0.000000
vt 2.886754 0.300000 0.000000
vt 0.000000 0.100000 0.000000
vt 2.886750 0.100000 0.000000
vt 0.000000 0.300000 0.000000
vt 2.886750 0.300000 0.000000
vt 0.000000 0.100000 0.000000
vt 2.886749 0.100000 0.000000
vt 0.000000 0.300000 0.000000
vt 2.886749 0.300000 0.000000
vt -0.000000 0.100000 0.000000
vt 2.886760 0.100000 0.000000
vt -0.000000 0.300000 0.000000
vt 2.886760 0.300000 0.000000
vt -0.000000 0.100000 0.000000
vt 2.886749 0.100000 0.000000
vt -0.000000 0.300000 0.000000
vt 2.886749 0.300000 0.000000
vt 0.000000 0.100000 0.000000
vt 2.886749 0.100000 0.000000
vt 0.000000 0.300000 0.000000
vt 2.886749 0.300000 0.000000
vt 0.000000 0.100000 0.000000
vt 2.886760 0.100000 0.000000
vt 0.000000 0.300000 0.000000
vt 2.886760 0.300000 0.000000
vt 0.000000 0.100000 0.000000
vt 2.886749 0.100000 0.000000
vt 0.000000 0.300000 0.000000
vt 2.886749 0.300000 0.000000
vt 0.000000 0.100000 0.000000
vt 2.886750 0.100000 0.000000
vt 0.000000 0.300000 0.000000
vt 2.886750 0.300000 0.000000
vt 0.000000 0.100000 0.000000
vt 2.886754 0.100000 0.000000
vt 0.000000 0.300000 0.000000
vt 2.886754 0.300000 0.000000
vt 0.000000 0.100000 0.000000
vt 2.886750 0.100000 0.000000
vt 0.000000 0.300000 0.000000
vt 2.886750 0.300000 0.000000
vt 0.000000 0.100000 0.000000
vt 2.886754 0.100000 0.000000
vt 0.000000 0.300000 0.000000
vt 2.886754 0.300000 0.000000
vt 0.000000 0.100000 0.000000
vt 2.886750 0.100000 0.000000
vt 0.000000 0.300000 0.000000
vt 2.886750 0.300000 0.000000
vt -5.773505 -5.000000 0.000000
vt -2.886755 -5.000000 0.000000
vt -7.216875 -2.500000 0.000000
vt -7.216875 2.500000 0.000000
vt -11.547005 0.000000 0.000000
vt -10.103625 2.500000 0.000000
vt -1.443375 -7.500000 0.000000
vt 1.443375 -7.500000 0.000000
vt 2.886755 -5.000000 0.000000
vt 7.216875 -2.500000 0.000000
vt -2.886755 5.000000 0.000000
vt 2.886755 5.000000 0.000000
vt -1.443375 7.500000 0.000000
vt 1.443375 7.500000 0.000000
vt 5.773505 -5.000000 0.000000
vt 10.103635 -2.500000 0.000000
vt 11.547005 0.000000 0.000000
vt 7.216875 2.500000 0.000000
vt 5.773505 5.000000 0.000000
vt 10.103635 2.500000 0.000000
vt -5.773505 5.000000 0.000000
vt -10.103625 -2.500000 0.000000
vn -0.086602 0.000000 0.050000
vn -0.086602 0.000000 0.050000
vn -0.086602 0.000000 0.050000
vn -0.086602 0.000000 0.050000
vn 0.086602 0.000000 -0.050000
vn 0.086602 0.000000 -0.050000
vn 0.086602 0.000000 -0.050000
vn 0.086602 0.000000 -0.050000
vn -0.086602 0.000000 -0.050000
vn -0.086602 0.000000 -0.050000
vn -0.086602 0.000000 -0.050000
vn -0.086602 0.000000 -0.050000
vn 0.000000 0.100000 0.000000
vn 0.000000 0.100000 0.000000
vn 0.000000 0.100000 0.000000
vn 0.000000 0.100000 0.000000
vn 0.000000 0.100000 0.000000
vn 0.000000 0.100000 0.000000
vn 0.000000 0.100000 0.000000
vn 0.000000 0.100000 0.000000
vn 0.000000 0.100000 0.000000
vn 0.000000 0.100000 0.000000
vn 0.000000 0.100000 0.000000
vn 0.000000 0.100000 0.000000
vn 0.000000 0.000000 0.100000
vn 0.000000 0.000000 0.100000
vn 0.000000 0.000000 0.100000
vn 0.000000 0.000000 0.100000
vn 0.000000 0.100000 0.000000
vn 0.000000 0.100000 0.000000
vn 0.000000 0.100000 0.000000
vn 0.000000 0.100000 0.000000
vn 0.000000 0.100000 0.000000
vn 0.000000 0.100000 0.000000
vn 0.000000 0.100000 0.000000
vn 0.000000 0.100000 0.000000
vn 0.000000 0.100000 0.000000
vn 0.000000 0.100000 0.000000
vn 0.000000 0.100000 0.000000
vn 0.000000 0.100000 0.000000
vn 0.000000 0.100000 0.000000
vn 0.000000 0.100000 0.000000
vn 0.000000 0.100000 0.000000
vn 0.000000 0.100000 0.000000
vn 0.000000 0.100000 0.000000
vn 0.000000 0.100000 0.000000
vn 0.000000 0.100000 0.000000
vn 0.000000 0.100000 0.000000
vn 0.000000 0.100000 0.000000
vn 0.000000 0.100000 0.000000
vn 0.000000 0.100000 0.000000
vn 0.000000 0.100000 0.000000
vn 0.000000 0.100000 0.000000
vn 0.000000 0.100000 0.000000
vn 0.000000 0.100000 0.000000
vn 0.000000 0.100000 0.000000
vn 0.000000 0.100000 0.000000
vn 0.000000 0.100000 0.000000
vn 0.000000 0.100000 0.000000
vn 0.000000 0.100000 0.000000
vn 0.000000 0.100000 0.000000
vn 0.000000 0.100000 0.000000
vn 0.000000 0.100000 0.000000
vn 0.000000 0.100000 0.000000
vn 0.000000 0.100000 0.000000
vn 0.000000 0.100000 0.000000
vn 0.000000 0.100000 0.000000
vn 0.000000 0.100000 0.000000
vn 0.000000 0.100000 0.000000
vn 0.000000 0.100000 0.000000
vn 0.000000 0.100000 0.000000
vn 0.000000 0.100000 0.000000
vn 0.000000 0.100000 0.000000
vn 0.000000 0.100000 0.000000
vn 0.000000 0.100000 0.000000
vn 0.000000 0.100000 0.000000
vn 0.000000 0.100000 0.000000
vn 0.000000 0.100000 0.000000
vn 0.000000 0.100000 0.000000
vn 0.000000 0.100000 0.000000
vn 0.000000 0.100000 0.000000
vn 0.000000 0.100000 0.000000
vn 0.000000 0.100000 0.000000
vn 0.000000 0.100000 0.000000
vn 0.000000 0.100000 0.000000
vn 0.000000 0.100000 0.000000
vn 0.000000 0.100000 0.000000
vn 0.000000 0.100000 0.000000
vn 0.000000 0.100000 0.000000
vn 0.000000 0.100000 0.000000
vn 0.000000 0.100000 0.000000
vn 0.000000 0.100000 0.000000
vn 0.000000 0.100000 0.000000
vn 0.000000 0.100000 0.000000
vn 0.000000 0.100000 0.000000
vn 0.000000 0.100000 0.000000
vn 0.000000 0.100000 0.000000
vn 0.000000 0.100000 0.000000
vn 0.000000 0.100000 0.000000
vn 0.000000 0.100000 0.000000
vn 0.000000 0.100000 0.000000
vn 0.000000 0.100000 0.000000
vn 0.000000 0.100000 0.000000
vn 0.000000 0.100000 0.000000
vn -0.086602 0.000000 -0.050000
vn -0.086602 0.000000 -0.050000
vn -0.086602 0.000000 -0.050000
vn -0.086602 0.000000 -0.050000
vn 0.086602 0.000000 0.050000
vn 0.086602 0.000000 0.050000
vn 0.086602 0.000000 0.050000
vn 0.086602 0.000000 0.050000
vn 0.000000 0.000000 -0.100000
vn 0.000000 0.000000 -0.100000
vn 0.000000 0.000000 -0.100000
vn 0.000000 0.000000 -0.100000
vn 0.000000 0.100000 0.000000
vn 0.000000 0.100000 0.000000
vn 0.000000 0.100000 0.000000
vn 0.000000 0.100000 0.000000
vn 0.000000 0.100000 0.000000
vn 0.000000 0.100000 0.000000
vn -0.086602 0.000000 0.050000
vn -0.086602 0.000000 0.050000
vn -0.086602 0.000000 0.050000
vn -0.086602 0.000000 0.050000
vn -0.086602 0.000000 0.050000
vn -0.086602 0.000000 0.050000
vn -0.086602 0.000000 0.050000
vn -0.086602 0.000000 0.050000
vn 0.086602 0.000000 -0.050000
vn 0.086602 0.000000 -0.050000
vn 0.086602 0.000000 -0.050000
vn 0.086602 0.000000 -0.050000
vn 0.000000 0.000000 0.100000
vn 0.000000 0.000000 0.100000
vn 0.000000 0.000000 0.100000
vn 0.000000 0.000000 0.100000
vn 0.086602 0.000000 0.050000
vn 0.086602 0.000000 0.050000
vn 0.086602 0.000000 0.050000
vn 0.086602 0.000000 0.050000
vn 0.000000 0.100000 0.000000
vn 0.000000 0.100000 0.000000
vn 0.000000 0.100000 0.000000
vn 0.000000 0.100000 0.000000
vn 0.000000 0.100000 0.000000
vn 0.000000 0.100000 0.000000
vn 0.000000 0.100000 0.000000
vn 0.000000 0.100000 0.000000
vn 0.000000 0.100000 0.000000
vn 0.000000 0.100000 0.000000
vn 0.000000 0.100000 0.000000
vn 0.000000 0.100000 0.000000
vn 0.086602 0.000000 0.050000
vn 0.086602 0.000000 0.050000
vn 0.086602 0.000000 0.050000
vn 0.086602 0.000000 0.050000
vn -0.086602 0.000000 -0.050000
vn -0.086602 0.000000 -0.050000
vn -0.086602 0.000000 -0.050000
vn -0.086602 0.000000 -0.050000
vn 0.086602 0.000000 -0.050000
vn 0.086602 0.000000 -0.050000
vn 0.086602 0.000000 -0.050000
vn 0.086602 0.000000 -0.050000
vn -0.086603 0.000000 -0.050000
vn -0.086603 0.000000 -0.050000
vn -0.086603 0.000000 -0.050000
vn -0.086603 0.000000 -0.050000
vn 0.086602 0.000000 -0.050000
vn 0.086602 0.000000 -0.050000
vn 0.086602 0.000000 -0.050000
vn 0.086602 0.000000 -0.050000
vn 0.000000 0.000000 -0.100000
vn 0.000000 0.000000 -0.100000
vn 0.000000 0.000000 -0.100000
vn 0.000000 0.000000 -0.100000
vn -0.086602 0.000000 -0.050000
vn -0.086602 0.000000 -0.050000
vn -0.086602 0.000000 -0.050000
vn -0.086602 0.000000 -0.050000
vn 0.086603 0.000000 -0.050000
vn 0.086603 0.000000 -0.050000
vn 0.086603 0.000000 -0.050000
vn 0.086603 0.000000 -0.050000
vn 0.086603 0.000000 0.050000
vn 0.086603 0.000000 0.050000
vn 0.086603 0.000000 0.050000
vn 0.086603 0.000000 0.050000
vn -0.086602 0.000000 0.050000
vn -0.086602 0.000000 0.050000
vn -0.086602 0.000000 0.050000
vn -0.086602 0.000000 0.050000
vn -0.086603 0.000000 0.050000
vn -0.086603 0.000000 0.050000
vn -0.086603 0.000000 0.050000
vn -0.086603 0.000000 0.050000
vn -0.086603 0.000000 0.050000
vn -0.086603 0.000000 0.050000
vn -0.086603 0.000000 0.050000
vn -0.086603 0.000000 0.050000
vn 0.000000 0.000000 0.100000
vn 0.000000 0.000000 0.100000
vn 0.000000 0.000000 0.100000
vn 0.000000 0.000000 0.100000
vn -0.086602 0.000000 0.050000
vn -0.086602 0.000000 0.050000
vn -0.086602 0.000000 0.050000
vn -0.086602 0.000000 0.050000
vn 0.000000 0.000000 0.100000
vn 0.000000 0.000000 0.100000
vn 0.000000 0.000000 0.100000
vn 0.000000 0.000000 0.100000
vn 0.086603 0.000000 0.050000
vn 0.086603 0.000000 0.050000
vn 0.086603 0.000000 0.050000
vn 0.086603 0.000000 0.050000
vn 0.000000 0.100000 0.000000
vn 0.000000 0.100000 0.000000
vn 0.000000 0.100000 0.000000
vn 0.000000 0.100000 0.000000
vn 0.000000 0.100000 0.000000
vn 0.000000 0.100000 0.000000
vn 0.000000 0.100000 0.000000
vn 0.000000 0.100000 0.000000
vn 0.000000 0.100000 0.000000
vn 0.000000 0.100000 0.000000
vn 0.000000 0.100000 0.000000
vn 0.000000 0.100000 0.000000
vn 0.000000 0.100000 0.000000
vn 0.000000 0.100000 0.000000
vn 0.000000 0.100000 0.000000
vn 0.000000 0.100000 0.000000
vn 0.000000 0.100000 0.000000
vn 0.000000 0.100000 0.000000
vn 0.000000 0.100000 0.000000
vn 0.000000 0.100000 0.000000
vn 0.000000 0.100000 0.000000
vn 0.000000 0.100000 0.000000
vn 0.000000 0.100000 0.000000
vn 0.000000 0.100000 0.000000
vn 0.000000 0.000000 -0.100000
vn 0.000000 0.000000 -0.100000
vn 0.000000 0.000000 -0.100000
vn 0.000000 0.000000 -0.100000
vn 0.086603 0.000000 -0.050000
vn 0.086603 0.000000 -0.050000
vn 0.086603 0.000000 -0.050000
vn 0.086603 0.000000 -0.050000
vn 0.000000 0.000000 -0.100000
vn 0.000000 0.000000 -0.100000
vn 0.000000 0.000000 -0.100000
vn 0.000000 0.000000 -0.100000
vn 0.086602 0.000000 -0.050000
vn 0.086602 0.000000 -0.050000
vn 0.086602 0.000000 -0.050000
vn 0.086602 0.000000 -0.050000
vn 0.000000 0.000000 -0.100000
vn 0.000000 0.000000 -0.100000
vn 0.000000 0.000000 -0.100000
vn 0.000000 0.000000 -0.100000
vn -0.086603 0.000000 -0.050000
vn -0.086603 0.000000 -0.050000
vn -0.086603 0.000000 -0.050000
vn -0.086603 0.000000 -0.050000
vn 0.086602 0.000000 0.050000
vn 0.086602 0.000000 0.050000
vn 0.086602 0.000000 0.050000
vn 0.086602 0.000000 0.050000
vn 0.000000 0.000000 0.100000
vn 0.000000 0.000000 0.100000
vn 0.000000 0.000000 0.100000
vn 0.000000 0.000000 0.100000
vn -0.086603 0.000000 0.050000
vn -0.086603 0.000000 0.050000
vn -0.086603 0.000000 0.050000
vn -0.086603 0.000000 0.050000
vn -0.086603 0.000000 -0.050000
vn -0.086603 0.000000 -0.050000
vn -0.086603 0.000000 -0.050000
vn -0.086603 0.000000 -0.050000
vn -0.086603 0.000000 0.050000
vn -0.086603 0.000000 0.050000
vn -0.086603 0.000000 0.050000
vn -0.086603 0.000000 0.050000
vn 0.000000 0.000000 0.100000
vn 0.000000 0.000000 0.100000
vn 0.000000 0.000000 0.100000
vn 0.000000 0.000000 0.100000
vn 0.000000 0.000000 0.100000
vn 0.000000 0.000000 0.100000
vn 0.000000 0.000000 0.100000
vn 0.000000 0.000000 0.100000
vn 0.000000 0.000000 0.100000
vn 0.000000 0.000000 0.100000
vn 0.000000 0.000000 0.100000
vn 0.000000 0.000000 0.100000
vn 0.086602 0.000000 0.050000
vn 0.086602 0.000000 0.050000
vn 0.086602 0.000000 0.050000
vn 0.086602 0.000000 0.050000
vn 0.086603 0.000000 0.050000
vn 0.086603 0.000000 0.050000
vn 0.086603 0.000000 0.050000
vn 0.086603 0.000000 0.050000
vn 0.000000 0.000000 0.100000
vn 0.000000 0.000000 0.100000
vn 0.000000 0.000000 0.100000
vn 0.000000 0.000000 0.100000
vn -0.086603 0.000000 -0.050000
vn -0.086603 0.000000 -0.050000
vn -0.086603 0.000000 -0.050000
vn -0.086603 0.000000 -0.050000
vn 0.000000 0.000000 -0.100000
vn 0.000000 0.000000 -0.100000
vn 0.000000 0.000000 -0.100000
vn 0.000000 0.000000 -0.100000
vn -0.086602 0.000000 -0.050000
vn -0.086602 0.000000 -0.050000
vn -0.086602 0.000000 -0.050000
vn -0.086602 0.000000 -0.050000
vn 0.000000 0.000000 -0.100000
vn 0.000000 0.000000 -0.100000
vn 0.000000 0.000000 -0.100000
vn 0.000000 0.000000 -0.100000
vn 0.000000 0.000000 -0.100000
vn 0.000000 0.000000 -0.100000
vn 0.000000 0.000000 -0.100000
vn 0.000000 0.000000 -0.100000
vn 0.086603 0.000000 -0.050000
vn 0.086603 0.000000 -0.050000
vn 0.086603 0.000000 -0.050000
vn 0.086603 0.000000 -0.050000
vn 0.000000 0.000000 -0.100000
vn 0.000000 0.000000 -0.100000
vn 0.000000 0.000000 -0.100000
vn 0.000000 0.000000 -0.100000
vn 0.086602 0.000000 -0.050000
vn 0.086602 0.000000 -0.050000
vn 0.086602 0.000000 -0.050000
vn 0.086602 0.000000 -0.050000
vn 0.086602 0.000000 0.050000
vn 0.086602 0.000000 0.050000
vn 0.086602 0.000000 0.050000
vn 0.086602 0.000000 0.050000
vn -0.086603 0.000000 -0.050000
vn -0.086603 0.000000 -0.050000
vn -0.086603 0.000000 -0.050000
vn -0.086603 0.000000 -0.050000
vn 0.000000 0.000000 -0.100000
vn 0.000000 0.000000 -0.100000
vn 0.000000 0.000000 -0.100000
vn 0.000000 0.000000 -0.100000
vn -0.086602 0.000000 -0.050000
vn -0.086602 0.000000 -0.050000
vn -0.086602 0.000000 -0.050000
vn -0.086602 0.000000 -0.050000
vn 0.000000 0.000000 -0.100000
vn 0.000000 0.000000 -0.100000
vn 0.000000 0.000000 -0.100000
vn 0.000000 0.000000 -0.100000
vn 0.086602 0.000000 -0.050000
vn 0.086602 0.000000 -0.050000
vn 0.086602 0.000000 -0.050000
vn 0.086602 0.000000 -0.050000
vn 0.000000 0.000000 -0.100000
vn 0.000000 0.000000 -0.100000
vn 0.000000 0.000000 -0.100000
vn 0.000000 0.000000 -0.100000
vn 0.086603 0.000000 -0.050000
vn 0.086603 0.000000 -0.050000
vn 0.086603 0.000000 -0.050000
vn 0.086603 0.000000 -0.050000
vn 0.000000 0.000000 -0.100000
vn 0.000000 0.000000 -0.100000
vn 0.000000 0.000000 -0.100000
vn 0.000000 0.000000 -0.100000
vn 0.086602 0.000000 -0.050000
vn 0.086602 0.000000 -0.050000
vn 0.086602 0.000000 -0.050000
vn 0.086602 0.000000 -0.050000
vn 0.086602 0.000000 0.050000
vn 0.086602 0.000000 0.050000
vn 0.086602 0.000000 0.050000
vn 0.086602 0.000000 0.050000
vn 0.000000 0.000000 0.100000
vn 0.000000 0.000000 0.100000
vn 0.000000 0.000000 0.100000
vn 0.000000 0.000000 0.100000
vn 0.086603 0.000000 0.050000
vn 0.086603 0.000000 0.050000
vn 0.086603 0.000000 0.050000
vn 0.086603 0.000000 0.050000
vn 0.000000 0.000000 -0.100000
vn 0.000000 0.000000 -0.100000
vn 0.000000 0.000000 -0.100000
vn 0.000000 0.000000 -0.100000
vn -0.086603 0.000000 -0.050000
vn -0.086603 0.000000 -0.050000
vn -0.086603 0.000000 -0.050000
vn -0.086603 0.000000 -0.050000
vn -0.086603 0.000000 0.050000
vn -0.086603 0.000000 0.050000
vn -0.086603 0.000000 0.050000
vn -0.086603 0.000000 0.050000
vn 0.000000 0.000000 0.100000
vn 0.000000 0.000000 0.100000
vn 0.000000 0.000000 0.100000
vn 0.000000 0.000000 0.100000
vn -0.086603 0.000000 0.050000
vn -0.086603 0.000000 0.050000
vn -0.086603 0.000000 0.050000
vn -0.086603 0.000000 0.050000
vn 0.000000 0.000000 0.100000
vn 0.000000 0.000000 0.100000
vn 0.000000 0.000000 0.100000
vn 0.000000 0.000000 0.100000
vn -0.086602 0.000000 0.050000
vn -0.086602 0.000000 0.050000
vn -0.086602 0.000000 0.050000
vn -0.086602 0.000000 0.050000
vn 0.000000 0.000000 0.100000
vn 0.000000 0.000000 0.100000
vn 0.000000 0.000000 0.100000
vn 0.000000 0.000000 0.100000
vn 0.086602 0.000000 0.050000
vn 0.086602 0.000000 0.050000
vn 0.086602 0.000000 0.050000
vn 0.086602 0.000000 0.050000
vn 0.000000 0.000000 0.100000
vn 0.000000 0.000000 0.100000
vn 0.000000 0.000000 0.100000
vn 0.000000 0.000000 0.100000
vn 0.000000 -0.100000 0.000000
vn 0.000000 -0.100000 0.000000
vn 0.000000 -0.100000 0.000000
vn 0.000000 -0.100000 0.000000
vn 0.000000 -0.100000 0.000000
vn 0.000000 -0.100000 0.000000
vn 0.000000 -0.100000 0.000000
vn 0.000000 -0.100000 0.000000
vn 0.000000 -0.100000 0.000000
vn 0.000000 -0.100000 0.000000
vn 0.000000 -0.100000 0.000000
vn 0.000000 -0.100000 0.000000
vn 0.000000 -0.100000 0.000000
vn 0.000000 -0.100000 0.000000
vn 0.000000 -0.100000 0.000000
vn 0.000000 -0.100000 0.000000
vn 0.000000 -0.100000 0.000000
vn 0.000000 -0.100000 0.000000
vn 0.000000 -0.100000 0.000000
vn 0.000000 -0.100000 0.000000
vn 0.000000 -0.100000 0.000000
vn 0.000000 -0.100000 0.000000
f 1/1/1 2/2/2 4/3/3
f 4/3/3 2/2/2 3/4/4
f 5/5/5 6/6/6 8/7/7
f 8/7/7 6/6/6 7/8/8
f 2/9/9 1/10/10 10/11/11
f 10/11/11 1/10/10 9/12/12
f 6/13/13 11/14/14 7/15/15
f 7/15/15 11/14/14 12/16/16
f 7/15/15 12/16/16 14/17/17
f 14/17/17 12/16/16 13/18/18
f 9/19/19 1/20/20 16/21/21
f 16/21/21 1/20/20 4/22/22
f 16/21/21 4/22/22 15/23/23
f 16/21/21 17/24/24 9/19/19
f 4/25/25 3/26/26 15/27/27
f 15/27/27 3/26/26 18/28/28
f 10/29/29 53/30/30 2/31/31
f 2/31/31 53/30/30 54/32/32
f 2/31/31 54/32/32 5/33/33
f 5/33/33 54/32/32 55/34/34
f 5/33/33 55/34/34 24/35/35
f 24/35/35 55/34/34 83/36/36
f 24/35/35 83/36/36 23/37/37
f 23/37/37 83/36/36 84/38/38
f 23/37/37 84/38/38 44/39/39
f 44/39/39 84/38/38 85/40/40
f 44/39/39 85/40/40 43/41/41
f 43/41/41 85/40/40 42/42/42
f 42/42/42 85/40/40 86/43/43
f 42/42/42 86/43/43 60/44/44
f 60/44/44 86/43/43 87/45/45
f 60/44/44 87/45/45 59/46/46
f 59/46/46 87/45/45 74/47/47
f 59/46/46 74/47/47 64/48/48
f 64/48/48 74/47/47 75/49/49
f 64/48/48 75/49/49 38/50/50
f 38/50/50 75/49/49 76/51/51
f 38/50/50 76/51/51 37/52/52
f 37/52/52 76/51/51 71/53/53
f 37/52/52 71/53/53 36/54/54
f 36/54/54 71/53/53 77/55/55
f 36/54/54 77/55/55 35/56/56
f 35/56/56 77/55/55 78/57/57
f 35/56/56 78/57/57 79/58/58
f 53/30/30 10/29/29 70/59/59
f 70/59/59 10/29/29 19/60/60
f 70/59/59 19/60/60 69/61/61
f 69/61/61 19/60/60 52/62/62
f 69/61/61 52/62/62 47/63/63
f 52/62/62 19/60/60 51/64/64
f 51/64/64 19/60/60 20/65/65
f 51/64/64 20/65/65 27/66/66
f 27/66/66 20/65/65 18/67/67
f 27/66/66 18/67/67 26/68/68
f 26/68/68 18/67/67 3/69/69
f 26/68/68 3/69/69 25/70/70
f 25/70/70 3/69/69 8/71/71
f 25/70/70 8/71/71 46/72/72
f 46/72/72 8/71/71 21/73/73
f 46/72/72 21/73/73 22/74/74
f 8/71/71 3/69/69 5/33/33
f 5/33/33 3/69/69 2/31/31
f 23/37/37 44/39/39 22/74/74
f 22/74/74 44/39/39 45/75/75
f 22/74/74 45/75/75 46/72/72
f 27/66/66 28/76/76 51/64/64
f 51/64/64 28/76/76 50/77/77
f 50/77/77 28/76/76 49/78/78
f 49/78/78 28/76/76 29/79/79
f 49/78/78 29/79/79 48/80/80
f 48/80/80 29/79/79 30/81/81
f 48/80/80 30/81/81 31/82/82
f 32/83/83 67/84/84 31/82/82
f 31/82/82 67/84/84 68/85/85
f 31/82/82 68/85/85 47/63/63
f 47/63/63 68/85/85 69/61/61
f 32/83/83 33/86/86 67/84/84
f 67/84/84 33/86/86 66/87/87
f 66/87/87 33/86/86 80/88/88
f 66/87/87 80/88/88 65/89/89
f 65/89/89 80/88/88 81/90/90
f 65/89/89 81/90/90 58/91/91
f 58/91/91 81/90/90 82/92/92
f 58/91/91 82/92/92 57/93/93
f 57/93/93 82/92/92 72/94/94
f 57/93/93 72/94/94 56/95/95
f 56/95/95 72/94/94 73/96/96
f 56/95/95 73/96/96 88/97/97
f 88/97/97 73/96/96 74/47/47
f 88/97/97 74/47/47 87/45/45
f 80/88/88 33/86/86 79/58/58
f 79/58/58 33/86/86 34/98/98
f 79/58/58 34/98/98 35/56/56
f 38/50/50 39/99/99 64/48/48
f 64/48/48 39/99/99 63/100/100
f 63/100/100 39/99/99 40/101/101
f 63/100/100 40/101/101 62/102/102
f 62/102/102 40/101/101 61/103/103
f 61/103/103 40/101/101 41/104/104
f 61/103/103 41/104/104 42/42/42
f 47/63/63 48/80/80 31/82/82
f 83/36/36 55/34/34 88/97/97
f 88/97/97 55/34/34 56/95/95
f 65/89/89 58/91/91 70/59/59
f 70/59/59 58/91/91 53/30/30
f 60/44/44 61/103/103 42/42/42
f 77/55/55 71/53/53 82/92/92
f 82/92/92 71/53/53 72/94/94
f 11/105/105 24/106/106 12/107/107
f 12/107/107 24/106/106 23/108/108
f 83/109/109 89/110/110 84/111/111
f 84/111/111 89/110/110 90/112/112
f 6/113/113 5/114/114 11/115/115
f 11/115/115 5/114/114 24/116/116
f 94/117/117 90/118/118 93/119/119
f 93/119/119 90/118/118 89/120/120
f 93/119/119 89/120/120 91/121/121
f 91/121/121 92/122/122 93/119/119
f 12/123/123 23/124/124 13/125/125
f 13/125/125 23/124/124 22/126/126
f 95/127/127 77/128/128 96/129/129
f 96/129/129 77/128/128 82/130/130
f 71/131/131 97/132/132 72/133/133
f 72/133/133 97/132/132 98/134/134
f 96/135/135 82/136/136 99/137/137
f 99/137/137 82/136/136 81/138/138
f 72/139/139 98/140/140 73/141/141
f 73/141/141 98/140/140 100/142/142
f 100/143/143 98/144/144 102/145/145
f 102/145/145 98/144/144 97/146/146
f 102/145/145 97/146/146 101/147/147
f 102/145/145 103/148/148 100/143/143
f 96/149/149 99/150/150 95/151/151
f 95/151/151 99/150/150 104/152/152
f 95/151/151 104/152/152 106/153/153
f 106/153/153 104/152/152 105/154/154
f 99/155/155 81/156/156 104/157/157
f 104/157/157 81/156/156 80/158/158
f 65/159/159 107/160/160 66/161/161
f 66/161/161 107/160/160 108/162/162
f 104/163/163 80/164/164 105/165/165
f 105/165/165 80/164/164 79/166/166
f 109/167/167 47/168/168 110/169/169
f 110/169/169 47/168/168 52/170/170
f 111/171/171 53/172/172 112/173/173
f 112/173/173 53/172/172 58/174/174
f 112/175/175 58/176/176 113/177/177
f 113/177/177 58/176/176 57/178/178
f 113/179/179 57/180/180 114/181/181
f 114/181/181 57/180/180 56/182/182
f 115/183/183 59/184/184 116/185/185
f 116/185/185 59/184/184 64/186/186
f 68/187/187 117/188/188 69/189/189
f 69/189/189 117/188/188 118/190/190
f 107/191/191 65/192/192 119/193/193
f 119/193/193 65/192/192 70/194/194
f 102/195/195 75/196/196 103/197/197
f 103/197/197 75/196/196 74/198/198
f 110/199/199 52/200/200 120/201/201
f 120/201/201 52/200/200 51/202/202
f 69/203/203 118/204/204 70/205/205
f 70/205/205 118/204/204 119/206/206
f 114/207/207 56/208/208 121/209/209
f 121/209/209 56/208/208 55/210/210
f 73/211/211 100/212/212 74/213/213
f 74/213/213 100/212/212 103/214/214
f 59/215/215 115/216/216 60/217/217
f 60/217/217 115/216/216 122/218/218
f 116/219/219 123/220/220 115/221/221
f 115/221/221 123/220/220 124/222/222
f 115/221/221 124/222/222 122/223/223
f 122/223/223 124/222/222 125/224/224
f 112/225/225 113/226/226 111/227/227
f 111/227/227 113/226/226 114/228/228
f 111/227/227 114/228/228 126/229/229
f 126/229/229 114/228/228 121/230/230
f 127/231/231 108/232/232 117/233/233
f 117/233/233 108/232/232 107/234/234
f 117/233/233 107/234/234 119/235/235
f 119/235/235 118/236/236 117/233/233
f 109/237/237 110/238/238 130/239/239
f 130/239/239 110/238/238 129/240/240
f 129/240/240 110/238/238 128/241/241
f 128/241/241 110/238/238 120/242/242
f 116/243/243 64/244/244 123/245/245
f 123/245/245 64/244/244 63/246/246
f 16/247/247 20/248/248 17/249/249
f 17/249/249 20/248/248 19/250/250
f 17/251/251 19/252/252 9/253/253
f 9/253/253 19/252/252 10/254/254
f 89/255/255 83/256/256 91/257/257
f 91/257/257 83/256/256 88/258/258
f 91/259/259 88/260/260 92/261/261
f 92/261/261 88/260/260 87/262/262
f 92/263/263 87/264/264 93/265/265
f 93/265/265 87/264/264 86/266/266
f 53/267/267 111/268/268 54/269/269
f 54/269/269 111/268/268 126/270/270
f 121/271/271 55/272/272 126/273/273
f 126/273/273 55/272/272 54/274/274
f 93/275/275 86/276/276 94/277/277
f 94/277/277 86/276/276 85/278/278
f 123/279/279 63/280/280 124/281/281
f 124/281/281 63/280/280 62/282/282
f 124/283/283 62/284/284 125/285/285
f 125/285/285 62/284/284 61/286/286
f 60/287/287 122/288/288 61/289/289
f 61/289/289 122/288/288 125/290/290
f 84/291/291 90/292/292 85/293/293
f 85/293/293 90/292/292 94/294/294
f 13/295/295 22/296/296 14/297/297
f 14/297/297 22/296/296 21/298/298
f 8/299/299 7/300/300 21/301/301
f 21/301/301 7/300/300 14/302/302
f 20/303/303 16/304/304 18/305/305
f 18/305/305 16/304/304 15/306/306
f 120/307/307 51/308/308 128/309/309
f 128/309/309 51/308/308 50/310/310
f 75/311/311 102/312/312 76/313/313
f 76/313/313 102/312/312 101/314/314
f 97/315/315 71/316/316 101/317/317
f 101/317/317 71/316/316 76/318/318
f 77/319/319 95/320/320 78/321/321
f 78/321/321 95/320/320 106/322/322
f 105/323/323 79/324/324 106/325/325
f 106/325/325 79/324/324 78/326/326
f 66/327/327 108/328/328 67/329/329
f 67/329/329 108/328/328 127/330/330
f 117/331/331 68/332/332 127/333/333
f 127/333/333 68/332/332 67/334/334
f 47/335/335 109/336/336 48/337/337
f 48/337/337 109/336/336 130/338/338
f 129/339/339 49/340/340 130/341/341
f 130/341/341 49/340/340 48/342/342
f 128/343/343 50/344/344 129/345/345
f 129/345/345 50/344/344 49/346/346
f 38/347/347 37/348/348 132/349/349
f 132/349/349 37/348/348 131/350/350
f 37/351/351 36/352/352 131/353/353
f 131/353/353 36/352/352 133/354/354
f 36/355/355 35/356/356 133/357/357
f 133/357/357 35/356/356 134/358/358
f 35/359/359 34/360/360 134/361/361
f 134/361/361 34/360/360 135/362/362
f 34/363/363 33/364/364 135/365/365
f 135/365/365 33/364/364 136/366/366
f 33/367/367 32/368/368 136/369/369
f 136/369/369 32/368/368 137/370/370
f 32/371/371 31/372/372 137/373/373
f 137/373/373 31/372/372 138/374/374
f 31/375/375 30/376/376 138/377/377
f 138/377/377 30/376/376 139/378/378
f 30/379/379 29/380/380 139/381/381
f 139/381/381 29/380/380 140/382/382
f 29/383/383 28/384/384 140/385/385
f 140/385/385 28/384/384 141/386/386
f 28/387/387 27/388/388 141/389/389
f 141/389/389 27/388/388 142/390/390
f 27/391/391 26/392/392 142/393/393
f 142/393/393 26/392/392 143/394/394
f 39/395/395 38/396/396 144/397/397
f 144/397/397 38/396/396 132/398/398
f 40/399/399 39/400/400 145/401/401
f 145/401/401 39/400/400 144/402/402
f 41/403/403 40/404/404 146/405/405
f 146/405/405 40/404/404 145/406/406
f 42/407/407 41/408/408 147/409/409
f 147/409/409 41/408/408 146/410/410
f 43/411/411 42/412/412 148/413/413
f 148/413/413 42/412/412 147/414/414
f 44/415/415 43/416/416 149/417/417
f 149/417/417 43/416/416 148/418/418
f 45/419/419 44/420/420 150/421/421
f 150/421/421 44/420/420 149/422/422
f 46/423/423 45/424/424 151/425/425
f 151/425/425 45/424/424 150/426/426
f 25/427/427 46/428/428 152/429/429
f 152/429/429 46/428/428 151/430/430
f 26/431/431 25/432/432 143/433/433
f 143/433/433 25/432/432 152/434/434
f 143/435/435 152/436/436 142/437/437
f 142/437/437 152/436/436 138/438/438
f 142/437/437 138/438/438 140/439/439
f 140/439/439 138/438/438 139/440/440
f 151/441/441 150/442/442 152/436/436
f 152/436/436 150/442/442 149/443/443
f 152/436/436 149/443/443 138/438/438
f 138/438/438 149/443/443 147/444/444
f 138/438/438 147/444/444 136/445/445
f 136/445/445 147/444/444 133/446/446
f 136/445/445 133/446/446 135/447/447
f 135/447/447 133/446/446 134/448/448
f 149/443/443 148/449/449 147/444/444
f 146/450/450 145/451/451 147/444/444
f 147/444/444 145/451/451 132/452/452
f 147/444/444 132/452/452 133/446/446
f 133/446/446 132/452/452 131/453/453
f 145/451/451 144/454/454 132/452/452
f 136/445/445 137/455/455 138/438/438
f 140/439/439 141/456/456 142/437/437
# 152 vertices
# 456 texture params
# 456 normals
# 300 facets

# 1 groups
