# Blender 5.2.0 LTS
# www.blender.org
o Disc54
v 0.945000 0.035000 0.000000
v 0.945000 -0.035000 0.000000
v 0.936915 0.035000 -0.123347
v 0.936915 -0.035000 -0.123347
v 0.912800 0.035000 -0.244584
v 0.912800 -0.035000 -0.244584
v 0.873066 0.035000 -0.361636
v 0.873066 -0.035000 -0.361636
v 0.818394 0.035000 -0.472500
v 0.818394 -0.035000 -0.472500
v 0.749719 0.035000 -0.575280
v 0.749719 -0.035000 -0.575280
v 0.668216 0.035000 -0.668216
v 0.668216 -0.035000 -0.668216
v 0.575280 0.035000 -0.749719
v 0.575280 -0.035000 -0.749719
v 0.472500 0.035000 -0.818394
v 0.472500 -0.035000 -0.818394
v 0.361636 0.035000 -0.873066
v 0.361636 -0.035000 -0.873066
v 0.244584 0.035000 -0.912800
v 0.244584 -0.035000 -0.912800
v 0.123347 0.035000 -0.936915
v 0.123347 -0.035000 -0.936915
v 0.000000 0.035000 -0.945000
v 0.000000 -0.035000 -0.945000
v -0.123347 0.035000 -0.936915
v -0.123347 -0.035000 -0.936915
v -0.244584 0.035000 -0.912800
v -0.244584 -0.035000 -0.912800
v -0.361636 0.035000 -0.873066
v -0.361636 -0.035000 -0.873066
v -0.472500 0.035000 -0.818394
v -0.472500 -0.035000 -0.818394
v -0.575280 0.035000 -0.749719
v -0.575280 -0.035000 -0.749719
v -0.668216 0.035000 -0.668216
v -0.668216 -0.035000 -0.668216
v -0.749719 0.035000 -0.575280
v -0.749719 -0.035000 -0.575280
v -0.818394 0.035000 -0.472500
v -0.818394 -0.035000 -0.472500
v -0.873066 0.035000 -0.361636
v -0.873066 -0.035000 -0.361636
v -0.912800 0.035000 -0.244584
v -0.912800 -0.035000 -0.244584
v -0.936915 0.035000 -0.123347
v -0.936915 -0.035000 -0.123347
v -0.945000 0.035000 -0.000000
v -0.945000 -0.035000 -0.000000
v -0.936915 0.035000 0.123347
v -0.936915 -0.035000 0.123347
v -0.912800 0.035000 0.244584
v -0.912800 -0.035000 0.244584
v -0.873066 0.035000 0.361636
v -0.873066 -0.035000 0.361636
v -0.818394 0.035000 0.472500
v -0.818394 -0.035000 0.472500
v -0.749719 0.035000 0.575280
v -0.749719 -0.035000 0.575280
v -0.668216 0.035000 0.668216
v -0.668216 -0.035000 0.668216
v -0.575280 0.035000 0.749719
v -0.575280 -0.035000 0.749719
v -0.472500 0.035000 0.818394
v -0.472500 -0.035000 0.818394
v -0.361636 0.035000 0.873066
v -0.361636 -0.035000 0.873066
v -0.244584 0.035000 0.912800
v -0.244584 -0.035000 0.912800
v -0.123347 0.035000 0.936915
v -0.123347 -0.035000 0.936915
v -0.000000 0.035000 0.945000
v -0.000000 -0.035000 0.945000
v 0.123347 0.035000 0.936915
v 0.123347 -0.035000 0.936915
v 0.244584 0.035000 0.912800
v 0.244584 -0.035000 0.912800
v 0.361636 0.035000 0.873066
v 0.361636 -0.035000 0.873066
v 0.472500 0.035000 0.818394
v 0.472500 -0.035000 0.818394
v 0.575280 0.035000 0.749719
v 0.575280 -0.035000 0.749719
v 0.668216 0.035000 0.668216
v 0.668216 -0.035000 0.668216
v 0.749719 0.035000 0.575280
v 0.749719 -0.035000 0.575280
v 0.818394 0.035000 0.472500
v 0.818394 -0.035000 0.472500
v 0.873066 0.035000 0.361636
v 0.873066 -0.035000 0.361636
v 0.912800 0.035000 0.244584
v 0.912800 -0.035000 0.244584
v 0.936915 0.035000 0.123347
v 0.936915 -0.035000 0.123347
v 0.936915 0.035000 0.123347
v 0.945000 0.035000 0.000000
v 0.936915 0.035000 -0.123347
v 0.912800 0.035000 -0.244584
v 0.873066 0.035000 -0.361636
v 0.818394 0.035000 -0.472500
v 0.749719 0.035000 -0.575280
v 0.668216 0.035000 -0.668216
v 0.575280 0.035000 -0.749719
v 0.472500 0.035000 -0.818394
v 0.361636 0.035000 -0.873066
v 0.244584 0.035000 -0.912800
v 0.123347 0.035000 -0.936915
v 0.000000 0.035000 -0.945000
v -0.123347 0.035000 -0.936915
v -0.244584 0.035000 -0.912800
v -0.361636 0.035000 -0.873066
v -0.472500 0.035000 -0.818394
v -0.575280 0.035000 -0.749719
v -0.668216 0.035000 -0.668216
v -0.749719 0.035000 -0.575280
v -0.818394 0.035000 -0.472500
v -0.873066 0.035000 -0.361636
v -0.912800 0.035000 -0.244584
v -0.936915 0.035000 -0.123347
v -0.945000 0.035000 -0.000000
v -0.936915 0.035000 0.123347
v -0.912800 0.035000 0.244584
v -0.873066 0.035000 0.361636
v -0.818394 0.035000 0.472500
v -0.749719 0.035000 0.575280
v -0.668216 0.035000 0.668216
v -0.575280 0.035000 0.749719
v -0.472500 0.035000 0.818394
v -0.361636 0.035000 0.873066
v -0.244584 0.035000 0.912800
v -0.123347 0.035000 0.936915
v -0.000000 0.035000 0.945000
v 0.123347 0.035000 0.936915
v 0.244584 0.035000 0.912800
v 0.361636 0.035000 0.873066
v 0.472500 0.035000 0.818394
v 0.575280 0.035000 0.749719
v 0.668216 0.035000 0.668216
v 0.749719 0.035000 0.575280
v 0.818394 0.035000 0.472500
v 0.873066 0.035000 0.361636
v 0.912800 0.035000 0.244584
v 0.945000 -0.035000 0.000000
v 0.936915 -0.035000 0.123347
v 0.912800 -0.035000 0.244584
v 0.873066 -0.035000 0.361636
v 0.818394 -0.035000 0.472500
v 0.749719 -0.035000 0.575280
v 0.668216 -0.035000 0.668216
v 0.575280 -0.035000 0.749719
v 0.472500 -0.035000 0.818394
v 0.361636 -0.035000 0.873066
v 0.244584 -0.035000 0.912800
v 0.123347 -0.035000 0.936915
v -0.000000 -0.035000 0.945000
v -0.123347 -0.035000 0.936915
v -0.244584 -0.035000 0.912800
v -0.361636 -0.035000 0.873066
v -0.472500 -0.035000 0.818394
v -0.575280 -0.035000 0.749719
v -0.668216 -0.035000 0.668216
v -0.749719 -0.035000 0.575280
v -0.818394 -0.035000 0.472500
v -0.873066 -0.035000 0.361636
v -0.912800 -0.035000 0.244584
v -0.936915 -0.035000 0.123347
v -0.945000 -0.035000 -0.000000
v -0.936915 -0.035000 -0.123347
v -0.912800 -0.035000 -0.244584
v -0.873066 -0.035000 -0.361636
v -0.818394 -0.035000 -0.472500
v -0.749719 -0.035000 -0.575280
v -0.668216 -0.035000 -0.668216
v -0.575280 -0.035000 -0.749719
v -0.472500 -0.035000 -0.818394
v -0.361636 -0.035000 -0.873066
v -0.244584 -0.035000 -0.912800
v -0.123347 -0.035000 -0.936915
v 0.000000 -0.035000 -0.945000
v 0.123347 -0.035000 -0.936915
v 0.244584 -0.035000 -0.912800
v 0.361636 -0.035000 -0.873066
v 0.472500 -0.035000 -0.818394
v 0.575280 -0.035000 -0.749719
v 0.668216 -0.035000 -0.668216
v 0.749719 -0.035000 -0.575280
v 0.818394 -0.035000 -0.472500
v 0.873066 -0.035000 -0.361636
v 0.912800 -0.035000 -0.244584
v 0.936915 -0.035000 -0.123347
vn -0.0000 1.0000 -0.0000
vn -0.0000 -1.0000 -0.0000
vn 0.9979 -0.0000 -0.0654
vn 0.9808 -0.0000 -0.1951
vn 0.9469 -0.0000 -0.3214
vn 0.8969 -0.0000 -0.4423
vn 0.8315 -0.0000 -0.5556
vn 0.7518 -0.0000 -0.6593
vn 0.6593 -0.0000 -0.7518
vn 0.5556 -0.0000 -0.8315
vn 0.4423 -0.0000 -0.8969
vn 0.3214 -0.0000 -0.9469
vn 0.1951 -0.0000 -0.9808
vn 0.0654 -0.0000 -0.9979
vn -0.0654 -0.0000 -0.9979
vn -0.1951 -0.0000 -0.9808
vn -0.3214 -0.0000 -0.9469
vn -0.4423 -0.0000 -0.8969
vn -0.5556 -0.0000 -0.8315
vn -0.6593 -0.0000 -0.7518
vn -0.7518 -0.0000 -0.6593
vn -0.8315 -0.0000 -0.5556
vn -0.8969 -0.0000 -0.4423
vn -0.9469 -0.0000 -0.3214
vn -0.9808 -0.0000 -0.1951
vn -0.9979 -0.0000 -0.0654
vn -0.9979 -0.0000 0.0654
vn -0.9808 -0.0000 0.1951
vn -0.9469 -0.0000 0.3214
vn -0.8969 -0.0000 0.4423
vn -0.8315 -0.0000 0.5556
vn -0.7518 -0.0000 0.6593
vn -0.6593 -0.0000 0.7518
vn -0.5556 -0.0000 0.8315
vn -0.4423 -0.0000 0.8969
vn -0.3214 -0.0000 0.9469
vn -0.1951 -0.0000 0.9808
vn -0.0654 -0.0000 0.9979
vn 0.0654 -0.0000 0.9979
vn 0.1951 -0.0000 0.9808
vn 0.3214 -0.0000 0.9469
vn 0.4423 -0.0000 0.8969
vn 0.5556 -0.0000 0.8315
vn 0.6593 -0.0000 0.7518
vn 0.7518 -0.0000 0.6593
vn 0.8315 -0.0000 0.5556
vn 0.8969 -0.0000 0.4423
vn 0.9469 -0.0000 0.3214
vn 0.9808 -0.0000 0.1951
vn 0.9979 -0.0000 0.0654
vt 0.308658 0.961940
vt 0.195619 0.103323
vt 0.995722 0.434737
vt 0.250000 0.066987
vt 0.250000 0.933013
vt 1.000000 0.500000
vt 0.995722 0.565263
vt 0.982963 0.629410
vt 0.961940 0.691342
vt 0.933013 0.750000
vt 0.896677 0.804381
vt 0.853553 0.853553
vt 0.804381 0.896677
vt 0.750000 0.933013
vt 0.691342 0.961940
vt 0.629410 0.982963
vt 0.565263 0.995722
vt 0.500000 1.000000
vt 0.434737 0.995722
vt 0.370590 0.982963
vt 0.195619 0.896677
vt 0.146447 0.853553
vt 0.103323 0.804381
vt 0.066987 0.750000
vt 0.038060 0.691342
vt 0.017037 0.629410
vt 0.004278 0.565263
vt 0.000000 0.500000
vt 0.004278 0.434737
vt 0.017037 0.370590
vt 0.038060 0.308658
vt 0.066987 0.250000
vt 0.103323 0.195619
vt 0.146447 0.146447
vt 0.308658 0.038060
vt 0.370590 0.017037
vt 0.434737 0.004278
vt 0.500000 0.000000
vt 0.565263 0.004278
vt 0.629410 0.017037
vt 0.691342 0.038060
vt 0.750000 0.066987
vt 0.804381 0.103323
vt 0.853553 0.146447
vt 0.896677 0.195619
vt 0.933013 0.250000
vt 0.961940 0.308658
vt 0.982963 0.370590
s 0
f 113/1/1 129/2/1 97/3/1
f 161/4/2 177/5/2 145/6/2
f 2/6/3 3/7/3 1/6/3
f 4/7/4 5/8/4 3/7/4
f 6/8/5 7/9/5 5/8/5
f 8/9/6 9/10/6 7/9/6
f 10/10/7 11/11/7 9/10/7
f 12/11/8 13/12/8 11/11/8
f 14/12/9 15/13/9 13/12/9
f 16/13/10 17/14/10 15/13/10
f 18/14/11 19/15/11 17/14/11
f 20/15/12 21/16/12 19/15/12
f 22/16/13 23/17/13 21/16/13
f 24/17/14 25/18/14 23/17/14
f 26/18/15 27/19/15 25/18/15
f 28/19/16 29/20/16 27/19/16
f 30/20/17 31/1/17 29/20/17
f 32/1/18 33/5/18 31/1/18
f 34/5/19 35/21/19 33/5/19
f 36/21/20 37/22/20 35/21/20
f 38/22/21 39/23/21 37/22/21
f 40/23/22 41/24/22 39/23/22
f 42/24/23 43/25/23 41/24/23
f 44/25/24 45/26/24 43/25/24
f 46/26/25 47/27/25 45/26/25
f 48/27/26 49/28/26 47/27/26
f 50/28/27 51/29/27 49/28/27
f 52/29/28 53/30/28 51/29/28
f 54/30/29 55/31/29 53/30/29
f 56/31/30 57/32/30 55/31/30
f 58/32/31 59/33/31 57/32/31
f 60/33/32 61/34/32 59/33/32
f 62/34/33 63/2/33 61/34/33
f 64/2/34 65/4/34 63/2/34
f 66/4/35 67/35/35 65/4/35
f 68/35/36 69/36/36 67/35/36
f 70/36/37 71/37/37 69/36/37
f 72/37/38 73/38/38 71/37/38
f 74/38/39 75/39/39 73/38/39
f 76/39/40 77/40/40 75/39/40
f 78/40/41 79/41/41 77/40/41
f 80/41/42 81/42/42 79/41/42
f 82/42/43 83/43/43 81/42/43
f 84/43/44 85/44/44 83/43/44
f 86/44/45 87/45/45 85/44/45
f 88/45/46 89/46/46 87/45/46
f 90/46/47 91/47/47 89/46/47
f 92/47/48 93/48/48 91/47/48
f 94/48/49 95/3/49 93/48/49
f 96/3/50 1/6/50 95/3/50
f 97/3/1 98/6/1 99/7/1
f 99/7/1 100/8/1 101/9/1
f 101/9/1 102/10/1 103/11/1
f 103/11/1 104/12/1 105/13/1
f 105/13/1 106/14/1 107/15/1
f 107/15/1 108/16/1 109/17/1
f 109/17/1 110/18/1 111/19/1
f 111/19/1 112/20/1 113/1/1
f 113/1/1 114/5/1 115/21/1
f 115/21/1 116/22/1 117/23/1
f 117/23/1 118/24/1 119/25/1
f 119/25/1 120/26/1 121/27/1
f 121/27/1 122/28/1 123/29/1
f 123/29/1 124/30/1 125/31/1
f 125/31/1 126/32/1 127/33/1
f 127/33/1 128/34/1 129/2/1
f 129/2/1 130/4/1 131/35/1
f 131/35/1 132/36/1 133/37/1
f 133/37/1 134/38/1 135/39/1
f 135/39/1 136/40/1 137/41/1
f 137/41/1 138/42/1 139/43/1
f 139/43/1 140/44/1 141/45/1
f 141/45/1 142/46/1 143/47/1
f 143/47/1 144/48/1 97/3/1
f 97/3/1 99/7/1 101/9/1
f 101/9/1 103/11/1 105/13/1
f 105/13/1 107/15/1 109/17/1
f 109/17/1 111/19/1 113/1/1
f 113/1/1 115/21/1 117/23/1
f 117/23/1 119/25/1 121/27/1
f 121/27/1 123/29/1 125/31/1
f 125/31/1 127/33/1 129/2/1
f 129/2/1 131/35/1 133/37/1
f 133/37/1 135/39/1 137/41/1
f 137/41/1 139/43/1 141/45/1
f 141/45/1 143/47/1 97/3/1
f 97/3/1 101/9/1 105/13/1
f 105/13/1 109/17/1 113/1/1
f 113/1/1 117/23/1 121/27/1
f 121/27/1 125/31/1 129/2/1
f 129/2/1 133/37/1 137/41/1
f 137/41/1 141/45/1 97/3/1
f 97/3/1 105/13/1 113/1/1
f 113/1/1 121/27/1 129/2/1
f 129/2/1 137/41/1 97/3/1
f 145/6/2 146/3/2 147/48/2
f 147/48/2 148/47/2 149/46/2
f 149/46/2 150/45/2 151/44/2
f 151/44/2 152/43/2 153/42/2
f 153/42/2 154/41/2 155/40/2
f 155/40/2 156/39/2 157/38/2
f 157/38/2 158/37/2 159/36/2
f 159/36/2 160/35/2 161/4/2
f 161/4/2 162/2/2 163/34/2
f 163/34/2 164/33/2 165/32/2
f 165/32/2 166/31/2 167/30/2
f 167/30/2 168/29/2 169/28/2
f 169/28/2 170/27/2 171/26/2
f 171/26/2 172/25/2 173/24/2
f 173/24/2 174/23/2 175/22/2
f 175/22/2 176/21/2 177/5/2
f 177/5/2 178/1/2 179/20/2
f 179/20/2 180/19/2 181/18/2
f 181/18/2 182/17/2 183/16/2
f 183/16/2 184/15/2 185/14/2
f 185/14/2 186/13/2 187/12/2
f 187/12/2 188/11/2 189/10/2
f 189/10/2 190/9/2 191/8/2
f 191/8/2 192/7/2 145/6/2
f 145/6/2 147/48/2 149/46/2
f 149/46/2 151/44/2 153/42/2
f 153/42/2 155/40/2 157/38/2
f 157/38/2 159/36/2 161/4/2
f 161/4/2 163/34/2 165/32/2
f 165/32/2 167/30/2 169/28/2
f 169/28/2 171/26/2 173/24/2
f 173/24/2 175/22/2 177/5/2
f 177/5/2 179/20/2 181/18/2
f 181/18/2 183/16/2 185/14/2
f 185/14/2 187/12/2 189/10/2
f 189/10/2 191/8/2 145/6/2
f 145/6/2 149/46/2 153/42/2
f 153/42/2 157/38/2 161/4/2
f 161/4/2 165/32/2 169/28/2
f 169/28/2 173/24/2 177/5/2
f 177/5/2 181/18/2 185/14/2
f 185/14/2 189/10/2 145/6/2
f 145/6/2 153/42/2 161/4/2
f 161/4/2 169/28/2 177/5/2
f 177/5/2 185/14/2 145/6/2
f 2/6/3 4/7/3 3/7/3
f 4/7/4 6/8/4 5/8/4
f 6/8/5 8/9/5 7/9/5
f 8/9/6 10/10/6 9/10/6
f 10/10/7 12/11/7 11/11/7
f 12/11/8 14/12/8 13/12/8
f 14/12/9 16/13/9 15/13/9
f 16/13/10 18/14/10 17/14/10
f 18/14/11 20/15/11 19/15/11
f 20/15/12 22/16/12 21/16/12
f 22/16/13 24/17/13 23/17/13
f 24/17/14 26/18/14 25/18/14
f 26/18/15 28/19/15 27/19/15
f 28/19/16 30/20/16 29/20/16
f 30/20/17 32/1/17 31/1/17
f 32/1/18 34/5/18 33/5/18
f 34/5/19 36/21/19 35/21/19
f 36/21/20 38/22/20 37/22/20
f 38/22/21 40/23/21 39/23/21
f 40/23/22 42/24/22 41/24/22
f 42/24/23 44/25/23 43/25/23
f 44/25/24 46/26/24 45/26/24
f 46/26/25 48/27/25 47/27/25
f 48/27/26 50/28/26 49/28/26
f 50/28/27 52/29/27 51/29/27
f 52/29/28 54/30/28 53/30/28
f 54/30/29 56/31/29 55/31/29
f 56/31/30 58/32/30 57/32/30
f 58/32/31 60/33/31 59/33/31
f 60/33/32 62/34/32 61/34/32
f 62/34/33 64/2/33 63/2/33
f 64/2/34 66/4/34 65/4/34
f 66/4/35 68/35/35 67/35/35
f 68/35/36 70/36/36 69/36/36
f 70/36/37 72/37/37 71/37/37
f 72/37/38 74/38/38 73/38/38
f 74/38/39 76/39/39 75/39/39
f 76/39/40 78/40/40 77/40/40
f 78/40/41 80/41/41 79/41/41
f 80/41/42 82/42/42 81/42/42
f 82/42/43 84/43/43 83/43/43
f 84/43/44 86/44/44 85/44/44
f 86/44/45 88/45/45 87/45/45
f 88/45/46 90/46/46 89/46/46
f 90/46/47 92/47/47 91/47/47
f 92/47/48 94/48/48 93/48/48
f 94/48/49 96/3/49 95/3/49
f 96/3/50 2/6/50 1/6/50
