# Blender 5.2.0 LTS
# www.blender.org
o Disc13
v 0.227500 0.035000 0.000000
v 0.227500 -0.035000 0.000000
v 0.223129 0.035000 -0.044383
v 0.223129 -0.035000 -0.044383
v 0.210183 0.035000 -0.087060
v 0.210183 -0.035000 -0.087060
v 0.189159 0.035000 -0.126392
v 0.189159 -0.035000 -0.126392
v 0.160867 0.035000 -0.160867
v 0.160867 -0.035000 -0.160867
v 0.126392 0.035000 -0.189159
v 0.126392 -0.035000 -0.189159
v 0.087060 0.035000 -0.210183
v 0.087060 -0.035000 -0.210183
v 0.044383 0.035000 -0.223129
v 0.044383 -0.035000 -0.223129
v 0.000000 0.035000 -0.227500
v 0.000000 -0.035000 -0.227500
v -0.044383 0.035000 -0.223129
v -0.044383 -0.035000 -0.223129
v -0.087060 0.035000 -0.210183
v -0.087060 -0.035000 -0.210183
v -0.126392 0.035000 -0.189159
v -0.126392 -0.035000 -0.189159
v -0.160867 0.035000 -0.160867
v -0.160867 -0.035000 -0.160867
v -0.189159 0.035000 -0.126392
v -0.189159 -0.035000 -0.126392
v -0.210183 0.035000 -0.087060
v -0.210183 -0.035000 -0.087060
v -0.223129 0.035000 -0.044383
v -0.223129 -0.035000 -0.044383
v -0.227500 0.035000 -0.000000
v -0.227500 -0.035000 -0.000000
v -0.223129 0.035000 0.044383
v -0.223129 -0.035000 0.044383
v -0.210183 0.035000 0.087060
v -0.210183 -0.035000 0.087060
v -0.189159 0.035000 0.126392
v -0.189159 -0.035000 0.126392
v -0.160867 0.035000 0.160867
v -0.160867 -0.035000 0.160867
v -0.126392 0.035000 0.189159
v -0.126392 -0.035000 0.189159
v -0.087060 0.035000 0.210183
v -0.087060 -0.035000 0.210183
v -0.044383 0.035000 0.223129
v -0.044383 -0.035000 0.223129
v -0.000000 0.035000 0.227500
v -0.000000 -0.035000 0.227500
v 0.044383 0.035000 0.223129
v 0.044383 -0.035000 0.223129
v 0.087060 0.035000 0.210183
v 0.087060 -0.035000 0.210183
v 0.126392 0.035000 0.189159
v 0.126392 -0.035000 0.189159
v 0.160867 0.035000 0.160867
v 0.160867 -0.035000 0.160867
v 0.189159 0.035000 0.126392
v 0.189159 -0.035000 0.126392
v 0.210183 0.035000 0.087060
v 0.210183 -0.035000 0.087060
v 0.223129 0.035000 0.044383
v 0.223129 -0.035000 0.044383
v 0.223129 0.035000 0.044383
v 0.227500 0.035000 0.000000
v 0.223129 0.035000 -0.044383
v 0.210183 0.035000 -0.087060
v 0.189159 0.035000 -0.126392
v 0.160867 0.035000 -0.160867
v 0.126392 0.035000 -0.189159
v 0.087060 0.035000 -0.210183
v 0.044383 0.035000 -0.223129
v 0.000000 0.035000 -0.227500
v -0.044383 0.035000 -0.223129
v -0.087060 0.035000 -0.210183
v -0.126392 0.035000 -0.189159
v -0.160867 0.035000 -0.160867
v -0.189159 0.035000 -0.126392
v -0.210183 0.035000 -0.087060
v -0.223129 0.035000 -0.044383
v -0.227500 0.035000 -0.000000
v -0.223129 0.035000 0.044383
v -0.210183 0.035000 0.087060
v -0.189159 0.035000 0.126392
v -0.160867 0.035000 0.160867
v -0.126392 0.035000 0.189159
v -0.087060 0.035000 0.210183
v -0.044383 0.035000 0.223129
v -0.000000 0.035000 0.227500
v 0.044383 0.035000 0.223129
v 0.087060 0.035000 0.210183
v 0.126392 0.035000 0.189159
v 0.160867 0.035000 0.160867
v 0.189159 0.035000 0.126392
v 0.210183 0.035000 0.087060
v 0.227500 -0.035000 0.000000
v 0.223129 -0.035000 0.044383
v 0.210183 -0.035000 0.087060
v 0.189159 -0.035000 0.126392
v 0.160867 -0.035000 0.160867
v 0.126392 -0.035000 0.189159
v 0.087060 -0.035000 0.210183
v 0.044383 -0.035000 0.223129
v -0.000000 -0.035000 0.227500
v -0.044383 -0.035000 0.223129
v -0.087060 -0.035000 0.210183
v -0.126392 -0.035000 0.189159
v -0.160867 -0.035000 0.160867
v -0.189159 -0.035000 0.126392
v -0.210183 -0.035000 0.087060
v -0.223129 -0.035000 0.044383
v -0.227500 -0.035000 -0.000000
v -0.223129 -0.035000 -0.044383
v -0.210183 -0.035000 -0.087060
v -0.189159 -0.035000 -0.126392
v -0.160867 -0.035000 -0.160867
v -0.126392 -0.035000 -0.189159
v -0.087060 -0.035000 -0.210183
v -0.044383 -0.035000 -0.223129
v 0.000000 -0.035000 -0.227500
v 0.044383 -0.035000 -0.223129
v 0.087060 -0.035000 -0.210183
v 0.126392 -0.035000 -0.189159
v 0.160867 -0.035000 -0.160867
v 0.189159 -0.035000 -0.126392
v 0.210183 -0.035000 -0.087060
v 0.223129 -0.035000 -0.044383
vn -0.0000 1.0000 -0.0000
vn -0.0000 -1.0000 -0.0000
vn 0.9952 -0.0000 -0.0980
vn 0.9569 -0.0000 -0.2903
vn 0.8819 -0.0000 -0.4714
vn 0.7730 -0.0000 -0.6344
vn 0.6344 -0.0000 -0.7730
vn 0.4714 -0.0000 -0.8819
vn 0.2903 -0.0000 -0.9569
vn 0.0980 -0.0000 -0.9952
vn -0.0980 -0.0000 -0.9952
vn -0.2903 -0.0000 -0.9569
vn -0.4714 -0.0000 -0.8819
vn -0.6344 -0.0000 -0.7730
vn -0.7730 -0.0000 -0.6344
vn -0.8819 -0.0000 -0.4714
vn -0.9569 -0.0000 -0.2903
vn -0.9952 -0.0000 -0.0980
vn -0.9952 -0.0000 0.0980
vn -0.9569 -0.0000 0.2903
vn -0.8819 -0.0000 0.4714
vn -0.7730 -0.0000 0.6344
vn -0.6344 -0.0000 0.7730
vn -0.4714 -0.0000 0.8819
vn -0.2903 -0.0000 0.9569
vn -0.0980 -0.0000 0.9952
vn 0.0980 -0.0000 0.9952
vn 0.2903 -0.0000 0.9569
vn 0.4714 -0.0000 0.8819
vn 0.6344 -0.0000 0.7730
vn 0.7730 -0.0000 0.6344
vn 0.8819 -0.0000 0.4714
vn 0.9569 -0.0000 0.2903
vn 0.9952 -0.0000 0.0980
vt 0.004804 0.597545
vt 0.201227 0.009607
vt 0.495196 0.402455
vt 1.000000 0.500000
vt 0.750000 1.000000
vt 0.500000 0.500000
vt 0.504804 0.597545
vt 0.519030 0.691342
vt 0.542133 0.777785
vt 0.573223 0.853553
vt 0.611107 0.915735
vt 0.654329 0.961940
vt 0.701227 0.990393
vt 0.798773 0.990393
vt 0.845671 0.961940
vt 0.888893 0.915735
vt 0.926777 0.853553
vt 0.957867 0.777785
vt 0.980970 0.691342
vt 0.995196 0.597545
vt 0.995196 0.402455
vt 0.980970 0.308658
vt 0.957867 0.222215
vt 0.926777 0.146447
vt 0.888893 0.084265
vt 0.845671 0.038060
vt 0.798773 0.009607
vt 0.750000 0.000000
vt 0.701227 0.009607
vt 0.654329 0.038060
vt 0.611107 0.084265
vt 0.573223 0.146447
vt 0.542133 0.222215
vt 0.519030 0.308658
vt 0.504804 0.402455
vt 0.495196 0.597545
vt 0.480970 0.691342
vt 0.457867 0.777785
vt 0.426777 0.853553
vt 0.388893 0.915735
vt 0.345671 0.961940
vt 0.298773 0.990393
vt 0.250000 1.000000
vt 0.201227 0.990393
vt 0.154329 0.961940
vt 0.111107 0.915735
vt 0.073223 0.853553
vt 0.042133 0.777785
vt 0.019030 0.691342
vt 0.000000 0.500000
vt 0.004804 0.402455
vt 0.019030 0.308658
vt 0.042133 0.222215
vt 0.073223 0.146447
vt 0.111107 0.084265
vt 0.154329 0.038060
vt 0.250000 0.000000
vt 0.298773 0.009607
vt 0.345671 0.038060
vt 0.388893 0.084265
vt 0.426777 0.146447
vt 0.457867 0.222215
vt 0.480970 0.308658
s 0
f 81/1/1 89/2/1 65/3/1
f 113/4/2 121/5/2 97/6/2
f 2/6/3 3/7/3 1/6/3
f 4/7/4 5/8/4 3/7/4
f 6/8/5 7/9/5 5/8/5
f 8/9/6 9/10/6 7/9/6
f 10/10/7 11/11/7 9/10/7
f 12/11/8 13/12/8 11/11/8
f 14/12/9 15/13/9 13/12/9
f 16/13/10 17/5/10 15/13/10
f 18/5/11 19/14/11 17/5/11
f 20/14/12 21/15/12 19/14/12
f 22/15/13 23/16/13 21/15/13
f 24/16/14 25/17/14 23/16/14
f 26/17/15 27/18/15 25/17/15
f 28/18/16 29/19/16 27/18/16
f 30/19/17 31/20/17 29/19/17
f 32/20/18 33/4/18 31/20/18
f 34/4/19 35/21/19 33/4/19
f 36/21/20 37/22/20 35/21/20
f 38/22/21 39/23/21 37/22/21
f 40/23/22 41/24/22 39/23/22
f 42/24/23 43/25/23 41/24/23
f 44/25/24 45/26/24 43/25/24
f 46/26/25 47/27/25 45/26/25
f 48/27/26 49/28/26 47/27/26
f 50/28/27 51/29/27 49/28/27
f 52/29/28 53/30/28 51/29/28
f 54/30/29 55/31/29 53/30/29
f 56/31/30 57/32/30 55/31/30
f 58/32/31 59/33/31 57/32/31
f 60/33/32 61/34/32 59/33/32
f 62/34/33 63/35/33 61/34/33
f 64/35/34 1/6/34 63/35/34
f 65/3/1 66/6/1 67/36/1
f 67/36/1 68/37/1 69/38/1
f 69/38/1 70/39/1 71/40/1
f 71/40/1 72/41/1 73/42/1
f 73/42/1 74/43/1 75/44/1
f 75/44/1 76/45/1 77/46/1
f 77/46/1 78/47/1 79/48/1
f 79/48/1 80/49/1 81/1/1
f 81/1/1 82/50/1 83/51/1
f 83/51/1 84/52/1 85/53/1
f 85/53/1 86/54/1 87/55/1
f 87/55/1 88/56/1 89/2/1
f 89/2/1 90/57/1 91/58/1
f 91/58/1 92/59/1 93/60/1
f 93/60/1 94/61/1 95/62/1
f 95/62/1 96/63/1 65/3/1
f 65/3/1 67/36/1 69/38/1
f 69/38/1 71/40/1 73/42/1
f 73/42/1 75/44/1 77/46/1
f 77/46/1 79/48/1 81/1/1
f 81/1/1 83/51/1 85/53/1
f 85/53/1 87/55/1 89/2/1
f 89/2/1 91/58/1 93/60/1
f 93/60/1 95/62/1 65/3/1
f 65/3/1 69/38/1 73/42/1
f 73/42/1 77/46/1 81/1/1
f 81/1/1 85/53/1 89/2/1
f 89/2/1 93/60/1 65/3/1
f 65/3/1 73/42/1 81/1/1
f 97/6/2 98/35/2 99/34/2
f 99/34/2 100/33/2 101/32/2
f 101/32/2 102/31/2 103/30/2
f 103/30/2 104/29/2 105/28/2
f 105/28/2 106/27/2 107/26/2
f 107/26/2 108/25/2 109/24/2
f 109/24/2 110/23/2 111/22/2
f 111/22/2 112/21/2 113/4/2
f 113/4/2 114/20/2 115/19/2
f 115/19/2 116/18/2 117/17/2
f 117/17/2 118/16/2 119/15/2
f 119/15/2 120/14/2 121/5/2
f 121/5/2 122/13/2 123/12/2
f 123/12/2 124/11/2 125/10/2
f 125/10/2 126/9/2 127/8/2
f 127/8/2 128/7/2 97/6/2
f 97/6/2 99/34/2 101/32/2
f 101/32/2 103/30/2 105/28/2
f 105/28/2 107/26/2 109/24/2
f 109/24/2 111/22/2 113/4/2
f 113/4/2 115/19/2 117/17/2
f 117/17/2 119/15/2 121/5/2
f 121/5/2 123/12/2 125/10/2
f 125/10/2 127/8/2 97/6/2
f 97/6/2 101/32/2 105/28/2
f 105/28/2 109/24/2 113/4/2
f 113/4/2 117/17/2 121/5/2
f 121/5/2 125/10/2 97/6/2
f 97/6/2 105/28/2 113/4/2
f 2/6/3 4/7/3 3/7/3
f 4/7/4 6/8/4 5/8/4
f 6/8/5 8/9/5 7/9/5
f 8/9/6 10/10/6 9/10/6
f 10/10/7 12/11/7 11/11/7
f 12/11/8 14/12/8 13/12/8
f 14/12/9 16/13/9 15/13/9
f 16/13/10 18/5/10 17/5/10
f 18/5/11 20/14/11 19/14/11
f 20/14/12 22/15/12 21/15/12
f 22/15/13 24/16/13 23/16/13
f 24/16/14 26/17/14 25/17/14
f 26/17/15 28/18/15 27/18/15
f 28/18/16 30/19/16 29/19/16
f 30/19/17 32/20/17 31/20/17
f 32/20/18 34/4/18 33/4/18
f 34/4/19 36/21/19 35/21/19
f 36/21/20 38/22/20 37/22/20
f 38/22/21 40/23/21 39/23/21
f 40/23/22 42/24/22 41/24/22
f 42/24/23 44/25/23 43/25/23
f 44/25/24 46/26/24 45/26/24
f 46/26/25 48/27/25 47/27/25
f 48/27/26 50/28/26 49/28/26
f 50/28/27 52/29/27 51/29/27
f 52/29/28 54/30/28 53/30/28
f 54/30/29 56/31/29 55/31/29
f 56/31/30 58/32/30 57/32/30
f 58/32/31 60/33/31 59/33/31
f 60/33/32 62/34/32 61/34/32
f 62/34/33 64/35/33 63/35/33
f 64/35/34 2/6/34 1/6/34
