# WaveFront *.obj file (generated by Autodesk ATF)


g Body1

v 29.444851 3.000000 -1.000000
v 29.444851 2.000000 -1.000000
v 57.157651 2.000000 -1.000000
v 57.157651 3.000000 -1.000000
v 29.444851 2.000000 1.000000
v 29.444851 3.000000 1.000000
v 57.157651 3.000000 1.000000
v 57.157651 2.000000 1.000000
v 15.588499 3.000000 -25.000000
v 15.588499 2.000000 -25.000000
v 29.444851 2.000000 -49.000000
v 57.157651 2.000000 -49.000000
v 71.014099 2.000000 -25.000000
v 71.014099 2.000000 25.000000
v 57.157651 2.000000 49.000000
v 29.444851 2.000000 49.000000
v 15.588499 2.000000 25.000000
v -29.444849 2.000000 1.000000
v -15.588401 2.000000 25.000000
v -29.444849 2.000000 49.000000
v -57.157651 2.000000 49.000000
v -71.014099 2.000000 25.000000
v -57.157651 2.000000 1.000000
v 13.856449 2.000000 -24.000000
v 27.712801 2.000000 0.000000
v 13.856449 2.000000 24.000000
v -13.856351 2.000000 24.000000
v -27.712799 2.000000 0.000000
v -13.856351 2.000000 -24.000000
v -13.856351 2.000000 26.000000
v 13.856449 2.000000 26.000000
v 27.712801 2.000000 50.000000
v 13.856449 2.000000 74.000000
v -13.856351 2.000000 74.000000
v -27.712799 2.000000 50.000000
v -29.444849 2.000000 -49.000000
v -15.588401 2.000000 -25.000000
v -29.444849 2.000000 -1.000000
v -57.157651 2.000000 -1.000000
v -71.014099 2.000000 -25.000000
v -57.157651 2.000000 -49.000000
v -27.712799 2.000000 -50.000000
v -13.856351 2.000000 -74.000000
v 13.856449 2.000000 -74.000000
v 27.712801 2.000000 -50.000000
v 13.856449 2.000000 -26.000000
v -13.856351 2.000000 -26.000000
v 57.735000 2.000000 0.000000
v 72.168800 2.000000 -25.000000
v 57.735000 2.000000 -50.000000
v 28.867500 2.000000 -50.000000
v 14.433800 2.000000 -75.000000
v -14.433700 2.000000 -75.000000
v -28.867500 2.000000 -50.000000
v -57.735000 2.000000 -50.000000
v -72.168800 2.000000 -25.000000
v -57.735000 2.000000 0.000000
v -72.168800 2.000000 25.000000
v -57.735000 2.000000 50.000000
v -28.867500 2.000000 50.000000
v -14.433700 2.000000 75.000000
v 14.433800 2.000000 75.000000
v 28.867500 2.000000 50.000000
v 57.735000 2.000000 50.000000
v 72.168800 2.000000 25.000000
v 71.014099 3.000000 -25.000000
v 57.157651 3.000000 -49.000000
v 29.444851 3.000000 -49.000000
v -27.712799 3.000000 -50.000000
v -13.856351 3.000000 -26.000000
v -29.444849 3.000000 -49.000000
v -15.588401 3.000000 -25.000000
v 13.856449 3.000000 -26.000000
v -29.444849 3.000000 -1.000000
v -57.157651 3.000000 -49.000000
v -71.014099 3.000000 -25.000000
v -57.157651 3.000000 -1.000000
v 27.712801 3.000000 -50.000000
v 13.856449 3.000000 -74.000000
v -13.856351 3.000000 -74.000000
v 13.856449 3.000000 24.000000
v -13.856351 3.000000 24.000000
v 27.712801 3.000000 0.000000
v 13.856449 3.000000 -24.000000
v 15.588499 3.000000 25.000000
v -13.856351 3.000000 -24.000000
v -27.712799 3.000000 0.000000
v -29.444849 3.000000 1.000000
v -15.588401 3.000000 25.000000
v -13.856351 3.000000 26.000000
v 13.856449 3.000000 26.000000
v 29.444851 3.000000 49.000000
v 57.157651 3.000000 49.000000
v 71.014099 3.000000 25.000000
v -27.712799 3.000000 50.000000
v -13.856351 3.000000 74.000000
v 13.856449 3.000000 74.000000
v 27.712801 3.000000 50.000000
v -57.157651 3.000000 1.000000
v -71.014099 3.000000 25.000000
v -29.444849 3.000000 49.000000
v -57.157651 3.000000 49.000000
v 14.433800 0.000000 -75.000000
v -14.433700 0.000000 -75.000000
v 28.867500 0.000000 -50.000000
v 57.735000 0.000000 -50.000000
v 72.168800 0.000000 -25.000000
v 57.735000 0.000000 0.000000
v 72.168800 0.000000 25.000000
v 57.735000 0.000000 50.000000
v 28.867500 0.000000 50.000000
v 14.433800 0.000000 75.000000
v -14.433700 0.000000 75.000000
v -28.867500 0.000000 -50.000000
v -57.735000 0.000000 -50.000000
v -72.168800 0.000000 -25.000000
v -57.735000 0.000000 0.000000
v -72.168800 0.000000 25.000000
v -57.735000 0.000000 50.000000
v -28.867500 0.000000 50.000000
vt -0.100000 0.057735 0.000000
vt 0.000000 0.057735 0.000000
vt -0.100000 2.829015 0.000000
vt 0.000000 2.829015 0.000000
vt -0.200000 0.057735 0.000000
vt -0.100000 0.057735 0.000000
vt -0.200000 2.829015 0.000000
vt -0.100000 2.829015 0.000000
vt 0.000000 1.385639 0.000000
vt -0.100000 1.385639 0.000000
vt -0.000000 -1.385639 0.000000
vt -0.100000 -1.385639 0.000000
vt -7.600000 -2.771275 0.000000
vt -5.100000 -1.558845 0.000000
vt -5.200000 -1.385640 0.000000
vt -5.000000 -1.385640 0.000000
vt -5.200000 1.385640 0.000000
vt -5.000000 1.385640 0.000000
vt -5.100000 1.443375 0.000000
vt -2.600000 2.771285 0.000000
vt -2.600000 2.886755 0.000000
vt -0.100000 1.443375 0.000000
vt -0.200000 1.385640 0.000000
vt -0.200000 -1.385640 0.000000
vt -10.000000 -1.385640 0.000000
vt -10.100000 -1.558845 0.000000
vt -7.700000 -2.944480 0.000000
vt -7.500000 -2.944480 0.000000
vt -7.500000 -5.715760 0.000000
vt -7.700000 -5.715760 0.000000
vt -7.600000 -5.888965 0.000000
vt -10.100000 -7.101405 0.000000
vt -10.000000 -7.274610 0.000000
vt -10.100000 -7.216875 0.000000
vt -10.100000 -10.103625 0.000000
vt -10.000000 1.385640 0.000000
vt -10.100000 1.443375 0.000000
vt -10.100000 -1.443375 0.000000
vt -12.600000 -2.886745 0.000000
vt -12.500000 -2.944480 0.000000
vt -12.600000 -5.773495 0.000000
vt -12.500000 -5.715760 0.000000
vt -7.600000 2.771285 0.000000
vt -7.600000 2.886755 0.000000
vt -2.600000 -2.771275 0.000000
vt -0.100000 -1.558845 0.000000
vt -0.100000 -1.443375 0.000000
vt -2.700000 -2.944480 0.000000
vt -2.500000 -2.944480 0.000000
vt -2.500000 -5.715760 0.000000
vt -2.700000 -5.715760 0.000000
vt -2.600000 -5.888965 0.000000
vt -5.100000 -7.101405 0.000000
vt -5.000000 -7.274610 0.000000
vt -5.200000 -7.274610 0.000000
vt -5.000000 -10.045890 0.000000
vt -5.200000 -10.045890 0.000000
vt -5.100000 -10.103625 0.000000
vt -7.600000 -11.431535 0.000000
vt -7.600000 -11.547005 0.000000
vt -10.000000 -10.045890 0.000000
vt -0.100000 -7.101405 0.000000
vt -0.200000 -7.274610 0.000000
vt -0.100000 -7.216875 0.000000
vt -0.100000 -10.103625 0.000000
vt -0.200000 -10.045890 0.000000
vt -2.600000 -11.431535 0.000000
vt -2.600000 -11.547005 0.000000
vt 2.400000 -2.886745 0.000000
vt 2.300000 -2.944480 0.000000
vt 2.400000 -5.773495 0.000000
vt 2.300000 -5.715760 0.000000
vt 2.944485 0.100000 0.000000
vt 5.715765 0.100000 0.000000
vt 1.558850 2.500000 0.000000
vt 7.101410 2.500000 0.000000
vt 5.715765 4.900000 0.000000
vt 2.944485 4.900000 0.000000
vt -0.100000 0.057735 0.000000
vt 0.000000 0.057735 0.000000
vt -0.100000 2.829018 0.000000
vt 0.000000 2.829018 0.000000
vt -0.100000 0.057735 0.000000
vt 0.000000 0.057735 0.000000
vt -0.100000 2.829019 0.000000
vt 0.000000 2.829019 0.000000
vt -0.200000 0.057735 0.000000
vt -0.100000 0.057735 0.000000
vt -0.200000 2.829018 0.000000
vt -0.100000 2.829018 0.000000
vt -0.100000 0.057735 0.000000
vt 0.000000 0.057735 0.000000
vt -0.100000 2.829015 0.000000
vt 0.000000 2.829015 0.000000
vt 0.000000 2.829018 0.000000
vt -0.100000 2.829018 0.000000
vt 0.000000 0.057735 0.000000
vt -0.100000 0.057735 0.000000
vt -2.944485 4.900000 0.000000
vt -5.715765 4.900000 0.000000
vt -1.558840 2.500000 0.000000
vt -7.101410 2.500000 0.000000
vt -2.944485 0.100000 0.000000
vt -5.715765 0.100000 0.000000
vt -1.385635 7.400000 0.000000
vt -2.771280 5.000000 0.000000
vt 2.771280 5.000000 0.000000
vt -1.385635 2.600000 0.000000
vt 1.385645 2.600000 0.000000
vt 1.385645 7.400000 0.000000
vt -0.100000 2.829013 0.000000
vt -0.200000 2.829013 0.000000
vt -0.100000 0.057735 0.000000
vt -0.200000 0.057735 0.000000
vt -0.000000 2.829014 0.000000
vt -0.100000 2.829014 0.000000
vt -0.000000 0.057735 0.000000
vt -0.100000 0.057735 0.000000
vt -0.100000 0.057735 0.000000
vt -0.000000 0.057735 0.000000
vt -0.100000 2.829013 0.000000
vt -0.000000 2.829013 0.000000
vt -0.100000 2.829015 0.000000
vt -0.200000 2.829015 0.000000
vt -0.100000 0.057735 0.000000
vt -0.200000 0.057735 0.000000
vt -0.100000 2.829013 0.000000
vt -0.200000 2.829013 0.000000
vt -0.100000 0.057735 0.000000
vt -0.200000 0.057735 0.000000
vt -0.100000 1.385639 0.000000
vt -0.200000 1.385639 0.000000
vt -0.100000 -1.385639 0.000000
vt -0.200000 -1.385639 0.000000
vt -0.100000 0.057735 0.000000
vt -0.000000 0.057735 0.000000
vt -0.100000 2.829014 0.000000
vt -0.000000 2.829014 0.000000
vt -0.100000 2.829015 0.000000
vt -0.200000 2.829015 0.000000
vt -0.100000 0.057735 0.000000
vt -0.200000 0.057735 0.000000
vt -0.100000 2.829019 0.000000
vt -0.200000 2.829019 0.000000
vt -0.100000 0.057735 0.000000
vt -0.200000 0.057735 0.000000
vt -0.100000 2.829018 0.000000
vt -0.200000 2.829018 0.000000
vt -0.100000 0.057735 0.000000
vt -0.200000 0.057735 0.000000
vt -0.000000 2.829019 0.000000
vt -0.100000 2.829019 0.000000
vt -0.000000 0.057735 0.000000
vt -0.100000 0.057735 0.000000
vt -0.000000 2.829015 0.000000
vt -0.100000 2.829015 0.000000
vt -0.000000 0.057735 0.000000
vt -0.100000 0.057735 0.000000
vt 0.000000 2.829015 0.000000
vt -0.100000 2.829015 0.000000
vt 0.000000 0.057735 0.000000
vt -0.100000 0.057735 0.000000
vt -0.100000 0.057735 0.000000
vt 0.000000 0.057735 0.000000
vt -0.100000 2.829013 0.000000
vt 0.000000 2.829013 0.000000
vt 2.944485 -0.100000 0.000000
vt 1.558850 -2.500000 0.000000
vt 5.715765 -0.100000 0.000000
vt 7.101410 -2.500000 0.000000
vt 5.715765 -4.900000 0.000000
vt 2.944485 -4.900000 0.000000
vt 1.385645 -2.600000 0.000000
vt -1.385635 -2.600000 0.000000
vt 2.771280 -5.000000 0.000000
vt -2.771280 -5.000000 0.000000
vt -1.385635 -7.400000 0.000000
vt 1.385645 -7.400000 0.000000
vt 1.385645 2.400000 0.000000
vt -1.385635 2.400000 0.000000
vt 2.771280 0.000000 0.000000
vt -2.771280 0.000000 0.000000
vt -1.385635 -2.400000 0.000000
vt 1.385645 -2.400000 0.000000
vt -0.100000 2.829015 0.000000
vt -0.200000 2.829015 0.000000
vt -0.100000 0.057735 0.000000
vt -0.200000 0.057735 0.000000
vt -0.000000 0.057735 0.000000
vt -0.100000 2.829018 0.000000
vt -0.000000 2.829018 0.000000
vt -0.100000 0.057735 0.000000
vt -0.000000 0.057735 0.000000
vt -0.100000 2.829018 0.000000
vt -0.000000 2.829018 0.000000
vt -0.200000 0.057735 0.000000
vt -0.100000 0.057735 0.000000
vt -0.200000 2.829019 0.000000
vt -0.100000 2.829019 0.000000
vt -0.100000 0.057735 0.000000
vt 0.000000 0.057735 0.000000
vt -0.100000 2.829019 0.000000
vt 0.000000 2.829019 0.000000
vt -0.200000 0.057735 0.000000
vt -0.100000 0.057735 0.000000
vt -0.200000 2.829014 0.000000
vt -0.100000 2.829014 0.000000
vt -0.100000 -1.385640 0.000000
vt -0.000000 -1.385640 0.000000
vt -0.100000 1.385640 0.000000
vt 0.000000 1.385640 0.000000
vt -0.000000 2.829018 0.000000
vt -0.100000 2.829018 0.000000
vt -0.000000 0.057735 0.000000
vt -0.100000 0.057735 0.000000
vt -0.100000 0.057735 0.000000
vt -0.000000 0.057735 0.000000
vt -0.100000 2.829015 0.000000
vt -0.000000 2.829015 0.000000
vt -0.100000 0.057735 0.000000
vt -0.000000 0.057735 0.000000
vt -0.100000 2.829018 0.000000
vt -0.000000 2.829018 0.000000
vt 0.000000 2.829019 0.000000
vt -0.100000 2.829019 0.000000
vt 0.000000 0.057735 0.000000
vt -0.100000 0.057735 0.000000
vt -0.100000 0.057735 0.000000
vt 0.000000 0.057735 0.000000
vt -0.100000 2.829019 0.000000
vt 0.000000 2.829019 0.000000
vt 0.000000 2.829015 0.000000
vt -0.100000 2.829015 0.000000
vt 0.000000 0.057735 0.000000
vt -0.100000 0.057735 0.000000
vt -0.100000 0.057735 0.000000
vt 0.000000 0.057735 0.000000
vt -0.100000 2.829015 0.000000
vt 0.000000 2.829015 0.000000
vt 0.000000 2.829014 0.000000
vt -0.100000 2.829014 0.000000
vt 0.000000 0.057735 0.000000
vt -0.100000 0.057735 0.000000
vt -0.100000 0.057735 0.000000
vt -0.000000 0.057735 0.000000
vt -0.100000 2.829015 0.000000
vt -0.000000 2.829015 0.000000
vt -0.000000 2.829015 0.000000
vt -0.100000 2.829015 0.000000
vt -0.000000 0.057735 0.000000
vt -0.100000 0.057735 0.000000
vt -0.100000 0.057735 0.000000
vt -0.000000 0.057735 0.000000
vt -0.100000 2.829019 0.000000
vt -0.000000 2.829019 0.000000
vt -0.000000 2.829019 0.000000
vt -0.100000 2.829019 0.000000
vt -0.000000 0.057735 0.000000
vt -0.100000 0.057735 0.000000
vt -0.100000 0.057735 0.000000
vt 0.000000 0.057735 0.000000
vt -0.100000 2.829018 0.000000
vt 0.000000 2.829018 0.000000
vt -0.000000 0.100000 0.000000
vt 2.886750 0.100000 0.000000
vt -0.000000 0.300000 0.000000
vt 2.886750 0.300000 0.000000
vt -0.000000 0.100000 0.000000
vt 2.886749 0.100000 0.000000
vt -0.000000 0.300000 0.000000
vt 2.886749 0.300000 0.000000
vt -0.000000 0.100000 0.000000
vt 2.886750 0.100000 0.000000
vt -0.000000 0.300000 0.000000
vt 2.886750 0.300000 0.000000
vt -0.000000 0.100000 0.000000
vt 2.886754 0.100000 0.000000
vt 0.000000 0.300000 0.000000
vt 2.886754 0.300000 0.000000
vt 0.000000 0.100000 0.000000
vt 2.886754 0.100000 0.000000
vt 0.000000 0.300000 0.000000
vt 2.886754 0.300000 0.000000
vt -0.000000 0.100000 0.000000
vt 2.886754 0.100000 0.000000
vt 0.000000 0.300000 0.000000
vt 2.886754 0.300000 0.000000
vt 0.000000 0.100000 0.000000
vt 2.886754 0.100000 0.000000
vt 0.000000 0.300000 0.000000
vt 2.886754 0.300000 0.000000
vt 0.000000 0.100000 0.000000
vt 2.886750 0.100000 0.000000
vt -0.000000 0.300000 0.000000
vt 2.886750 0.300000 0.000000
vt 0.000000 0.100000 0.000000
vt 2.886749 0.100000 0.000000
vt 0.000000 0.300000 0.000000
vt 2.886749 0.300000 0.000000
vt 0.000000 0.100000 0.000000
vt 2.886750 0.100000 0.000000
vt 0.000000 0.300000 0.000000
vt 2.886750 0.300000 0.000000
vt -0.000000 0.100000 0.000000
vt 2.886754 0.100000 0.000000
vt -0.000000 0.300000 0.000000
vt 2.886754 0.300000 0.000000
vt -0.000000 0.100000 0.000000
vt 2.886750 0.100000 0.000000
vt -0.000000 0.300000 0.000000
vt 2.886750 0.300000 0.000000
vt -0.000000 0.100000 0.000000
vt 2.886754 0.100000 0.000000
vt -0.000000 0.300000 0.000000
vt 2.886754 0.300000 0.000000
vt 0.000000 0.100000 0.000000
vt 2.886754 0.100000 0.000000
vt 0.000000 0.300000 0.000000
vt 2.886754 0.300000 0.000000
vt -0.000000 0.100000 0.000000
vt 2.886754 0.100000 0.000000
vt -0.000000 0.300000 0.000000
vt 2.886754 0.300000 0.000000
vt 0.000000 0.100000 0.000000
vt 2.886754 0.100000 0.000000
vt 0.000000 0.300000 0.000000
vt 2.886754 0.300000 0.000000
vt 0.000000 0.100000 0.000000
vt 2.886750 0.100000 0.000000
vt 0.000000 0.300000 0.000000
vt 2.886750 0.300000 0.000000
vt 0.000000 0.100000 0.000000
vt 2.886754 0.100000 0.000000
vt 0.000000 0.300000 0.000000
vt 2.886754 0.300000 0.000000
vt -1.443380 -7.500000 0.000000
vt 1.443370 -7.500000 0.000000
vt -2.886750 -5.000000 0.000000
vt 2.886750 -5.000000 0.000000
vt -2.886750 5.000000 0.000000
vt 2.886750 5.000000 0.000000
vt 1.443370 7.500000 0.000000
vt 5.773500 0.000000 0.000000
vt 5.773500 -5.000000 0.000000
vt 7.216880 -2.500000 0.000000
vt 7.216880 2.500000 0.000000
vt 5.773500 5.000000 0.000000
vt -1.443380 7.500000 0.000000
vt -5.773500 0.000000 0.000000
vt -5.773500 5.000000 0.000000
vt -7.216880 2.500000 0.000000
vt -7.216880 -2.500000 0.000000
vt -5.773500 -5.000000 0.000000
vt -2.944485 -0.100000 0.000000
vt -5.715765 -0.100000 0.000000
vt -1.558840 -2.500000 0.000000
vt -7.101410 -2.500000 0.000000
vt -2.944485 -4.900000 0.000000
vt -5.715765 -4.900000 0.000000
vt 0.250000 0.500000
vt 0.750000 0.500000
vn 0.000000 0.000000 0.100000
vn 0.000000 0.000000 0.100000
vn 0.000000 0.000000 0.100000
vn 0.000000 0.000000 0.100000
vn 0.000000 0.000000 -0.100000
vn 0.000000 0.000000 -0.100000
vn 0.000000 0.000000 -0.100000
vn 0.000000 0.000000 -0.100000
vn -0.086603 0.000000 0.050000
vn -0.086603 0.000000 0.050000
vn -0.086603 0.000000 0.050000
vn -0.086603 0.000000 0.050000
vn 0.000000 0.100000 0.000000
vn 0.000000 0.100000 0.000000
vn 0.000000 0.100000 0.000000
vn 0.000000 0.100000 0.000000
vn 0.000000 0.100000 0.000000
vn 0.000000 0.100000 0.000000
vn 0.000000 0.100000 0.000000
vn 0.000000 0.100000 0.000000
vn 0.000000 0.100000 0.000000
vn 0.000000 0.100000 0.000000
vn 0.000000 0.100000 0.000000
vn 0.000000 0.100000 0.000000
vn 0.000000 0.100000 0.000000
vn 0.000000 0.100000 0.000000
vn 0.000000 0.100000 0.000000
vn 0.000000 0.100000 0.000000
vn 0.000000 0.100000 0.000000
vn 0.000000 0.100000 0.000000
vn 0.000000 0.100000 0.000000
vn 0.000000 0.100000 0.000000
vn 0.000000 0.100000 0.000000
vn 0.000000 0.100000 0.000000
vn 0.000000 0.100000 0.000000
vn 0.000000 0.100000 0.000000
vn 0.000000 0.100000 0.000000
vn 0.000000 0.100000 0.000000
vn 0.000000 0.100000 0.000000
vn 0.000000 0.100000 0.000000
vn 0.000000 0.100000 0.000000
vn 0.000000 0.100000 0.000000
vn 0.000000 0.100000 0.000000
vn 0.000000 0.100000 0.000000
vn 0.000000 0.100000 0.000000
vn 0.000000 0.100000 0.000000
vn 0.000000 0.100000 0.000000
vn 0.000000 0.100000 0.000000
vn 0.000000 0.100000 0.000000
vn 0.000000 0.100000 0.000000
vn 0.000000 0.100000 0.000000
vn 0.000000 0.100000 0.000000
vn 0.000000 0.100000 0.000000
vn 0.000000 0.100000 0.000000
vn 0.000000 0.100000 0.000000
vn 0.000000 0.100000 0.000000
vn 0.000000 0.100000 0.000000
vn 0.000000 0.100000 0.000000
vn 0.000000 0.100000 0.000000
vn 0.000000 0.100000 0.000000
vn 0.000000 0.100000 0.000000
vn 0.000000 0.100000 0.000000
vn 0.000000 0.100000 0.000000
vn 0.000000 0.100000 0.000000
vn 0.000000 0.100000 0.000000
vn 0.000000 0.100000 0.000000
vn 0.000000 0.100000 0.000000
vn 0.000000 0.100000 0.000000
vn 0.000000 0.100000 0.000000
vn 0.000000 0.100000 0.000000
vn 0.000000 0.100000 0.000000
vn 0.000000 0.100000 0.000000
vn 0.000000 0.100000 0.000000
vn 0.000000 0.100000 0.000000
vn 0.000000 0.100000 0.000000
vn 0.000000 0.100000 0.000000
vn 0.000000 0.100000 0.000000
vn 0.000000 0.100000 0.000000
vn 0.086602 0.000000 0.050000
vn 0.086602 0.000000 0.050000
vn 0.086602 0.000000 0.050000
vn 0.086602 0.000000 0.050000
vn -0.086602 0.000000 0.050000
vn -0.086602 0.000000 0.050000
vn -0.086602 0.000000 0.050000
vn -0.086602 0.000000 0.050000
vn 0.086602 0.000000 -0.050000
vn 0.086602 0.000000 -0.050000
vn 0.086602 0.000000 -0.050000
vn 0.086602 0.000000 -0.050000
vn 0.000000 0.000000 0.100000
vn 0.000000 0.000000 0.100000
vn 0.000000 0.000000 0.100000
vn 0.000000 0.000000 0.100000
vn 0.086602 0.000000 0.050000
vn 0.086602 0.000000 0.050000
vn 0.086602 0.000000 0.050000
vn 0.086602 0.000000 0.050000
vn 0.000000 0.100000 0.000000
vn 0.000000 0.100000 0.000000
vn 0.000000 0.100000 0.000000
vn 0.000000 0.100000 0.000000
vn 0.000000 0.100000 0.000000
vn 0.000000 0.100000 0.000000
vn 0.000000 0.100000 0.000000
vn 0.000000 0.100000 0.000000
vn 0.000000 0.100000 0.000000
vn 0.000000 0.100000 0.000000
vn 0.000000 0.100000 0.000000
vn 0.000000 0.100000 0.000000
vn 0.086603 0.000000 0.050000
vn 0.086603 0.000000 0.050000
vn 0.086603 0.000000 0.050000
vn 0.086603 0.000000 0.050000
vn -0.086603 0.000000 -0.050000
vn -0.086603 0.000000 -0.050000
vn -0.086603 0.000000 -0.050000
vn -0.086603 0.000000 -0.050000
vn 0.086603 0.000000 -0.050000
vn 0.086603 0.000000 -0.050000
vn 0.086603 0.000000 -0.050000
vn 0.086603 0.000000 -0.050000
vn 0.000000 0.000000 0.100000
vn 0.000000 0.000000 0.100000
vn 0.000000 0.000000 0.100000
vn 0.000000 0.000000 0.100000
vn 0.086603 0.000000 0.050000
vn 0.086603 0.000000 0.050000
vn 0.086603 0.000000 0.050000
vn 0.086603 0.000000 0.050000
vn 0.086603 0.000000 -0.050000
vn 0.086603 0.000000 -0.050000
vn 0.086603 0.000000 -0.050000
vn 0.086603 0.000000 -0.050000
vn -0.086603 0.000000 -0.050000
vn -0.086603 0.000000 -0.050000
vn -0.086603 0.000000 -0.050000
vn -0.086603 0.000000 -0.050000
vn 0.000000 0.000000 -0.100000
vn 0.000000 0.000000 -0.100000
vn 0.000000 0.000000 -0.100000
vn 0.000000 0.000000 -0.100000
vn -0.086602 0.000000 -0.050000
vn -0.086602 0.000000 -0.050000
vn -0.086602 0.000000 -0.050000
vn -0.086602 0.000000 -0.050000
vn -0.086602 0.000000 0.050000
vn -0.086602 0.000000 0.050000
vn -0.086602 0.000000 0.050000
vn -0.086602 0.000000 0.050000
vn 0.086602 0.000000 -0.050000
vn 0.086602 0.000000 -0.050000
vn 0.086602 0.000000 -0.050000
vn 0.086602 0.000000 -0.050000
vn 0.000000 0.000000 -0.100000
vn 0.000000 0.000000 -0.100000
vn 0.000000 0.000000 -0.100000
vn 0.000000 0.000000 -0.100000
vn 0.000000 0.000000 0.100000
vn 0.000000 0.000000 0.100000
vn 0.000000 0.000000 0.100000
vn 0.000000 0.000000 0.100000
vn -0.086603 0.000000 0.050000
vn -0.086603 0.000000 0.050000
vn -0.086603 0.000000 0.050000
vn -0.086603 0.000000 0.050000
vn 0.000000 0.100000 0.000000
vn 0.000000 0.100000 0.000000
vn 0.000000 0.100000 0.000000
vn 0.000000 0.100000 0.000000
vn 0.000000 0.100000 0.000000
vn 0.000000 0.100000 0.000000
vn 0.000000 0.100000 0.000000
vn 0.000000 0.100000 0.000000
vn 0.000000 0.100000 0.000000
vn 0.000000 0.100000 0.000000
vn 0.000000 0.100000 0.000000
vn 0.000000 0.100000 0.000000
vn 0.000000 0.100000 0.000000
vn 0.000000 0.100000 0.000000
vn 0.000000 0.100000 0.000000
vn 0.000000 0.100000 0.000000
vn 0.000000 0.100000 0.000000
vn 0.000000 0.100000 0.000000
vn 0.000000 0.000000 -0.100000
vn 0.000000 0.000000 -0.100000
vn 0.000000 0.000000 -0.100000
vn 0.000000 0.000000 -0.100000
vn -0.086602 0.000000 -0.050000
vn -0.086602 0.000000 -0.050000
vn -0.086602 0.000000 -0.050000
vn -0.086602 0.000000 -0.050000
vn -0.086602 0.000000 -0.050000
vn -0.086602 0.000000 -0.050000
vn -0.086602 0.000000 -0.050000
vn -0.086602 0.000000 -0.050000
vn 0.086602 0.000000 0.050000
vn 0.086602 0.000000 0.050000
vn 0.086602 0.000000 0.050000
vn 0.086602 0.000000 0.050000
vn -0.086602 0.000000 0.050000
vn -0.086602 0.000000 0.050000
vn -0.086602 0.000000 0.050000
vn -0.086602 0.000000 0.050000
vn 0.086603 0.000000 -0.050000
vn 0.086603 0.000000 -0.050000
vn 0.086603 0.000000 -0.050000
vn 0.086603 0.000000 -0.050000
vn 0.000000 0.000000 0.100000
vn 0.000000 0.000000 0.100000
vn 0.000000 0.000000 0.100000
vn 0.000000 0.000000 0.100000
vn -0.086602 0.000000 -0.050000
vn -0.086602 0.000000 -0.050000
vn -0.086602 0.000000 -0.050000
vn -0.086602 0.000000 -0.050000
vn 0.000000 0.000000 -0.100000
vn 0.000000 0.000000 -0.100000
vn 0.000000 0.000000 -0.100000
vn 0.000000 0.000000 -0.100000
vn -0.086602 0.000000 -0.050000
vn -0.086602 0.000000 -0.050000
vn -0.086602 0.000000 -0.050000
vn -0.086602 0.000000 -0.050000
vn -0.086602 0.000000 0.050000
vn -0.086602 0.000000 0.050000
vn -0.086602 0.000000 0.050000
vn -0.086602 0.000000 0.050000
vn -0.086602 0.000000 0.050000
vn -0.086602 0.000000 0.050000
vn -0.086602 0.000000 0.050000
vn -0.086602 0.000000 0.050000
vn 0.000000 0.000000 0.100000
vn 0.000000 0.000000 0.100000
vn 0.000000 0.000000 0.100000
vn 0.000000 0.000000 0.100000
vn 0.000000 0.000000 0.100000
vn 0.000000 0.000000 0.100000
vn 0.000000 0.000000 0.100000
vn 0.000000 0.000000 0.100000
vn 0.086603 0.000000 0.050000
vn 0.086603 0.000000 0.050000
vn 0.086603 0.000000 0.050000
vn 0.086603 0.000000 0.050000
vn 0.000000 0.000000 -0.100000
vn 0.000000 0.000000 -0.100000
vn 0.000000 0.000000 -0.100000
vn 0.000000 0.000000 -0.100000
vn 0.000000 0.000000 -0.100000
vn 0.000000 0.000000 -0.100000
vn 0.000000 0.000000 -0.100000
vn 0.000000 0.000000 -0.100000
vn 0.086602 0.000000 -0.050000
vn 0.086602 0.000000 -0.050000
vn 0.086602 0.000000 -0.050000
vn 0.086602 0.000000 -0.050000
vn 0.086602 0.000000 -0.050000
vn 0.086602 0.000000 -0.050000
vn 0.086602 0.000000 -0.050000
vn 0.086602 0.000000 -0.050000
vn 0.086602 0.000000 0.050000
vn 0.086602 0.000000 0.050000
vn 0.086602 0.000000 0.050000
vn 0.086602 0.000000 0.050000
vn 0.000000 0.000000 -0.100000
vn 0.000000 0.000000 -0.100000
vn 0.000000 0.000000 -0.100000
vn 0.000000 0.000000 -0.100000
vn 0.086603 0.000000 -0.050000
vn 0.086603 0.000000 -0.050000
vn 0.086603 0.000000 -0.050000
vn 0.086603 0.000000 -0.050000
vn 0.000000 0.000000 -0.100000
vn 0.000000 0.000000 -0.100000
vn 0.000000 0.000000 -0.100000
vn 0.000000 0.000000 -0.100000
vn 0.086602 0.000000 -0.050000
vn 0.086602 0.000000 -0.050000
vn 0.086602 0.000000 -0.050000
vn 0.086602 0.000000 -0.050000
vn 0.086602 0.000000 0.050000
vn 0.086602 0.000000 0.050000
vn 0.086602 0.000000 0.050000
vn 0.086602 0.000000 0.050000
vn 0.086602 0.000000 -0.050000
vn 0.086602 0.000000 -0.050000
vn 0.086602 0.000000 -0.050000
vn 0.086602 0.000000 -0.050000
vn 0.086602 0.000000 0.050000
vn 0.086602 0.000000 0.050000
vn 0.086602 0.000000 0.050000
vn 0.086602 0.000000 0.050000
vn 0.000000 0.000000 0.100000
vn 0.000000 0.000000 0.100000
vn 0.000000 0.000000 0.100000
vn 0.000000 0.000000 0.100000
vn 0.086603 0.000000 0.050000
vn 0.086603 0.000000 0.050000
vn 0.086603 0.000000 0.050000
vn 0.086603 0.000000 0.050000
vn 0.000000 0.000000 0.100000
vn 0.000000 0.000000 0.100000
vn 0.000000 0.000000 0.100000
vn 0.000000 0.000000 0.100000
vn -0.086602 0.000000 -0.050000
vn -0.086602 0.000000 -0.050000
vn -0.086602 0.000000 -0.050000
vn -0.086602 0.000000 -0.050000
vn 0.000000 0.000000 -0.100000
vn 0.000000 0.000000 -0.100000
vn 0.000000 0.000000 -0.100000
vn 0.000000 0.000000 -0.100000
vn -0.086602 0.000000 -0.050000
vn -0.086602 0.000000 -0.050000
vn -0.086602 0.000000 -0.050000
vn -0.086602 0.000000 -0.050000
vn -0.086602 0.000000 0.050000
vn -0.086602 0.000000 0.050000
vn -0.086602 0.000000 0.050000
vn -0.086602 0.000000 0.050000
vn -0.086602 0.000000 -0.050000
vn -0.086602 0.000000 -0.050000
vn -0.086602 0.000000 -0.050000
vn -0.086602 0.000000 -0.050000
vn -0.086602 0.000000 0.050000
vn -0.086602 0.000000 0.050000
vn -0.086602 0.000000 0.050000
vn -0.086602 0.000000 0.050000
vn 0.000000 0.000000 0.100000
vn 0.000000 0.000000 0.100000
vn 0.000000 0.000000 0.100000
vn 0.000000 0.000000 0.100000
vn -0.086602 0.000000 0.050000
vn -0.086602 0.000000 0.050000
vn -0.086602 0.000000 0.050000
vn -0.086602 0.000000 0.050000
vn 0.000000 -0.100000 0.000000
vn 0.000000 -0.100000 0.000000
vn 0.000000 -0.100000 0.000000
vn 0.000000 -0.100000 0.000000
vn 0.000000 -0.100000 0.000000
vn 0.000000 -0.100000 0.000000
vn 0.000000 -0.100000 0.000000
vn 0.000000 -0.100000 0.000000
vn 0.000000 -0.100000 0.000000
vn 0.000000 -0.100000 0.000000
vn 0.000000 -0.100000 0.000000
vn 0.000000 -0.100000 0.000000
vn 0.000000 -0.100000 0.000000
vn 0.000000 -0.100000 0.000000
vn 0.000000 -0.100000 0.000000
vn 0.000000 -0.100000 0.000000
vn 0.000000 -0.100000 0.000000
vn 0.000000 -0.100000 0.000000
vn 0.000000 0.100000 0.000000
vn 0.000000 0.100000 0.000000
vn 0.000000 0.100000 0.000000
vn 0.000000 0.100000 0.000000
vn 0.000000 0.100000 0.000000
vn 0.000000 0.100000 0.000000
f 1/360/1 2/360/2 4/360/3
f 4/360/3 2/360/2 3/360/4
f 5/360/5 6/360/6 8/360/7
f 8/360/7 6/360/6 7/360/8
f 2/360/9 1/360/10 10/360/11
f 10/360/11 1/360/10 9/360/12
f 10/361/13 25/361/14 2/361/15
f 2/361/15 25/361/14 5/361/16
f 2/361/15 5/361/16 3/361/17
f 3/361/17 5/361/16 8/361/18
f 3/361/17 8/361/18 48/361/19
f 48/361/19 8/361/18 14/361/20
f 48/361/19 14/361/20 65/361/21
f 65/361/21 14/361/20 64/361/22
f 64/361/22 14/361/20 15/361/23
f 64/361/22 15/361/23 16/361/24
f 11/361/25 45/361/26 10/361/13
f 10/361/13 45/361/26 46/361/27
f 10/361/13 46/361/27 24/361/28
f 24/361/28 46/361/27 29/361/29
f 29/361/29 46/361/27 47/361/30
f 29/361/29 47/361/30 37/361/31
f 37/361/31 47/361/30 42/361/32
f 37/361/31 42/361/32 36/361/33
f 36/361/33 42/361/32 54/361/34
f 36/361/33 54/361/34 55/361/35
f 12/361/36 50/361/37 11/361/25
f 11/361/25 50/361/37 51/361/38
f 11/361/25 51/361/38 45/361/26
f 45/361/26 51/361/38 52/361/39
f 45/361/26 52/361/39 44/361/40
f 44/361/40 52/361/39 53/361/41
f 44/361/40 53/361/41 43/361/42
f 43/361/42 53/361/41 42/361/32
f 42/361/32 53/361/41 54/361/34
f 12/361/36 13/361/43 50/361/37
f 50/361/37 13/361/43 49/361/44
f 49/361/44 13/361/43 48/361/19
f 48/361/19 13/361/43 3/361/17
f 17/361/45 32/361/46 16/361/24
f 16/361/24 32/361/46 63/361/47
f 16/361/24 63/361/47 64/361/22
f 5/361/16 25/361/14 17/361/45
f 17/361/45 25/361/14 26/361/48
f 17/361/45 26/361/48 31/361/49
f 31/361/49 26/361/48 30/361/50
f 30/361/50 26/361/48 27/361/51
f 30/361/50 27/361/51 19/361/52
f 19/361/52 27/361/51 28/361/53
f 19/361/52 28/361/53 18/361/54
f 18/361/54 28/361/53 38/361/55
f 18/361/54 38/361/55 23/361/56
f 23/361/56 38/361/55 39/361/57
f 23/361/56 39/361/57 57/361/58
f 57/361/58 39/361/57 40/361/59
f 57/361/58 40/361/59 56/361/60
f 56/361/60 40/361/59 55/361/35
f 55/361/35 40/361/59 41/361/61
f 55/361/35 41/361/61 36/361/33
f 30/361/50 19/361/52 35/361/62
f 35/361/62 19/361/52 20/361/63
f 35/361/62 20/361/63 60/361/64
f 60/361/64 20/361/63 59/361/65
f 59/361/65 20/361/63 21/361/66
f 59/361/65 21/361/66 22/361/67
f 23/361/56 57/361/58 22/361/67
f 22/361/67 57/361/58 58/361/68
f 22/361/67 58/361/68 59/361/65
f 24/361/28 25/361/14 10/361/13
f 38/361/55 28/361/53 37/361/31
f 37/361/31 28/361/53 29/361/29
f 31/361/49 32/361/46 17/361/45
f 63/361/47 32/361/46 62/361/69
f 62/361/69 32/361/46 33/361/70
f 62/361/69 33/361/70 61/361/71
f 61/361/71 33/361/70 34/361/72
f 61/361/71 34/361/72 35/361/62
f 60/361/64 61/361/71 35/361/62
f 1/360/73 4/360/74 9/360/75
f 9/360/75 4/360/74 66/360/76
f 9/360/75 66/360/76 67/360/77
f 67/360/77 68/360/78 9/360/75
f 4/360/79 3/360/80 66/360/81
f 66/360/81 3/360/80 13/360/82
f 69/360/83 42/360/84 70/360/85
f 70/360/85 42/360/84 47/360/86
f 36/360/87 71/360/88 37/360/89
f 37/360/89 71/360/88 72/360/90
f 70/360/91 47/360/92 73/360/93
f 73/360/93 47/360/92 46/360/94
f 37/360/95 72/360/96 38/360/97
f 38/360/97 72/360/96 74/360/98
f 71/360/99 75/360/100 72/360/101
f 72/360/101 75/360/100 76/360/102
f 72/360/101 76/360/102 74/360/103
f 74/360/103 76/360/102 77/360/104
f 80/360/105 69/360/106 78/360/107
f 78/360/107 69/360/106 70/360/108
f 78/360/107 70/360/108 73/360/109
f 78/360/107 79/360/110 80/360/105
f 73/360/111 46/360/112 78/360/113
f 78/360/113 46/360/112 45/360/114
f 10/360/115 9/360/116 11/360/117
f 11/360/117 9/360/116 68/360/118
f 78/360/119 45/360/120 79/360/121
f 79/360/121 45/360/120 44/360/122
f 82/360/123 27/360/124 81/360/125
f 81/360/125 27/360/124 26/360/126
f 81/360/127 26/360/128 83/360/129
f 83/360/129 26/360/128 25/360/130
f 83/360/131 25/360/132 84/360/133
f 84/360/133 25/360/132 24/360/134
f 6/360/135 5/360/136 85/360/137
f 85/360/137 5/360/136 17/360/138
f 84/360/139 24/360/140 86/360/141
f 86/360/141 24/360/140 29/360/142
f 86/360/143 29/360/144 87/360/145
f 87/360/145 29/360/144 28/360/146
f 87/360/147 28/360/148 82/360/149
f 82/360/149 28/360/148 27/360/150
f 18/360/151 88/360/152 19/360/153
f 19/360/153 88/360/152 89/360/154
f 30/360/155 90/360/156 31/360/157
f 31/360/157 90/360/156 91/360/158
f 38/360/159 74/360/160 39/360/161
f 39/360/161 74/360/160 77/360/162
f 85/360/163 17/360/164 92/360/165
f 92/360/165 17/360/164 16/360/166
f 6/360/167 85/360/168 7/360/169
f 7/360/169 85/360/168 94/360/170
f 94/360/170 85/360/168 93/360/171
f 93/360/171 85/360/168 92/360/172
f 91/360/173 90/360/174 98/360/175
f 98/360/175 90/360/174 95/360/176
f 98/360/175 95/360/176 96/360/177
f 96/360/177 97/360/178 98/360/175
f 84/360/179 86/360/180 83/360/181
f 83/360/181 86/360/180 87/360/182
f 83/360/181 87/360/182 82/360/183
f 82/360/183 81/360/184 83/360/181
f 88/360/185 18/360/186 99/360/187
f 99/360/187 18/360/186 23/360/188
f 99/360/189 23/360/190 100/360/191
f 100/360/191 23/360/190 22/360/192
f 90/360/193 30/360/194 95/360/195
f 95/360/195 30/360/194 35/360/196
f 19/360/197 89/360/198 20/360/199
f 20/360/199 89/360/198 101/360/200
f 95/360/201 35/360/202 96/360/203
f 96/360/203 35/360/202 34/360/204
f 31/360/205 91/360/206 32/360/207
f 32/360/207 91/360/206 98/360/208
f 92/360/209 16/360/210 93/360/211
f 93/360/211 16/360/210 15/360/212
f 42/360/213 69/360/214 43/360/215
f 43/360/215 69/360/214 80/360/216
f 71/360/217 36/360/218 75/360/219
f 75/360/219 36/360/218 41/360/220
f 75/360/221 41/360/222 76/360/223
f 76/360/223 41/360/222 40/360/224
f 39/360/225 77/360/226 40/360/227
f 40/360/227 77/360/226 76/360/228
f 100/360/229 22/360/230 102/360/231
f 102/360/231 22/360/230 21/360/232
f 20/360/233 101/360/234 21/360/235
f 21/360/235 101/360/234 102/360/236
f 96/360/237 34/360/238 97/360/239
f 97/360/239 34/360/238 33/360/240
f 32/360/241 98/360/242 33/360/243
f 33/360/243 98/360/242 97/360/244
f 79/360/245 44/360/246 80/360/247
f 80/360/247 44/360/246 43/360/248
f 11/360/249 68/360/250 12/360/251
f 12/360/251 68/360/250 67/360/252
f 66/360/253 13/360/254 67/360/255
f 67/360/255 13/360/254 12/360/256
f 8/360/257 7/360/258 14/360/259
f 14/360/259 7/360/258 94/360/260
f 93/360/261 15/360/262 94/360/263
f 94/360/263 15/360/262 14/360/264
f 53/361/265 52/361/266 104/361/267
f 104/361/267 52/361/266 103/361/268
f 52/361/269 51/361/270 103/361/271
f 103/361/271 51/361/270 105/361/272
f 51/361/273 50/361/274 105/361/275
f 105/361/275 50/361/274 106/361/276
f 50/361/277 49/361/278 106/361/279
f 106/361/279 49/361/278 107/361/280
f 49/361/281 48/361/282 107/361/283
f 107/361/283 48/361/282 108/361/284
f 48/361/285 65/361/286 108/361/287
f 108/361/287 65/361/286 109/361/288
f 65/361/289 64/361/290 109/361/291
f 109/361/291 64/361/290 110/361/292
f 64/361/293 63/361/294 110/361/295
f 110/361/295 63/361/294 111/361/296
f 63/361/297 62/361/298 111/361/299
f 111/361/299 62/361/298 112/361/300
f 62/361/301 61/361/302 112/361/303
f 112/361/303 61/361/302 113/361/304
f 54/361/305 53/361/306 114/361/307
f 114/361/307 53/361/306 104/361/308
f 55/361/309 54/361/310 115/361/311
f 115/361/311 54/361/310 114/361/312
f 56/361/313 55/361/314 116/361/315
f 116/361/315 55/361/314 115/361/316
f 57/361/317 56/361/318 117/361/319
f 117/361/319 56/361/318 116/361/320
f 58/361/321 57/361/322 118/361/323
f 118/361/323 57/361/322 117/361/324
f 59/361/325 58/361/326 119/361/327
f 119/361/327 58/361/326 118/361/328
f 60/361/329 59/361/330 120/361/331
f 120/361/331 59/361/330 119/361/332
f 61/361/333 60/361/334 113/361/335
f 113/361/335 60/361/334 120/361/336
f 112/361/337 113/361/338 111/361/339
f 111/361/339 113/361/338 120/361/340
f 111/361/339 120/361/340 105/361/341
f 105/361/341 120/361/340 114/361/342
f 105/361/341 114/361/342 104/361/343
f 114/361/342 120/361/340 117/361/344
f 117/361/344 120/361/340 119/361/345
f 117/361/344 119/361/345 118/361/346
f 116/361/347 115/361/348 117/361/344
f 117/361/344 115/361/348 114/361/342
f 104/361/343 103/361/349 105/361/341
f 111/361/339 105/361/341 108/361/350
f 108/361/350 105/361/341 106/361/351
f 108/361/350 106/361/351 107/361/352
f 109/361/353 110/361/354 108/361/350
f 108/361/350 110/361/354 111/361/339
f 88/360/355 99/360/356 89/360/357
f 89/360/357 99/360/356 100/360/358
f 89/360/357 100/360/358 101/360/359
f 101/360/359 100/360/358 102/360/360
# 120 vertices
# 359 texture params
# 360 normals
# 236 facets

# 1 groups
