# Blender 5.2.0 LTS
# www.blender.org
o Home_Hex
v 29.444851 3.000000 -1.000000
v 29.444851 2.000000 -1.000000
v 57.157650 2.000000 -1.000000
v 57.157650 3.000000 -1.000000
v 29.444851 2.000000 1.000000
v 29.444851 3.000000 1.000000
v 57.157650 3.000000 1.000000
v 57.157650 2.000000 1.000000
v 15.588499 2.999998 -25.000000
v 15.588499 1.999998 -25.000000
v 29.444851 1.999996 -49.000000
v 57.157650 1.999996 -49.000000
v 71.014099 1.999998 -25.000000
v 71.014099 2.000002 25.000000
v 57.157650 2.000004 49.000000
v 29.444851 2.000004 49.000000
v 15.588499 2.000002 25.000000
v -29.444849 2.000000 1.000000
v -15.588401 2.000002 25.000000
v -29.444849 2.000004 49.000000
v -57.157650 2.000004 49.000000
v -71.014099 2.000002 25.000000
v -57.157650 2.000000 1.000000
v 13.856449 1.999998 -24.000000
v 27.712801 2.000000 0.000000
v 13.856449 2.000002 24.000000
v -13.856351 2.000002 24.000000
v -27.712799 2.000000 0.000000
v -13.856351 1.999998 -24.000000
v -13.856351 2.000002 26.000000
v 13.856449 2.000002 26.000000
v 27.712801 2.000004 50.000000
v 13.856449 2.000005 74.000000
v -13.856351 2.000005 74.000000
v -27.712799 2.000004 50.000000
v -29.444849 1.999996 -49.000000
v -15.588401 1.999998 -25.000000
v -29.444849 2.000000 -1.000000
v -57.157650 2.000000 -1.000000
v -71.014099 1.999998 -25.000000
v -57.157650 1.999996 -49.000000
v -27.712799 1.999996 -50.000000
v -13.856351 1.999994 -74.000000
v 13.856449 1.999994 -74.000000
v 27.712801 1.999996 -50.000000
v 13.856449 1.999998 -26.000000
v -13.856351 1.999998 -26.000000
v 57.735001 2.000000 0.000000
v 72.168800 1.999998 -25.000000
v 57.735001 1.999996 -50.000000
v 28.867500 1.999996 -50.000000
v 14.433800 1.999994 -75.000000
v -14.433700 1.999994 -75.000000
v -28.867500 1.999996 -50.000000
v -57.735001 1.999996 -50.000000
v -72.168800 1.999998 -25.000000
v -57.735001 2.000000 0.000000
v -72.168800 2.000002 25.000000
v -57.735001 2.000004 50.000000
v -28.867500 2.000004 50.000000
v -14.433700 2.000006 75.000000
v 14.433800 2.000006 75.000000
v 28.867500 2.000004 50.000000
v 57.735001 2.000004 50.000000
v 72.168800 2.000002 25.000000
v 71.014099 2.999998 -25.000000
v 57.157650 2.999996 -49.000000
v 29.444851 2.999996 -49.000000
v -27.712799 2.999996 -50.000000
v -13.856351 2.999998 -26.000000
v -29.444849 2.999996 -49.000000
v -15.588401 2.999998 -25.000000
v 13.856449 2.999998 -26.000000
v -29.444849 3.000000 -1.000000
v -57.157650 2.999996 -49.000000
v -71.014099 2.999998 -25.000000
v -57.157650 3.000000 -1.000000
v 27.712801 2.999996 -50.000000
v 13.856449 2.999995 -74.000000
v -13.856351 2.999995 -74.000000
v 13.856449 3.000002 24.000000
v -13.856351 3.000002 24.000000
v 27.712801 3.000000 0.000000
v 13.856449 2.999998 -24.000000
v 15.588499 3.000002 25.000000
v -13.856351 2.999998 -24.000000
v -27.712799 3.000000 0.000000
v -29.444849 3.000000 1.000000
v -15.588401 3.000002 25.000000
v -13.856351 3.000002 26.000000
v 13.856449 3.000002 26.000000
v 29.444851 3.000004 49.000000
v 57.157650 3.000004 49.000000
v 71.014099 3.000002 25.000000
v -27.712799 3.000004 50.000000
v -13.856351 3.000005 74.000000
v 13.856449 3.000005 74.000000
v 27.712801 3.000004 50.000000
v -57.157650 3.000000 1.000000
v -71.014099 3.000002 25.000000
v -29.444849 3.000004 49.000000
v -57.157650 3.000004 49.000000
v 14.433800 -0.000006 -75.000000
v -14.433700 -0.000006 -75.000000
v 28.867500 -0.000004 -50.000000
v 57.735001 -0.000004 -50.000000
v 72.168800 -0.000002 -25.000000
v 57.735001 0.000000 0.000000
v 72.168800 0.000002 25.000000
v 57.735001 0.000004 50.000000
v 28.867500 0.000004 50.000000
v 14.433800 0.000006 75.000000
v -14.433700 0.000006 75.000000
v -28.867500 -0.000004 -50.000000
v -57.735001 -0.000004 -50.000000
v -72.168800 -0.000002 -25.000000
v -57.735001 0.000000 0.000000
v -72.168800 0.000002 25.000000
v -57.735001 0.000004 50.000000
v -28.867500 0.000004 50.000000
vn 0.000000 0.000000 1.000000
vn 0.000000 0.000000 -1.000000
vn -0.866000 0.000000 0.500000
vn 0.000000 1.000000 0.000000
vn 0.866000 0.000000 0.500000
vn 0.866000 0.000000 -0.500000
vn -0.866000 0.000000 -0.500000
vn 0.000000 -1.000000 0.000000
vt 0.907251 0.715287
vt 0.908712 0.715287
vt 0.907251 0.855141
vt 0.570428 0.890395
vt 0.430573 0.891856
vt 0.570428 0.891856
vt 0.898322 0.715287
vt 0.899784 0.715287
vt 0.898322 0.855141
vt 0.890395 0.713285
vt 0.891856 0.573431
vt 0.891856 0.713285
vt 0.884930 0.715287
vt 0.886391 0.715287
vt 0.884930 0.855141
vt 0.284713 0.908252
vt 0.144859 0.909713
vt 0.284713 0.909713
vt 0.858144 0.569427
vt 0.864069 0.429572
vt 0.858144 0.429572
vt 0.864069 0.867072
vt 0.858144 0.867072
vt 0.858144 0.872998
vt 0.867072 0.143858
vt 0.872998 0.143858
vt 0.867072 0.283712
vt 0.872998 0.286715
vt 0.867072 0.426569
vt 0.867072 0.286715
vt 0.867072 0.868534
vt 0.868534 0.867072
vt 0.867072 0.867072
vt 0.904248 0.715287
vt 0.902787 0.715287
vt 0.902787 0.855141
vt 0.426569 0.902787
vt 0.286715 0.902787
vt 0.286715 0.904248
vt 0.427570 0.890395
vt 0.427570 0.891856
vt 0.287716 0.891856
vt 0.903788 0.856142
vt 0.905249 0.716288
vt 0.905249 0.856142
vt 0.886391 0.286715
vt 0.884930 0.286715
vt 0.884930 0.426569
vt 0.427570 0.865070
vt 0.427570 0.859145
vt 0.287716 0.865070
vt 0.859145 0.713285
vt 0.865070 0.573431
vt 0.865070 0.713285
vt 0.865070 0.865070
vt 0.859145 0.865070
vt 0.865070 0.859145
vt 0.856142 0.865070
vt 0.856142 0.859145
vt 0.716288 0.865070
vt 0.715287 0.864069
vt 0.855141 0.858144
vt 0.715287 0.858144
vt 0.867072 0.864069
vt 0.872998 0.858144
vt 0.867072 0.858144
vt 0.715287 0.881927
vt 0.715287 0.876001
vt 0.855141 0.876001
vt 0.876001 0.712284
vt 0.881927 0.572430
vt 0.876001 0.572430
vt 0.868534 0.871537
vt 0.867072 0.872998
vt 0.867072 0.871537
vt 0.715287 0.907251
vt 0.715287 0.908712
vt 0.855141 0.907251
vt 0.887392 0.427570
vt 0.885931 0.427570
vt 0.887392 0.287716
vt 0.884930 0.429572
vt 0.884930 0.569427
vt 0.886391 0.429572
vt 0.871537 0.868534
vt 0.871537 0.867072
vt 0.872998 0.867072
vt 0.884930 0.572430
vt 0.886391 0.572430
vt 0.884930 0.712284
vt 0.712284 0.884930
vt 0.572430 0.886391
vt 0.572430 0.884930
vt 0.570428 0.887392
vt 0.570428 0.885931
vt 0.430573 0.887392
vt 0.283712 0.884930
vt 0.143858 0.886391
vt 0.143858 0.884930
vt 0.905249 0.570428
vt 0.903788 0.570428
vt 0.905249 0.430573
vt 0.427570 0.905249
vt 0.287716 0.905249
vt 0.427570 0.903788
vt 0.905249 0.713285
vt 0.905249 0.573431
vt 0.903788 0.713285
vt 0.283712 0.902787
vt 0.143858 0.902787
vt 0.143858 0.904248
vt 0.284713 0.903788
vt 0.284713 0.905249
vt 0.144859 0.905249
vt 0.429572 0.904248
vt 0.569427 0.902787
vt 0.429572 0.902787
vt 0.283712 0.858144
vt 0.143858 0.864069
vt 0.143858 0.858144
vt 0.873999 0.868073
vt 0.872538 0.869535
vt 0.873999 0.869535
vt 0.429572 0.884930
vt 0.429572 0.886391
vt 0.569427 0.884930
vt 0.286715 0.858144
vt 0.286715 0.864069
vt 0.426569 0.858144
vt 0.859145 0.570428
vt 0.865070 0.430573
vt 0.865070 0.570428
vt 0.873999 0.865070
vt 0.868073 0.865070
vt 0.873999 0.859145
vt 0.873999 0.427570
vt 0.868073 0.427570
vt 0.873999 0.287716
vt 0.868073 0.284713
vt 0.873999 0.144859
vt 0.873999 0.284713
vt 0.858144 0.864069
vt 0.864069 0.858144
vt 0.858144 0.858144
vt 0.877002 0.856142
vt 0.882928 0.856142
vt 0.882928 0.716288
vt 0.573431 0.882928
vt 0.713285 0.877002
vt 0.713285 0.882928
vt 0.859145 0.873999
vt 0.865070 0.873999
vt 0.865070 0.868073
vt 0.284713 0.873999
vt 0.284713 0.868073
vt 0.144859 0.873999
vt 0.143858 0.872998
vt 0.283712 0.867072
vt 0.143858 0.867072
vt 0.869535 0.868073
vt 0.868073 0.869535
vt 0.869535 0.869535
vt 0.570428 0.903788
vt 0.570428 0.905249
vt 0.430573 0.905249
vt 0.905249 0.287716
vt 0.905249 0.427570
vt 0.903788 0.427570
vt 0.903788 0.284713
vt 0.905249 0.284713
vt 0.905249 0.144859
vt 0.572430 0.904248
vt 0.712284 0.902787
vt 0.572430 0.902787
vt 0.886391 0.143858
vt 0.884930 0.143858
vt 0.884930 0.283712
vt 0.856142 0.882928
vt 0.856142 0.877002
vt 0.716288 0.882928
vt 0.877002 0.713285
vt 0.882928 0.573431
vt 0.882928 0.713285
vt 0.869535 0.872538
vt 0.868073 0.873999
vt 0.869535 0.873999
vt 0.856142 0.908252
vt 0.856142 0.909713
vt 0.716288 0.909713
vt 0.885931 0.284713
vt 0.887392 0.144859
vt 0.887392 0.284713
vt 0.713285 0.903788
vt 0.713285 0.905249
vt 0.573431 0.905249
vt 0.902787 0.572430
vt 0.904248 0.572430
vt 0.902787 0.712284
vt 0.902787 0.143858
vt 0.902787 0.283712
vt 0.904248 0.143858
vt 0.902787 0.286715
vt 0.904248 0.286715
vt 0.902787 0.426569
vt 0.284713 0.865070
vt 0.144859 0.865070
vt 0.284713 0.859145
vt 0.876001 0.715287
vt 0.881927 0.715287
vt 0.876001 0.855141
vt 0.572430 0.881927
vt 0.712284 0.876001
vt 0.572430 0.876001
vt 0.858144 0.572430
vt 0.858144 0.712284
vt 0.864069 0.572430
vt 0.885931 0.713285
vt 0.887392 0.713285
vt 0.887392 0.573431
vt 0.713285 0.885931
vt 0.573431 0.887392
vt 0.713285 0.887392
vt 0.885931 0.570428
vt 0.887392 0.570428
vt 0.887392 0.430573
vt 0.284713 0.885931
vt 0.144859 0.887392
vt 0.284713 0.887392
vt 0.904248 0.429572
vt 0.902787 0.429572
vt 0.902787 0.569427
vt 0.286715 0.890855
vt 0.426569 0.889394
vt 0.286715 0.889394
vt 0.286715 0.715287
vt 0.286715 0.855141
vt 0.426569 0.715287
vt 0.572430 0.569427
vt 0.572430 0.286715
vt 0.712284 0.286715
vt 0.713285 0.287716
vt 0.573431 0.570428
vt 0.713285 0.570428
vt 0.713285 0.573431
vt 0.713285 0.713285
vt 0.573431 0.713285
vt 0.715287 0.889394
vt 0.715287 0.890855
vt 0.855141 0.889394
vt 0.286715 0.895319
vt 0.426569 0.893858
vt 0.286715 0.893858
vt 0.570428 0.900785
vt 0.570428 0.899323
vt 0.430573 0.900785
vt 0.894859 0.713285
vt 0.896320 0.573431
vt 0.896320 0.713285
vt 0.896320 0.856142
vt 0.894859 0.856142
vt 0.896320 0.716288
vt 0.899784 0.286715
vt 0.898322 0.426569
vt 0.898322 0.286715
vt 0.572430 0.889394
vt 0.572430 0.890855
vt 0.712284 0.889394
vt 0.899323 0.713285
vt 0.900785 0.573431
vt 0.900785 0.713285
vt 0.429572 0.898322
vt 0.429572 0.899784
vt 0.569427 0.898322
vt 0.572430 0.895319
vt 0.712284 0.893858
vt 0.572430 0.893858
vt 0.715287 0.429572
vt 0.855141 0.429572
vt 0.715287 0.569427
vt 0.569427 0.001001
vt 0.286715 0.001001
vt 0.286715 0.140855
vt 0.426569 0.143858
vt 0.286715 0.426569
vt 0.286715 0.143858
vt 0.716288 0.570428
vt 0.856142 0.430573
vt 0.856142 0.570428
vt 0.570428 0.713285
vt 0.570428 0.573431
vt 0.287716 0.713285
vt 0.570428 0.144859
vt 0.430573 0.427570
vt 0.570428 0.427570
vt 0.287716 0.856142
vt 0.427570 0.716288
vt 0.427570 0.856142
vt 0.430573 0.856142
vt 0.570428 0.856142
vt 0.570428 0.716288
vt 0.427570 0.909713
vt 0.427570 0.908252
vt 0.287716 0.909713
vt 0.908712 0.572430
vt 0.907251 0.712284
vt 0.907251 0.572430
vt 0.909713 0.570428
vt 0.908252 0.570428
vt 0.909713 0.430573
vt 0.908252 0.284713
vt 0.909713 0.144859
vt 0.909713 0.284713
vt 0.856142 0.905249
vt 0.856142 0.903788
vt 0.716288 0.905249
vt 0.908712 0.286715
vt 0.907251 0.426569
vt 0.907251 0.286715
vt 0.572430 0.898322
vt 0.572430 0.899784
vt 0.712284 0.898322
vt 0.890855 0.572430
vt 0.889394 0.712284
vt 0.889394 0.572430
vt 0.715287 0.902787
vt 0.715287 0.904248
vt 0.855141 0.902787
vt 0.908252 0.427570
vt 0.909713 0.287716
vt 0.909713 0.427570
vt 0.286715 0.884930
vt 0.286715 0.886391
vt 0.426569 0.884930
vt 0.427570 0.885931
vt 0.287716 0.887392
vt 0.427570 0.887392
vt 0.570428 0.909713
vt 0.570428 0.908252
vt 0.430573 0.909713
vt 0.908712 0.143858
vt 0.907251 0.283712
vt 0.907251 0.143858
vt 0.713285 0.891856
vt 0.713285 0.890395
vt 0.573431 0.891856
vt 0.713285 0.908252
vt 0.573431 0.909713
vt 0.713285 0.909713
vt 0.898322 0.143858
vt 0.899784 0.143858
vt 0.898322 0.283712
vt 0.899784 0.429572
vt 0.898322 0.569427
vt 0.898322 0.429572
vt 0.427570 0.900785
vt 0.427570 0.899323
vt 0.287716 0.900785
vt 0.856142 0.894859
vt 0.716288 0.896320
vt 0.856142 0.896320
vt 0.893858 0.572430
vt 0.895319 0.572430
vt 0.893858 0.712284
vt 0.715287 0.895319
vt 0.855141 0.893858
vt 0.715287 0.893858
vt 0.900785 0.856142
vt 0.899323 0.856142
vt 0.900785 0.716288
vt 0.899784 0.572430
vt 0.898322 0.712284
vt 0.898322 0.572430
vt 0.889394 0.143858
vt 0.890855 0.143858
vt 0.889394 0.283712
vt 0.284713 0.890395
vt 0.144859 0.891856
vt 0.284713 0.891856
vt 0.907251 0.429572
vt 0.908712 0.429572
vt 0.907251 0.569427
vt 0.286715 0.908712
vt 0.426569 0.907251
vt 0.286715 0.907251
vt 0.572430 0.715287
vt 0.712284 0.715287
vt 0.572430 0.855141
vt 0.713285 0.284713
vt 0.713285 0.002002
vt 0.573431 0.284713
vt 0.284713 0.573431
vt 0.002002 0.713285
vt 0.284713 0.713285
vt 0.713285 0.716288
vt 0.573431 0.856142
vt 0.713285 0.856142
vt 0.856142 0.856142
vt 0.856142 0.716288
vt 0.716288 0.856142
vt 0.429572 0.426569
vt 0.429572 0.143858
vt 0.569427 0.143858
vt 0.572430 0.283712
vt 0.712284 0.001001
vt 0.572430 0.001001
vt 0.429572 0.855141
vt 0.429572 0.715287
vt 0.569427 0.715287
vt 0.715287 0.715287
vt 0.715287 0.855141
vt 0.855141 0.715287
vt 0.283712 0.572430
vt 0.001001 0.572430
vt 0.001001 0.712284
vt 0.569427 0.572430
vt 0.286715 0.712284
vt 0.286715 0.572430
vt 0.572430 0.712284
vt 0.572430 0.572430
vt 0.712284 0.572430
vt 0.715287 0.884930
vt 0.715287 0.886391
vt 0.855141 0.884930
vt 0.890855 0.286715
vt 0.889394 0.426569
vt 0.889394 0.286715
vt 0.284713 0.896320
vt 0.284713 0.894859
vt 0.144859 0.896320
vt 0.890855 0.715287
vt 0.889394 0.855141
vt 0.889394 0.715287
vt 0.713285 0.896320
vt 0.713285 0.894859
vt 0.573431 0.896320
vt 0.143858 0.899784
vt 0.283712 0.898322
vt 0.143858 0.898322
vt 0.893858 0.715287
vt 0.895319 0.715287
vt 0.893858 0.855141
vt 0.284713 0.899323
vt 0.144859 0.900785
vt 0.284713 0.900785
vt 0.900785 0.427570
vt 0.899323 0.427570
vt 0.900785 0.287716
vt 0.899323 0.570428
vt 0.900785 0.430573
vt 0.900785 0.570428
vt 0.887392 0.856142
vt 0.885931 0.856142
vt 0.887392 0.716288
vt 0.143858 0.908712
vt 0.283712 0.907251
vt 0.143858 0.907251
vt 0.856142 0.900785
vt 0.856142 0.899323
vt 0.716288 0.900785
vt 0.908252 0.856142
vt 0.909713 0.716288
vt 0.909713 0.856142
vt 0.900785 0.284713
vt 0.899323 0.284713
vt 0.900785 0.144859
vt 0.286715 0.899784
vt 0.426569 0.898322
vt 0.286715 0.898322
vt 0.891856 0.284713
vt 0.890395 0.284713
vt 0.891856 0.144859
vt 0.143858 0.890855
vt 0.283712 0.889394
vt 0.143858 0.889394
vt 0.893858 0.429572
vt 0.895319 0.429572
vt 0.893858 0.569427
vt 0.894859 0.427570
vt 0.896320 0.287716
vt 0.896320 0.427570
vt 0.429572 0.893858
vt 0.429572 0.895319
vt 0.569427 0.893858
vt 0.570428 0.894859
vt 0.430573 0.896320
vt 0.570428 0.896320
vt 0.893858 0.286715
vt 0.895319 0.286715
vt 0.893858 0.426569
vt 0.894859 0.570428
vt 0.896320 0.430573
vt 0.896320 0.570428
vt 0.891856 0.427570
vt 0.890395 0.427570
vt 0.891856 0.287716
vt 0.856142 0.885931
vt 0.716288 0.887392
vt 0.856142 0.887392
vt 0.891856 0.570428
vt 0.890395 0.570428
vt 0.891856 0.430573
vt 0.890855 0.429572
vt 0.889394 0.569427
vt 0.889394 0.429572
vt 0.429572 0.907251
vt 0.429572 0.908712
vt 0.569427 0.907251
vt 0.908252 0.713285
vt 0.909713 0.573431
vt 0.909713 0.713285
vt 0.715287 0.898322
vt 0.715287 0.899784
vt 0.855141 0.898322
vt 0.713285 0.899323
vt 0.573431 0.900785
vt 0.713285 0.900785
vt 0.572430 0.907251
vt 0.572430 0.908712
vt 0.712284 0.907251
vt 0.429572 0.890855
vt 0.569427 0.889394
vt 0.429572 0.889394
vt 0.427570 0.896320
vt 0.427570 0.894859
vt 0.287716 0.896320
vt 0.143858 0.895319
vt 0.283712 0.893858
vt 0.143858 0.893858
vt 0.891856 0.856142
vt 0.890395 0.856142
vt 0.891856 0.716288
vt 0.856142 0.890395
vt 0.716288 0.891856
vt 0.856142 0.891856
vt 0.896320 0.284713
vt 0.894859 0.284713
vt 0.896320 0.144859
vt 0.895319 0.143858
vt 0.893858 0.283712
vt 0.893858 0.143858
vt 0.286715 0.876001
vt 0.426569 0.876001
vt 0.286715 0.881927
vt 0.882928 0.144859
vt 0.877002 0.284713
vt 0.882928 0.284713
vt 0.572430 0.867072
vt 0.712284 0.867072
vt 0.572430 0.872998
vt 0.573431 0.873999
vt 0.713285 0.868073
vt 0.713285 0.873999
vt 0.143858 0.876001
vt 0.283712 0.876001
vt 0.143858 0.881927
vt 0.876001 0.569427
vt 0.881927 0.429572
vt 0.876001 0.429572
vt 0.429572 0.867072
vt 0.569427 0.867072
vt 0.429572 0.872998
vt 0.569427 0.858144
vt 0.429572 0.864069
vt 0.429572 0.858144
vt 0.865070 0.856142
vt 0.865070 0.716288
vt 0.859145 0.856142
vt 0.430573 0.873999
vt 0.570428 0.868073
vt 0.570428 0.873999
vt 0.572430 0.858144
vt 0.712284 0.858144
vt 0.572430 0.864069
vt 0.858144 0.855141
vt 0.864069 0.715287
vt 0.858144 0.715287
vt 0.286715 0.867072
vt 0.426569 0.867072
vt 0.286715 0.872998
vt 0.430573 0.865070
vt 0.570428 0.859145
vt 0.570428 0.865070
vt 0.882928 0.570428
vt 0.882928 0.430573
vt 0.877002 0.570428
vt 0.882928 0.287716
vt 0.877002 0.427570
vt 0.882928 0.427570
vt 0.867072 0.715287
vt 0.867072 0.855141
vt 0.872998 0.715287
vt 0.873999 0.716288
vt 0.868073 0.856142
vt 0.873999 0.856142
vt 0.876001 0.286715
vt 0.876001 0.426569
vt 0.881927 0.286715
vt 0.144859 0.882928
vt 0.284713 0.877002
vt 0.284713 0.882928
vt 0.429572 0.876001
vt 0.569427 0.876001
vt 0.429572 0.881927
vt 0.858144 0.283712
vt 0.864069 0.143858
vt 0.858144 0.143858
vt 0.427570 0.882928
vt 0.287716 0.882928
vt 0.427570 0.877002
vt 0.855141 0.867072
vt 0.715287 0.872998
vt 0.715287 0.867072
vt 0.427570 0.873999
vt 0.287716 0.873999
vt 0.427570 0.868073
vt 0.867072 0.712284
vt 0.872998 0.572430
vt 0.867072 0.572430
vt 0.867072 0.429572
vt 0.867072 0.569427
vt 0.872998 0.429572
vt 0.873999 0.430573
vt 0.868073 0.570428
vt 0.873999 0.570428
vt 0.873999 0.713285
vt 0.873999 0.573431
vt 0.868073 0.713285
vt 0.858144 0.426569
vt 0.864069 0.286715
vt 0.858144 0.286715
vt 0.713285 0.865070
vt 0.573431 0.865070
vt 0.713285 0.859145
vt 0.865070 0.287716
vt 0.859145 0.427570
vt 0.865070 0.427570
vt 0.856142 0.873999
vt 0.716288 0.873999
vt 0.856142 0.868073
vt 0.876001 0.283712
vt 0.881927 0.143858
vt 0.876001 0.143858
vt 0.865070 0.284713
vt 0.865070 0.144859
vt 0.859145 0.284713
vt 0.430573 0.882928
vt 0.570428 0.877002
vt 0.570428 0.882928
vt 0.715287 0.286715
vt 0.715287 0.426569
vt 0.855141 0.286715
vt 0.283712 0.715287
vt 0.001001 0.715287
vt 0.001001 0.855141
vt 0.001001 0.286715
vt 0.283712 0.286715
vt 0.001001 0.569427
vt 0.002002 0.570428
vt 0.284713 0.287716
vt 0.284713 0.570428
vt 0.002002 0.856142
vt 0.284713 0.716288
vt 0.284713 0.856142
vt 0.001001 0.283712
vt 0.283712 0.001001
vt 0.001001 0.001001
vt 0.715287 0.283712
vt 0.855141 0.001001
vt 0.715287 0.001001
vt 0.858144 0.140855
vt 0.997998 0.001001
vt 0.858144 0.001001
vt 0.001001 0.858144
vt 0.140855 0.858144
vt 0.001001 0.997998
vt 0.856142 0.002002
vt 0.856142 0.284713
vt 0.716288 0.284713
vt 0.856142 0.287716
vt 0.856142 0.427570
vt 0.716288 0.427570
vt 0.284713 0.002002
vt 0.002002 0.284713
vt 0.284713 0.284713
vt 0.287716 0.570428
vt 0.570428 0.430573
vt 0.570428 0.570428
vt 0.141856 0.859145
vt 0.002002 0.998999
vt 0.141856 0.998999
vt 0.998999 0.141856
vt 0.859145 0.141856
vt 0.998999 0.002002
vt 0.569427 0.429572
vt 0.286715 0.429572
vt 0.286715 0.569427
vt 0.715287 0.572430
vt 0.855141 0.572430
vt 0.715287 0.712284
vt 0.287716 0.141856
vt 0.570428 0.141856
vt 0.570428 0.002002
vt 0.287716 0.427570
vt 0.427570 0.144859
vt 0.427570 0.427570
vt 0.716288 0.713285
vt 0.856142 0.573431
vt 0.856142 0.713285
s 0
f 1/1/1 2/2/1 4/3/1
f 4/4/1 2/5/1 3/6/1
f 5/7/2 6/8/2 8/9/2
f 8/10/2 6/11/2 7/12/2
f 2/13/3 1/14/3 10/15/3
f 10/16/3 1/17/3 9/18/3
f 10/19/4 25/20/4 2/21/4
f 2/22/4 25/23/4 5/24/4
f 2/25/4 5/26/4 3/27/4
f 3/28/4 5/29/4 8/30/4
f 3/31/4 8/32/4 48/33/4
f 48/34/4 8/35/4 14/36/4
f 48/37/4 14/38/4 65/39/4
f 65/40/4 14/41/4 64/42/4
f 64/43/4 14/44/4 15/45/4
f 64/46/4 15/47/4 16/48/4
f 11/49/4 45/50/4 10/51/4
f 10/52/4 45/53/4 46/54/4
f 10/55/4 46/56/4 24/57/4
f 24/58/4 46/59/4 29/60/4
f 29/61/4 46/62/4 47/63/4
f 29/64/4 47/65/4 37/66/4
f 37/67/4 47/68/4 42/69/4
f 37/70/4 42/71/4 36/72/4
f 36/73/4 42/74/4 54/75/4
f 36/76/4 54/77/4 55/78/4
f 12/79/4 50/80/4 11/81/4
f 11/82/4 50/83/4 51/84/4
f 11/85/4 51/86/4 45/87/4
f 45/88/4 51/89/4 52/90/4
f 45/91/4 52/92/4 44/93/4
f 44/94/4 52/95/4 53/96/4
f 44/97/4 53/98/4 43/99/4
f 43/100/4 53/101/4 42/102/4
f 42/103/4 53/104/4 54/105/4
f 12/106/4 13/107/4 50/108/4
f 50/109/4 13/110/4 49/111/4
f 49/112/4 13/113/4 48/114/4
f 48/115/4 13/116/4 3/117/4
f 17/118/4 32/119/4 16/120/4
f 16/121/4 32/122/4 63/123/4
f 16/124/4 63/125/4 64/126/4
f 5/127/4 25/128/4 17/129/4
f 17/130/4 25/131/4 26/132/4
f 17/133/4 26/134/4 31/135/4
f 31/136/4 26/137/4 30/138/4
f 30/139/4 26/140/4 27/141/4
f 30/142/4 27/143/4 19/144/4
f 19/145/4 27/146/4 28/147/4
f 19/148/4 28/149/4 18/150/4
f 18/151/4 28/152/4 38/153/4
f 18/154/4 38/155/4 23/156/4
f 23/157/4 38/158/4 39/159/4
f 23/160/4 39/161/4 57/162/4
f 57/163/4 39/164/4 40/165/4
f 57/166/4 40/167/4 56/168/4
f 56/169/4 40/170/4 55/171/4
f 55/172/4 40/173/4 41/174/4
f 55/175/4 41/176/4 36/177/4
f 30/178/4 19/179/4 35/180/4
f 35/181/4 19/182/4 20/183/4
f 35/184/4 20/185/4 60/186/4
f 60/187/4 20/188/4 59/189/4
f 59/190/4 20/191/4 21/192/4
f 59/193/4 21/194/4 22/195/4
f 23/196/4 57/197/4 22/198/4
f 22/199/4 57/200/4 58/201/4
f 22/202/4 58/203/4 59/204/4
f 24/205/4 25/206/4 10/207/4
f 38/208/4 28/209/4 37/210/4
f 37/211/4 28/212/4 29/213/4
f 31/214/4 32/215/4 17/216/4
f 63/217/4 32/218/4 62/219/4
f 62/220/4 32/221/4 33/222/4
f 62/223/4 33/224/4 61/225/4
f 61/226/4 33/227/4 34/228/4
f 61/229/4 34/230/4 35/231/4
f 60/232/4 61/233/4 35/234/4
f 1/235/4 4/236/4 9/237/4
f 9/238/4 4/239/4 66/240/4
f 9/241/4 66/242/4 67/243/4
f 67/244/4 68/245/4 9/246/4
f 4/247/5 3/248/5 66/249/5
f 66/250/5 3/251/5 13/252/5
f 69/253/3 42/254/3 70/255/3
f 70/256/3 42/257/3 47/258/3
f 36/259/6 71/260/6 37/261/6
f 37/262/6 71/263/6 72/264/6
f 70/265/1 47/266/1 73/267/1
f 73/268/1 47/269/1 46/270/1
f 37/271/5 72/272/5 38/273/5
f 38/274/5 72/275/5 74/276/5
f 71/277/4 75/278/4 72/279/4
f 72/280/4 75/281/4 76/282/4
f 72/283/4 76/284/4 74/285/4
f 74/286/4 76/287/4 77/288/4
f 80/289/4 69/290/4 78/291/4
f 78/292/4 69/293/4 70/294/4
f 78/295/4 70/296/4 73/297/4
f 78/298/4 79/299/4 80/300/4
f 73/301/5 46/302/5 78/303/5
f 78/304/5 46/305/5 45/306/5
f 10/307/7 9/308/7 11/309/7
f 11/310/7 9/311/7 68/312/7
f 78/313/6 45/314/6 79/315/6
f 79/316/6 45/317/6 44/318/6
f 82/319/1 27/320/1 81/321/1
f 81/322/1 27/323/1 26/324/1
f 81/325/5 26/326/5 83/327/5
f 83/328/5 26/329/5 25/330/5
f 83/331/6 25/332/6 84/333/6
f 84/334/6 25/335/6 24/336/6
f 6/337/7 5/338/7 85/339/7
f 85/340/7 5/341/7 17/342/7
f 84/343/2 24/344/2 86/345/2
f 86/346/2 24/347/2 29/348/2
f 86/349/7 29/350/7 87/351/7
f 87/352/7 29/353/7 28/354/7
f 87/355/3 28/356/3 82/357/3
f 82/358/3 28/359/3 27/360/3
f 18/361/6 88/362/6 19/363/6
f 19/364/6 88/365/6 89/366/6
f 30/367/2 90/368/2 31/369/2
f 31/370/2 90/371/2 91/372/2
f 38/373/1 74/374/1 39/375/1
f 39/376/1 74/377/1 77/378/1
f 85/379/3 17/380/3 92/381/3
f 92/382/3 17/383/3 16/384/3
f 6/385/4 85/386/4 7/387/4
f 7/388/4 85/389/4 94/390/4
f 94/391/4 85/392/4 93/393/4
f 93/394/4 85/395/4 92/396/4
f 91/397/4 90/398/4 98/399/4
f 98/400/4 90/401/4 95/402/4
f 98/403/4 95/404/4 96/405/4
f 96/406/4 97/407/4 98/408/4
f 84/409/4 86/410/4 83/411/4
f 83/412/4 86/413/4 87/414/4
f 83/415/4 87/416/4 82/417/4
f 82/418/4 81/419/4 83/420/4
f 88/421/2 18/422/2 99/423/2
f 99/424/2 18/425/2 23/426/2
f 99/427/7 23/428/7 100/429/7
f 100/430/7 23/431/7 22/432/7
f 90/433/7 30/434/7 95/435/7
f 95/436/7 30/437/7 35/438/7
f 19/439/5 89/440/5 20/441/5
f 20/442/5 89/443/5 101/444/5
f 95/445/3 35/446/3 96/447/3
f 96/448/3 35/449/3 34/450/3
f 31/451/6 91/452/6 32/453/6
f 32/454/6 91/455/6 98/456/6
f 92/457/1 16/458/1 93/459/1
f 93/460/1 16/461/1 15/462/1
f 42/463/7 69/464/7 43/465/7
f 43/466/7 69/467/7 80/468/7
f 71/469/2 36/470/2 75/471/2
f 75/472/2 36/473/2 41/474/2
f 75/475/7 41/476/7 76/477/7
f 76/478/7 41/479/7 40/480/7
f 39/481/3 77/482/3 40/483/3
f 40/484/3 77/485/3 76/486/3
f 100/487/3 22/488/3 102/489/3
f 102/490/3 22/491/3 21/492/3
f 20/493/1 101/494/1 21/495/1
f 21/496/1 101/497/1 102/498/1
f 96/499/1 34/500/1 97/501/1
f 97/502/1 34/503/1 33/504/1
f 32/505/5 98/506/5 33/507/5
f 33/508/5 98/509/5 97/510/5
f 79/511/2 44/512/2 80/513/2
f 80/514/2 44/515/2 43/516/2
f 11/517/2 68/518/2 12/519/2
f 12/520/2 68/521/2 67/522/2
f 66/523/6 13/524/6 67/525/6
f 67/526/6 13/527/6 12/528/6
f 8/529/6 7/530/6 14/531/6
f 14/532/6 7/533/6 94/534/6
f 93/535/5 15/536/5 94/537/5
f 94/538/5 15/539/5 14/540/5
f 53/541/2 52/542/2 104/543/2
f 104/544/2 52/545/2 103/546/2
f 52/547/6 51/548/6 103/549/6
f 103/550/6 51/551/6 105/552/6
f 51/553/2 50/554/2 105/555/2
f 105/556/2 50/557/2 106/558/2
f 50/559/6 49/560/6 106/561/6
f 106/562/6 49/563/6 107/564/6
f 49/565/5 48/566/5 107/567/5
f 107/568/5 48/569/5 108/570/5
f 48/571/6 65/572/6 108/573/6
f 108/574/6 65/575/6 109/576/6
f 65/577/5 64/578/5 109/579/5
f 109/580/5 64/581/5 110/582/5
f 64/583/1 63/584/1 110/585/1
f 110/586/1 63/587/1 111/588/1
f 63/589/5 62/590/5 111/591/5
f 111/592/5 62/593/5 112/594/5
f 62/595/1 61/596/1 112/597/1
f 112/598/1 61/599/1 113/600/1
f 54/601/7 53/602/7 114/603/7
f 114/604/7 53/605/7 104/606/7
f 55/607/2 54/608/2 115/609/2
f 115/610/2 54/611/2 114/612/2
f 56/613/7 55/614/7 116/615/7
f 116/616/7 55/617/7 115/618/7
f 57/619/3 56/620/3 117/621/3
f 117/622/3 56/623/3 116/624/3
f 58/625/7 57/626/7 118/627/7
f 118/628/7 57/629/7 117/630/7
f 59/631/3 58/632/3 119/633/3
f 119/634/3 58/635/3 118/636/3
f 60/637/1 59/638/1 120/639/1
f 120/640/1 59/641/1 119/642/1
f 61/643/3 60/644/3 113/645/3
f 113/646/3 60/647/3 120/648/3
f 112/649/8 113/650/8 111/651/8
f 111/652/8 113/653/8 120/654/8
f 111/655/8 120/656/8 105/657/8
f 105/658/8 120/659/8 114/660/8
f 105/661/8 114/662/8 104/663/8
f 114/664/8 120/665/8 117/666/8
f 117/667/8 120/668/8 119/669/8
f 117/670/8 119/671/8 118/672/8
f 116/673/8 115/674/8 117/675/8
f 117/676/8 115/677/8 114/678/8
f 104/679/8 103/680/8 105/681/8
f 111/682/8 105/683/8 108/684/8
f 108/685/8 105/686/8 106/687/8
f 108/688/8 106/689/8 107/690/8
f 109/691/8 110/692/8 108/693/8
f 108/694/8 110/695/8 111/696/8
f 88/697/4 99/698/4 89/699/4
f 89/700/4 99/701/4 100/702/4
f 89/703/4 100/704/4 101/705/4
f 101/706/4 100/707/4 102/708/4
