# compound collider: 7 convex hex prisms, one per cell
o cell_-1_3
v -14.433757 0.000000 25.000000
v -28.867513 0.000000 50.000000
v -57.735027 0.000000 50.000000
v -72.168784 0.000000 25.000000
v -57.735027 0.000000 0.000000
v -28.867513 0.000000 0.000000
v -14.433757 3.000000 25.000000
v -28.867513 3.000000 50.000000
v -57.735027 3.000000 50.000000
v -72.168784 3.000000 25.000000
v -57.735027 3.000000 0.000000
v -28.867513 3.000000 0.000000
f 1 3 2
f 1 4 3
f 1 5 4
f 1 6 5
f 7 8 9
f 7 9 10
f 7 10 11
f 7 11 12
f 1 2 8
f 1 8 7
f 2 3 9
f 2 9 8
f 3 4 10
f 3 10 9
f 4 5 11
f 4 11 10
f 5 6 12
f 5 12 11
f 6 1 7
f 6 7 12
o cell_-1_4
v -14.433757 0.000000 -25.000000
v -28.867513 0.000000 0.000000
v -57.735027 0.000000 0.000000
v -72.168784 0.000000 -25.000000
v -57.735027 0.000000 -50.000000
v -28.867513 0.000000 -50.000000
v -14.433757 3.000000 -25.000000
v -28.867513 3.000000 0.000000
v -57.735027 3.000000 0.000000
v -72.168784 3.000000 -25.000000
v -57.735027 3.000000 -50.000000
v -28.867513 3.000000 -50.000000
f 13 15 14
f 13 16 15
f 13 17 16
f 13 18 17
f 19 20 21
f 19 21 22
f 19 22 23
f 19 23 24
f 13 14 20
f 13 20 19
f 14 15 21
f 14 21 20
f 15 16 22
f 15 22 21
f 16 17 23
f 16 23 22
f 17 18 24
f 17 24 23
f 18 13 19
f 18 19 24
o cell_0_2
v 28.867513 0.000000 50.000000
v 14.433757 0.000000 75.000000
v -14.433757 0.000000 75.000000
v -28.867513 0.000000 50.000000
v -14.433757 0.000000 25.000000
v 14.433757 0.000000 25.000000
v 28.867513 3.000000 50.000000
v 14.433757 3.000000 75.000000
v -14.433757 3.000000 75.000000
v -28.867513 3.000000 50.000000
v -14.433757 3.000000 25.000000
v 14.433757 3.000000 25.000000
f 25 27 26
f 25 28 27
f 25 29 28
f 25 30 29
f 31 32 33
f 31 33 34
f 31 34 35
f 31 35 36
f 25 26 32
f 25 32 31
f 26 27 33
f 26 33 32
f 27 28 34
f 27 34 33
f 28 29 35
f 28 35 34
f 29 30 36
f 29 36 35
f 30 25 31
f 30 31 36
o cell_0_3
v 28.867513 0.000000 0.000000
v 14.433757 0.000000 25.000000
v -14.433757 0.000000 25.000000
v -28.867513 0.000000 0.000000
v -14.433757 0.000000 -25.000000
v 14.433757 0.000000 -25.000000
v 28.867513 3.000000 0.000000
v 14.433757 3.000000 25.000000
v -14.433757 3.000000 25.000000
v -28.867513 3.000000 0.000000
v -14.433757 3.000000 -25.000000
v 14.433757 3.000000 -25.000000
f 37 39 38
f 37 40 39
f 37 41 40
f 37 42 41
f 43 44 45
f 43 45 46
f 43 46 47
f 43 47 48
f 37 38 44
f 37 44 43
f 38 39 45
f 38 45 44
f 39 40 46
f 39 46 45
f 40 41 47
f 40 47 46
f 41 42 48
f 41 48 47
f 42 37 43
f 42 43 48
o cell_0_4
v 28.867513 0.000000 -50.000000
v 14.433757 0.000000 -25.000000
v -14.433757 0.000000 -25.000000
v -28.867513 0.000000 -50.000000
v -14.433757 0.000000 -75.000000
v 14.433757 0.000000 -75.000000
v 28.867513 3.000000 -50.000000
v 14.433757 3.000000 -25.000000
v -14.433757 3.000000 -25.000000
v -28.867513 3.000000 -50.000000
v -14.433757 3.000000 -75.000000
v 14.433757 3.000000 -75.000000
f 49 51 50
f 49 52 51
f 49 53 52
f 49 54 53
f 55 56 57
f 55 57 58
f 55 58 59
f 55 59 60
f 49 50 56
f 49 56 55
f 50 51 57
f 50 57 56
f 51 52 58
f 51 58 57
f 52 53 59
f 52 59 58
f 53 54 60
f 53 60 59
f 54 49 55
f 54 55 60
o cell_1_2
v 72.168784 0.000000 25.000000
v 57.735027 0.000000 50.000000
v 28.867513 0.000000 50.000000
v 14.433757 0.000000 25.000000
v 28.867513 0.000000 0.000000
v 57.735027 0.000000 0.000000
v 72.168784 3.000000 25.000000
v 57.735027 3.000000 50.000000
v 28.867513 3.000000 50.000000
v 14.433757 3.000000 25.000000
v 28.867513 3.000000 0.000000
v 57.735027 3.000000 0.000000
f 61 63 62
f 61 64 63
f 61 65 64
f 61 66 65
f 67 68 69
f 67 69 70
f 67 70 71
f 67 71 72
f 61 62 68
f 61 68 67
f 62 63 69
f 62 69 68
f 63 64 70
f 63 70 69
f 64 65 71
f 64 71 70
f 65 66 72
f 65 72 71
f 66 61 67
f 66 67 72
o cell_1_3
v 72.168784 0.000000 -25.000000
v 57.735027 0.000000 0.000000
v 28.867513 0.000000 0.000000
v 14.433757 0.000000 -25.000000
v 28.867513 0.000000 -50.000000
v 57.735027 0.000000 -50.000000
v 72.168784 3.000000 -25.000000
v 57.735027 3.000000 0.000000
v 28.867513 3.000000 0.000000
v 14.433757 3.000000 -25.000000
v 28.867513 3.000000 -50.000000
v 57.735027 3.000000 -50.000000
f 73 75 74
f 73 76 75
f 73 77 76
f 73 78 77
f 79 80 81
f 79 81 82
f 79 82 83
f 79 83 84
f 73 74 80
f 73 80 79
f 74 75 81
f 74 81 80
f 75 76 82
f 75 82 81
f 76 77 83
f 76 83 82
f 77 78 84
f 77 84 83
f 78 73 79
f 78 79 84