# WaveFront *.obj file (generated by Autodesk ATF)

mtllib Home Hex.mtl

g Body1

v 42.723949 76.000000 0.000000
v 42.723949 76.000000 1.000000
v 15.011149 76.000000 1.000000
v 15.011149 76.000000 0.000000
v 42.723949 74.000000 1.000000
v 42.723949 74.000000 -0.000000
v 15.011149 74.000000 0.000000
v 15.011149 74.000000 1.000000
v 56.580301 100.000000 0.000000
v 56.580301 100.000000 1.000000
v 42.723949 124.000000 1.000000
v 15.011149 124.000000 1.000000
v 1.154701 100.000000 1.000000
v 1.154701 50.000000 1.000000
v 15.011149 26.000000 1.000000
v 42.723949 26.000000 1.000000
v 56.580301 50.000000 1.000000
v 101.613649 74.000000 1.000000
v 87.757201 50.000000 1.000000
v 101.613649 26.000000 1.000000
v 129.326451 26.000000 1.000000
v 143.182899 50.000000 1.000000
v 129.326451 74.000000 1.000000
v 58.312351 99.000000 1.000000
v 44.455999 75.000000 1.000000
v 58.312351 51.000000 1.000000
v 86.025151 51.000000 1.000000
v 99.881599 75.000000 1.000000
v 86.025151 99.000000 1.000000
v 86.025151 49.000000 1.000000
v 58.312351 49.000000 1.000000
v 44.455999 25.000000 1.000000
v 58.312351 1.000000 1.000000
v 86.025151 1.000000 1.000000
v 99.881599 25.000000 1.000000
v 101.613649 124.000000 1.000000
v 87.757201 100.000000 1.000000
v 101.613649 76.000000 1.000000
v 129.326451 76.000000 1.000000
v 143.182899 100.000000 1.000000
v 129.326451 124.000000 1.000000
v 99.881599 125.000000 1.000000
v 86.025151 149.000000 1.000000
v 58.312351 149.000000 1.000000
v 44.455999 125.000000 1.000000
v 58.312351 101.000000 1.000000
v 86.025151 101.000000 1.000000
v 14.433800 75.000000 1.000000
v 0.000000 100.000000 1.000000
v 14.433800 125.000000 1.000000
v 43.301300 125.000000 1.000000
v 57.735000 150.000000 1.000000
v 86.602500 150.000000 1.000000
v 101.036300 125.000000 1.000000
v 129.903800 125.000000 1.000000
v 144.337600 100.000000 1.000000
v 129.903800 75.000000 1.000000
v 144.337600 50.000000 1.000000
v 129.903800 25.000000 1.000000
v 101.036300 25.000000 1.000000
v 86.602500 0.000000 1.000000
v 57.735000 0.000000 1.000000
v 43.301300 25.000000 1.000000
v 14.433800 25.000000 1.000000
v 0.000000 50.000000 1.000000
v 1.154701 100.000000 0.000000
v 15.011149 124.000000 0.000000
v 42.723949 124.000000 0.000000
v 99.881599 125.000000 0.000000
v 86.025151 101.000000 0.000000
v 101.613649 124.000000 0.000000
v 87.757201 100.000000 0.000000
v 58.312351 101.000000 0.000000
v 101.613649 76.000000 0.000000
v 129.326451 124.000000 0.000000
v 143.182899 100.000000 0.000000
v 129.326451 76.000000 0.000000
v 44.455999 125.000000 -0.000000
v 58.312351 149.000000 0.000000
v 86.025151 149.000000 0.000000
v 58.312351 51.000000 0.000000
v 86.025151 51.000000 0.000000
v 44.455999 75.000000 0.000000
v 58.312351 99.000000 0.000000
v 56.580301 50.000000 -0.000000
v 86.025151 99.000000 0.000000
v 99.881599 75.000000 0.000000
v 101.613649 74.000000 0.000000
v 87.757201 50.000000 -0.000000
v 86.025151 49.000000 0.000000
v 58.312351 49.000000 0.000000
v 42.723949 26.000000 0.000000
v 15.011149 26.000000 0.000000
v 1.154701 50.000000 0.000000
v 99.881599 25.000000 0.000000
v 86.025151 1.000000 0.000000
v 58.312351 1.000000 0.000000
v 44.455999 25.000000 -0.000000
v 129.326451 74.000000 0.000000
v 143.182899 50.000000 0.000000
v 101.613649 26.000000 0.000000
v 129.326451 26.000000 0.000000
v 57.735000 150.000000 3.000000
v 86.602500 150.000000 3.000000
v 43.301300 125.000000 3.000000
v 14.433800 125.000000 3.000000
v 0.000000 100.000000 3.000000
v 14.433800 75.000000 3.000000
v 0.000000 50.000000 3.000000
v 14.433800 25.000000 3.000000
v 43.301300 25.000000 3.000000
v 57.735000 0.000000 3.000000
v 86.602500 0.000000 3.000000
v 101.036300 125.000000 3.000000
v 129.903800 125.000000 3.000000
v 144.337600 100.000000 3.000000
v 129.903800 75.000000 3.000000
v 144.337600 50.000000 3.000000
v 129.903800 25.000000 3.000000
v 101.036300 25.000000 3.000000
vt -0.100000 0.057735 0.000000
vt -0.000000 0.057735 0.000000
vt -0.100000 2.829015 0.000000
vt -0.000000 2.829015 0.000000
vt -0.200000 0.057735 0.000000
vt -0.100000 0.057735 0.000000
vt -0.200000 2.829015 0.000000
vt -0.100000 2.829015 0.000000
vt -0.000000 1.385639 0.000000
vt -0.100000 1.385639 0.000000
vt 0.000000 -1.385639 0.000000
vt -0.100000 -1.385639 0.000000
vt -7.600000 -2.771275 0.000000
vt -5.100000 -1.558845 0.000000
vt -5.200000 -1.385640 0.000000
vt -5.000000 -1.385640 0.000000
vt -5.200000 1.385640 0.000000
vt -5.000000 1.385640 0.000000
vt -5.100000 1.443375 0.000000
vt -2.600000 2.771285 0.000000
vt -2.600000 2.886755 0.000000
vt -0.100000 1.443375 0.000000
vt -0.200000 1.385640 0.000000
vt -0.200000 -1.385640 0.000000
vt -10.000000 -1.385640 0.000000
vt -10.100000 -1.558845 0.000000
vt -7.700000 -2.944480 0.000000
vt -7.500000 -2.944480 0.000000
vt -7.500000 -5.715760 0.000000
vt -7.700000 -5.715760 0.000000
vt -7.600000 -5.888965 0.000000
vt -10.100000 -7.101405 0.000000
vt -10.000000 -7.274610 0.000000
vt -10.100000 -7.216875 0.000000
vt -10.100000 -10.103625 0.000000
vt -10.000000 1.385640 0.000000
vt -10.100000 1.443375 0.000000
vt -10.100000 -1.443375 0.000000
vt -12.600000 -2.886745 0.000000
vt -12.500000 -2.944480 0.000000
vt -12.600000 -5.773495 0.000000
vt -12.500000 -5.715760 0.000000
vt -7.600000 2.771285 0.000000
vt -7.600000 2.886755 0.000000
vt -2.600000 -2.771275 0.000000
vt -0.100000 -1.558845 0.000000
vt -0.100000 -1.443375 0.000000
vt -2.700000 -2.944480 0.000000
vt -2.500000 -2.944480 0.000000
vt -2.500000 -5.715760 0.000000
vt -2.700000 -5.715760 0.000000
vt -2.600000 -5.888965 0.000000
vt -5.100000 -7.101405 0.000000
vt -5.000000 -7.274610 0.000000
vt -5.200000 -7.274610 0.000000
vt -5.000000 -10.045890 0.000000
vt -5.200000 -10.045890 0.000000
vt -5.100000 -10.103625 0.000000
vt -7.600000 -11.431535 0.000000
vt -7.600000 -11.547005 0.000000
vt -10.000000 -10.045890 0.000000
vt -0.100000 -7.101405 0.000000
vt -0.200000 -7.274610 0.000000
vt -0.100000 -7.216875 0.000000
vt -0.100000 -10.103625 0.000000
vt -0.200000 -10.045890 0.000000
vt -2.600000 -11.431535 0.000000
vt -2.600000 -11.547005 0.000000
vt 2.400000 -2.886745 0.000000
vt 2.300000 -2.944480 0.000000
vt 2.400000 -5.773495 0.000000
vt 2.300000 -5.715760 0.000000
vt 2.944485 0.100000 0.000000
vt 5.715765 0.100000 0.000000
vt 1.558850 2.500000 0.000000
vt 7.101410 2.500000 0.000000
vt 5.715765 4.900000 0.000000
vt 2.944485 4.900000 0.000000
vt -0.100000 0.057735 0.000000
vt -0.000000 0.057735 0.000000
vt -0.100000 2.829018 0.000000
vt -0.000000 2.829018 0.000000
vt -0.100000 0.057735 0.000000
vt -0.000000 0.057735 0.000000
vt -0.100000 2.829019 0.000000
vt -0.000000 2.829019 0.000000
vt -0.200000 0.057735 0.000000
vt -0.100000 0.057735 0.000000
vt -0.200000 2.829018 0.000000
vt -0.100000 2.829018 0.000000
vt -0.100000 0.057735 0.000000
vt -0.000000 0.057735 0.000000
vt -0.100000 2.829015 0.000000
vt -0.000000 2.829015 0.000000
vt -0.000000 2.829018 0.000000
vt -0.100000 2.829018 0.000000
vt -0.000000 0.057735 0.000000
vt -0.100000 0.057735 0.000000
vt -2.944485 4.900000 0.000000
vt -5.715765 4.900000 0.000000
vt -1.558840 2.500000 0.000000
vt -7.101410 2.500000 0.000000
vt -2.944485 0.100000 0.000000
vt -5.715765 0.100000 0.000000
vt -1.385635 7.400000 0.000000
vt -2.771280 5.000000 0.000000
vt 2.771280 5.000000 0.000000
vt -1.385635 2.600000 0.000000
vt 1.385645 2.600000 0.000000
vt 1.385645 7.400000 0.000000
vt -0.100000 2.829013 0.000000
vt -0.200000 2.829013 0.000000
vt -0.100000 0.057735 0.000000
vt -0.200000 0.057735 0.000000
vt -0.000000 2.829014 0.000000
vt -0.100000 2.829014 0.000000
vt -0.000000 0.057735 0.000000
vt -0.100000 0.057735 0.000000
vt -0.100000 0.057735 0.000000
vt -0.000000 0.057735 0.000000
vt -0.100000 2.829013 0.000000
vt -0.000000 2.829013 0.000000
vt -0.100000 2.829015 0.000000
vt -0.200000 2.829015 0.000000
vt -0.100000 0.057735 0.000000
vt -0.200000 0.057735 0.000000
vt -0.100000 2.829013 0.000000
vt -0.200000 2.829013 0.000000
vt -0.100000 0.057735 0.000000
vt -0.200000 0.057735 0.000000
vt -0.100000 1.385639 0.000000
vt -0.200000 1.385639 0.000000
vt -0.100000 -1.385639 0.000000
vt -0.200000 -1.385639 0.000000
vt -0.100000 0.057735 0.000000
vt -0.000000 0.057735 0.000000
vt -0.100000 2.829014 0.000000
vt -0.000000 2.829014 0.000000
vt -0.100000 2.829015 0.000000
vt -0.200000 2.829015 0.000000
vt -0.100000 0.057735 0.000000
vt -0.200000 0.057735 0.000000
vt -0.100000 2.829019 0.000000
vt -0.200000 2.829019 0.000000
vt -0.100000 0.057735 0.000000
vt -0.200000 0.057735 0.000000
vt -0.100000 2.829018 0.000000
vt -0.200000 2.829018 0.000000
vt -0.100000 0.057735 0.000000
vt -0.200000 0.057735 0.000000
vt -0.000000 2.829019 0.000000
vt -0.100000 2.829019 0.000000
vt -0.000000 0.057735 0.000000
vt -0.100000 0.057735 0.000000
vt -0.000000 2.829015 0.000000
vt -0.100000 2.829015 0.000000
vt -0.000000 0.057735 0.000000
vt -0.100000 0.057735 0.000000
vt -0.000000 2.829015 0.000000
vt -0.100000 2.829015 0.000000
vt -0.000000 0.057735 0.000000
vt -0.100000 0.057735 0.000000
vt -0.100000 0.057735 0.000000
vt -0.000000 0.057735 0.000000
vt -0.100000 2.829013 0.000000
vt -0.000000 2.829013 0.000000
vt 2.944485 -0.100000 0.000000
vt 1.558850 -2.500000 0.000000
vt 5.715765 -0.100000 0.000000
vt 7.101410 -2.500000 0.000000
vt 5.715765 -4.900000 0.000000
vt 2.944485 -4.900000 0.000000
vt 1.385645 -2.600000 0.000000
vt -1.385635 -2.600000 0.000000
vt 2.771280 -5.000000 0.000000
vt -2.771280 -5.000000 0.000000
vt -1.385635 -7.400000 0.000000
vt 1.385645 -7.400000 0.000000
vt 1.385645 2.400000 0.000000
vt -1.385635 2.400000 0.000000
vt 2.771280 0.000000 0.000000
vt -2.771280 0.000000 0.000000
vt -1.385635 -2.400000 0.000000
vt 1.385645 -2.400000 0.000000
vt -0.100000 2.829015 0.000000
vt -0.200000 2.829015 0.000000
vt -0.100000 0.057735 0.000000
vt -0.200000 0.057735 0.000000
vt -0.000000 0.057735 0.000000
vt -0.100000 2.829018 0.000000
vt -0.000000 2.829018 0.000000
vt -0.100000 0.057735 0.000000
vt -0.000000 0.057735 0.000000
vt -0.100000 2.829018 0.000000
vt -0.000000 2.829018 0.000000
vt -0.200000 0.057735 0.000000
vt -0.100000 0.057735 0.000000
vt -0.200000 2.829019 0.000000
vt -0.100000 2.829019 0.000000
vt -0.100000 0.057735 0.000000
vt -0.000000 0.057735 0.000000
vt -0.100000 2.829019 0.000000
vt -0.000000 2.829019 0.000000
vt -0.200000 0.057735 0.000000
vt -0.100000 0.057735 0.000000
vt -0.200000 2.829014 0.000000
vt -0.100000 2.829014 0.000000
vt -0.100000 -1.385640 0.000000
vt 0.000000 -1.385640 0.000000
vt -0.100000 1.385640 0.000000
vt -0.000000 1.385640 0.000000
vt -0.000000 2.829018 0.000000
vt -0.100000 2.829018 0.000000
vt -0.000000 0.057735 0.000000
vt -0.100000 0.057735 0.000000
vt -0.100000 0.057735 0.000000
vt -0.000000 0.057735 0.000000
vt -0.100000 2.829015 0.000000
vt -0.000000 2.829015 0.000000
vt -0.100000 0.057735 0.000000
vt -0.000000 0.057735 0.000000
vt -0.100000 2.829018 0.000000
vt -0.000000 2.829018 0.000000
vt -0.000000 2.829019 0.000000
vt -0.100000 2.829019 0.000000
vt -0.000000 0.057735 0.000000
vt -0.100000 0.057735 0.000000
vt -0.100000 0.057735 0.000000
vt -0.000000 0.057735 0.000000
vt -0.100000 2.829019 0.000000
vt -0.000000 2.829019 0.000000
vt 0.000000 2.829015 0.000000
vt -0.100000 2.829015 0.000000
vt 0.000000 0.057735 0.000000
vt -0.100000 0.057735 0.000000
vt -0.100000 0.057735 0.000000
vt -0.000000 0.057735 0.000000
vt -0.100000 2.829015 0.000000
vt -0.000000 2.829015 0.000000
vt -0.000000 2.829014 0.000000
vt -0.100000 2.829014 0.000000
vt -0.000000 0.057735 0.000000
vt -0.100000 0.057735 0.000000
vt -0.100000 0.057735 0.000000
vt -0.000000 0.057735 0.000000
vt -0.100000 2.829015 0.000000
vt -0.000000 2.829015 0.000000
vt -0.000000 2.829015 0.000000
vt -0.100000 2.829015 0.000000
vt -0.000000 0.057735 0.000000
vt -0.100000 0.057735 0.000000
vt -0.100000 0.057735 0.000000
vt -0.000000 0.057735 0.000000
vt -0.100000 2.829019 0.000000
vt -0.000000 2.829019 0.000000
vt -0.000000 2.829019 0.000000
vt -0.100000 2.829019 0.000000
vt -0.000000 0.057735 0.000000
vt -0.100000 0.057735 0.000000
vt -0.100000 0.057735 0.000000
vt -0.000000 0.057735 0.000000
vt -0.100000 2.829018 0.000000
vt -0.000000 2.829018 0.000000
vt -0.000000 0.100000 0.000000
vt 2.886750 0.100000 0.000000
vt -0.000000 0.300000 0.000000
vt 2.886750 0.300000 0.000000
vt -0.000000 0.100000 0.000000
vt 2.886749 0.100000 0.000000
vt -0.000000 0.300000 0.000000
vt 2.886749 0.300000 0.000000
vt -0.000000 0.100000 0.000000
vt 2.886750 0.100000 0.000000
vt -0.000000 0.300000 0.000000
vt 2.886750 0.300000 0.000000
vt -0.000000 0.100000 0.000000
vt 2.886754 0.100000 0.000000
vt 0.000000 0.300000 0.000000
vt 2.886754 0.300000 0.000000
vt -0.000000 0.100000 0.000000
vt 2.886754 0.100000 0.000000
vt -0.000000 0.300000 0.000000
vt 2.886754 0.300000 0.000000
vt -0.000000 0.100000 0.000000
vt 2.886754 0.100000 0.000000
vt 0.000000 0.300000 0.000000
vt 2.886754 0.300000 0.000000
vt -0.000000 0.100000 0.000000
vt 2.886754 0.100000 0.000000
vt -0.000000 0.300000 0.000000
vt 2.886754 0.300000 0.000000
vt 0.000000 0.100000 0.000000
vt 2.886750 0.100000 0.000000
vt -0.000000 0.300000 0.000000
vt 2.886750 0.300000 0.000000
vt 0.000000 0.100000 0.000000
vt 2.886749 0.100000 0.000000
vt 0.000000 0.300000 0.000000
vt 2.886749 0.300000 0.000000
vt 0.000000 0.100000 0.000000
vt 2.886750 0.100000 0.000000
vt 0.000000 0.300000 0.000000
vt 2.886750 0.300000 0.000000
vt 0.000000 0.100000 0.000000
vt 2.886754 0.100000 0.000000
vt 0.000000 0.300000 0.000000
vt 2.886754 0.300000 0.000000
vt -0.000000 0.100000 0.000000
vt 2.886750 0.100000 0.000000
vt -0.000000 0.300000 0.000000
vt 2.886750 0.300000 0.000000
vt 0.000000 0.100000 0.000000
vt 2.886754 0.100000 0.000000
vt 0.000000 0.300000 0.000000
vt 2.886754 0.300000 0.000000
vt 0.000000 0.100000 0.000000
vt 2.886754 0.100000 0.000000
vt 0.000000 0.300000 0.000000
vt 2.886754 0.300000 0.000000
vt 0.000000 0.100000 0.000000
vt 2.886754 0.100000 0.000000
vt 0.000000 0.300000 0.000000
vt 2.886754 0.300000 0.000000
vt 0.000000 0.100000 0.000000
vt 2.886754 0.100000 0.000000
vt 0.000000 0.300000 0.000000
vt 2.886754 0.300000 0.000000
vt 0.000000 0.100000 0.000000
vt 2.886750 0.100000 0.000000
vt 0.000000 0.300000 0.000000
vt 2.886750 0.300000 0.000000
vt 0.000000 0.100000 0.000000
vt 2.886754 0.100000 0.000000
vt 0.000000 0.300000 0.000000
vt 2.886754 0.300000 0.000000
vt -1.443380 -7.500000 0.000000
vt 1.443370 -7.500000 0.000000
vt -2.886750 -5.000000 0.000000
vt 2.886750 -5.000000 0.000000
vt -2.886750 5.000000 0.000000
vt 2.886750 5.000000 0.000000
vt 1.443370 7.500000 0.000000
vt 5.773500 0.000000 0.000000
vt 5.773500 -5.000000 0.000000
vt 7.216880 -2.500000 0.000000
vt 7.216880 2.500000 0.000000
vt 5.773500 5.000000 0.000000
vt -1.443380 7.500000 0.000000
vt -5.773500 0.000000 0.000000
vt -5.773500 5.000000 0.000000
vt -7.216880 2.500000 0.000000
vt -7.216880 -2.500000 0.000000
vt -5.773500 -5.000000 0.000000
vt -2.944485 -0.100000 0.000000
vt -5.715765 -0.100000 0.000000
vt -1.558840 -2.500000 0.000000
vt -7.101410 -2.500000 0.000000
vt -2.944485 -4.900000 0.000000
vt -5.715765 -4.900000 0.000000
vn 0.000000 -0.100000 0.000000
vn 0.000000 -0.100000 0.000000
vn 0.000000 -0.100000 0.000000
vn 0.000000 -0.100000 0.000000
vn 0.000000 0.100000 0.000000
vn 0.000000 0.100000 0.000000
vn 0.000000 0.100000 0.000000
vn 0.000000 0.100000 0.000000
vn 0.086603 -0.050000 0.000000
vn 0.086603 -0.050000 0.000000
vn 0.086603 -0.050000 0.000000
vn 0.086603 -0.050000 0.000000
vn 0.000000 0.000000 -0.100000
vn 0.000000 0.000000 -0.100000
vn 0.000000 0.000000 -0.100000
vn 0.000000 0.000000 -0.100000
vn 0.000000 0.000000 -0.100000
vn 0.000000 0.000000 -0.100000
vn 0.000000 0.000000 -0.100000
vn 0.000000 0.000000 -0.100000
vn 0.000000 0.000000 -0.100000
vn 0.000000 0.000000 -0.100000
vn 0.000000 0.000000 -0.100000
vn 0.000000 0.000000 -0.100000
vn 0.000000 0.000000 -0.100000
vn 0.000000 0.000000 -0.100000
vn 0.000000 0.000000 -0.100000
vn 0.000000 0.000000 -0.100000
vn 0.000000 0.000000 -0.100000
vn 0.000000 0.000000 -0.100000
vn 0.000000 0.000000 -0.100000
vn 0.000000 0.000000 -0.100000
vn 0.000000 0.000000 -0.100000
vn 0.000000 0.000000 -0.100000
vn 0.000000 0.000000 -0.100000
vn 0.000000 0.000000 -0.100000
vn 0.000000 0.000000 -0.100000
vn 0.000000 0.000000 -0.100000
vn 0.000000 0.000000 -0.100000
vn 0.000000 0.000000 -0.100000
vn 0.000000 0.000000 -0.100000
vn 0.000000 0.000000 -0.100000
vn 0.000000 0.000000 -0.100000
vn 0.000000 0.000000 -0.100000
vn 0.000000 0.000000 -0.100000
vn 0.000000 0.000000 -0.100000
vn 0.000000 0.000000 -0.100000
vn 0.000000 0.000000 -0.100000
vn 0.000000 0.000000 -0.100000
vn 0.000000 0.000000 -0.100000
vn 0.000000 0.000000 -0.100000
vn 0.000000 0.000000 -0.100000
vn 0.000000 0.000000 -0.100000
vn 0.000000 0.000000 -0.100000
vn 0.000000 0.000000 -0.100000
vn 0.000000 0.000000 -0.100000
vn 0.000000 0.000000 -0.100000
vn 0.000000 0.000000 -0.100000
vn 0.000000 0.000000 -0.100000
vn 0.000000 0.000000 -0.100000
vn 0.000000 0.000000 -0.100000
vn 0.000000 0.000000 -0.100000
vn 0.000000 0.000000 -0.100000
vn 0.000000 0.000000 -0.100000
vn 0.000000 0.000000 -0.100000
vn 0.000000 0.000000 -0.100000
vn 0.000000 0.000000 -0.100000
vn 0.000000 0.000000 -0.100000
vn 0.000000 0.000000 -0.100000
vn 0.000000 0.000000 -0.100000
vn 0.000000 0.000000 -0.100000
vn 0.000000 0.000000 -0.100000
vn 0.000000 0.000000 -0.100000
vn 0.000000 0.000000 -0.100000
vn 0.000000 0.000000 -0.100000
vn 0.000000 0.000000 -0.100000
vn 0.000000 0.000000 -0.100000
vn 0.000000 0.000000 -0.100000
vn -0.086602 -0.050000 0.000000
vn -0.086602 -0.050000 0.000000
vn -0.086602 -0.050000 0.000000
vn -0.086602 -0.050000 0.000000
vn 0.086602 -0.050000 0.000000
vn 0.086602 -0.050000 0.000000
vn 0.086602 -0.050000 0.000000
vn 0.086602 -0.050000 0.000000
vn -0.086602 0.050000 -0.000000
vn -0.086602 0.050000 -0.000000
vn -0.086602 0.050000 -0.000000
vn -0.086602 0.050000 -0.000000
vn 0.000000 -0.100000 0.000000
vn 0.000000 -0.100000 0.000000
vn 0.000000 -0.100000 0.000000
vn 0.000000 -0.100000 0.000000
vn -0.086602 -0.050000 0.000000
vn -0.086602 -0.050000 0.000000
vn -0.086602 -0.050000 0.000000
vn -0.086602 -0.050000 0.000000
vn 0.000000 0.000000 -0.100000
vn 0.000000 0.000000 -0.100000
vn 0.000000 0.000000 -0.100000
vn 0.000000 0.000000 -0.100000
vn 0.000000 0.000000 -0.100000
vn 0.000000 0.000000 -0.100000
vn 0.000000 0.000000 -0.100000
vn 0.000000 0.000000 -0.100000
vn 0.000000 0.000000 -0.100000
vn 0.000000 0.000000 -0.100000
vn 0.000000 0.000000 -0.100000
vn 0.000000 0.000000 -0.100000
vn -0.086603 -0.050000 0.000000
vn -0.086603 -0.050000 0.000000
vn -0.086603 -0.050000 0.000000
vn -0.086603 -0.050000 0.000000
vn 0.086603 0.050000 0.000000
vn 0.086603 0.050000 0.000000
vn 0.086603 0.050000 0.000000
vn 0.086603 0.050000 0.000000
vn -0.086603 0.050000 -0.000000
vn -0.086603 0.050000 -0.000000
vn -0.086603 0.050000 -0.000000
vn -0.086603 0.050000 -0.000000
vn 0.000000 -0.100000 0.000000
vn 0.000000 -0.100000 0.000000
vn 0.000000 -0.100000 0.000000
vn 0.000000 -0.100000 0.000000
vn -0.086603 -0.050000 0.000000
vn -0.086603 -0.050000 0.000000
vn -0.086603 -0.050000 0.000000
vn -0.086603 -0.050000 0.000000
vn -0.086603 0.050000 -0.000000
vn -0.086603 0.050000 -0.000000
vn -0.086603 0.050000 -0.000000
vn -0.086603 0.050000 -0.000000
vn 0.086603 0.050000 0.000000
vn 0.086603 0.050000 0.000000
vn 0.086603 0.050000 0.000000
vn 0.086603 0.050000 0.000000
vn -0.000000 0.100000 -0.000000
vn -0.000000 0.100000 -0.000000
vn -0.000000 0.100000 -0.000000
vn -0.000000 0.100000 -0.000000
vn 0.086602 0.050000 0.000000
vn 0.086602 0.050000 0.000000
vn 0.086602 0.050000 0.000000
vn 0.086602 0.050000 0.000000
vn 0.086602 -0.050000 0.000000
vn 0.086602 -0.050000 0.000000
vn 0.086602 -0.050000 0.000000
vn 0.086602 -0.050000 0.000000
vn -0.086602 0.050000 -0.000000
vn -0.086602 0.050000 -0.000000
vn -0.086602 0.050000 -0.000000
vn -0.086602 0.050000 -0.000000
vn -0.000000 0.100000 -0.000000
vn -0.000000 0.100000 -0.000000
vn -0.000000 0.100000 -0.000000
vn -0.000000 0.100000 -0.000000
vn 0.000000 -0.100000 0.000000
vn 0.000000 -0.100000 0.000000
vn 0.000000 -0.100000 0.000000
vn 0.000000 -0.100000 0.000000
vn 0.086603 -0.050000 0.000000
vn 0.086603 -0.050000 0.000000
vn 0.086603 -0.050000 0.000000
vn 0.086603 -0.050000 0.000000
vn 0.000000 0.000000 -0.100000
vn 0.000000 0.000000 -0.100000
vn 0.000000 0.000000 -0.100000
vn 0.000000 0.000000 -0.100000
vn 0.000000 0.000000 -0.100000
vn 0.000000 0.000000 -0.100000
vn 0.000000 0.000000 -0.100000
vn 0.000000 0.000000 -0.100000
vn 0.000000 0.000000 -0.100000
vn 0.000000 0.000000 -0.100000
vn 0.000000 0.000000 -0.100000
vn 0.000000 0.000000 -0.100000
vn 0.000000 0.000000 -0.100000
vn 0.000000 0.000000 -0.100000
vn 0.000000 0.000000 -0.100000
vn 0.000000 0.000000 -0.100000
vn 0.000000 0.000000 -0.100000
vn 0.000000 0.000000 -0.100000
vn 0.000000 0.100000 0.000000
vn 0.000000 0.100000 0.000000
vn 0.000000 0.100000 0.000000
vn 0.000000 0.100000 0.000000
vn 0.086602 0.050000 0.000000
vn 0.086602 0.050000 0.000000
vn 0.086602 0.050000 0.000000
vn 0.086602 0.050000 0.000000
vn 0.086602 0.050000 0.000000
vn 0.086602 0.050000 0.000000
vn 0.086602 0.050000 0.000000
vn 0.086602 0.050000 0.000000
vn -0.086602 -0.050000 0.000000
vn -0.086602 -0.050000 0.000000
vn -0.086602 -0.050000 0.000000
vn -0.086602 -0.050000 0.000000
vn 0.086602 -0.050000 0.000000
vn 0.086602 -0.050000 0.000000
vn 0.086602 -0.050000 0.000000
vn 0.086602 -0.050000 0.000000
vn -0.086603 0.050000 -0.000000
vn -0.086603 0.050000 -0.000000
vn -0.086603 0.050000 -0.000000
vn -0.086603 0.050000 -0.000000
vn 0.000000 -0.100000 0.000000
vn 0.000000 -0.100000 0.000000
vn 0.000000 -0.100000 0.000000
vn 0.000000 -0.100000 0.000000
vn 0.086602 0.050000 0.000000
vn 0.086602 0.050000 0.000000
vn 0.086602 0.050000 0.000000
vn 0.086602 0.050000 0.000000
vn -0.000000 0.100000 -0.000000
vn -0.000000 0.100000 -0.000000
vn -0.000000 0.100000 -0.000000
vn -0.000000 0.100000 -0.000000
vn 0.086602 0.050000 0.000000
vn 0.086602 0.050000 0.000000
vn 0.086602 0.050000 0.000000
vn 0.086602 0.050000 0.000000
vn 0.086602 -0.050000 0.000000
vn 0.086602 -0.050000 0.000000
vn 0.086602 -0.050000 0.000000
vn 0.086602 -0.050000 0.000000
vn 0.086602 -0.050000 0.000000
vn 0.086602 -0.050000 0.000000
vn 0.086602 -0.050000 0.000000
vn 0.086602 -0.050000 0.000000
vn 0.000000 -0.100000 0.000000
vn 0.000000 -0.100000 0.000000
vn 0.000000 -0.100000 0.000000
vn 0.000000 -0.100000 0.000000
vn 0.000000 -0.100000 0.000000
vn 0.000000 -0.100000 0.000000
vn 0.000000 -0.100000 0.000000
vn 0.000000 -0.100000 0.000000
vn -0.086603 -0.050000 0.000000
vn -0.086603 -0.050000 0.000000
vn -0.086603 -0.050000 0.000000
vn -0.086603 -0.050000 0.000000
vn -0.000000 0.100000 -0.000000
vn -0.000000 0.100000 -0.000000
vn -0.000000 0.100000 -0.000000
vn -0.000000 0.100000 -0.000000
vn -0.000000 0.100000 -0.000000
vn -0.000000 0.100000 -0.000000
vn -0.000000 0.100000 -0.000000
vn -0.000000 0.100000 -0.000000
vn -0.086602 0.050000 -0.000000
vn -0.086602 0.050000 -0.000000
vn -0.086602 0.050000 -0.000000
vn -0.086602 0.050000 -0.000000
vn -0.086602 0.050000 -0.000000
vn -0.086602 0.050000 -0.000000
vn -0.086602 0.050000 -0.000000
vn -0.086602 0.050000 -0.000000
vn -0.086602 -0.050000 0.000000
vn -0.086602 -0.050000 0.000000
vn -0.086602 -0.050000 0.000000
vn -0.086602 -0.050000 0.000000
vn 0.000000 0.100000 0.000000
vn 0.000000 0.100000 0.000000
vn 0.000000 0.100000 0.000000
vn 0.000000 0.100000 0.000000
vn -0.086603 0.050000 0.000000
vn -0.086603 0.050000 0.000000
vn -0.086603 0.050000 0.000000
vn -0.086603 0.050000 0.000000
vn 0.000000 0.100000 0.000000
vn 0.000000 0.100000 0.000000
vn 0.000000 0.100000 0.000000
vn 0.000000 0.100000 0.000000
vn -0.086602 0.050000 0.000000
vn -0.086602 0.050000 0.000000
vn -0.086602 0.050000 0.000000
vn -0.086602 0.050000 0.000000
vn -0.086602 -0.050000 0.000000
vn -0.086602 -0.050000 0.000000
vn -0.086602 -0.050000 0.000000
vn -0.086602 -0.050000 0.000000
vn -0.086602 0.050000 0.000000
vn -0.086602 0.050000 0.000000
vn -0.086602 0.050000 0.000000
vn -0.086602 0.050000 0.000000
vn -0.086602 -0.050000 0.000000
vn -0.086602 -0.050000 0.000000
vn -0.086602 -0.050000 0.000000
vn -0.086602 -0.050000 0.000000
vn 0.000000 -0.100000 0.000000
vn 0.000000 -0.100000 0.000000
vn 0.000000 -0.100000 0.000000
vn 0.000000 -0.100000 0.000000
vn -0.086603 -0.050000 0.000000
vn -0.086603 -0.050000 0.000000
vn -0.086603 -0.050000 0.000000
vn -0.086603 -0.050000 0.000000
vn 0.000000 -0.100000 0.000000
vn 0.000000 -0.100000 0.000000
vn 0.000000 -0.100000 0.000000
vn 0.000000 -0.100000 0.000000
vn 0.086602 0.050000 0.000000
vn 0.086602 0.050000 0.000000
vn 0.086602 0.050000 0.000000
vn 0.086602 0.050000 0.000000
vn 0.000000 0.100000 0.000000
vn 0.000000 0.100000 0.000000
vn 0.000000 0.100000 0.000000
vn 0.000000 0.100000 0.000000
vn 0.086602 0.050000 0.000000
vn 0.086602 0.050000 0.000000
vn 0.086602 0.050000 0.000000
vn 0.086602 0.050000 0.000000
vn 0.086602 -0.050000 0.000000
vn 0.086602 -0.050000 0.000000
vn 0.086602 -0.050000 0.000000
vn 0.086602 -0.050000 0.000000
vn 0.086602 0.050000 0.000000
vn 0.086602 0.050000 0.000000
vn 0.086602 0.050000 0.000000
vn 0.086602 0.050000 0.000000
vn 0.086602 -0.050000 0.000000
vn 0.086602 -0.050000 0.000000
vn 0.086602 -0.050000 0.000000
vn 0.086602 -0.050000 0.000000
vn 0.000000 -0.100000 0.000000
vn 0.000000 -0.100000 0.000000
vn 0.000000 -0.100000 0.000000
vn 0.000000 -0.100000 0.000000
vn 0.086602 -0.050000 0.000000
vn 0.086602 -0.050000 0.000000
vn 0.086602 -0.050000 0.000000
vn 0.086602 -0.050000 0.000000
vn 0.000000 0.000000 0.100000
vn 0.000000 0.000000 0.100000
vn 0.000000 0.000000 0.100000
vn 0.000000 0.000000 0.100000
vn 0.000000 0.000000 0.100000
vn 0.000000 0.000000 0.100000
vn 0.000000 0.000000 0.100000
vn 0.000000 0.000000 0.100000
vn 0.000000 0.000000 0.100000
vn 0.000000 0.000000 0.100000
vn 0.000000 0.000000 0.100000
vn 0.000000 0.000000 0.100000
vn 0.000000 0.000000 0.100000
vn 0.000000 0.000000 0.100000
vn 0.000000 0.000000 0.100000
vn 0.000000 0.000000 0.100000
vn 0.000000 0.000000 0.100000
vn 0.000000 0.000000 0.100000
vn 0.000000 0.000000 -0.100000
vn 0.000000 0.000000 -0.100000
vn 0.000000 0.000000 -0.100000
vn 0.000000 0.000000 -0.100000
vn 0.000000 0.000000 -0.100000
vn 0.000000 0.000000 -0.100000
usemtl Plastic_-_Matte_(Red)
f 1/1/1 2/2/2 4/3/3
f 4/3/3 2/2/2 3/4/4
f 5/5/5 6/6/6 8/7/7
f 8/7/7 6/6/6 7/8/8
f 2/9/9 1/10/10 10/11/11
f 10/11/11 1/10/10 9/12/12
f 10/13/13 25/14/14 2/15/15
f 2/15/15 25/14/14 5/16/16
f 2/15/15 5/16/16 3/17/17
f 3/17/17 5/16/16 8/18/18
f 3/17/17 8/18/18 48/19/19
f 48/19/19 8/18/18 14/20/20
f 48/19/19 14/20/20 65/21/21
f 65/21/21 14/20/20 64/22/22
f 64/22/22 14/20/20 15/23/23
f 64/22/22 15/23/23 16/24/24
f 11/25/25 45/26/26 10/13/13
f 10/13/13 45/26/26 46/27/27
f 10/13/13 46/27/27 24/28/28
f 24/28/28 46/27/27 29/29/29
f 29/29/29 46/27/27 47/30/30
f 29/29/29 47/30/30 37/31/31
f 37/31/31 47/30/30 42/32/32
f 37/31/31 42/32/32 36/33/33
f 36/33/33 42/32/32 54/34/34
f 36/33/33 54/34/34 55/35/35
f 12/36/36 50/37/37 11/25/25
f 11/25/25 50/37/37 51/38/38
f 11/25/25 51/38/38 45/26/26
f 45/26/26 51/38/38 52/39/39
f 45/26/26 52/39/39 44/40/40
f 44/40/40 52/39/39 53/41/41
f 44/40/40 53/41/41 43/42/42
f 43/42/42 53/41/41 42/32/32
f 42/32/32 53/41/41 54/34/34
f 12/36/36 13/43/43 50/37/37
f 50/37/37 13/43/43 49/44/44
f 49/44/44 13/43/43 48/19/19
f 48/19/19 13/43/43 3/17/17
f 17/45/45 32/46/46 16/24/24
f 16/24/24 32/46/46 63/47/47
f 16/24/24 63/47/47 64/22/22
f 5/16/16 25/14/14 17/45/45
f 17/45/45 25/14/14 26/48/48
f 17/45/45 26/48/48 31/49/49
f 31/49/49 26/48/48 30/50/50
f 30/50/50 26/48/48 27/51/51
f 30/50/50 27/51/51 19/52/52
f 19/52/52 27/51/51 28/53/53
f 19/52/52 28/53/53 18/54/54
f 18/54/54 28/53/53 38/55/55
f 18/54/54 38/55/55 23/56/56
f 23/56/56 38/55/55 39/57/57
f 23/56/56 39/57/57 57/58/58
f 57/58/58 39/57/57 40/59/59
f 57/58/58 40/59/59 56/60/60
f 56/60/60 40/59/59 55/35/35
f 55/35/35 40/59/59 41/61/61
f 55/35/35 41/61/61 36/33/33
f 30/50/50 19/52/52 35/62/62
f 35/62/62 19/52/52 20/63/63
f 35/62/62 20/63/63 60/64/64
f 60/64/64 20/63/63 59/65/65
f 59/65/65 20/63/63 21/66/66
f 59/65/65 21/66/66 22/67/67
f 23/56/56 57/58/58 22/67/67
f 22/67/67 57/58/58 58/68/68
f 22/67/67 58/68/68 59/65/65
f 24/28/28 25/14/14 10/13/13
f 38/55/55 28/53/53 37/31/31
f 37/31/31 28/53/53 29/29/29
f 31/49/49 32/46/46 17/45/45
f 63/47/47 32/46/46 62/69/69
f 62/69/69 32/46/46 33/70/70
f 62/69/69 33/70/70 61/71/71
f 61/71/71 33/70/70 34/72/72
f 61/71/71 34/72/72 35/62/62
f 60/64/64 61/71/71 35/62/62
f 1/73/73 4/74/74 9/75/75
f 9/75/75 4/74/74 66/76/76
f 9/75/75 66/76/76 67/77/77
f 67/77/77 68/78/78 9/75/75
f 4/79/79 3/80/80 66/81/81
f 66/81/81 3/80/80 13/82/82
f 69/83/83 42/84/84 70/85/85
f 70/85/85 42/84/84 47/86/86
f 36/87/87 71/88/88 37/89/89
f 37/89/89 71/88/88 72/90/90
f 70/91/91 47/92/92 73/93/93
f 73/93/93 47/92/92 46/94/94
f 37/95/95 72/96/96 38/97/97
f 38/97/97 72/96/96 74/98/98
f 71/99/99 75/100/100 72/101/101
f 72/101/101 75/100/100 76/102/102
f 72/101/101 76/102/102 74/103/103
f 74/103/103 76/102/102 77/104/104
f 80/105/105 69/106/106 78/107/107
f 78/107/107 69/106/106 70/108/108
f 78/107/107 70/108/108 73/109/109
f 78/107/107 79/110/110 80/105/105
f 73/111/111 46/112/112 78/113/113
f 78/113/113 46/112/112 45/114/114
f 10/115/115 9/116/116 11/117/117
f 11/117/117 9/116/116 68/118/118
f 78/119/119 45/120/120 79/121/121
f 79/121/121 45/120/120 44/122/122
f 82/123/123 27/124/124 81/125/125
f 81/125/125 27/124/124 26/126/126
f 81/127/127 26/128/128 83/129/129
f 83/129/129 26/128/128 25/130/130
f 83/131/131 25/132/132 84/133/133
f 84/133/133 25/132/132 24/134/134
f 6/135/135 5/136/136 85/137/137
f 85/137/137 5/136/136 17/138/138
f 84/139/139 24/140/140 86/141/141
f 86/141/141 24/140/140 29/142/142
f 86/143/143 29/144/144 87/145/145
f 87/145/145 29/144/144 28/146/146
f 87/147/147 28/148/148 82/149/149
f 82/149/149 28/148/148 27/150/150
f 18/151/151 88/152/152 19/153/153
f 19/153/153 88/152/152 89/154/154
f 30/155/155 90/156/156 31/157/157
f 31/157/157 90/156/156 91/158/158
f 38/159/159 74/160/160 39/161/161
f 39/161/161 74/160/160 77/162/162
f 85/163/163 17/164/164 92/165/165
f 92/165/165 17/164/164 16/166/166
f 6/167/167 85/168/168 7/169/169
f 7/169/169 85/168/168 94/170/170
f 94/170/170 85/168/168 93/171/171
f 93/171/171 85/168/168 92/172/172
f 91/173/173 90/174/174 98/175/175
f 98/175/175 90/174/174 95/176/176
f 98/175/175 95/176/176 96/177/177
f 96/177/177 97/178/178 98/175/175
f 84/179/179 86/180/180 83/181/181
f 83/181/181 86/180/180 87/182/182
f 83/181/181 87/182/182 82/183/183
f 82/183/183 81/184/184 83/181/181
f 88/185/185 18/186/186 99/187/187
f 99/187/187 18/186/186 23/188/188
f 99/187/189 23/189/190 100/190/191
f 100/190/191 23/189/190 22/191/192
f 90/192/193 30/193/194 95/194/195
f 95/194/195 30/193/194 35/195/196
f 19/196/197 89/197/198 20/198/199
f 20/198/199 89/197/198 101/199/200
f 95/200/201 35/201/202 96/202/203
f 96/202/203 35/201/202 34/203/204
f 31/204/205 91/205/206 32/206/207
f 32/206/207 91/205/206 98/207/208
f 92/208/209 16/209/210 93/210/211
f 93/210/211 16/209/210 15/211/212
f 42/212/213 69/213/214 43/214/215
f 43/214/215 69/213/214 80/215/216
f 71/216/217 36/217/218 75/218/219
f 75/218/219 36/217/218 41/219/220
f 75/220/221 41/221/222 76/222/223
f 76/222/223 41/221/222 40/223/224
f 39/224/225 77/225/226 40/226/227
f 40/226/227 77/225/226 76/227/228
f 100/228/229 22/229/230 102/230/231
f 102/230/231 22/229/230 21/231/232
f 20/232/233 101/233/234 21/234/235
f 21/234/235 101/233/234 102/235/236
f 96/236/237 34/237/238 97/238/239
f 97/238/239 34/237/238 33/239/240
f 32/240/241 98/241/242 33/242/243
f 33/242/243 98/241/242 97/243/244
f 79/244/245 44/245/246 80/246/247
f 80/246/247 44/245/246 43/247/248
f 11/248/249 68/249/250 12/250/251
f 12/250/251 68/249/250 67/251/252
f 66/252/253 13/253/254 67/254/255
f 67/254/255 13/253/254 12/255/256
f 8/256/257 7/257/258 14/258/259
f 14/258/259 7/257/258 94/259/260
f 93/260/261 15/261/262 94/262/263
f 94/262/263 15/261/262 14/263/264
f 53/264/265 52/265/266 104/266/267
f 104/266/267 52/265/266 103/267/268
f 52/268/269 51/269/270 103/270/271
f 103/270/271 51/269/270 105/271/272
f 51/272/273 50/273/274 105/274/275
f 105/274/275 50/273/274 106/275/276
f 50/276/277 49/277/278 106/278/279
f 106/278/279 49/277/278 107/279/280
f 49/280/281 48/281/282 107/282/283
f 107/282/283 48/281/282 108/283/284
f 48/284/285 65/285/286 108/286/287
f 108/286/287 65/285/286 109/287/288
f 65/288/289 64/289/290 109/290/291
f 109/290/291 64/289/290 110/291/292
f 64/292/293 63/293/294 110/294/295
f 110/294/295 63/293/294 111/295/296
f 63/296/297 62/297/298 111/298/299
f 111/298/299 62/297/298 112/299/300
f 62/300/301 61/301/302 112/302/303
f 112/302/303 61/301/302 113/303/304
f 54/304/305 53/305/306 114/306/307
f 114/306/307 53/305/306 104/307/308
f 55/308/309 54/309/310 115/310/311
f 115/310/311 54/309/310 114/311/312
f 56/312/313 55/313/314 116/314/315
f 116/314/315 55/313/314 115/315/316
f 57/316/317 56/317/318 117/318/319
f 117/318/319 56/317/318 116/319/320
f 58/320/321 57/321/322 118/322/323
f 118/322/323 57/321/322 117/323/324
f 59/324/325 58/325/326 119/326/327
f 119/326/327 58/325/326 118/327/328
f 60/328/329 59/329/330 120/330/331
f 120/330/331 59/329/330 119/331/332
f 61/332/333 60/333/334 113/334/335
f 113/334/335 60/333/334 120/335/336
f 112/336/337 113/337/338 111/338/339
f 111/338/339 113/337/338 120/339/340
f 111/338/339 120/339/340 105/340/341
f 105/340/341 120/339/340 114/341/342
f 105/340/341 114/341/342 104/342/343
f 114/341/342 120/339/340 117/343/344
f 117/343/344 120/339/340 119/344/345
f 117/343/344 119/344/345 118/345/346
f 116/346/347 115/347/348 117/343/344
f 117/343/344 115/347/348 114/341/342
f 104/342/343 103/348/349 105/340/341
f 111/338/339 105/340/341 108/349/350
f 108/349/350 105/340/341 106/350/351
f 108/349/350 106/350/351 107/351/352
f 109/352/353 110/353/354 108/349/350
f 108/349/350 110/353/354 111/338/339
f 88/354/355 99/355/356 89/356/357
f 89/356/357 99/355/356 100/357/358
f 89/356/357 100/357/358 101/358/359
f 101/358/359 100/357/358 102/359/360
# 120 vertices
# 359 texture params
# 360 normals
# 236 facets

# 1 groups
