# Blender 5.2.0 LTS
# www.blender.org
o Home_Hex
v 29.444851 3.000000 -1.000000
v 29.444851 2.000000 -1.000000
v 57.157650 2.000000 -1.000000
v 57.157650 3.000000 -1.000000
v 29.444851 2.000000 1.000000
v 29.444851 3.000000 1.000000
v 57.157650 3.000000 1.000000
v 57.157650 2.000000 1.000000
v 15.588499 2.999998 -25.000000
v 15.588499 1.999998 -25.000000
v 29.444851 1.999996 -49.000000
v 57.157650 1.999996 -49.000000
v 71.014099 1.999998 -25.000000
v 71.014099 2.000002 25.000000
v 57.157650 2.000004 49.000000
v 29.444851 2.000004 49.000000
v 15.588499 2.000002 25.000000
v -29.444849 2.000000 1.000000
v -15.588401 2.000002 25.000000
v -29.444849 2.000004 49.000000
v -57.157650 2.000004 49.000000
v -71.014099 2.000002 25.000000
v -57.157650 2.000000 1.000000
v 13.856449 1.999998 -24.000000
v 27.712801 2.000000 0.000000
v 13.856449 2.000002 24.000000
v -13.856351 2.000002 24.000000
v -27.712799 2.000000 0.000000
v -13.856351 1.999998 -24.000000
v -13.856351 2.000002 26.000000
v 13.856449 2.000002 26.000000
v 27.712801 2.000004 50.000000
v 13.856449 2.000005 74.000000
v -13.856351 2.000005 74.000000
v -27.712799 2.000004 50.000000
v -29.444849 1.999996 -49.000000
v -15.588401 1.999998 -25.000000
v -29.444849 2.000000 -1.000000
v -57.157650 2.000000 -1.000000
v -71.014099 1.999998 -25.000000
v -57.157650 1.999996 -49.000000
v -27.712799 1.999996 -50.000000
v -13.856351 1.999994 -74.000000
v 13.856449 1.999994 -74.000000
v 27.712801 1.999996 -50.000000
v 13.856449 1.999998 -26.000000
v -13.856351 1.999998 -26.000000
v 57.735001 2.000000 0.000000
v 72.168800 1.999998 -25.000000
v 57.735001 1.999996 -50.000000
v 28.867500 1.999996 -50.000000
v 14.433800 1.999994 -75.000000
v -14.433700 1.999994 -75.000000
v -28.867500 1.999996 -50.000000
v -57.735001 1.999996 -50.000000
v -72.168800 1.999998 -25.000000
v -57.735001 2.000000 0.000000
v -72.168800 2.000002 25.000000
v -57.735001 2.000004 50.000000
v -28.867500 2.000004 50.000000
v -14.433700 2.000006 75.000000
v 14.433800 2.000006 75.000000
v 28.867500 2.000004 50.000000
v 57.735001 2.000004 50.000000
v 72.168800 2.000002 25.000000
v 71.014099 2.999998 -25.000000
v 57.157650 2.999996 -49.000000
v 29.444851 2.999996 -49.000000
v -27.712799 2.999996 -50.000000
v -13.856351 2.999998 -26.000000
v -29.444849 2.999996 -49.000000
v -15.588401 2.999998 -25.000000
v 13.856449 2.999998 -26.000000
v -29.444849 3.000000 -1.000000
v -57.157650 2.999996 -49.000000
v -71.014099 2.999998 -25.000000
v -57.157650 3.000000 -1.000000
v 27.712801 2.999996 -50.000000
v 13.856449 2.999995 -74.000000
v -13.856351 2.999995 -74.000000
v 13.856449 3.000002 24.000000
v -13.856351 3.000002 24.000000
v 27.712801 3.000000 0.000000
v 13.856449 2.999998 -24.000000
v 15.588499 3.000002 25.000000
v -13.856351 2.999998 -24.000000
v -27.712799 3.000000 0.000000
v -29.444849 3.000000 1.000000
v -15.588401 3.000002 25.000000
v -13.856351 3.000002 26.000000
v 13.856449 3.000002 26.000000
v 29.444851 3.000004 49.000000
v 57.157650 3.000004 49.000000
v 71.014099 3.000002 25.000000
v -27.712799 3.000004 50.000000
v -13.856351 3.000005 74.000000
v 13.856449 3.000005 74.000000
v 27.712801 3.000004 50.000000
v -57.157650 3.000000 1.000000
v -71.014099 3.000002 25.000000
v -29.444849 3.000004 49.000000
v -57.157650 3.000004 49.000000
v 14.433800 -0.000006 -75.000000
v -14.433700 -0.000006 -75.000000
v 28.867500 -0.000004 -50.000000
v 57.735001 -0.000004 -50.000000
v 72.168800 -0.000002 -25.000000
v 57.735001 0.000000 0.000000
v 72.168800 0.000002 25.000000
v 57.735001 0.000004 50.000000
v 28.867500 0.000004 50.000000
v 14.433800 0.000006 75.000000
v -14.433700 0.000006 75.000000
v -28.867500 -0.000004 -50.000000
v -57.735001 -0.000004 -50.000000
v -72.168800 -0.000002 -25.000000
v -57.735001 0.000000 0.000000
v -72.168800 0.000002 25.000000
v -57.735001 0.000004 50.000000
v -28.867500 0.000004 50.000000
vn 0.000000 0.000000 1.000000
vn 0.000000 0.000000 -1.000000
vn -0.866000 0.000000 0.500000
vn 0.000000 1.000000 0.000000
vn 0.866000 0.000000 0.500000
vn 0.866000 0.000000 -0.500000
vn -0.866000 0.000000 -0.500000
vn 0.000000 -1.000000 0.000000
vt 0.475822 0.689982
vt 0.475822 0.773319
vt 0.776736 0.511082
vt 0.776736 0.594419
vt 0.547994 0.648313
vt 0.181468 0.309837
vt 0.264805 0.303822
vt 0.264805 0.309837
vt 0.270013 0.306829
vt 0.306473 0.382008
vt 0.311682 0.379001
vt 0.309946 0.382008
vt 0.395019 0.379001
vt 0.396755 0.382008
vt 0.440160 0.306829
vt 0.436687 0.306829
vt 0.395019 0.234657
vt 0.139799 0.382009
vt 0.134591 0.379001
vt 0.176259 0.306830
vt 0.181468 0.303822
vt 0.139799 0.231651
vt 0.134591 0.234658
vt 0.134591 0.228643
vt 0.051254 0.234658
vt 0.051254 0.228643
vt 0.049518 0.231650
vt 0.006113 0.156471
vt 0.181468 0.454180
vt 0.179732 0.457188
vt 0.136327 0.382009
vt 0.049518 0.382009
vt 0.051254 0.379002
vt 0.006113 0.306830
vt 0.009585 0.306830
vt 0.264805 0.454180
vt 0.266541 0.457188
vt 0.311682 0.234658
vt 0.395019 0.228643
vt 0.396755 0.231650
vt 0.306473 0.231650
vt 0.311682 0.228643
vt 0.270013 0.156471
vt 0.264805 0.159478
vt 0.264805 0.153464
vt 0.181468 0.159478
vt 0.181468 0.153464
vt 0.176259 0.156471
vt 0.139799 0.081292
vt 0.134591 0.084299
vt 0.136327 0.081292
vt 0.051254 0.084299
vt 0.049518 0.081292
vt 0.009585 0.156471
vt 0.311682 0.084299
vt 0.306473 0.081292
vt 0.309946 0.081292
vt 0.266541 0.006113
vt 0.264805 0.009120
vt 0.181468 0.009120
vt 0.179732 0.006113
vt 0.440160 0.156471
vt 0.436687 0.156471
vt 0.396755 0.081292
vt 0.395019 0.084299
vt 0.006113 0.773319
vt 0.006113 0.689982
vt 0.078285 0.814987
vt 0.078285 0.648313
vt 0.150457 0.689982
vt 0.150457 0.773319
vt 0.547994 0.814987
vt 0.704564 0.648313
vt 0.632392 0.689982
vt 0.319253 0.594419
vt 0.319253 0.511082
vt 0.632392 0.773319
vt 0.391425 0.469414
vt 0.078285 0.636088
vt 0.006113 0.594419
vt 0.150457 0.594419
vt 0.006113 0.511082
vt 0.150457 0.511082
vt 0.078285 0.469414
vt 0.150457 0.952218
vt 0.078285 0.993887
vt 0.078285 0.827213
vt 0.006113 0.952218
vt 0.006113 0.868881
vt 0.150457 0.868881
vt 0.704564 0.814987
vt 0.620166 0.689982
vt 0.776736 0.773319
vt 0.162683 0.689982
vt 0.162683 0.773319
vt 0.234855 0.814987
vt 0.307027 0.773319
vt 0.704564 0.469414
vt 0.307027 0.689982
vt 0.234855 0.648313
vt 0.547995 0.636087
vt 0.475822 0.594419
vt 0.307027 0.868882
vt 0.307027 0.952219
vt 0.463597 0.511082
vt 0.632392 0.511082
vt 0.463596 0.952219
vt 0.391424 0.993887
vt 0.463596 0.868882
vt 0.391424 0.827213
vt 0.319252 0.868882
vt 0.319252 0.952219
vt 0.620166 0.868881
vt 0.620166 0.952218
vt 0.547994 0.827213
vt 0.547994 0.993887
vt 0.475822 0.952218
vt 0.475822 0.868881
vt 0.463596 0.689982
vt 0.463596 0.773319
vt 0.391424 0.648313
vt 0.391424 0.814987
vt 0.319252 0.773319
vt 0.319252 0.689982
vt 0.620166 0.594419
vt 0.620166 0.511082
vt 0.234855 0.827213
vt 0.475822 0.511082
vt 0.162683 0.868882
vt 0.234855 0.993887
vt 0.632392 0.594419
vt 0.776736 0.689982
vt 0.391424 0.636087
vt 0.463597 0.594419
vt 0.547994 0.469414
vt 0.162683 0.952219
vt 0.620166 0.773319
vt 0.704564 0.636087
vt 0.495790 0.382009
vt 0.452386 0.306830
vt 0.495790 0.231651
vt 0.452386 0.156471
vt 0.495790 0.081292
vt 0.582600 0.081292
vt 0.626004 0.006113
vt 0.712814 0.006113
vt 0.756218 0.081292
vt 0.843028 0.081292
vt 0.886432 0.156471
vt 0.582600 0.382009
vt 0.626005 0.457188
vt 0.712814 0.457188
vt 0.756219 0.382008
vt 0.843028 0.382008
vt 0.886433 0.306829
vt 0.843028 0.231650
vt 0.307027 0.594419
vt 0.234855 0.636088
vt 0.307027 0.511082
vt 0.162683 0.594419
vt 0.234855 0.469414
vt 0.162683 0.511082
s 1
f 1/1/1 2/1/1 4/2/1
f 4/2/1 2/1/1 3/2/1
f 5/3/2 6/3/2 8/4/2
f 8/4/2 6/3/2 7/4/2
f 2/1/3 1/1/3 10/5/3
f 10/5/3 1/1/3 9/5/3
f 10/6/4 25/7/4 2/8/4
f 2/8/4 25/7/4 5/9/4
f 2/8/4 5/9/4 3/10/4
f 3/10/4 5/9/4 8/11/4
f 3/10/4 8/11/4 48/12/4
f 48/12/4 8/11/4 14/13/4
f 48/12/4 14/13/4 65/14/4
f 65/14/4 14/13/4 64/15/4
f 64/15/4 14/13/4 15/16/4
f 64/15/4 15/16/4 16/17/4
f 11/18/4 45/19/4 10/6/4
f 10/6/4 45/19/4 46/20/4
f 10/6/4 46/20/4 24/21/4
f 24/21/4 46/20/4 29/22/4
f 29/22/4 46/20/4 47/23/4
f 29/22/4 47/23/4 37/24/4
f 37/24/4 47/23/4 42/25/4
f 37/24/4 42/25/4 36/26/4
f 36/26/4 42/25/4 54/27/4
f 36/26/4 54/27/4 55/28/4
f 12/29/4 50/30/4 11/18/4
f 11/18/4 50/30/4 51/31/4
f 11/18/4 51/31/4 45/19/4
f 45/19/4 51/31/4 52/32/4
f 45/19/4 52/32/4 44/33/4
f 44/33/4 52/32/4 53/34/4
f 44/33/4 53/34/4 43/35/4
f 43/35/4 53/34/4 42/25/4
f 42/25/4 53/34/4 54/27/4
f 12/29/4 13/36/4 50/30/4
f 50/30/4 13/36/4 49/37/4
f 49/37/4 13/36/4 48/12/4
f 48/12/4 13/36/4 3/10/4
f 17/38/4 32/39/4 16/17/4
f 16/17/4 32/39/4 63/40/4
f 16/17/4 63/40/4 64/15/4
f 5/9/4 25/7/4 17/38/4
f 17/38/4 25/7/4 26/41/4
f 17/38/4 26/41/4 31/42/4
f 31/42/4 26/41/4 30/43/4
f 30/43/4 26/41/4 27/44/4
f 30/43/4 27/44/4 19/45/4
f 19/45/4 27/44/4 28/46/4
f 19/45/4 28/46/4 18/47/4
f 18/47/4 28/46/4 38/48/4
f 18/47/4 38/48/4 23/49/4
f 23/49/4 38/48/4 39/50/4
f 23/49/4 39/50/4 57/51/4
f 57/51/4 39/50/4 40/52/4
f 57/51/4 40/52/4 56/53/4
f 56/53/4 40/52/4 55/28/4
f 55/28/4 40/52/4 41/54/4
f 55/28/4 41/54/4 36/26/4
f 30/43/4 19/45/4 35/55/4
f 35/55/4 19/45/4 20/56/4
f 35/55/4 20/56/4 60/57/4
f 60/57/4 20/56/4 59/58/4
f 59/58/4 20/56/4 21/59/4
f 59/58/4 21/59/4 22/60/4
f 23/49/4 57/51/4 22/60/4
f 22/60/4 57/51/4 58/61/4
f 22/60/4 58/61/4 59/58/4
f 24/21/4 25/7/4 10/6/4
f 38/48/4 28/46/4 37/24/4
f 37/24/4 28/46/4 29/22/4
f 31/42/4 32/39/4 17/38/4
f 63/40/4 32/39/4 62/62/4
f 62/62/4 32/39/4 33/63/4
f 62/62/4 33/63/4 61/64/4
f 61/64/4 33/63/4 34/65/4
f 61/64/4 34/65/4 35/55/4
f 60/57/4 61/64/4 35/55/4
f 1/66/4 4/67/4 9/68/4
f 9/68/4 4/67/4 66/69/4
f 9/68/4 66/69/4 67/70/4
f 67/70/4 68/71/4 9/68/4
f 4/2/5 3/2/5 66/72/5
f 66/72/5 3/2/5 13/72/5
f 69/73/3 42/73/3 70/74/3
f 70/74/3 42/73/3 47/74/3
f 36/75/6 71/75/6 37/76/6
f 37/76/6 71/75/6 72/76/6
f 70/74/1 47/74/1 73/77/1
f 73/77/1 47/74/1 46/77/1
f 37/76/5 72/76/5 38/78/5
f 38/78/5 72/76/5 74/78/5
f 71/79/4 75/80/4 72/81/4
f 72/81/4 75/80/4 76/82/4
f 72/81/4 76/82/4 74/83/4
f 74/83/4 76/82/4 77/84/4
f 80/85/4 69/86/4 78/87/4
f 78/87/4 69/86/4 70/88/4
f 78/87/4 70/88/4 73/89/4
f 78/87/4 79/90/4 80/85/4
f 73/77/5 46/77/5 78/91/5
f 78/91/5 46/77/5 45/91/5
f 10/5/7 9/5/7 11/92/7
f 11/92/7 9/5/7 68/92/7
f 78/91/6 45/91/6 79/93/6
f 79/93/6 45/91/6 44/93/6
f 82/94/1 27/94/1 81/95/1
f 81/95/1 27/94/1 26/95/1
f 81/95/5 26/95/5 83/96/5
f 83/96/5 26/95/5 25/96/5
f 83/96/6 25/96/6 84/97/6
f 84/97/6 25/96/6 24/97/6
f 6/3/7 5/3/7 85/98/7
f 85/98/7 5/3/7 17/98/7
f 84/97/2 24/97/2 86/99/2
f 86/99/2 24/97/2 29/99/2
f 86/99/7 29/99/7 87/100/7
f 87/100/7 29/99/7 28/100/7
f 87/100/3 28/100/3 82/94/3
f 82/94/3 28/100/3 27/94/3
f 18/101/6 88/101/6 19/102/6
f 19/102/6 88/101/6 89/102/6
f 30/103/2 90/103/2 31/104/2
f 31/104/2 90/103/2 91/104/2
f 38/78/1 74/78/1 39/105/1
f 39/105/1 74/78/1 77/105/1
f 85/98/3 17/98/3 92/106/3
f 92/106/3 17/98/3 16/106/3
f 6/107/4 85/108/4 7/109/4
f 7/109/4 85/108/4 94/110/4
f 94/110/4 85/108/4 93/111/4
f 93/111/4 85/108/4 92/112/4
f 91/113/4 90/114/4 98/115/4
f 98/115/4 90/114/4 95/116/4
f 98/115/4 95/116/4 96/117/4
f 96/117/4 97/118/4 98/115/4
f 84/119/4 86/120/4 83/121/4
f 83/121/4 86/120/4 87/122/4
f 83/121/4 87/122/4 82/123/4
f 82/123/4 81/124/4 83/121/4
f 88/101/2 18/101/2 99/125/2
f 99/125/2 18/101/2 23/125/2
f 99/125/7 23/125/7 100/126/7
f 100/126/7 23/125/7 22/126/7
f 90/103/7 30/103/7 95/127/7
f 95/127/7 30/103/7 35/127/7
f 19/102/5 89/102/5 20/128/5
f 20/128/5 89/102/5 101/128/5
f 95/127/3 35/127/3 96/129/3
f 96/129/3 35/127/3 34/129/3
f 31/104/6 91/104/6 32/130/6
f 32/130/6 91/104/6 98/130/6
f 92/106/1 16/106/1 93/131/1
f 93/131/1 16/106/1 15/131/1
f 42/73/7 69/73/7 43/132/7
f 43/132/7 69/73/7 80/132/7
f 71/75/2 36/75/2 75/133/2
f 75/133/2 36/75/2 41/133/2
f 75/133/7 41/133/7 76/134/7
f 76/134/7 41/133/7 40/134/7
f 39/105/3 77/105/3 40/134/3
f 40/134/3 77/105/3 76/134/3
f 100/126/3 22/126/3 102/135/3
f 102/135/3 22/126/3 21/135/3
f 20/128/1 101/128/1 21/135/1
f 21/135/1 101/128/1 102/135/1
f 96/129/1 34/129/1 97/136/1
f 97/136/1 34/129/1 33/136/1
f 32/130/5 98/130/5 33/136/5
f 33/136/5 98/130/5 97/136/5
f 79/93/2 44/93/2 80/132/2
f 80/132/2 44/93/2 43/132/2
f 11/92/2 68/92/2 12/137/2
f 12/137/2 68/92/2 67/137/2
f 66/72/6 13/72/6 67/137/6
f 67/137/6 13/72/6 12/137/6
f 8/4/6 7/4/6 14/138/6
f 14/138/6 7/4/6 94/138/6
f 93/131/5 15/131/5 94/138/5
f 94/138/5 15/131/5 14/138/5
f 53/139/2 52/140/2 104/139/2
f 104/139/2 52/140/2 103/140/2
f 52/140/6 51/141/6 103/140/6
f 103/140/6 51/141/6 105/141/6
f 51/141/2 50/142/2 105/141/2
f 105/141/2 50/142/2 106/142/2
f 50/142/6 49/143/6 106/142/6
f 106/142/6 49/143/6 107/143/6
f 49/143/5 48/144/5 107/143/5
f 107/143/5 48/144/5 108/144/5
f 48/144/6 65/145/6 108/144/6
f 108/144/6 65/145/6 109/145/6
f 65/145/5 64/146/5 109/145/5
f 109/145/5 64/146/5 110/146/5
f 64/146/1 63/147/1 110/146/1
f 110/146/1 63/147/1 111/147/1
f 63/147/5 62/148/5 111/147/5
f 111/147/5 62/148/5 112/148/5
f 62/148/1 61/149/1 112/148/1
f 112/148/1 61/149/1 113/149/1
f 54/150/7 53/139/7 114/150/7
f 114/150/7 53/139/7 104/139/7
f 55/151/2 54/150/2 115/151/2
f 115/151/2 54/150/2 114/150/2
f 56/152/7 55/151/7 116/152/7
f 116/152/7 55/151/7 115/151/7
f 57/153/3 56/152/3 117/153/3
f 117/153/3 56/152/3 116/152/3
f 58/154/7 57/153/7 118/154/7
f 118/154/7 57/153/7 117/153/7
f 59/155/3 58/154/3 119/155/3
f 119/155/3 58/154/3 118/154/3
f 60/156/1 59/155/1 120/156/1
f 120/156/1 59/155/1 119/155/1
f 61/149/3 60/156/3 113/149/3
f 113/149/3 60/156/3 120/156/3
f 112/148/8 113/149/8 111/147/8
f 111/147/8 113/149/8 120/156/8
f 111/147/8 120/156/8 105/141/8
f 105/141/8 120/156/8 114/150/8
f 105/141/8 114/150/8 104/139/8
f 114/150/8 120/156/8 117/153/8
f 117/153/8 120/156/8 119/155/8
f 117/153/8 119/155/8 118/154/8
f 116/152/8 115/151/8 117/153/8
f 117/153/8 115/151/8 114/150/8
f 104/139/8 103/140/8 105/141/8
f 111/147/8 105/141/8 108/144/8
f 108/144/8 105/141/8 106/142/8
f 108/144/8 106/142/8 107/143/8
f 109/145/8 110/146/8 108/144/8
f 108/144/8 110/146/8 111/147/8
f 88/157/4 99/158/4 89/159/4
f 89/159/4 99/158/4 100/160/4
f 89/159/4 100/160/4 101/161/4
f 101/161/4 100/160/4 102/162/4
