# WaveFront *.obj file (generated by Autodesk ATF)

mtllib Outer Hex.mtl

g Body1

v 13.856449 -1.500000 -24.000000
v -13.856351 -1.500000 -24.000000
v -13.856351 -0.500000 -24.000000
v 13.856449 -0.500000 -24.000000
v 27.712801 -1.500000 0.000000
v 27.712801 -0.500000 0.000000
v 13.856449 -1.500000 24.000000
v 13.856449 -0.500000 24.000000
v -13.856351 -1.500000 24.000000
v -13.856351 -0.500000 24.000000
v -27.712799 -1.500000 0.000000
v -27.712799 -0.500000 0.000000
v 28.867500 -0.500000 0.000000
v 14.433800 -0.500000 25.000000
v -14.433700 -0.500000 25.000000
v -28.867500 -0.500000 0.000000
v -14.433700 -0.500000 -25.000000
v 14.433800 -0.500000 -25.000000
v -28.867500 1.500000 0.000000
v -14.433700 1.500000 -25.000000
v -14.433700 1.500000 25.000000
v 14.433800 1.500000 25.000000
v 28.867500 1.500000 0.000000
v 14.433800 1.500000 -25.000000
vt -0.100000 0.057735 0.000000
vt -0.000000 0.057735 0.000000
vt -0.100000 2.829015 0.000000
vt -0.000000 2.829015 0.000000
vt -0.100000 0.057735 0.000000
vt -0.000000 0.057735 0.000000
vt -0.100000 2.829014 0.000000
vt -0.000000 2.829014 0.000000
vt -0.100000 0.057735 0.000000
vt 0.000000 0.057735 0.000000
vt -0.100000 2.829013 0.000000
vt 0.000000 2.829013 0.000000
vt -0.100000 0.057735 0.000000
vt 0.000000 0.057735 0.000000
vt -0.100000 2.829015 0.000000
vt 0.000000 2.829015 0.000000
vt -0.100000 0.057735 0.000000
vt -0.000000 0.057735 0.000000
vt -0.100000 2.829019 0.000000
vt -0.000000 2.829019 0.000000
vt -2.599997 -2.886755 0.000000
vt -4.999994 -1.385645 0.000000
vt -5.099994 -1.443380 0.000000
vt -5.000002 1.385634 0.000000
vt -5.100003 1.443369 0.000000
vt -2.600006 2.886747 0.000000
vt -2.600005 2.771277 0.000000
vt -0.200000 1.385642 0.000000
vt -0.100000 -1.443377 0.000000
vt -0.200000 -1.385642 0.000000
vt -2.599997 -2.771285 0.000000
vt -0.100000 1.443377 0.000000
vt -0.100000 -1.385642 0.000000
vt -0.000000 -1.385642 0.000000
vt -0.100000 1.385642 0.000000
vt -0.000000 1.385642 0.000000
vt -0.000000 0.100000 0.000000
vt 2.886754 0.100000 0.000000
vt -0.000000 0.300000 0.000000
vt 2.886754 0.300000 0.000000
vt 0.000000 0.100000 0.000000
vt 2.886754 0.100000 0.000000
vt 0.000000 0.300000 0.000000
vt 2.886754 0.300000 0.000000
vt 0.000000 0.100000 0.000000
vt 2.886750 0.100000 0.000000
vt 0.000000 0.300000 0.000000
vt 2.886750 0.300000 0.000000
vt 0.000000 0.100000 0.000000
vt 2.886749 0.100000 0.000000
vt 0.000000 0.300000 0.000000
vt 2.886749 0.300000 0.000000
vt -0.000000 0.100000 0.000000
vt 2.886750 0.100000 0.000000
vt -0.000000 0.300000 0.000000
vt 2.886750 0.300000 0.000000
vt 0.000000 0.100000 0.000000
vt 2.886749 0.100000 0.000000
vt 0.000000 0.300000 0.000000
vt 2.886749 0.300000 0.000000
vt 1.443380 2.500000 0.000000
vt -1.443370 2.500000 0.000000
vt 2.886750 0.000000 0.000000
vt -2.886750 0.000000 0.000000
vt -1.443370 -2.500000 0.000000
vt 1.443380 -2.500000 0.000000
vt -1.385645 -2.400000 0.000000
vt 1.385635 -2.400000 0.000000
vt -2.771280 -0.000000 0.000000
vt 2.771280 -0.000000 0.000000
vt 1.385635 2.400000 0.000000
vt -1.385645 2.400000 0.000000
vn 0.000000 0.000000 -0.100000
vn 0.000000 0.000000 -0.100000
vn 0.000000 0.000000 -0.100000
vn 0.000000 0.000000 -0.100000
vn 0.086603 0.000000 -0.050000
vn 0.086603 0.000000 -0.050000
vn 0.086603 0.000000 -0.050000
vn 0.086603 0.000000 -0.050000
vn 0.086603 0.000000 0.050000
vn 0.086603 0.000000 0.050000
vn 0.086603 0.000000 0.050000
vn 0.086603 0.000000 0.050000
vn 0.000000 0.000000 0.100000
vn 0.000000 0.000000 0.100000
vn 0.000000 0.000000 0.100000
vn 0.000000 0.000000 0.100000
vn -0.086602 0.000000 -0.050000
vn -0.086602 0.000000 -0.050000
vn -0.086602 0.000000 -0.050000
vn -0.086602 0.000000 -0.050000
vn 0.000000 -0.100000 0.000000
vn 0.000000 -0.100000 0.000000
vn 0.000000 -0.100000 0.000000
vn 0.000000 -0.100000 0.000000
vn 0.000000 -0.100000 0.000000
vn 0.000000 -0.100000 0.000000
vn 0.000000 -0.100000 0.000000
vn 0.000000 -0.100000 0.000000
vn 0.000000 -0.100000 0.000000
vn 0.000000 -0.100000 0.000000
vn 0.000000 -0.100000 0.000000
vn 0.000000 -0.100000 0.000000
vn -0.086602 0.000000 0.050000
vn -0.086602 0.000000 0.050000
vn -0.086602 0.000000 0.050000
vn -0.086602 0.000000 0.050000
vn -0.086602 0.000000 -0.050000
vn -0.086602 0.000000 -0.050000
vn -0.086602 0.000000 -0.050000
vn -0.086602 0.000000 -0.050000
vn -0.086602 0.000000 0.050000
vn -0.086602 0.000000 0.050000
vn -0.086602 0.000000 0.050000
vn -0.086602 0.000000 0.050000
vn 0.000000 0.000000 0.100000
vn 0.000000 0.000000 0.100000
vn 0.000000 0.000000 0.100000
vn 0.000000 0.000000 0.100000
vn 0.086603 0.000000 0.050000
vn 0.086603 0.000000 0.050000
vn 0.086603 0.000000 0.050000
vn 0.086603 0.000000 0.050000
vn 0.000000 0.000000 -0.100000
vn 0.000000 0.000000 -0.100000
vn 0.000000 0.000000 -0.100000
vn 0.000000 0.000000 -0.100000
vn 0.086603 0.000000 -0.050000
vn 0.086603 0.000000 -0.050000
vn 0.086603 0.000000 -0.050000
vn 0.086603 0.000000 -0.050000
vn 0.000000 0.100000 0.000000
vn 0.000000 0.100000 0.000000
vn 0.000000 0.100000 0.000000
vn 0.000000 0.100000 0.000000
vn 0.000000 0.100000 0.000000
vn 0.000000 0.100000 0.000000
vn 0.000000 -0.100000 0.000000
vn 0.000000 -0.100000 0.000000
vn 0.000000 -0.100000 0.000000
vn 0.000000 -0.100000 0.000000
vn 0.000000 -0.100000 0.000000
vn 0.000000 -0.100000 0.000000
usemtl Plastic_-_Matte_(Red)
f 2/1/1 3/2/2 1/3/3
f 1/3/3 3/2/2 4/4/4
f 1/5/5 4/6/6 5/7/7
f 5/7/7 4/6/6 6/8/8
f 5/9/9 6/10/10 7/11/11
f 7/11/11 6/10/10 8/12/12
f 7/13/13 8/14/14 9/15/15
f 9/15/15 8/14/14 10/16/16
f 11/17/17 12/18/18 2/19/19
f 2/19/19 12/18/18 3/20/20
f 14/21/21 6/22/22 13/23/23
f 13/23/23 6/22/22 4/24/24
f 13/23/23 4/24/24 18/25/25
f 18/25/25 4/24/24 17/26/26
f 17/26/26 4/24/24 3/27/27
f 17/26/26 3/27/27 12/28/28
f 15/29/29 10/30/30 14/21/21
f 14/21/21 10/30/30 8/31/31
f 14/21/21 8/31/31 6/22/22
f 10/30/30 15/29/29 12/28/28
f 12/28/28 15/29/29 16/32/32
f 12/28/28 16/32/32 17/26/26
f 9/33/33 10/34/34 11/35/35
f 11/35/35 10/34/34 12/36/36
f 17/37/37 16/38/38 20/39/39
f 20/39/39 16/38/38 19/40/40
f 16/41/41 15/42/42 19/43/43
f 19/43/43 15/42/42 21/44/44
f 15/45/45 14/46/46 21/47/47
f 21/47/47 14/46/46 22/48/48
f 14/49/49 13/50/50 22/51/51
f 22/51/51 13/50/50 23/52/52
f 18/53/53 17/54/54 24/55/55
f 24/55/55 17/54/54 20/56/56
f 13/57/57 18/58/58 23/59/59
f 23/59/59 18/58/58 24/60/60
f 24/61/61 20/62/62 23/63/63
f 23/63/63 20/62/62 19/64/64
f 23/63/63 19/64/64 21/65/65
f 21/65/65 22/66/66 23/63/63
f 7/67/67 9/68/68 5/69/69
f 5/69/69 9/68/68 11/70/70
f 5/69/69 11/70/70 2/71/71
f 2/71/71 1/72/72 5/69/69
# 24 vertices
# 72 texture params
# 72 normals
# 44 facets

# 1 groups
