# Blender 5.2.0 LTS
# www.blender.org
o Outer_Hex
v -13.856448 2.999998 -24.000000
v 13.856352 2.999998 -24.000000
v 13.856352 1.999998 -24.000000
v -13.856448 1.999998 -24.000000
v -27.712799 3.000000 0.000000
v -27.712799 2.000000 0.000000
v -13.856448 3.000002 24.000000
v -13.856448 2.000002 24.000000
v 13.856352 3.000002 24.000000
v 13.856352 2.000002 24.000000
v 27.712799 3.000000 0.000000
v 27.712799 2.000000 0.000000
v -28.867498 2.000000 0.000000
v -14.433799 2.000002 25.000000
v 14.433701 2.000002 25.000000
v 28.867500 2.000000 0.000000
v 14.433701 1.999998 -25.000000
v -14.433799 1.999998 -25.000000
v 28.867500 0.000000 0.000000
v 14.433701 -0.000002 -25.000000
v 14.433701 0.000002 25.000000
v -14.433799 0.000002 25.000000
v -28.867498 0.000000 0.000000
v -14.433799 -0.000002 -25.000000
vn 0.000000 0.000000 -1.000000
vn -0.866000 0.000000 -0.500000
vn -0.866000 0.000000 0.500000
vn 0.000000 0.000000 1.000000
vn 0.866000 0.000000 -0.500000
vn 0.000000 1.000000 0.000000
vn 0.866000 0.000000 0.500000
vn 0.000000 -1.000000 0.000000
vt 0.924078 0.001001
vt 0.997998 0.001001
vt 0.924078 0.331331
vt 0.616386 0.747998
vt 0.921075 0.667668
vt 0.616386 0.667668
vt 0.847155 0.001001
vt 0.921075 0.001001
vt 0.847155 0.331331
vt 0.308693 0.831331
vt 0.613383 0.751001
vt 0.308693 0.751001
vt 0.614384 0.832332
vt 0.614384 0.752002
vt 0.309694 0.832332
vt 0.848156 0.332332
vt 0.922076 0.002002
vt 0.922076 0.332332
vt 0.998999 0.332332
vt 0.925079 0.332332
vt 0.998999 0.002002
vt 0.922076 0.668669
vt 0.617387 0.748999
vt 0.922076 0.748999
vt 0.616386 0.001001
vt 0.690306 0.001001
vt 0.616386 0.331331
vt 0.001001 0.747998
vt 0.305690 0.667668
vt 0.001001 0.667668
vt 0.616386 0.664665
vt 0.616386 0.334334
vt 0.690306 0.334334
vt 0.308693 0.747998
vt 0.308693 0.667668
vt 0.613383 0.667668
vt 0.691307 0.335335
vt 0.691307 0.665666
vt 0.617387 0.665666
vt 0.767229 0.001001
vt 0.693309 0.001001
vt 0.693309 0.331331
vt 0.001001 0.831331
vt 0.305690 0.751001
vt 0.001001 0.751001
vt 0.921075 0.334334
vt 0.847155 0.334334
vt 0.847155 0.664665
vt 0.694310 0.332332
vt 0.768230 0.332332
vt 0.768230 0.002002
vt 0.306691 0.752002
vt 0.002002 0.832332
vt 0.306691 0.832332
vt 0.614384 0.668669
vt 0.614384 0.748999
vt 0.309694 0.748999
vt 0.922076 0.665666
vt 0.848156 0.665666
vt 0.922076 0.335335
vt 0.001001 0.834334
vt 0.305690 0.834334
vt 0.001001 0.914665
vt 0.306691 0.915666
vt 0.306691 0.835335
vt 0.002002 0.915666
vt 0.306691 0.748999
vt 0.306691 0.668669
vt 0.002002 0.748999
vt 0.617387 0.332332
vt 0.691307 0.002002
vt 0.691307 0.332332
vt 0.693309 0.334334
vt 0.693309 0.664665
vt 0.767229 0.334334
vt 0.309694 0.915666
vt 0.614384 0.835335
vt 0.614384 0.915666
vt 0.768230 0.665666
vt 0.768230 0.335335
vt 0.694310 0.665666
vt 0.613383 0.834334
vt 0.308693 0.914665
vt 0.308693 0.834334
vt 0.770232 0.001001
vt 0.770232 0.331331
vt 0.844152 0.001001
vt 0.002002 0.998999
vt 0.306691 0.918669
vt 0.306691 0.998999
vt 0.770232 0.334334
vt 0.770232 0.664665
vt 0.844152 0.334334
vt 0.845153 0.335335
vt 0.771233 0.665666
vt 0.845153 0.665666
vt 0.001001 0.917668
vt 0.305690 0.917668
vt 0.001001 0.997998
vt 0.845153 0.002002
vt 0.771233 0.332332
vt 0.845153 0.332332
vt 0.308693 0.917668
vt 0.613383 0.917668
vt 0.308693 0.997998
vt 0.309694 0.998999
vt 0.614384 0.918669
vt 0.614384 0.998999
vt 0.308693 0.001001
vt 0.308693 0.331331
vt 0.613383 0.001001
vt 0.001001 0.664665
vt 0.001001 0.334334
vt 0.305690 0.334334
vt 0.306691 0.335335
vt 0.002002 0.665666
vt 0.306691 0.665666
vt 0.614384 0.002002
vt 0.614384 0.332332
vt 0.309694 0.332332
vt 0.308693 0.334334
vt 0.308693 0.664665
vt 0.613383 0.334334
vt 0.001001 0.331331
vt 0.001001 0.001001
vt 0.305690 0.001001
vt 0.306691 0.002002
vt 0.002002 0.332332
vt 0.306691 0.332332
vt 0.614384 0.335335
vt 0.614384 0.665666
vt 0.309694 0.665666
s 0
f 2/1/1 3/2/1 1/3/1
f 1/4/1 3/5/1 4/6/1
f 1/7/2 4/8/2 5/9/2
f 5/10/2 4/11/2 6/12/2
f 5/13/3 6/14/3 7/15/3
f 7/16/3 6/17/3 8/18/3
f 7/19/4 8/20/4 9/21/4
f 9/22/4 8/23/4 10/24/4
f 11/25/5 12/26/5 2/27/5
f 2/28/5 12/29/5 3/30/5
f 14/31/6 6/32/6 13/33/6
f 13/34/6 6/35/6 4/36/6
f 13/37/6 4/38/6 18/39/6
f 18/40/6 4/41/6 17/42/6
f 17/43/6 4/44/6 3/45/6
f 17/46/6 3/47/6 12/48/6
f 15/49/6 10/50/6 14/51/6
f 14/52/6 10/53/6 8/54/6
f 14/55/6 8/56/6 6/57/6
f 10/58/6 15/59/6 12/60/6
f 12/61/6 15/62/6 16/63/6
f 12/64/6 16/65/6 17/66/6
f 9/67/7 10/68/7 11/69/7
f 11/70/7 10/71/7 12/72/7
f 17/73/5 16/74/5 20/75/5
f 20/76/5 16/77/5 19/78/5
f 16/79/7 15/80/7 19/81/7
f 19/82/7 15/83/7 21/84/7
f 15/85/4 14/86/4 21/87/4
f 21/88/4 14/89/4 22/90/4
f 14/91/3 13/92/3 22/93/3
f 22/94/3 13/95/3 23/96/3
f 18/97/1 17/98/1 24/99/1
f 24/100/1 17/101/1 20/102/1
f 13/103/2 18/104/2 23/105/2
f 23/106/2 18/107/2 24/108/2
f 24/109/8 20/110/8 23/111/8
f 23/112/8 20/113/8 19/114/8
f 23/115/8 19/116/8 21/117/8
f 21/118/8 22/119/8 23/120/8
f 7/121/6 9/122/6 5/123/6
f 5/124/6 9/125/6 11/126/6
f 5/127/6 11/128/6 2/129/6
f 2/130/6 1/131/6 5/132/6
