# Blender 5.2.0 LTS
# www.blender.org
o Plate76x32
v -1.330000 0.035000 0.560000
v 1.330000 0.035000 0.560000
v 1.330000 0.035000 -0.560000
v -1.330000 0.035000 -0.560000
v -1.330000 -0.035000 0.560000
v 1.330000 -0.035000 0.560000
v 1.330000 -0.035000 -0.560000
v -1.330000 -0.035000 -0.560000
v -1.330000 0.035000 -0.560000
v -1.330000 0.035000 -0.560000
v -1.330000 0.035000 0.560000
v -1.330000 0.035000 0.560000
v 1.330000 0.035000 0.560000
v 1.330000 0.035000 0.560000
v 1.330000 0.035000 -0.560000
v 1.330000 0.035000 -0.560000
v -1.330000 -0.035000 0.560000
v -1.330000 -0.035000 0.560000
v -1.330000 -0.035000 -0.560000
v -1.330000 -0.035000 -0.560000
v 1.330000 -0.035000 -0.560000
v 1.330000 -0.035000 -0.560000
v 1.330000 -0.035000 0.560000
v 1.330000 -0.035000 0.560000
vn -0.0000 1.0000 -0.0000
vn -0.0000 -1.0000 -0.0000
vn -0.0000 -0.0000 1.0000
vn 1.0000 -0.0000 -0.0000
vn -0.0000 -0.0000 -1.0000
vn -1.0000 -0.0000 -0.0000
vt 1.000000 0.000000
vt 0.000000 1.000000
vt 0.000000 0.000000
vt 1.000000 1.000000
s 0
f 13/1/1 9/2/1 11/3/1
f 21/4/2 17/3/2 19/2/2
f 18/3/3 14/4/3 12/2/3
f 6/3/4 16/4/4 2/2/4
f 7/1/5 10/2/5 3/4/5
f 8/1/6 1/2/6 4/4/6
f 13/1/1 15/4/1 9/2/1
f 21/4/2 23/1/2 17/3/2
f 18/3/3 24/1/3 14/4/3
f 6/3/4 22/1/4 16/4/4
f 7/1/5 20/3/5 10/2/5
f 8/1/6 5/3/6 1/2/6
