# Blender 5.2.0 LTS
# www.blender.org
o PlayerBoard
v 134.000000 1.500000 -86.500000
v 133.942352 1.500000 -87.085274
v 133.771637 1.500000 -87.648048
v 133.494415 1.500000 -88.166710
v 133.121323 1.500000 -88.621323
v 132.666718 1.500000 -88.994408
v 132.148056 1.500000 -89.271637
v 131.585266 1.500000 -89.442352
v 131.000000 1.500000 -89.500000
v -131.000000 1.500000 -89.500000
v -131.585266 1.500000 -89.442352
v -132.148056 1.500000 -89.271637
v -132.666718 1.500000 -88.994408
v -133.121323 1.500000 -88.621323
v -133.494415 1.500000 -88.166710
v -133.771637 1.500000 -87.648048
v -133.942352 1.500000 -87.085274
v -134.000000 1.500000 -86.500000
v -134.000000 1.500000 86.500000
v -133.942352 1.500000 87.085274
v -133.771637 1.500000 87.648048
v -133.494415 1.500000 88.166710
v -133.121323 1.500000 88.621323
v -132.666718 1.500000 88.994408
v -132.148056 1.500000 89.271637
v -131.585266 1.500000 89.442352
v -131.000000 1.500000 89.500000
v 131.000000 1.500000 89.500000
v 131.585266 1.500000 89.442352
v 132.148056 1.500000 89.271637
v 132.666718 1.500000 88.994408
v 133.121323 1.500000 88.621323
v 133.494415 1.500000 88.166710
v 133.771637 1.500000 87.648048
v 133.942352 1.500000 87.085274
v 134.000000 1.500000 86.500000
v 134.000000 -1.500000 -86.500000
v 133.942352 -1.500000 -87.085274
v 133.771637 -1.500000 -87.648048
v 133.494415 -1.500000 -88.166710
v 133.121323 -1.500000 -88.621323
v 132.666718 -1.500000 -88.994408
v 132.148056 -1.500000 -89.271637
v 131.585266 -1.500000 -89.442352
v 131.000000 -1.500000 -89.500000
v -131.000000 -1.500000 -89.500000
v -131.585266 -1.500000 -89.442352
v -132.148056 -1.500000 -89.271637
v -132.666718 -1.500000 -88.994408
v -133.121323 -1.500000 -88.621323
v -133.494415 -1.500000 -88.166710
v -133.771637 -1.500000 -87.648048
v -133.942352 -1.500000 -87.085274
v -134.000000 -1.500000 -86.500000
v -134.000000 -1.500000 86.500000
v -133.942352 -1.500000 87.085274
v -133.771637 -1.500000 87.648048
v -133.494415 -1.500000 88.166710
v -133.121323 -1.500000 88.621323
v -132.666718 -1.500000 88.994408
v -132.148056 -1.500000 89.271637
v -131.585266 -1.500000 89.442352
v -131.000000 -1.500000 89.500000
v 131.000000 -1.500000 89.500000
v 131.585266 -1.500000 89.442352
v 132.148056 -1.500000 89.271637
v 132.666718 -1.500000 88.994408
v 133.121323 -1.500000 88.621323
v 133.494415 -1.500000 88.166710
v 133.771637 -1.500000 87.648048
v 133.942352 -1.500000 87.085274
v 134.000000 -1.500000 86.500000
vn -0.0000 1.0000 -0.0000
vn -0.0000 -1.0000 -0.0000
vn 0.9952 -0.0000 -0.0980
vn 0.9569 -0.0000 -0.2903
vn 0.8819 -0.0000 -0.4714
vn 0.7730 -0.0000 -0.6344
vn 0.6344 -0.0000 -0.7730
vn 0.4714 -0.0000 -0.8819
vn 0.2903 -0.0000 -0.9569
vn 0.0980 -0.0000 -0.9952
vn -0.0000 -0.0000 -1.0000
vn -0.0980 -0.0000 -0.9952
vn -0.2903 -0.0000 -0.9569
vn -0.4714 -0.0000 -0.8819
vn -0.6344 -0.0000 -0.7730
vn -0.7730 -0.0000 -0.6344
vn -0.8819 -0.0000 -0.4714
vn -0.9569 -0.0000 -0.2903
vn -0.9952 -0.0000 -0.0980
vn -1.0000 -0.0000 -0.0000
vn -0.9952 -0.0000 0.0980
vn -0.9569 -0.0000 0.2903
vn -0.8819 -0.0000 0.4714
vn -0.7730 -0.0000 0.6344
vn -0.6344 -0.0000 0.7730
vn -0.4714 -0.0000 0.8819
vn -0.2903 -0.0000 0.9569
vn -0.0980 -0.0000 0.9952
vn -0.0000 -0.0000 1.0000
vn 0.0980 -0.0000 0.9952
vn 0.2903 -0.0000 0.9569
vn 0.4714 -0.0000 0.8819
vn 0.6344 -0.0000 0.7730
vn 0.7730 -0.0000 0.6344
vn 0.8819 -0.0000 0.4714
vn 0.9569 -0.0000 0.2903
vn 0.9952 -0.0000 0.0980
vn 1.0000 -0.0000 -0.0000
vt 0.990990 0.000322
vt 0.004975 0.997175
vt 0.996721 0.995091
vt 0.990990 0.999678
vt 0.004975 0.002825
vt 0.996721 0.004909
vt 1.000000 0.016760
vt 0.999785 0.013490
vt 0.999148 0.010346
vt 0.998114 0.007449
vt 0.995025 0.002825
vt 0.993090 0.001276
vt 0.988806 0.000000
vt 0.011194 0.000000
vt 0.009010 0.000322
vt 0.006910 0.001276
vt 0.003279 0.004909
vt 0.001887 0.007449
vt 0.000852 0.010346
vt 0.000215 0.013490
vt 0.000000 0.016760
vt 0.000000 0.983240
vt 0.000215 0.986510
vt 0.000852 0.989654
vt 0.001887 0.992551
vt 0.003279 0.995091
vt 0.006910 0.998724
vt 0.009010 0.999678
vt 0.011194 1.000000
vt 0.988806 1.000000
vt 0.993090 0.998724
vt 0.995025 0.997175
vt 0.998114 0.992551
vt 0.999148 0.989654
vt 0.999785 0.986510
vt 1.000000 0.983240
s 0
f 8/1/1 24/2/1 32/3/1
f 65/4/2 49/5/2 41/6/2
f 37/7/3 2/8/3 1/7/3
f 38/8/4 3/9/4 2/8/4
f 39/9/5 4/10/5 3/9/5
f 40/10/6 5/6/6 4/10/6
f 41/6/7 6/11/7 5/6/7
f 42/11/8 7/12/8 6/11/8
f 43/12/9 8/1/9 7/12/9
f 44/1/10 9/13/10 8/1/10
f 45/13/11 10/14/11 9/13/11
f 46/14/12 11/15/12 10/14/12
f 47/15/13 12/16/13 11/15/13
f 48/16/14 13/5/14 12/16/14
f 49/5/15 14/17/15 13/5/15
f 50/17/16 15/18/16 14/17/16
f 51/18/17 16/19/17 15/18/17
f 52/19/18 17/20/18 16/19/18
f 53/20/19 18/21/19 17/20/19
f 54/21/20 19/22/20 18/21/20
f 55/22/21 20/23/21 19/22/21
f 56/23/22 21/24/22 20/23/22
f 57/24/23 22/25/23 21/24/23
f 58/25/24 23/26/24 22/25/24
f 59/26/25 24/2/25 23/26/25
f 60/2/26 25/27/26 24/2/26
f 61/27/27 26/28/27 25/27/27
f 62/28/28 27/29/28 26/28/28
f 63/29/29 28/30/29 27/29/29
f 64/30/30 29/4/30 28/30/30
f 65/4/31 30/31/31 29/4/31
f 66/31/32 31/32/32 30/31/32
f 67/32/33 32/3/33 31/32/33
f 68/3/34 33/33/34 32/3/34
f 69/33/35 34/34/35 33/33/35
f 70/34/36 35/35/36 34/34/36
f 71/35/37 36/36/37 35/35/37
f 72/36/38 1/7/38 36/36/38
f 36/36/1 1/7/1 2/8/1
f 2/8/1 3/9/1 4/10/1
f 4/10/1 5/6/1 6/11/1
f 6/11/1 7/12/1 8/1/1
f 8/1/1 9/13/1 10/14/1
f 10/14/1 11/15/1 12/16/1
f 12/16/1 13/5/1 14/17/1
f 14/17/1 15/18/1 16/19/1
f 16/19/1 17/20/1 18/21/1
f 18/21/1 19/22/1 20/23/1
f 20/23/1 21/24/1 22/25/1
f 22/25/1 23/26/1 24/2/1
f 24/2/1 25/27/1 26/28/1
f 26/28/1 27/29/1 28/30/1
f 28/30/1 29/4/1 30/31/1
f 30/31/1 31/32/1 32/3/1
f 32/3/1 33/33/1 34/34/1
f 34/34/1 35/35/1 36/36/1
f 36/36/1 2/8/1 4/10/1
f 4/10/1 6/11/1 8/1/1
f 8/1/1 10/14/1 12/16/1
f 12/16/1 14/17/1 16/19/1
f 16/19/1 18/21/1 20/23/1
f 20/23/1 22/25/1 24/2/1
f 24/2/1 26/28/1 28/30/1
f 28/30/1 30/31/1 32/3/1
f 32/3/1 34/34/1 36/36/1
f 36/36/1 4/10/1 8/1/1
f 8/1/1 12/16/1 16/19/1
f 16/19/1 20/23/1 24/2/1
f 24/2/1 28/30/1 32/3/1
f 32/3/1 36/36/1 8/1/1
f 8/1/1 16/19/1 24/2/1
f 37/7/2 72/36/2 71/35/2
f 71/35/2 70/34/2 69/33/2
f 69/33/2 68/3/2 67/32/2
f 67/32/2 66/31/2 65/4/2
f 65/4/2 64/30/2 63/29/2
f 63/29/2 62/28/2 61/27/2
f 61/27/2 60/2/2 59/26/2
f 59/26/2 58/25/2 57/24/2
f 57/24/2 56/23/2 55/22/2
f 55/22/2 54/21/2 53/20/2
f 53/20/2 52/19/2 51/18/2
f 51/18/2 50/17/2 49/5/2
f 49/5/2 48/16/2 47/15/2
f 47/15/2 46/14/2 45/13/2
f 45/13/2 44/1/2 43/12/2
f 43/12/2 42/11/2 41/6/2
f 41/6/2 40/10/2 39/9/2
f 39/9/2 38/8/2 37/7/2
f 37/7/2 71/35/2 69/33/2
f 69/33/2 67/32/2 65/4/2
f 65/4/2 63/29/2 61/27/2
f 61/27/2 59/26/2 57/24/2
f 57/24/2 55/22/2 53/20/2
f 53/20/2 51/18/2 49/5/2
f 49/5/2 47/15/2 45/13/2
f 45/13/2 43/12/2 41/6/2
f 41/6/2 39/9/2 37/7/2
f 37/7/2 69/33/2 65/4/2
f 65/4/2 61/27/2 57/24/2
f 57/24/2 53/20/2 49/5/2
f 49/5/2 45/13/2 41/6/2
f 41/6/2 37/7/2 65/4/2
f 65/4/2 57/24/2 49/5/2
f 37/7/3 38/8/3 2/8/3
f 38/8/4 39/9/4 3/9/4
f 39/9/5 40/10/5 4/10/5
f 40/10/6 41/6/6 5/6/6
f 41/6/7 42/11/7 6/11/7
f 42/11/8 43/12/8 7/12/8
f 43/12/9 44/1/9 8/1/9
f 44/1/10 45/13/10 9/13/10
f 45/13/11 46/14/11 10/14/11
f 46/14/12 47/15/12 11/15/12
f 47/15/13 48/16/13 12/16/13
f 48/16/14 49/5/14 13/5/14
f 49/5/15 50/17/15 14/17/15
f 50/17/16 51/18/16 15/18/16
f 51/18/17 52/19/17 16/19/17
f 52/19/18 53/20/18 17/20/18
f 53/20/19 54/21/19 18/21/19
f 54/21/20 55/22/20 19/22/20
f 55/22/21 56/23/21 20/23/21
f 56/23/22 57/24/22 21/24/22
f 57/24/23 58/25/23 22/25/23
f 58/25/24 59/26/24 23/26/24
f 59/26/25 60/2/25 24/2/25
f 60/2/26 61/27/26 25/27/26
f 61/27/27 62/28/27 26/28/27
f 62/28/28 63/29/28 27/29/28
f 63/29/29 64/30/29 28/30/29
f 64/30/30 65/4/30 29/4/30
f 65/4/31 66/31/31 30/31/31
f 66/31/32 67/32/32 31/32/32
f 67/32/33 68/3/33 32/3/33
f 68/3/34 69/33/34 33/33/34
f 69/33/35 70/34/35 34/34/35
f 70/34/36 71/35/36 35/35/36
f 71/35/37 72/36/37 36/36/37
f 72/36/38 37/7/38 1/7/38
