# Blender 5.2.0 LTS
# www.blender.org
o TokenDisc
v 12.000000 1.000000 0.000000
v 12.000000 -1.000000 0.000000
v 11.769423 1.000000 -2.341084
v 11.769423 -1.000000 -2.341084
v 11.086555 1.000000 -4.592201
v 11.086555 -1.000000 -4.592201
v 9.977635 1.000000 -6.666843
v 9.977635 -1.000000 -6.666843
v 8.485281 1.000000 -8.485281
v 8.485281 -1.000000 -8.485281
v 6.666843 1.000000 -9.977635
v 6.666843 -1.000000 -9.977635
v 4.592201 1.000000 -11.086555
v 4.592201 -1.000000 -11.086555
v 2.341084 1.000000 -11.769423
v 2.341084 -1.000000 -11.769423
v 0.000000 1.000000 -12.000000
v 0.000000 -1.000000 -12.000000
v -2.341084 1.000000 -11.769423
v -2.341084 -1.000000 -11.769423
v -4.592201 1.000000 -11.086555
v -4.592201 -1.000000 -11.086555
v -6.666843 1.000000 -9.977635
v -6.666843 -1.000000 -9.977635
v -8.485281 1.000000 -8.485281
v -8.485281 -1.000000 -8.485281
v -9.977635 1.000000 -6.666843
v -9.977635 -1.000000 -6.666843
v -11.086555 1.000000 -4.592201
v -11.086555 -1.000000 -4.592201
v -11.769423 1.000000 -2.341084
v -11.769423 -1.000000 -2.341084
v -12.000000 1.000000 -0.000000
v -12.000000 -1.000000 -0.000000
v -11.769423 1.000000 2.341084
v -11.769423 -1.000000 2.341084
v -11.086555 1.000000 4.592201
v -11.086555 -1.000000 4.592201
v -9.977635 1.000000 6.666843
v -9.977635 -1.000000 6.666843
v -8.485281 1.000000 8.485281
v -8.485281 -1.000000 8.485281
v -6.666843 1.000000 9.977635
v -6.666843 -1.000000 9.977635
v -4.592201 1.000000 11.086555
v -4.592201 -1.000000 11.086555
v -2.341084 1.000000 11.769423
v -2.341084 -1.000000 11.769423
v -0.000000 1.000000 12.000000
v -0.000000 -1.000000 12.000000
v 2.341084 1.000000 11.769423
v 2.341084 -1.000000 11.769423
v 4.592201 1.000000 11.086555
v 4.592201 -1.000000 11.086555
v 6.666843 1.000000 9.977635
v 6.666843 -1.000000 9.977635
v 8.485281 1.000000 8.485281
v 8.485281 -1.000000 8.485281
v 9.977635 1.000000 6.666843
v 9.977635 -1.000000 6.666843
v 11.086555 1.000000 4.592201
v 11.086555 -1.000000 4.592201
v 11.769423 1.000000 2.341084
v 11.769423 -1.000000 2.341084
vn -0.0000 1.0000 -0.0000
vn -0.0000 -1.0000 -0.0000
vn 0.9952 -0.0000 -0.0980
vn 0.9569 -0.0000 -0.2903
vn 0.8819 -0.0000 -0.4714
vn 0.7730 -0.0000 -0.6344
vn 0.6344 -0.0000 -0.7730
vn 0.4714 -0.0000 -0.8819
vn 0.2903 -0.0000 -0.9569
vn 0.0980 -0.0000 -0.9952
vn -0.0980 -0.0000 -0.9952
vn -0.2903 -0.0000 -0.9569
vn -0.4714 -0.0000 -0.8819
vn -0.6344 -0.0000 -0.7730
vn -0.7730 -0.0000 -0.6344
vn -0.8819 -0.0000 -0.4714
vn -0.9569 -0.0000 -0.2903
vn -0.9952 -0.0000 -0.0980
vn -0.9952 -0.0000 0.0980
vn -0.9569 -0.0000 0.2903
vn -0.8819 -0.0000 0.4714
vn -0.7730 -0.0000 0.6344
vn -0.6344 -0.0000 0.7730
vn -0.4714 -0.0000 0.8819
vn -0.2903 -0.0000 0.9569
vn -0.0980 -0.0000 0.9952
vn 0.0980 -0.0000 0.9952
vn 0.2903 -0.0000 0.9569
vn 0.4714 -0.0000 0.8819
vn 0.6344 -0.0000 0.7730
vn 0.7730 -0.0000 0.6344
vn 0.8819 -0.0000 0.4714
vn 0.9569 -0.0000 0.2903
vn 0.9952 -0.0000 0.0980
vt 0.004804 0.597545
vt 0.201227 0.009607
vt 0.495196 0.402455
vt 1.000000 0.500000
vt 0.750000 1.000000
vt 0.500000 0.500000
vt 0.504804 0.597545
vt 0.519030 0.691342
vt 0.542133 0.777785
vt 0.573223 0.853553
vt 0.611107 0.915735
vt 0.654329 0.961940
vt 0.701227 0.990393
vt 0.798773 0.990393
vt 0.845671 0.961940
vt 0.888893 0.915735
vt 0.926777 0.853553
vt 0.957867 0.777785
vt 0.980970 0.691342
vt 0.995196 0.597545
vt 0.995196 0.402455
vt 0.980970 0.308658
vt 0.957867 0.222215
vt 0.926777 0.146447
vt 0.888893 0.084265
vt 0.845671 0.038060
vt 0.798773 0.009607
vt 0.750000 0.000000
vt 0.701227 0.009607
vt 0.654329 0.038060
vt 0.611107 0.084265
vt 0.573223 0.146447
vt 0.542133 0.222215
vt 0.519030 0.308658
vt 0.504804 0.402455
vt 0.495196 0.597545
vt 0.480970 0.691342
vt 0.457867 0.777785
vt 0.426777 0.853553
vt 0.388893 0.915735
vt 0.345671 0.961940
vt 0.298773 0.990393
vt 0.250000 1.000000
vt 0.201227 0.990393
vt 0.154329 0.961940
vt 0.111107 0.915735
vt 0.073223 0.853553
vt 0.042133 0.777785
vt 0.019030 0.691342
vt 0.000000 0.500000
vt 0.004804 0.402455
vt 0.019030 0.308658
vt 0.042133 0.222215
vt 0.073223 0.146447
vt 0.111107 0.084265
vt 0.154329 0.038060
vt 0.250000 0.000000
vt 0.298773 0.009607
vt 0.345671 0.038060
vt 0.388893 0.084265
vt 0.426777 0.146447
vt 0.457867 0.222215
vt 0.480970 0.308658
s 0
f 31/1/1 47/2/1 63/3/1
f 34/4/2 18/5/2 2/6/2
f 2/6/3 3/7/3 1/6/3
f 4/7/4 5/8/4 3/7/4
f 6/8/5 7/9/5 5/8/5
f 8/9/6 9/10/6 7/9/6
f 10/10/7 11/11/7 9/10/7
f 12/11/8 13/12/8 11/11/8
f 14/12/9 15/13/9 13/12/9
f 16/13/10 17/5/10 15/13/10
f 18/5/11 19/14/11 17/5/11
f 20/14/12 21/15/12 19/14/12
f 22/15/13 23/16/13 21/15/13
f 24/16/14 25/17/14 23/16/14
f 26/17/15 27/18/15 25/17/15
f 28/18/16 29/19/16 27/18/16
f 30/19/17 31/20/17 29/19/17
f 32/20/18 33/4/18 31/20/18
f 34/4/19 35/21/19 33/4/19
f 36/21/20 37/22/20 35/21/20
f 38/22/21 39/23/21 37/22/21
f 40/23/22 41/24/22 39/23/22
f 42/24/23 43/25/23 41/24/23
f 44/25/24 45/26/24 43/25/24
f 46/26/25 47/27/25 45/26/25
f 48/27/26 49/28/26 47/27/26
f 50/28/27 51/29/27 49/28/27
f 52/29/28 53/30/28 51/29/28
f 54/30/29 55/31/29 53/30/29
f 56/31/30 57/32/30 55/31/30
f 58/32/31 59/33/31 57/32/31
f 60/33/32 61/34/32 59/33/32
f 62/34/33 63/35/33 61/34/33
f 64/35/34 1/6/34 63/35/34
f 63/3/1 1/6/1 3/36/1
f 3/36/1 5/37/1 7/38/1
f 7/38/1 9/39/1 11/40/1
f 11/40/1 13/41/1 15/42/1
f 15/42/1 17/43/1 19/44/1
f 19/44/1 21/45/1 23/46/1
f 23/46/1 25/47/1 27/48/1
f 27/48/1 29/49/1 31/1/1
f 31/1/1 33/50/1 35/51/1
f 35/51/1 37/52/1 39/53/1
f 39/53/1 41/54/1 43/55/1
f 43/55/1 45/56/1 47/2/1
f 47/2/1 49/57/1 51/58/1
f 51/58/1 53/59/1 55/60/1
f 55/60/1 57/61/1 59/62/1
f 59/62/1 61/63/1 63/3/1
f 63/3/1 3/36/1 7/38/1
f 7/38/1 11/40/1 15/42/1
f 15/42/1 19/44/1 23/46/1
f 23/46/1 27/48/1 31/1/1
f 31/1/1 35/51/1 39/53/1
f 39/53/1 43/55/1 47/2/1
f 47/2/1 51/58/1 55/60/1
f 55/60/1 59/62/1 63/3/1
f 63/3/1 7/38/1 15/42/1
f 15/42/1 23/46/1 31/1/1
f 31/1/1 39/53/1 47/2/1
f 47/2/1 55/60/1 63/3/1
f 63/3/1 15/42/1 31/1/1
f 2/6/2 64/35/2 62/34/2
f 62/34/2 60/33/2 58/32/2
f 58/32/2 56/31/2 54/30/2
f 54/30/2 52/29/2 50/28/2
f 50/28/2 48/27/2 46/26/2
f 46/26/2 44/25/2 42/24/2
f 42/24/2 40/23/2 38/22/2
f 38/22/2 36/21/2 34/4/2
f 34/4/2 32/20/2 30/19/2
f 30/19/2 28/18/2 26/17/2
f 26/17/2 24/16/2 22/15/2
f 22/15/2 20/14/2 18/5/2
f 18/5/2 16/13/2 14/12/2
f 14/12/2 12/11/2 10/10/2
f 10/10/2 8/9/2 6/8/2
f 6/8/2 4/7/2 2/6/2
f 2/6/2 62/34/2 58/32/2
f 58/32/2 54/30/2 50/28/2
f 50/28/2 46/26/2 42/24/2
f 42/24/2 38/22/2 34/4/2
f 34/4/2 30/19/2 26/17/2
f 26/17/2 22/15/2 18/5/2
f 18/5/2 14/12/2 10/10/2
f 10/10/2 6/8/2 2/6/2
f 2/6/2 58/32/2 50/28/2
f 50/28/2 42/24/2 34/4/2
f 34/4/2 26/17/2 18/5/2
f 18/5/2 10/10/2 2/6/2
f 2/6/2 50/28/2 34/4/2
f 2/6/3 4/7/3 3/7/3
f 4/7/4 6/8/4 5/8/4
f 6/8/5 8/9/5 7/9/5
f 8/9/6 10/10/6 9/10/6
f 10/10/7 12/11/7 11/11/7
f 12/11/8 14/12/8 13/12/8
f 14/12/9 16/13/9 15/13/9
f 16/13/10 18/5/10 17/5/10
f 18/5/11 20/14/11 19/14/11
f 20/14/12 22/15/12 21/15/12
f 22/15/13 24/16/13 23/16/13
f 24/16/14 26/17/14 25/17/14
f 26/17/15 28/18/15 27/18/15
f 28/18/16 30/19/16 29/19/16
f 30/19/17 32/20/17 31/20/17
f 32/20/18 34/4/18 33/4/18
f 34/4/19 36/21/19 35/21/19
f 36/21/20 38/22/20 37/22/20
f 38/22/21 40/23/21 39/23/21
f 40/23/22 42/24/22 41/24/22
f 42/24/23 44/25/23 43/25/23
f 44/25/24 46/26/24 45/26/24
f 46/26/25 48/27/25 47/27/25
f 48/27/26 50/28/26 49/28/26
f 50/28/27 52/29/27 51/29/27
f 52/29/28 54/30/28 53/30/28
f 54/30/29 56/31/29 55/31/29
f 56/31/30 58/32/30 57/32/30
f 58/32/31 60/33/31 59/33/31
f 60/33/32 62/34/32 61/34/32
f 62/34/33 64/35/33 63/35/33
f 64/35/34 2/6/34 1/6/34
