# Blender 5.2.0 LTS
# www.blender.org
o TokenDisc
v 0.500000 1.000000 0.000000
v 0.500000 -1.000000 0.000000
v 0.490393 1.000000 -0.097545
v 0.490393 -1.000000 -0.097545
v 0.461940 1.000000 -0.191342
v 0.461940 -1.000000 -0.191342
v 0.415735 1.000000 -0.277785
v 0.415735 -1.000000 -0.277785
v 0.353553 1.000000 -0.353553
v 0.353553 -1.000000 -0.353553
v 0.277785 1.000000 -0.415735
v 0.277785 -1.000000 -0.415735
v 0.191342 1.000000 -0.461940
v 0.191342 -1.000000 -0.461940
v 0.097545 1.000000 -0.490393
v 0.097545 -1.000000 -0.490393
v 0.000000 1.000000 -0.500000
v 0.000000 -1.000000 -0.500000
v -0.097545 1.000000 -0.490393
v -0.097545 -1.000000 -0.490393
v -0.191342 1.000000 -0.461940
v -0.191342 -1.000000 -0.461940
v -0.277785 1.000000 -0.415735
v -0.277785 -1.000000 -0.415735
v -0.353553 1.000000 -0.353553
v -0.353553 -1.000000 -0.353553
v -0.415735 1.000000 -0.277785
v -0.415735 -1.000000 -0.277785
v -0.461940 1.000000 -0.191342
v -0.461940 -1.000000 -0.191342
v -0.490393 1.000000 -0.097545
v -0.490393 -1.000000 -0.097545
v -0.500000 1.000000 -0.000000
v -0.500000 -1.000000 -0.000000
v -0.490393 1.000000 0.097545
v -0.490393 -1.000000 0.097545
v -0.461940 1.000000 0.191342
v -0.461940 -1.000000 0.191342
v -0.415735 1.000000 0.277785
v -0.415735 -1.000000 0.277785
v -0.353553 1.000000 0.353553
v -0.353553 -1.000000 0.353553
v -0.277785 1.000000 0.415735
v -0.277785 -1.000000 0.415735
v -0.191342 1.000000 0.461940
v -0.191342 -1.000000 0.461940
v -0.097545 1.000000 0.490393
v -0.097545 -1.000000 0.490393
v -0.000000 1.000000 0.500000
v -0.000000 -1.000000 0.500000
v 0.097545 1.000000 0.490393
v 0.097545 -1.000000 0.490393
v 0.191342 1.000000 0.461940
v 0.191342 -1.000000 0.461940
v 0.277785 1.000000 0.415735
v 0.277785 -1.000000 0.415735
v 0.353553 1.000000 0.353553
v 0.353553 -1.000000 0.353553
v 0.415735 1.000000 0.277785
v 0.415735 -1.000000 0.277785
v 0.461940 1.000000 0.191342
v 0.461940 -1.000000 0.191342
v 0.490393 1.000000 0.097545
v 0.490393 -1.000000 0.097545
vn -0.0000 1.0000 -0.0000
vn -0.0000 -1.0000 -0.0000
vn 0.9952 -0.0000 -0.0980
vn 0.9569 -0.0000 -0.2903
vn 0.8819 -0.0000 -0.4714
vn 0.7730 -0.0000 -0.6344
vn 0.6344 -0.0000 -0.7730
vn 0.4714 -0.0000 -0.8819
vn 0.2903 -0.0000 -0.9569
vn 0.0980 -0.0000 -0.9952
vn -0.0980 -0.0000 -0.9952
vn -0.2903 -0.0000 -0.9569
vn -0.4714 -0.0000 -0.8819
vn -0.6344 -0.0000 -0.7730
vn -0.7730 -0.0000 -0.6344
vn -0.8819 -0.0000 -0.4714
vn -0.9569 -0.0000 -0.2903
vn -0.9952 -0.0000 -0.0980
vn -0.9952 -0.0000 0.0980
vn -0.9569 -0.0000 0.2903
vn -0.8819 -0.0000 0.4714
vn -0.7730 -0.0000 0.6344
vn -0.6344 -0.0000 0.7730
vn -0.4714 -0.0000 0.8819
vn -0.2903 -0.0000 0.9569
vn -0.0980 -0.0000 0.9952
vn 0.0980 -0.0000 0.9952
vn 0.2903 -0.0000 0.9569
vn 0.4714 -0.0000 0.8819
vn 0.6344 -0.0000 0.7730
vn 0.7730 -0.0000 0.6344
vn 0.8819 -0.0000 0.4714
vn 0.9569 -0.0000 0.2903
vn 0.9952 -0.0000 0.0980
vt 0.009607 0.402455
vt 0.402455 0.990393
vt 0.990393 0.597545
vt 0.000000 0.500000
vt 0.500000 0.000000
vt 1.000000 0.500000
vt 0.990393 0.402455
vt 0.961940 0.308658
vt 0.915735 0.222215
vt 0.853553 0.146447
vt 0.777785 0.084265
vt 0.691342 0.038060
vt 0.597545 0.009607
vt 0.402455 0.009607
vt 0.308658 0.038060
vt 0.222215 0.084265
vt 0.146447 0.146447
vt 0.084265 0.222215
vt 0.038060 0.308658
vt 0.009607 0.597545
vt 0.038060 0.691342
vt 0.084265 0.777785
vt 0.146447 0.853553
vt 0.222215 0.915735
vt 0.308658 0.961940
vt 0.500000 1.000000
vt 0.597545 0.990393
vt 0.691342 0.961940
vt 0.777785 0.915735
vt 0.853553 0.853553
vt 0.915735 0.777785
vt 0.961940 0.691342
s 0
f 31/1/1 47/2/1 63/3/1
f 34/4/2 18/5/2 2/6/2
f 2/6/3 3/7/3 1/6/3
f 4/7/4 5/8/4 3/7/4
f 6/8/5 7/9/5 5/8/5
f 8/9/6 9/10/6 7/9/6
f 10/10/7 11/11/7 9/10/7
f 12/11/8 13/12/8 11/11/8
f 14/12/9 15/13/9 13/12/9
f 16/13/10 17/5/10 15/13/10
f 18/5/11 19/14/11 17/5/11
f 20/14/12 21/15/12 19/14/12
f 22/15/13 23/16/13 21/15/13
f 24/16/14 25/17/14 23/16/14
f 26/17/15 27/18/15 25/17/15
f 28/18/16 29/19/16 27/18/16
f 30/19/17 31/1/17 29/19/17
f 32/1/18 33/4/18 31/1/18
f 34/4/19 35/20/19 33/4/19
f 36/20/20 37/21/20 35/20/20
f 38/21/21 39/22/21 37/21/21
f 40/22/22 41/23/22 39/22/22
f 42/23/23 43/24/23 41/23/23
f 44/24/24 45/25/24 43/24/24
f 46/25/25 47/2/25 45/25/25
f 48/2/26 49/26/26 47/2/26
f 50/26/27 51/27/27 49/26/27
f 52/27/28 53/28/28 51/27/28
f 54/28/29 55/29/29 53/28/29
f 56/29/30 57/30/30 55/29/30
f 58/30/31 59/31/31 57/30/31
f 60/31/32 61/32/32 59/31/32
f 62/32/33 63/3/33 61/32/33
f 64/3/34 1/6/34 63/3/34
f 63/3/1 1/6/1 3/7/1
f 3/7/1 5/8/1 7/9/1
f 7/9/1 9/10/1 11/11/1
f 11/11/1 13/12/1 15/13/1
f 15/13/1 17/5/1 19/14/1
f 19/14/1 21/15/1 23/16/1
f 23/16/1 25/17/1 27/18/1
f 27/18/1 29/19/1 31/1/1
f 31/1/1 33/4/1 35/20/1
f 35/20/1 37/21/1 39/22/1
f 39/22/1 41/23/1 43/24/1
f 43/24/1 45/25/1 47/2/1
f 47/2/1 49/26/1 51/27/1
f 51/27/1 53/28/1 55/29/1
f 55/29/1 57/30/1 59/31/1
f 59/31/1 61/32/1 63/3/1
f 63/3/1 3/7/1 7/9/1
f 7/9/1 11/11/1 15/13/1
f 15/13/1 19/14/1 23/16/1
f 23/16/1 27/18/1 31/1/1
f 31/1/1 35/20/1 39/22/1
f 39/22/1 43/24/1 47/2/1
f 47/2/1 51/27/1 55/29/1
f 55/29/1 59/31/1 63/3/1
f 63/3/1 7/9/1 15/13/1
f 15/13/1 23/16/1 31/1/1
f 31/1/1 39/22/1 47/2/1
f 47/2/1 55/29/1 63/3/1
f 63/3/1 15/13/1 31/1/1
f 2/6/2 64/3/2 62/32/2
f 62/32/2 60/31/2 58/30/2
f 58/30/2 56/29/2 54/28/2
f 54/28/2 52/27/2 50/26/2
f 50/26/2 48/2/2 46/25/2
f 46/25/2 44/24/2 42/23/2
f 42/23/2 40/22/2 38/21/2
f 38/21/2 36/20/2 34/4/2
f 34/4/2 32/1/2 30/19/2
f 30/19/2 28/18/2 26/17/2
f 26/17/2 24/16/2 22/15/2
f 22/15/2 20/14/2 18/5/2
f 18/5/2 16/13/2 14/12/2
f 14/12/2 12/11/2 10/10/2
f 10/10/2 8/9/2 6/8/2
f 6/8/2 4/7/2 2/6/2
f 2/6/2 62/32/2 58/30/2
f 58/30/2 54/28/2 50/26/2
f 50/26/2 46/25/2 42/23/2
f 42/23/2 38/21/2 34/4/2
f 34/4/2 30/19/2 26/17/2
f 26/17/2 22/15/2 18/5/2
f 18/5/2 14/12/2 10/10/2
f 10/10/2 6/8/2 2/6/2
f 2/6/2 58/30/2 50/26/2
f 50/26/2 42/23/2 34/4/2
f 34/4/2 26/17/2 18/5/2
f 18/5/2 10/10/2 2/6/2
f 2/6/2 50/26/2 34/4/2
f 2/6/3 4/7/3 3/7/3
f 4/7/4 6/8/4 5/8/4
f 6/8/5 8/9/5 7/9/5
f 8/9/6 10/10/6 9/10/6
f 10/10/7 12/11/7 11/11/7
f 12/11/8 14/12/8 13/12/8
f 14/12/9 16/13/9 15/13/9
f 16/13/10 18/5/10 17/5/10
f 18/5/11 20/14/11 19/14/11
f 20/14/12 22/15/12 21/15/12
f 22/15/13 24/16/13 23/16/13
f 24/16/14 26/17/14 25/17/14
f 26/17/15 28/18/15 27/18/15
f 28/18/16 30/19/16 29/19/16
f 30/19/17 32/1/17 31/1/17
f 32/1/18 34/4/18 33/4/18
f 34/4/19 36/20/19 35/20/19
f 36/20/20 38/21/20 37/21/20
f 38/21/21 40/22/21 39/22/21
f 40/22/22 42/23/22 41/23/22
f 42/23/23 44/24/23 43/24/23
f 44/24/24 46/25/24 45/25/24
f 46/25/25 48/2/25 47/2/25
f 48/2/26 50/26/26 49/26/26
f 50/26/27 52/27/27 51/27/27
f 52/27/28 54/28/28 53/28/28
f 54/28/29 56/29/29 55/29/29
f 56/29/30 58/30/30 57/30/30
f 58/30/31 60/31/31 59/31/31
f 60/31/32 62/32/32 61/32/32
f 62/32/33 64/3/33 63/3/33
f 64/3/34 2/6/34 1/6/34
