# Blender 5.2.0 LTS
# www.blender.org
o TrackerTruePlate
v -2.765000 0.035000 1.120000
v 2.765000 0.035000 1.120000
v 2.765000 0.035000 -1.120000
v -2.765000 0.035000 -1.120000
v -2.765000 -0.035000 1.120000
v 2.765000 -0.035000 1.120000
v 2.765000 -0.035000 -1.120000
v -2.765000 -0.035000 -1.120000
vn -0.0000 1.0000 -0.0000
vn -0.0000 -1.0000 -0.0000
vn -0.0000 -0.0000 1.0000
vn 1.0000 -0.0000 -0.0000
vn -0.0000 -0.0000 -1.0000
vn -1.0000 -0.0000 -0.0000
vt 1.000000 0.000000
vt 0.000000 1.000000
vt 0.000000 0.000000
vt 1.000000 1.000000
s 0
f 2/1/1 4/2/1 1/3/1
f 7/4/2 5/3/2 8/2/2
f 5/3/3 2/4/3 1/2/3
f 6/3/4 3/4/4 2/2/4
f 7/1/5 4/2/5 3/4/5
f 8/1/6 1/2/6 4/4/6
f 2/1/1 3/4/1 4/2/1
f 7/4/2 6/1/2 5/3/2
f 5/3/3 6/1/3 2/4/3
f 6/3/4 7/1/4 3/4/4
f 7/1/5 8/3/5 4/2/5
f 8/1/6 5/3/6 1/2/6
