# Blender 5.2.0 LTS
# www.blender.org
o WallAtlasPlate
v -0.505181 0.035000 0.262500
v 0.505181 0.035000 0.262500
v 0.505181 0.035000 -0.262500
v -0.505181 0.035000 -0.262500
v -0.505181 -0.035000 0.262500
v 0.505181 -0.035000 0.262500
v 0.505181 -0.035000 -0.262500
v -0.505181 -0.035000 -0.262500
v -0.505181 0.035000 -0.262500
v -0.505181 0.035000 -0.262500
v -0.505181 0.035000 0.262500
v -0.505181 0.035000 0.262500
v 0.505181 0.035000 0.262500
v 0.505181 0.035000 0.262500
v 0.505181 0.035000 -0.262500
v 0.505181 0.035000 -0.262500
v -0.505181 -0.035000 0.262500
v -0.505181 -0.035000 0.262500
v -0.505181 -0.035000 -0.262500
v -0.505181 -0.035000 -0.262500
v 0.505181 -0.035000 -0.262500
v 0.505181 -0.035000 -0.262500
v 0.505181 -0.035000 0.262500
v 0.505181 -0.035000 0.262500
vn -0.0000 1.0000 -0.0000
vn -0.0000 -1.0000 -0.0000
vn -0.0000 -0.0000 1.0000
vn 1.0000 -0.0000 -0.0000
vn -0.0000 -0.0000 -1.0000
vn -1.0000 -0.0000 -0.0000
vt 0.500000 0.000000
vt -0.000000 1.000000
vt -0.000000 0.000000
vt 0.500000 1.000000
vt 1.000000 0.000000
vt 1.000000 1.000000
vt -0.000000 0.000000
vt -0.000000 1.000000
vt 0.000000 0.000000
vt 0.000000 1.000000
s 0
f 13/1/1 9/2/1 11/3/1
f 21/4/2 17/5/2 19/6/2
f 18/7/3 14/6/3 12/8/3
f 6/9/4 16/6/4 2/10/4
f 7/5/5 10/8/5 3/6/5
f 8/5/6 1/10/6 4/6/6
f 13/1/1 15/4/1 9/2/1
f 21/4/2 23/1/2 17/5/2
f 18/7/3 24/5/3 14/6/3
f 6/9/4 22/5/4 16/6/4
f 7/5/5 20/7/5 10/8/5
f 8/5/6 5/9/6 1/10/6
