# Blender 5.2.0 LTS
# www.blender.org
o WallTruePlate
v -0.404145 0.028000 0.210000
v 0.404145 0.028000 0.210000
v 0.404145 0.028000 -0.210000
v -0.404145 0.028000 -0.210000
v -0.404145 -0.028000 0.210000
v 0.404145 -0.028000 0.210000
v 0.404145 -0.028000 -0.210000
v -0.404145 -0.028000 -0.210000
vn -0.0000 1.0000 -0.0000
vn -0.0000 -1.0000 -0.0000
vn -0.0000 -0.0000 1.0000
vn 1.0000 -0.0000 -0.0000
vn -0.0000 -0.0000 -1.0000
vn -1.0000 -0.0000 -0.0000
vt 1.000000 0.000000
vt -0.000000 1.000000
vt -0.000000 0.000000
vt 1.000000 1.000000
s 0
f 2/1/1 4/2/1 1/3/1
f 7/4/2 5/3/2 8/2/2
f 5/3/3 2/1/3 1/3/3
f 6/1/4 3/4/4 2/1/4
f 7/4/5 4/2/5 3/4/5
f 8/2/6 1/3/6 4/2/6
f 2/1/1 3/4/1 4/2/1
f 7/4/2 6/1/2 5/3/2
f 5/3/3 6/1/3 2/1/3
f 6/1/4 7/4/4 3/4/4
f 7/4/5 8/2/5 4/2/5
f 8/2/6 5/3/6 1/3/6
